<?xml version="1.0" encoding="utf-8"?>
<!-- Generator: Adobe Illustrator 24.1.0, SVG Export Plug-In . SVG Version: 6.00 Build 0)  -->
<svg version="1.1" id="h_x5F_birthflower_1_" xmlns="http://www.w3.org/2000/svg" xmlns:xlink="http://www.w3.org/1999/xlink"
	 x="0px" y="0px" width="793px" height="151.9px" viewBox="0 0 793 151.9" style="enable-background:new 0 0 793 151.9;"
	 xml:space="preserve">
<style type="text/css">
	.st0{fill:#EAB9BD;}
	.st1{fill:#595757;}
</style>
<path class="st0" d="M421.9,30c0-3.4,1.4-6.5,3.6-8.9c1.3-1.3,2.9-2.7,4.6-3.9c-2.5-3.7-3.9-7.1-3.9-10.2c0-3.8,3.3-7,7.2-7
	c3.9,0,7.2,3.2,7.2,7c0,2.3-1.1,4.3-3,6.1c-1.7,1.6-3.6,3-5.5,4.4c1.7,2.5,3.9,4.9,6.4,7c0.3,0.2,0.4,0.4,0.4,0.6
	c0,0.4-0.3,0.8-0.8,0.8c-0.3,0-0.5-0.1-0.7-0.4c-2.5-2.4-4.6-4.9-6.4-7.3c-3.9,3-7.5,6.3-7.5,11.6c0,6.5,5,11.4,11.6,11.4
	c4.5,0,8.5-2.5,10.2-5.8h-0.7c-3.2,0-4.5-1.8-4.5-3.8c0-2,1.8-3.8,3.9-3.8c2.1,0,3.9,1.6,3.9,3.8c0,0.8-0.1,1.5-0.3,2.2
	c2.3-0.4,3.9-2.1,3.9-4.6c0-0.4,0.3-0.8,0.8-0.8c0.5,0,0.8,0.4,0.8,0.9c-0.1,3.4-2.6,5.9-5.9,6.1c-1.8,4.1-6.5,7.3-12,7.3
	C427.7,43,421.9,37.3,421.9,30z M431.3,16.5c4.6-3.4,7.7-5.8,7.7-9.5c0-3-2.6-5.5-5.7-5.5c-3.1,0-5.6,2.5-5.6,5.5
	C427.8,9.7,429.1,13.1,431.3,16.5z M445.9,34.2c0.3-0.7,0.4-1.5,0.4-2.3c0-1.5-1.1-2.3-2.4-2.3c-1.4,0-2.4,1-2.4,2.3
	c0,1.3,1,2.3,3,2.3H445.9z"/>
<path class="st0" d="M241.4,79.1c-3-1.4-6-2.7-9.1-4.1c-1.8-0.8-3.6-1.4-5.4-2.1c-0.3-0.1-0.7-0.2-1-0.3c-0.1,0.1-0.2,0.2-0.2,0.4
	c0.4,0.3,0.7,0.6,1.1,0.8c2.1,0.8,4.1,1.6,6.2,2.4c2.3,0.9,4.6,1.9,6.9,2.9c0.7,0.3,1.2,0.8,1.9,1.2c0.4,0.3,0.9,0.7,1.3,1
	c0.2,0.1,0.5,0,0.8,0c-0.1-0.3-0.1-0.6-0.3-0.8C242.8,80,242.1,79.4,241.4,79.1z"/>
<path class="st0" d="M220.7,120.9c-0.7-0.6-1.4-1.3-2.2-1.7c-2.3-1.1-4.8-1.3-7.3-1.5c-1.5-0.1-2.4-0.1-3-1.9
	c-0.5-1.5-1.8-2.7-2.7-4.1c-0.3-0.4-1-0.8-0.4-1.5c0.5,0.2,1.2,0.8,1.2-0.4c0,0,0.1-0.1,0.1-0.1c0.4-0.7,0.3-1.1-0.5-1.4
	c-1.3-0.4-2.3-1.1-2.7-2.4c0-0.1-0.2-0.1-0.3-0.2c-0.3,0.4-0.6,0.7-0.9,1.1c-0.1,0-0.2,0-0.2,0c-0.1-0.6-0.2-1.2-0.4-1.9
	c-0.7,0.8-0.7,1.4-0.2,2.4c0.2,0.3,0.4,0.7,0.4,1c-0.2,1.5,0.3,3.1-0.8,4.5c0.7,0,1.1-0.3,1.2-0.9c0.2-1.2,0.3-2.4,0.5-3.6
	c0-0.2,0.2-0.5,0.3-0.8c1.1,0.9,1.1,1.4,0.2,2.1c1.1,0.8,0.9,1.8,0.8,2.9c-0.1,1-0.2,2-0.3,3c-0.1,1.5,0,3-0.4,4.4
	c-0.1,0.2,0.1,0.7,0.3,0.7c0.4,0.1,0.7-0.1,0.7-0.5c0-0.5,0.1-1,0.1-1.5c0.1-1.7,0.1-3.4,0.2-5.1c0-0.4,0.2-0.8,0.3-1.4
	c1.4,1.5,2.3,3,3,4.7c0.7,1.6,1.5,3.2,2.6,4.8c0.4-1.3-0.9-1.9-0.8-2.9c3.8,0.4,7.8,0.1,10.9,3.2C220.8,121.4,220.9,121,220.7,120.9
	z"/>
<path class="st0" d="M213.6,123.7c0.1,0.2,0,0.4,0.2,0.5c0.3,0.2,0.6,0.5,1,0.6c0.5,0.1,0.7,0.3,0.6,0.9c0,0.1,0.5,0.5,0.6,0.5
	c0.8-0.6,1.3-0.3,1.7,0.6c0.2,0,0.5,0,0.8,0c-0.1-0.3-0.1-0.7-0.3-0.9c-1.1-1.2-2.7-1.6-4.2-2.2C214,123.5,213.8,123.6,213.6,123.7z
	"/>
<path class="st0" d="M230.9,72c1.4,0.6,2.8,1.1,4.2,1.6c0.3,0.1,0.6,0,1,0c-0.1-0.4,0-0.6-0.1-0.8c-0.1-0.1-0.3-0.2-0.5-0.3
	c-0.5-0.1-1-0.1-1.4-0.2c-0.9-0.3-1.8-0.8-2.7-1.1c-0.2-0.1-0.5,0.1-0.8,0.1C230.6,71.6,230.7,71.9,230.9,72z"/>
<path class="st0" d="M220.3,73.8c-0.1-0.1-0.4,0-0.6,0c0,0.2,0,0.4,0.1,0.6c0.2,0.2,0.5,0.4,0.7,0.6c0,0,0,0.1,0,0.1
	c0.5,0.3,1,0.5,1.5,0.8c0.1,0.1,0.3-0.1,0.5-0.1c0-0.2,0-0.4-0.1-0.5C221.7,74.8,221.1,74.3,220.3,73.8z"/>
<path class="st0" d="M199.2,100c3.4,0.9,6.5,2.4,9.4,4.3c0.2,0.1,0.5,0.2,1,0.3c-0.1-0.5-0.1-0.8-0.3-0.9c-0.3-0.3-0.6-0.5-1-0.7
	c-1.3-0.7-2.5-1.3-3.8-2c-1.9-1-3.9-1.7-6-2.1c-0.3,0-0.6,0.1-0.8,0.2c-0.2,0.1-0.2,0.4-0.3,0.6c0.2,0.1,0.4,0.2,0.6,0.2
	C198.4,100,198.8,99.9,199.2,100z"/>
<path class="st0" d="M203.2,103.8c1.4,0.7,2.7,1.4,4,2.1c0.2,0.1,0.5,0.1,0.8,0.2c0-0.3,0-0.6-0.2-0.9c-0.1-0.2-0.3-0.3-0.5-0.4
	c-2.1-1-4.3-2-6.4-2.9c-0.2-0.1-0.4,0-0.7,0c0.1,0.2,0.1,0.5,0.2,0.7C201.5,103.1,202.4,103.4,203.2,103.8z"/>
<path class="st0" d="M216.8,76.4c0.2,0.1,0.4,0,0.7,0c-0.2-0.4-0.4-0.7-0.6-1.1C216.2,75.8,216.4,76.1,216.8,76.4z"/>
<path class="st0" d="M218.1,71.5c0.4-1.1,0.8-2.2,1.1-3.3c0-0.1,0-0.4-0.1-0.5c-0.1-0.1-0.4-0.1-0.5,0c-0.2,0.2-0.5,0.4-0.6,0.7
	c-0.3,1-0.6,2-0.8,3c0,0.2,0.2,0.4,0.3,0.7C217.8,71.8,218,71.7,218.1,71.5z"/>
<path class="st0" d="M213.8,77.2c-0.7,0.5-0.7,0.7,0.1,1.2c0.4-0.6,1.2-1.1,0.9-2.2C214.4,76.6,214.1,76.9,213.8,77.2z"/>
<path class="st0" d="M190.7,110c-0.3,0.2-0.8,0.3-1,0.6c-0.3,0.6-0.6,1.3-0.7,1.9c-0.6,2.4-1.1,4.8-0.9,7.3c0.1,1.7,0.5,3.4,1,5
	c0.3,0.9,1.1,1.8,1.8,2.5c0.2,0.3,0.9,0.2,1.4,0.1c0.2,0,0.3-0.6,0.4-1c-1.4,0.5-1.7,0.3-2.4-0.8c-0.9-1.4-1.2-3.1-1.3-4.7
	c-0.4-3.4,0.3-6.7,1.7-9.9C190.8,110.8,190.7,110.3,190.7,110z"/>
<path class="st0" d="M215.1,72.9c0.4-0.6,0.8-1.3,1.1-1.9c0-0.1-0.2-0.3-0.4-0.6c-0.5,0.8-0.8,1.5-1.2,2.1c0,0.1,0,0.3,0.1,0.4
	C214.8,73,215,73,215.1,72.9z"/>
<path class="st0" d="M199.4,107.8c0.3-0.7,0.6-1.3,1-2c-0.1-0.1-0.2-0.1-0.3-0.2c-0.7,0.2-1,0.8-1.3,1.4c-0.1,0.2,0.2,0.5,0.3,0.8
	C199.2,107.8,199.3,107.8,199.4,107.8z"/>
<path class="st0" d="M202.9,90.2c0-0.1-0.3-0.3-0.5-0.4c-0.3,0-0.5,0-0.8,0.1c-1.6,0.4-3.2,0.9-4.8,1.4c-0.8,0.2-1.5,0.5-2.3,0.8
	c0,0.4-0.2,0.7-0.1,0.8c0.1,0.2,0.5,0.2,0.7,0.2c0.7-0.2,1.3-0.6,1.9-0.8c1.8-0.5,3.7-1,5.5-1.5C202.7,90.7,202.9,90.4,202.9,90.2z"
	/>
<path class="st0" d="M197.2,101.8c-0.2,0-0.5,0.1-0.7,0.1c-0.2,0.1-0.4,0.2-0.6,0.3c-0.2,0.1-0.3,0.3-0.5,0.4
	c0.2,0.2,0.3,0.6,0.5,0.6c0.3,0,0.7-0.2,1-0.3c0-0.1,0-0.1,0-0.2c0.1-0.1,0.2-0.2,0.2-0.2C197.2,102.3,197.2,102,197.2,101.8z"/>
<path class="st0" d="M184.2,116.7c0.5-2.7,1-5.4,1.6-8.1c-1,0.5-1.3,1.4-1.5,2.4c-0.4,1.7-0.7,3.3-0.4,5
	C183.9,116.3,184.1,116.5,184.2,116.7z"/>
<path class="st0" d="M184.5,108c-1.2,1.3-1.7,2.8-0.9,3.4C183.8,110.2,185,109.4,184.5,108z"/>
<path class="st0" d="M186.5,80.7c0.2,0.1,0.4,0.1,0.7,0.1c0-0.1,0-0.2,0-0.2c-1.3-1-2.6-1.9-4-2.9c-0.1-0.1-0.3,0-0.5,0
	c0,0.2,0,0.4,0.1,0.5C184,79,185.2,79.8,186.5,80.7z"/>
<path class="st0" d="M183.4,82.6c0.6,0.4,1.4,0.3,1.9-0.4c-0.6-0.2-1.1-0.2-1.6-0.5c-0.5-0.3-0.9-0.7-1.3-1
	C182.1,81.4,182.4,82,183.4,82.6z"/>
<path class="st0" d="M189.5,55.3c0.5-0.6,1-1.2,1.5-1.8c0.2-0.2,0.4-0.4,0.5-0.7c0-0.2-0.1-0.5-0.2-0.6c-0.1-0.1-0.4,0-0.5,0.1
	c-0.5,0.5-1,1-1.5,1.5c-0.2,0.3-0.5,0.6-0.6,1c-0.1,0.2,0.1,0.5,0.1,0.7C189,55.4,189.4,55.4,189.5,55.3z"/>
<path class="st0" d="M186.3,50.7c0-0.5,0-0.9,0.1-1.4c-0.1,0-0.3-0.1-0.4-0.1c-0.2,0.4-0.5,0.8-0.5,1.2c0,0.2,0,0.5,0,0.7
	c0,1.7,0.1,3.4,0.1,5c0,0.3,0,0.6,0,1h0.9c-0.1-2-0.2-4-0.3-6C186.3,51,186.3,50.9,186.3,50.7z"/>
<path class="st0" d="M586,51.2H239.1c-1.7-0.6-3.5-1-5.3-1.3c-2.4-0.4-4.8-0.6-7.2-1.1c-2.1-0.4-4.2-1-6.3-1.4
	c-0.3-0.1-0.7,0.1-0.9,0.2c-0.6,0.6-1.2,1.2-1.7,1.8c-0.5,0.6-1,1.2-1.6,1.8h-14.5c-0.7-1.9-1.9-3.6-3.3-5.2
	c-1.6-1.8-3.5-3.3-5.6-4.6c-0.5-0.3-1.3-0.5-1.5-1.3c0.1-0.1,0.2-0.1,0.3-0.2c0.9-0.8,1.8-1.6,2.7-2.4c0.1-0.1,0.1-0.5,0.2-0.7
	c-0.2,0-0.5,0-0.7,0.1c-0.4,0.2-0.7,0.5-1,0.8c-1.1,0.8-2.2,1.5-3.2,2.4c-1.4,1.1-2.8,2.3-4.2,3.5c-0.9,0.7-1.9,1.2-2.8,1.9
	c-1.2,1.1-2.3,2.4-3.6,3.5c-0.8,0.8-1.7,1.5-2.5,2.2h-10.6v6h4.3c-0.5,0.5-0.9,1.1-1.2,1.9c-1,3.3-2.3,6.5-2.1,10
	c0.1,1.2,0,2.4,0.2,3.6c0.4,2.5,1.8,4.7,3.3,6.7c1,1.3,1.7,2.7,3.1,3.7c2,1.3,4,2.5,6.4,2.8c0.6,0.1,1.1,0.3,1.7,0.4
	c1.1,0.3,2.3,0.6,3.4,0.9c1.1,0.2,1.3,0.3,1.8,1.3c-0.4-0.1-0.7-0.2-1-0.4c-1-0.5-3.1,0-3.9,0.8c-0.9,0.9-1.6,1.9-2.1,3
	c-0.2,0.5-0.5,1.1-1.3,1.1c-0.5,0-1,0-1.4,0.2c-0.7,0.2-1.4,0.6-2.1,0.8c-1.8,0.5-3.6,0.8-5.4,1.4c-1.2,0.4-2.4,1-3.6,1.5
	c-2.1,0.9-4.2,1.7-6.2,2.8c-1.5,0.8-3,1.4-4.6,1.5c-0.7,0.1-1-0.2-1-0.9c-0.2-2.3-0.4-4.6-0.7-6.9c-0.4-3-0.8-6-1.2-9
	c-0.1-0.6,0-1.3-0.1-1.9c-0.5-2.8-1-5.5-1.7-8.3c-0.2-0.8,0.1-1.1,0.7-1.3c0.2-0.1,0.4-0.1,0.5-0.1c2-0.6,3.5-1.5,4.5-3.4
	c0.7-1.4,1.6-2.9,2.7-4c1.4-1.3,2.1-2.9,2.3-4.7c0.4-2.8,1.3-5.5,2.2-8.2c0.2-0.5,0.3-0.9,0.3-1.4c0.1-1.9,0.3-3.9,0.4-5.8
	c0.1-1.6,0.1-3.2,0.1-4.7c0-1,0-1.9-0.1-2.9c-0.1-1-0.4-2-0.5-3c-0.1-0.9-0.1-1.9-0.2-2.8c-0.1-1.2-0.3-2.4-0.6-3.6
	c-0.4-1.7-0.4-3.6-1.5-5.1c-0.5-0.8-0.8-1.7-1.3-2.6c-0.7-1.1-2.3-1.4-2.9-0.6c-0.8,1-1.7,1.9-2.1,3.2c-0.4,1.7-0.9,1.5-2.4,0.6
	c-0.2-0.1-0.3-0.3-0.4-0.4c-0.4-1-0.9-2.1-1.3-3.2c-0.3-0.8-0.3-1.8-1-2.4c-1.5-1.3-2.9-2.5-4.4-3.8c-0.3-0.3-0.7-0.4-0.9-0.7
	c-1-1.2-1.2-2.6-0.7-4.1c0.1-0.3,0.1-0.7-0.1-0.8c-0.8-0.9-1.5-1.9-2.4-2.7c-0.4-0.4-1-0.5-1.5-0.8c-1.2-0.7-2.4-1.6-3.9-1.8
	c-0.6-0.1-1.2-0.4-1.8-0.6c-0.5-0.1-1-0.3-1.4-0.2c-0.9,0.3-1.8,0.7-2.6,1.1c-0.6,0.3-1.1,0.8-1.7,1.2c-1.2-1.7-2.8-2.2-4.7-2
	c-2.1,0.2-4.1,0.6-6.2,0.9c-1.1,0.1-2.2,0.1-3.2,0.2c-1.2,0.1-2.3,0.4-3.5,0.6c-1.1,0.2-2.2,0.3-3.2,0.5c-1.4,0.3-2.4,1.3-3.5,2.2
	c-1.1,0.9-1.8,2-2.1,3.5c-0.2,0.8-0.6,1.8-1.2,2.4c-0.5,0.5-1.5,0.5-2.3,0.7c-0.3,0.1-0.7,0-1,0c-1.3-0.2-2.6-0.5-3.9-0.6
	c-0.3,0-0.9,0.2-1.1,0.5c-0.8,1.3-1.5,2.7-2.1,4.1c-0.8,1.9-1.7,3.7-2.2,5.7c-0.4,1.7-1.1,3.2-1.9,4.7c-0.3,0.4-0.3,0.7,0.1,1
	c0.1,0,0.1,0.1,0.2,0.1c0.8-0.8,1.7-2.7,2.1-4.6c0.8-3.5,2.4-6.6,4.3-9.5c0.4-0.6,0.9-0.8,1.7-0.7c2.1,0.5,4.2,0.7,6.3,0.1
	c0.2-0.1,0.5-0.2,0.6-0.3c0.3-0.5,0.7-1,0.9-1.6c0.5-1.6,1-3.3,2.4-4.4c1-0.9,2-1.9,3.3-2.1c3-0.5,6.1-0.9,9.2-1.3
	c1.4-0.2,2.7-0.4,4.1-0.6c1.6-0.3,3.2-0.6,4.8,0.1c1,0.4,1.3,1,1.1,2c-0.1,0.4-0.2,0.8-0.3,1.3c-0.1,0.5-0.1,1,0.6,1.1
	c0.5-0.1,1-0.2,1.5,0c0.5,0.1,0.8,0.2,1.1-0.4c-0.4-0.2-0.7-0.5-1.1-0.6c-0.6-0.3-0.7-0.7-0.3-1.1c1.1-1.1,2-2.2,3.5-2.7
	c0.3-0.1,0.6-0.2,0.9-0.1c1.2,0.3,2.3,0.6,3.5,1c0.5,0.2,1,0.4,1.5,0.7c0.8,0.5,1.6,0.9,2.3,1.5c0.6,0.4,1,1,1.6,1.4
	c0.7,0.6,0.6,1.2,0.5,2c-0.2,2.1,0.2,3.8,2.1,5.1c1.1,0.8,2.3,1.6,3.3,2.5c0.8,0.7,1.5,1.4,1.6,2.5c0.1,0.9,0.5,1.9,0.8,2.8
	c0.6,1.4,1.6,2.4,3.2,2.7c-0.3,1.4-0.5,2.7-0.8,4.2c-0.6-1.2-1.1-2.1-1.7-3.2c-0.7,0.7-0.4,1.2-0.2,1.7c0.9,1.6,1.7,3.3,2.6,4.9
	c0.1,0.3,0.2,0.6,0.2,0.9c-0.1,0-0.1,0.1-0.2,0.1c-1.3-1.7-2.7-3.4-4-5.1c-0.1,0-0.2,0.1-0.3,0.1c-0.1,0.8,0.2,1.4,0.7,2
	c0.6,0.7,1.4,1.5,1.9,2.2c1.8,2.3,3.4,4.7,4.6,7.4c0.1,0.3,0.2,0.6,0.3,0.9c-0.1,0-0.2,0.1-0.3,0.1c-0.2-0.2-0.4-0.3-0.5-0.5
	c-1.3-2.1-2.5-4.1-3.8-6.1c-0.2-0.3-0.4-0.5-0.7-0.7c-0.1,0-0.1,0.1-0.2,0.1c0,0.2,0,0.4,0,0.6c0.3,0.6,0.5,1.2,0.9,1.8
	c1.3,2.1,2.7,4.1,4,6.2c0.2,0.3,0.3,0.7,0.5,1c-0.1,0.1-0.2,0.2-0.2,0.2c-0.4-0.2-0.8-0.4-1.1-0.7c-0.7-1-1.3-2.1-2-3.2
	c-0.1-0.2-0.3-0.4-0.5-0.7c-0.1,0-0.1,0.1-0.2,0.1c0,0.2,0,0.4,0.1,0.6c0.4,0.9,0.9,1.9,1.4,2.8c0.2,0.4,0.4,0.7-0.2,1
	c-0.5-0.6-0.9-1.3-1.4-1.9c-0.1,0.1-0.2,0.1-0.3,0.2c0.1,0.2,0.2,0.5,0.2,0.7c0.1,0.5,0.4,1.3,0.2,1.5c-0.5,0.4-0.2,0.7-0.1,1
	c0.1,0.3,0.3,0.5,0.4,0.7c-0.2,0.5-1.2,0.2-0.7,1c0,0.1,1.7,1.4,1.8,1.5c0.1,0.1,0.1,0.1,0.2,0.2c-0.4,0.7-0.8,0.9-1.6,0.8
	c-0.2,0-0.4,0-0.7,0.1c0.1,0.2,0.2,0.4,0.3,0.7c0.1,0.3,0.4,0.6,0.3,0.9c-0.3,1.4-0.6,2.7-1,4.1c0,0.1-0.2,0.2-0.4,0.5
	c-0.2-0.7-0.4-1.3-0.6-2c-0.4-1.3-0.8-2.7-1.2-4c-0.1-0.2-0.4-0.3-0.6-0.4c-0.1,0.2-0.3,0.5-0.3,0.6c0.1,0.6,0.4,1.1,0.6,1.7
	c0.8,2.2,1.6,4.5,2.3,6.8c0.2,0.5,0.4,1.1,0,1.7c-0.1-0.2-0.3-0.3-0.3-0.4c-0.9-2.3-1.7-4.6-2.6-6.8c-0.2-0.5-0.7-1-1.1-1.4
	c-0.1,0.1-0.2,0.1-0.3,0.2c0.1,0.3,0.1,0.6,0.2,0.8c0.5,0.9,1,1.8,1.4,2.8c0.9,2.2,1.7,4.4,2.5,6.5c0.1,0.2-0.1,0.4-0.1,0.6
	c-0.3-0.2-0.4-0.4-0.5-0.6c-0.9-2.3-1.8-4.6-2.8-6.9c-0.1-0.3-0.3-0.5-0.5-0.8c-0.1,0-0.2,0.1-0.3,0.1c0,0.2,0,0.4,0.1,0.6
	c0.1,0.6,0.2,1.3,0.3,1.9c0.2,1.1,0.3,2.3,0.7,3.4c0.5,1.3,1.3,2.6,1.8,3.9c0.1,0.2-0.3,0.6-0.4,1c-0.2-0.2-0.6-0.3-0.7-0.5
	c-0.4-1.2-0.7-2.4-1.1-3.6c-0.1-0.3-0.3-0.6-0.5-0.9c-0.1,0-0.2,0-0.3,0.1c0,0.2-0.2,0.5-0.1,0.7c0.2,0.8,0.5,1.5,0.7,2.3
	c0.2,0.6,0.3,1.1,0.5,1.7c-0.1,0-0.2,0.1-0.3,0.1c-0.4-0.9-0.9-1.7-1.4-2.8c-0.2,0.4-0.3,0.6-0.3,0.7c0.4,1-0.5,1.7-0.6,2.5
	c-0.2,0.9-0.3,1.6,0.5,2.4c-1.4,1-2.7,1.9-4.2,2.9c0.9,0.2,1.6,0.2,2.1-0.2c1.1-0.8,2.1-1.7,3.2-2.5c1.4-0.9,2.8-1.7,4.2-2.6
	c0.2-0.1,0.4-0.4,0.5-0.7c0.1-0.5,0.1-1,0.2-1.4c0.2-0.7,0.5-1.4,0.6-2.1c0.1-1.2,0.1-2.4-0.1-3.5c-0.4-2.3,0.5-4.3,1-6.4
	c0.1-0.4,0.4-0.9,0.7-1.1c1.2-0.8,2.4-1.6,3.7-2.1c1-0.4,2.1-0.5,1.6-2c0,0,0-0.1,0-0.1c0.7-0.8,0.3-1.8,0.2-2.7
	c-0.3-3-1.5-5.7-3.3-8.1c-0.9-1.3-1.6-2.6-2.1-4c-0.4-1.3-0.8-2.5-0.3-3.9c0.2-0.7,0-1.5,0.1-2.2c0-0.2,0.3-0.6,0.5-0.6
	c0.6-0.1,0.8-0.3,1-0.8c0.4-0.8,0.8-1.7,1.3-2.4c0.9-1.2,1.6-1,2.2,0.3c0.3,0.7,0.8,1.4,1.2,2.1c0.2,0.3,0.4,0.7,0.5,1
	c0.5,2.9,1.5,5.8,1.5,8.8c0,1.3,0.5,2.7,0.6,4c0,2.7-0.1,5.4-0.2,8c0,0.6,0,1.3-0.1,1.9c-0.1,1.4-0.1,2.7-0.4,4
	c-0.3,1.2-0.9,2.4-1.2,3.6c-0.4,1.3-0.8,2.7-1,4c-0.2,1.4-0.4,2.8-1.3,3.9c-1.1,1.4-2.1,2.9-3.3,4.2c-0.7,0.7-1.8,1.1-2.6,1.6
	c-0.9,0.6-2,0.8-2.7,2c1.8,0.1,2.9-1.3,4.4-1.4c-2.5,2.6-5.9,2.8-9,3.8c-0.3-1.1-1.4-1.8-2-1.4c-0.3,0.2-0.6,0.4-1,0.5
	c-1,0.5-2,0.7-3.1,0.8c-2,0.3-4.1,0.5-6.1,0.6c-1.5,0.1-2.7-0.8-3.8-1.7c-0.3-0.3-1-0.6-1.3-0.4c-0.9,0.5-1.8,0.7-2.7,0.6
	c0,0-0.1,0.1-0.1,0.1c0.6,0.6,1.8,0.9,2.6,0.5c0.6-0.2,0.9,0,1.4,0.3c0.6,0.4,1.2,0.8,1.8,1.1c0.2,0.1,0.4,0.3,0.6,0.5
	c-0.5,0.2-0.8,0.4-1.1,0.4c-1.6,0.3-3.1,0.6-4.7,0.8c-0.7,0.1-1.5,0.3-1.5-0.9c0-0.1-0.2-0.2-0.3-0.3c-1.1-0.8-2-1.6-2.2-3.1
	c0.9,0.2,1.8,0.3,2.7,0.5c0,0,0-0.1,0-0.1c0-0.1,0-0.2,0.1-0.3c-4.8-1.5-9.5-3.3-13.6-6.1c-0.3,0.1-0.6,0.2-0.8,0.1
	c-0.2-0.1-0.3-0.5-0.4-0.7c-0.1,0-0.2,0.1-0.3,0.1c0.1,0.4,0.2,0.8,0.4,1.2c0.7,1.2,1.5,2.5,2.3,3.7c0.1,0.2,0.4,0.3,0.5,0.3
	c0.1,0,0.2-0.3,0.3-0.5c0.1-0.1,0-0.3,0.1-0.6c0.5,0.8,0.8,1.4,1.3,1.9c0.2,0.2,0.5,0.4,0.8,0.5c0.2,0.1,0.6,0.1,0.8,0.2
	c0.4,0.3,0.7,0.6,1,0.9c0.1-0.1,0.2-0.2,0.3-0.2c-0.9-1.2-2.1-2.1-2.7-3.7c0.9,0.3,1.6,0.5,2.1,1.3c1.1,1.8,2.8,2.9,4.3,4.4
	c0.1,0.1,0.3,0.2,0.5,0.3c0.1-0.1,0.1-0.1,0.2-0.2c-0.6-0.7-1.2-1.3-1.8-2c-0.6-0.6-1.2-1.3-1.8-1.9c0.9,0,5.8,4.5,6,5.4
	c-0.2,0-0.4,0-0.6,0c-1.4-0.4-2.8-0.7-4.1-1.2c-1.9-0.7-3.7-1.7-5.6-2.6c-3-1.5-5.7-3.5-7.9-6.1c-0.3-0.3-0.3-0.9-0.5-1.3
	c0.1,0,0.2-0.1,0.2-0.1c-0.3-0.2-0.6-0.4-0.9-0.5c-1.6-0.9-3.3-1.8-4.9-2.7c-0.1-0.1-0.3-0.2-0.4-0.2c-0.3-0.1-0.6-0.1-0.9,0.3
	c1.1,0.6,2.1,1.1,3.1,1.7c0.6,0.4,1.3,0.7,1.8,1.2c0.8,0.9,1.5,1.9,2.3,2.9c1.5,1.8,3.3,3.3,5.3,4.4c2.3,1.3,4.6,2.7,7.1,3.7
	c3,1.1,6,2,9.2,1.6c1.6-0.2,3.2-0.7,4.8-1.1c0.3-0.1,0.5-0.1,0.8-0.1c1.4,0.2,2.7,0.5,4.1,0.8c0.4,0.1,0.9,0.1,1.3,0
	c1.7-0.6,3.3-1.3,5-1.9c0.8-0.3,1.7-0.5,2.5-0.7c0.2,0,0.7,0.3,0.8,0.5c0.5,1.7,1.1,3.4,1.5,5.2c0.3,1.2,0.2,2.5,0.5,3.7
	c0.8,2.6,1,5.3,1.4,8c0.2,1.4,0.3,2.8,0.3,4.2c0.1,2,0.1,3.9,0.1,5.9c0,0.1-0.1,0.3-0.2,0.5c-0.3-0.2-0.5-0.3-0.6-0.6
	c-0.5-1-1.1-2-1.5-3c-0.5-1.2-0.8-2.6-1.4-3.8c-1.2-2.6-2.5-5.1-3.9-7.6c-0.6-1-1.3-2-2.2-2.6c-2.5-1.6-5.3-2.2-8.2-2.6
	c-2.4-0.3-4.8-0.7-7.2-1c-1.7-0.2-3.4-0.3-5.1-0.4c-1.3-0.1-2.6-0.1-3.9-0.1c-1.6,0-3.2,0-4.8,0.3c-1.4,0.3-2.7,0.2-4-0.2
	c-1.5-0.5-3-1.2-4.5-1.8c-0.2-0.1-0.5,0-0.7,0c0.1,0.2,0.2,0.5,0.4,0.7c0.3,0.2,0.8,0.4,1.1,0.6c1.7,0.9,3.4,1.8,5.4,1.8
	c1.3,0,2.6-0.2,3.9-0.3c2-0.1,4-0.1,6.1-0.2c2.6-0.1,5.2,0.2,7.8,0.6c1.5,0.3,3,0.4,4.4,0.8c2.1,0.4,4.2,0.8,6.2,1.5
	c1.6,0.5,3.2,1.3,4.1,3c1.2,2.2,2.5,4.3,3.6,6.5c0.6,1,1,2.2,1.5,3.3c-0.3,0.1-0.4,0.1-0.5,0.1c-0.2,0-0.5,0.1-0.7,0.2
	c0.1,0.2,0.3,0.5,0.4,0.7c0.1,0.1,0.2,0.2,0.3,0.2c0.8,0.3,1.1,1,1.1,1.8c-0.5-0.3-0.9-0.8-1.4-1.1c-1.8-1-3.6-2-5.4-3
	c-0.3-0.2-0.6-0.3-0.8-0.6c-0.6-1.2-1.1-2.5-1.7-3.7c-0.7-1.2-1.5-2.3-2.3-3.4c-0.2-0.2-0.7-0.4-0.9-0.3c-0.4,0.2-0.2,0.5,0.1,0.8
	c1.5,1.7,2.7,3.6,3.6,5.7c0.1,0.3,0.1,0.6,0.1,0.9c-0.3,0-0.7,0-1-0.1c-0.3-0.1-0.6-0.4-0.8-0.7c-0.4-0.4-0.7-0.9-1.1-1.3
	c-1.1-1.2-2.2-2.5-3.3-3.7c-0.8-0.9-1.5-1.7-2.2-2.6c-0.7,0.4-0.4,0.9-0.2,1.2c1.2,1.4,2.4,2.7,3.7,4.1c0.5,0.6,1,1.2,1.5,1.8
	c-0.1,0.1-0.1,0.1-0.2,0.2c-0.2,0-0.4,0-0.5-0.1c-1.9-0.7-3.9-1.3-5.8-2c-0.4-0.1-0.6-0.6-0.9-0.9c-0.8-1.1-1.6-2.1-2.4-3.2
	c-0.1-0.1-0.4-0.1-0.6-0.1c0,0.2-0.1,0.5-0.1,0.7c0.1,0.3,0.4,0.5,0.6,0.8c0.4,0.5,0.8,1,1.3,1.6c-0.3,0.1-0.4,0.2-0.5,0.1
	c-0.7-0.3-1.7-0.3-2.2-0.8c-0.6-0.7-0.9-1.7-1.3-2.5c-0.1-0.3-0.2-0.6-0.4-1c-1.2,1.1,0.1,2.1,0,3c-1.3-0.1-1.8-0.5-2.2-1.5
	c-0.2-0.6-0.4-1.1-0.7-1.8c-0.9,0.9,0.1,2.4-1.4,2.8c0.3,0.2,0.4,0.4,0.5,0.4c0.6,0.2,1.3,0.3,1.9,0.5c3.2,1.1,6.5,2.1,9.7,3.2
	c1.1,0.4,2.5,0.5,3.3,1.7c0.1,0.2,0.6,0.3,0.9,0.3c1.8,0.1,3.2,0.6,3.9,2.4c0,0.1,0.1,0.1,0.1,0.1c0.2,0.1,0.5,0.2,0.7,0.3
	c0-0.2,0-0.5,0-0.7c-0.1-0.3-0.2-0.6-0.3-0.9c4.1,0.7,7,2.9,9.8,5.8c-0.4,0-0.6,0.1-0.7,0c-1.2-0.6-2.2,0-3,0.7
	c-1.7,1.4-3.5,2.5-5.5,3.4c-2.7,1.2-5.3,2.6-8,3.8c-1.2,0.6-2.5,1.2-3.8,1.4c-1.1,0.2-2.2-0.2-3.3-0.4c-2.4-0.5-4.9-0.9-7.3-1.5
	c-1.2-0.3-2.3-1.2-3.4-1.8c-1.6-0.9-2.8-2-3.6-3.8c-1.1-2.7-2.4-5.3-3.6-8c-0.9-2-2.2-3.9-2.3-6.2c0-0.2-0.1-0.3-0.2-0.5
	c-0.6-1.4-1.2-2.8-1.8-4.2c-0.4-1-0.7-2-1.2-2.9c-0.6-1.2-1.6-2.2-1-3.6c0.5-0.2,0.7-0.4,0.7-0.7c0-0.1-0.1-0.3-0.3-0.5
	c-1.4-1.2-2.8-2.3-4.2-3.4c-0.2-0.2-0.6-0.1-0.9-0.2c0.1,0.3,0.1,0.7,0.3,0.9c0.3,0.4,0.9,0.7,1,1.2c0.5,1.3,1.1,2.5,2.2,3.4
	c0.1,0.1,0.2,0.3,0.3,0.5c0.2,0.7,0.3,1.3,0.6,2c0.6,1.5,1.2,2.9,1.8,4.4c1.7,4.1,3.3,8.2,5.1,12.2c0.8,2,1.8,3.9,2.7,5.8
	c0.3,0.5,0.4,1.1,0.7,1.6c0.7,1.3,1.9,2,3.1,2.8c2,1.3,4,2.3,6.3,2.8c2.3,0.4,4.6,0.8,7,1.2c1.1,0.2,2.2,0.2,3.2-0.3
	c0.8-0.4,1.5-0.8,2.3-1.2c3.2-1.6,6.4-3.1,9.6-4.7c1.3-0.6,2.5-1.4,3.6-2.3c1.1-0.8,2.1-1.3,3.4-0.7c0.2,0.1,0.5,0.1,0.8,0.1
	c0.8,0.1,1.6,0.2,2,1.1c0.2,0.5,0.5,0.9,0.9,1.3c0.2,0.2,0.6,0.3,0.9,0.4c0-0.3,0-0.6-0.1-0.9c-0.3-0.5-0.7-1-1-1.5
	c-0.1-0.1-0.2-0.3-0.2-0.5c0-0.6,0-1.3,0-1.9c0-1.1,0-2.3,0-3.4c-0.1-1.7-0.1-3.4-0.3-5.1c-0.1-1.7-0.3-3.4-0.5-5.1
	c-0.4-2.5-0.9-5.1-1.4-7.6c-0.1-0.4-0.1-0.8-0.2-1.3c-0.4-1.5-0.9-3.1-1.3-4.6c-0.1-0.2,0.1-0.6,0.3-0.8c0.7-0.5,1.3-0.1,1.5,0.8
	c0.1,0.8,0.2,1.7,0.4,2.5c0.5,2.7,1,5.4,1.4,8.1c0.4,2.9,0.7,5.8,1.1,8.6c0.1,0.9,0.2,1.8,0.3,2.6c0,0.4,0.2,0.7,0.2,1.1
	c0.1,1.3,0.2,2.5,0.3,3.8c0.1,0.6,0.7,1,1.3,0.9c0.4-0.1,0.8-0.2,1.3-0.2c0.4,0,0.8,0.1,1.1,0.1c-0.2,0.4-0.4,0.7-0.6,1.1
	c-0.1,0.1-0.2,0.1-0.3,0.2c-0.5,0.6-1,1.1-1.4,1.7c-0.3,0.4-0.1,0.8,0.4,0.9c1-1,2-1.9,2.9-3c0.6-0.7,1.2-1.2,2.1-1.4
	c0.4-0.1,0.9-0.3,1.3-0.6c1.5-1.3,3.3-1.9,5.1-2.5c2.6-0.9,5.3-1.6,7.9-2.3c0.8-0.2,1.8-0.7,2.7,0c0,0,0.5-0.3,0.5-0.4
	c-0.1-0.4-0.4-0.8-0.6-1.4c0.3-0.1,0.7-0.2,1.1-0.3c0.7-0.2,0.9,0.1,0.7,0.7c-1,3.1-1,6.3-1.3,9.5c-0.1,1.4-0.1,2.8,0,4.3
	c0.1,1.5,0,3,0.4,4.4c0.6,2.5,1.5,5,2.2,7.5c0.6,2,2,3.6,3.4,5c0.9,0.9,1.7,1.8,2.6,2.7c0.7,0.7,1.4,1.5,2.3,2.1
	c1.6,1.2,3.3,2.2,5,3.3c1.6,1,3,2.3,4.7,3.1c3,1.6,6,3,9.1,4.4c2,0.9,4.1,1.7,6.2,2.5c1.7,0.6,3.4,1.1,5.1,1.5
	c0.2,0.1,0.6-0.1,0.8-0.3c0.1-0.2,0.2-0.5,0.1-0.7c0-0.1-0.2-0.2-0.3-0.3c-0.1,0-0.1,0-0.2,0c-0.8,0.5-1.6,0-2.3-0.2
	c-2.4-0.8-4.8-1.5-7.1-2.5c-2.9-1.2-5.8-2.6-8.6-4.1c-1.9-1-3.8-2.2-5.7-3.4c-0.9-0.5-1.7-1.1-2.6-1.7c-1.4-0.9-2.8-1.8-4-2.9
	c-1.6-1.4-3-3-4.5-4.5c-1.1-1.1-2.2-2.3-2.7-3.8c-1.4-3.7-2.4-7.5-2.7-11.5c-0.2-3.1,0.3-6.1,0.3-9.1c0-2.1,0.7-4.1,1.2-6.2
	c0-0.1,0.1-0.3,0.1-0.4c0.8-1.1,1.5-2.3,2.3-3.3c1.1-1.3,2.8-2.3,4.4-0.5c0.1,0.1,0.1,0.1,0.2,0.2c0.6,0.4,1.6,0,1.8-0.7
	c0.1-0.2,0.4-0.4,0.6-0.6c0.3-0.2,0.6-0.4,0.8-0.7c0.7-1.3,1.8-2,3.2-2.4c0.8-0.3,1.5-0.6,2.2-0.9c0.3-0.1,0.6-0.1,0.8-0.2
	c0,0.1,0.1,0.1,0.1,0.2c-0.2,0.2-0.4,0.4-0.6,0.6c-0.4,0.4-1,0.7-1.3,1.2c-0.8,1.2-1.5,2.4-2.2,3.7c-0.1,0.2,0,0.5,0.1,0.8
	c0.1,0,0.2,0,0.3,0c0.4-0.6,0.8-1.1,1.1-1.7c0.9-1.6,1.9-3.1,3.4-4.2c0.9-0.6,1.7-1,2.7-0.4c0.5,0.3,1,0.5,1.5,0.7
	c1.2,0.4,2.3,1,3.5,1.2c2.8,0.5,5.5,1.1,7.7,3c2.1,1.8,4.3,3.5,6.2,5.5c2.5,2.9,4.6,6.2,5.6,10c0.5,1.8,1,3.6,1.3,5.4
	c0.3,1.8,0.3,3.7,0.5,5.5c0.1,1,0.3,1.9,0.3,2.9c0,3.5-0.1,6.9,0,10.4c0.1,2.5,0.1,5-0.3,7.5c-0.4,2.5-1.5,4.7-2.8,6.9
	c-0.6,1-0.7,1.8-0.5,2.9c0.3,1.2,0.5,2.4,0.7,3.6c0,0.2-0.2,0.7-0.4,0.8c-0.5,0.2-0.6-0.3-0.6-0.7c-0.3-1.7-0.5-3.4-0.9-5.1
	c-0.2-0.9-0.5-1.7-0.9-2.6c-0.6-1.4-1.2-2.7-1.8-4c-1.2-2.8-2.3-5.5-3.6-8.3c-0.9-2.1-1.9-4.1-2.9-6.1c-0.4-0.8-0.9-1.5-1.4-2.3
	c-0.1,0-0.2,0.1-0.3,0.1c0,0.2,0,0.5,0.1,0.6c0.4,0.8,0.9,1.5,1.2,2.2c1,2.1,2,4.2,3,6.4c1.2,2.7,2.1,5.5,3.3,8.2
	c0.6,1.4,1.3,2.7,1.8,4.2c0.2,0.5,0.3,1,0.4,1.5c0.3,2,0.6,4,0.9,6c0.1,0.5,0.2,0.8,0.7,0.7c0.5,0,0.9-0.1,1.4,0
	c0.8,0.2,1.1,0,1-0.8c-0.2-1.3-0.4-2.6-0.7-3.8c-0.2-1-0.3-2,0.3-3c0.4-0.6,0.6-1.2,0.9-1.8c1.5-2.8,2.2-5.8,2.2-8.9
	c0-1.8,0-3.6,0-5.5c0-0.5,0.1-1,0.1-1.5c-0.2-3.6-0.5-7.2-0.7-10.9c-0.1-1.9-0.2-3.8-0.5-5.7c-0.3-2-0.8-3.9-1.3-5.9
	c-0.7-2.6-2.2-4.8-3.6-7c-1.7-2.8-4.2-4.8-6.5-6.9c-0.7-0.6-1.5-1.1-2.2-1.6c-1.7-1.4-3.6-2.2-5.8-2.5c-2.8-0.3-5.3-1.7-8-2.8
	c0.2-0.3,0.4-0.5,0.6-0.6c1-0.7,2-1.4,3.1-1.9c0.7-0.3,1.5-0.5,2.4-0.1c2.1,1.1,4.3,2.3,6.4,3.3c0.7,0.4,1.5,0.8,2.2,0.8
	c1.8-0.2,3.5-0.1,5.3-0.7c1.8-0.6,3.8-0.7,5.5-1.6c0.2-0.1,0.4-0.1,0.6-0.1c0.9,0.1,1.8,0.1,2.7,0.3c1.5,0.3,3.1,0.5,4.5,1.1
	c2.8,1.1,5.7,1.7,8.7,2.2c1.2,0.2,2.5,0.6,3.6-0.3c0.2-0.1,0.4-0.1,0.6-0.2c1.4-0.4,2.8-0.8,4.2-1.4c2.5-1.1,4.5-2.7,6-5.1
	c1.2-1.9,1.3-3.7,0.8-5.7c-0.7-2.3-1.4-4.7-2.1-7c-0.6-2,0.2-4.1,1.8-5.4c1.1-0.9,2.2-0.8,3.4-0.6c0.4,0,0.8,0,0.8-0.4
	c0-0.2-0.5-0.5-0.7-0.5c-1.4-0.1-2.9-0.2-4.3-0.3c-1.9-0.2-3.7-0.7-5.4-1.7c-0.1-0.1-0.2-0.1-0.3-0.2H586V51.2z M147.9,66.9
	c0,0-0.3,0-0.5,0c0-0.4,0-0.8,0-1.2l0,0c0,0.4,0,0.8,0,1.2C147.6,66.9,147.9,66.9,147.9,66.9c0-0.4,0-0.8,0-1.2l0,0
	C147.9,66.1,147.9,66.5,147.9,66.9z M158.4,47.1c-1.3-0.2-2.6-0.4-4.2-0.7l0,0C155.7,46.6,157,46.9,158.4,47.1
	c0.1,0,0.3-0.3,0.4-0.4l0,0C158.6,46.8,158.5,47.1,158.4,47.1z M157.7,45.4c-0.1,0-0.2-0.2-0.2-0.3l0,0
	C157.5,45.2,157.6,45.4,157.7,45.4c0.5,0.2,1.1,0.3,1.8,0.6l0,0C158.8,45.8,158.3,45.6,157.7,45.4z M158.3,43.7
	c-0.2-0.3-0.4-0.6-0.5-1C157.8,43.1,158.1,43.4,158.3,43.7c0.3,0.6,0.8,0.6,1.4,0.4l0,0C159,44.3,158.5,44.3,158.3,43.7z
	 M155.4,35.4c0,0.1,0,0.2,0,0.3c0.2,0.4,0.4,0.9,0.6,1.3c0.7,1.3,1.4,2.6,2,3.9c0.1,0.2,0.1,0.4,0.1,0.6c0-0.2-0.1-0.4-0.1-0.6
	c-0.6-1.3-1.3-2.6-2-3.9c-0.2-0.4-0.4-0.9-0.6-1.3C155.4,35.6,155.4,35.5,155.4,35.4z M137.5,75.7c-0.9,0-1.8-0.2-2.7-0.4
	c-0.2,0-0.3-0.2-0.5-0.3l0,0c0.2,0.1,0.3,0.3,0.5,0.3C135.7,75.5,136.6,75.7,137.5,75.7c1.7,0.1,3.2-0.6,4.6-1.4l0,0
	C140.8,75.1,139.3,75.8,137.5,75.7z M238.9,59c-0.2,1.9-0.4,3.9-0.9,5.8c-0.4,1.6,0,1.8-1.8,1.7c-1.8-0.1-1.6,0-1.4-1.7
	c0.4-2.5,0.6-5,0.8-7.6h3.1C239,57.8,239,58.4,238.9,59z M219.4,49c0.9-1,2.1-0.4,3.1-0.2c3,0.5,5.8,1.7,8.9,1.8
	c1.4,0,2.9,0.3,4.3,0.6h-18.1C218.2,50.4,218.8,49.7,219.4,49z M189.2,83.1c-0.1-0.1-0.3-0.3-0.3-0.5c-0.1-1.2-0.2-2.3-0.4-3.5
	c-0.4-3.1-0.8-6.2-1.2-9.2c-0.1-0.4,0-0.9,0.1-1.3c0.1-0.3,0.4-0.7,0.7-0.8c2.1-0.4,3.9-1.4,5.5-2.7c1.3-1.1,2.5-2.3,3.7-3.5
	c0.6-0.6,1.3-1.1,1.9-1.6c0.2-0.2,0.4-0.6,0.5-0.9c0-0.1-0.2-0.4-0.4-0.4c-0.2,0-0.4,0.1-0.5,0.2c-1.2,1.2-2.4,2.5-3.7,3.7
	c-2.1,2-4.4,3.5-7.2,4.3c-0.2,0.1-0.5,0.1-0.8,0.1c-0.1-1.6-0.2-3.3-0.2-4.9c-0.1-1.7-0.2-3.4-0.2-5.1h-0.9c0,0.8,0,1.6,0.1,2.4
	c0.1,1.2,0.2,2.4,0.2,3.6c0.1,0.8,0.1,1.7,0.1,2.5c0,0.2-0.1,0.3-0.2,0.7c-0.7-1-1.3-1.9-2-2.7c-1.6-2-3.2-4-4.8-5.9
	c-0.2-0.2-0.5-0.3-0.7-0.4c-0.1,0-0.1,0.1-0.2,0.1c0.1,0.3,0.1,0.6,0.3,0.7c2.4,2.6,4.5,5.6,6.6,8.5c1.5,2.1,1.3,4.4,1.7,6.6
	c0,0.1-0.1,0.2-0.2,0.4c-3.7-4.4-7.4-8.7-11-13c-0.1,0.1-0.2,0.1-0.4,0.2c0.1,0.3,0.1,0.7,0.3,0.9c1.1,1.3,2.1,2.6,3.2,3.9
	c1.5,1.7,3.1,3.5,4.6,5.2c1.1,1.3,2.3,2.5,3.3,3.9c0.5,0.7,0.7,1.6,0.8,2.5c0.3,2.4,0.5,4.8,0.7,7.2c0,0.3,0,0.7-0.2,0.9
	c-0.3,0.6-0.4,0.9,0.3,1.2c0.1,0,0.3,0.5,0.2,0.8c-0.1,0.4-0.7,0.6-0.9,0.3c-0.9-1.4-2.4-1.3-3.7-1.7c-1.8-0.5-3.7-0.7-5.5-1.3
	c-2.6-0.8-5-2.2-6.5-4.6c-1-1.6-2.1-3.2-2.9-4.9c-0.9-1.6-1.1-3.4-1-5.2c0.1-0.8,0-1.6,0-2.4c0-2.1,0.9-3.9,1.5-5.9
	c0.3-1,0.5-2,1-2.8c0.3-0.6,0.9-1.1,1.4-1.6c0.2-0.2,0.3-0.3,0.5-0.5c0.9-0.9,1.9-1.8,2.8-2.7c1-1,2-1.9,3-2.8
	c0.2-0.2,0.5-0.4,0.7-0.6c1.1-1,2.3-2,3.3-3.1c2-2.3,4.8-3.4,6.9-5.5c0.1-0.1,0.1-0.1,0.2-0.2c0.8-0.8,1.1-0.9,2-0.3
	c1.5,1,3,2.1,4.5,3.2c2.2,1.8,3.8,3.9,4.9,6.4c0.2,0.4,0.3,0.7,0.5,1.1c0.6,1.6,0.8,3.2,0.8,4.9c0,0.7-0.1,1.5-0.3,2.2
	c0,0.1,0,0.1,0,0.2c-0.5,2.2-0.7,4.4-1.1,6.6c-0.2,0.9-0.7,1.7-1.1,2.5c-0.4,0.8-1,1.6-1.5,2.4c-0.5,0.8-1.2,1.5-1.7,2.3
	c-0.6,1-1.2,2-1.8,3c-0.2,0.3-0.3,0.5-0.5,0.8c-0.7,1-1.4,2.1-2.1,3.1c-0.6,0.9-1.3,1.7-2,2.6C189.6,83,189.3,83.2,189.2,83.1z
	 M204.1,78.9c-0.3,0-0.5,0-0.8,0.1c-0.4,0.1-0.7,0.3-1.1,0.5c-2.3,1.4-4.5,3.1-7.1,4.1c-1.6,0.6-3.5,0.9-4.8,2.3
	c-0.1,0.1-0.4,0.1-0.6,0c-0.1-0.1-0.3-0.4-0.2-0.5c0.3-0.7,0.7-1.3,1.2-1.9c0.6-0.8,1.3-1.5,1.9-2.3c0.5-0.7,1-1.5,1.5-2.3
	c0.6-1,1.2-2,1.8-2.9c0.6-0.9,1.2-1.8,1.8-2.7c0.3-0.4,0.7-0.8,1-1.3c0.5-0.7,1-1.5,1.4-2.3c0.5-0.9,1-1.9,1.2-2.8
	c0.5-2.5,0.7-5.1,1.3-7.6c0.2-0.7,0.2-1.3,0.3-2h5.5c-0.6,1.2-1.1,2.5-1.8,3.6c-0.8,1.4-1.2,2.9-1.5,4.5c-0.2,1-0.3,2.1-0.6,3.1
	c-0.4,1.8-0.9,3.7-1.3,5.5c-0.2,1.1-0.3,2.2-0.4,3.3c0,0.2,0.2,0.5,0.3,0.7c0.2-0.2,0.5-0.4,0.5-0.6c0.2-0.9,0.2-1.8,0.4-2.8
	c0.4-1.6,0.9-3.3,1.2-4.9c0.3-1.3,0.5-2.6,0.7-3.9c0.3-2.2,1.3-4.1,2.3-6c0.5-0.9,0.9-1.7,1.4-2.6h25.1c0,0.1,0,0.1,0,0.2
	c0,1.2,0.1,2.4,0,3.6c-0.1,1.4-0.5,2.9-0.7,4.3c-0.1,0.9-0.8,1.2-1.6,1.4c-0.7,0.1-1.4,0.1-2,0.3c-1.4,0.3-2.9,0.8-4.3,1.1
	c-0.4,0.1-0.8,0.2-1.1,0.4c-0.7,0.4-1.4,0.8-2.2,1.2c-0.1,0.1-0.4,0.1-0.5,0.1c-0.1-0.1-0.1-0.3-0.1-0.5c0.2-0.9,0.4-1.8,0.7-2.7
	c0.2-0.9,0.5-1.9,0.6-2.8c0-0.2-0.2-0.5-0.4-0.8c-0.2,0.2-0.5,0.5-0.6,0.7c-0.4,1.5-0.6,3-1,4.5c-0.2,0.9-0.4,1.8-1.2,2.7
	c-2.3,2.3-4.8,3.8-8,4.3c-2.5,0.4-4.9,1.3-6.9,2.8C205.1,78.4,204.6,78.9,204.1,78.9z M254.2,60c0.7,0.1,0.6,0.5,0.3,0.8
	c-0.3,0.5-0.8,0.9-1.1,1.4c-0.2,0.3-0.5,0.8-0.5,1.1c0,1,0,2.1,0.2,3.1c0.5,2.1,1.2,4.1,1.8,6.1c0.4,1.3,0.9,2.6,0.5,3.9
	c-0.8,2.2-1.9,4.1-3.9,5.5c-2.1,1.4-4.5,2.2-6.9,3c-0.8,0.2-1.7,0.5-2.5,0.4c-1.7-0.2-3.4-0.5-5-0.9c-2.2-0.6-4.4-1.2-6.6-2
	c-1.5-0.6-3-0.7-4.5-0.8c-0.8,0-1.6-0.2-2.3,0.1c-3,1.1-6.1,1.8-9.2,2.1c-0.5,0.1-1.1,0-1.6-0.3c-2.3-1-4.6-2.1-6.8-3.2
	c-0.9-0.5-0.8-0.7,0-1.4c2-1.6,4.4-2.3,6.9-2.9c1.6-0.4,3.4-0.7,4.8-1.7c0.8-0.6,1.6-1.3,2.4-1.8c1.4-0.9,2.9-1.7,4.4-2.5
	c0.6-0.3,1.1-0.6,1.7-0.8c0.7-0.2,1.4-0.3,2.2-0.5c1.3-0.3,2.5-0.7,3.8-1c0.6-0.1,0.8,0.1,0.6,0.7c-0.1,0.3-0.2,0.7-0.3,1
	c0.1,0,0.2,0.1,0.3,0.1c0.2-0.4,0.5-0.7,0.7-1.1c0.5-1.4,1.8-1,2.8-1.1c0.9-0.1,0.5,0.7,0.8,1c0.1,0.1,0.1,0.1,0.1,0
	c0.6-0.3,1-0.9,1.5-0.8c2.4,0,4.8,0.2,7.1,0.3c0.3,0,0.5-0.1,0.8-0.2c0-0.1,0-0.2,0-0.3c-0.3-0.1-0.6-0.4-0.9-0.4
	c-2.1-0.1-4.2-0.1-6.3-0.2c-0.5,0-0.8-0.2-0.7-0.8c0.4-2.1,0.8-4.3,1.1-6.4c0.1-0.7,0.1-1.5,0-2.2h8.1l0,0l0,0
	C249.7,58.7,251.8,59.6,254.2,60z"/>
<path class="st0" d="M194.1,54.9c-0.2,0.1-0.4,0.3-0.5,0.5c-0.4,0.6-0.8,1.2-1.3,1.7c-0.6,0.7-1.3,1.2-2.2,1.5
	c-0.4,0.1-0.8,0.3-1.1,0.6c-0.2,0.2-0.2,0.5-0.3,0.8c0.3,0.1,0.7,0.3,0.9,0.2c1.5-0.8,3-1.5,4.1-3c0,0,0,0,0-0.1
	c0.4-0.6,0.8-1.1,1.1-1.7c0.1-0.1,0.1-0.5,0-0.5C194.5,54.9,194.3,54.8,194.1,54.9z"/>
<path class="st0" d="M190.9,49.7c0-0.1-0.1-0.2-0.1-0.2c-0.3,0.1-0.6,0.1-0.9,0.3c-0.1,0.1,0.1,0.5,0.2,0.9
	C190.4,50.2,190.7,50,190.9,49.7z"/>
<path class="st0" d="M136.1,101.8c0.8-0.4,1.7-0.7,2.6-1.1c0.2-0.1,0.4-0.3,0.7-0.4c-0.9-0.9-3.5-0.1-4.6,1.2
	C135.4,102,135.5,102,136.1,101.8z"/>
<path class="st0" d="M134.4,97.9c-1.8,0.3-3.5,0.6-5.3,1c-0.3,0.1-0.6,0.3-0.9,0.4c0,0.1,0,0.2,0,0.3c0.3,0.1,0.6,0.4,0.9,0.4
	c1.9-0.4,3.7-0.8,5.6-1.2c0.3-0.1,0.4-0.4,0.7-0.6C135.1,98,134.7,97.9,134.4,97.9z"/>
<path class="st0" d="M127.2,95.1c0.2,0,0.5-0.1,0.7-0.1c0-0.2,0-0.5,0-0.5c-0.3-0.2-0.7-0.4-1-0.3c-2.2,0.4-4.4,0.4-6.7,0.2
	c-2.2-0.2-4.4-0.3-6.6-0.4c-0.2,0-0.5,0.3-0.7,0.4c0.3,0.2,0.5,0.5,0.8,0.6c1.8,0.1,3.7,0.1,5.5,0.2
	C121.9,95.4,124.5,95.5,127.2,95.1z"/>
<path class="st0" d="M97.1,60.5c1.1-0.7,2.1-0.4,3.2,0.1l0,0c0.9,0.4,1.9,0.8,2.8,1.1c0.9,0.3,2-0.3,2.5-1.1c0.2-0.4,0.5-0.7,1-0.3
	c0.5,0.5,0.9,1.1,1.4,1.5c1,0.8,2.2,1.5,3.3,2.2c0.2,0.1,0.8-0.2,1.1-0.4c0.1-0.1,0-0.7-0.1-0.9c-0.2-0.2-0.7-0.1-1-0.1
	c-0.4,0-0.8,0-1.1-0.2c-1.1-1-2.1-2-3.1-3.2c-0.5-0.6-0.8-0.7-1.4-0.2c-0.2,0.2-0.8,0.3-0.9,0.1c-0.7-0.8-1.4-1.6-1.9-2.5
	c-0.7-1.4-1.3-2.9-1.8-4.4c-0.8-2-0.9-4.1-0.6-6.2c0.2-1.1,0.2-2.1-0.1-3.1c-0.2-0.8-0.4-1.7-0.3-2.4c0.4-1.4,1-2.8,1.6-4.1
	c0.3-0.6,1-1.1,1.4-1.7c0.1,0,0.2,0.1,0.2,0.1c0.1,1.1-0.4,2.5,0.9,3.5c0-0.8,0-1.3-0.1-1.9c0.1,0,0.1,0,0.2,0
	c0.3,0.4,0.7,0.9,1,1.2c0.8-0.6,1.5-1,2-1.4c0.3,0.4,0.5,0.8,0.7,0.8c0.5,0,1-0.2,1.4-0.3c0.9-0.2,1.8-0.9,2.5,0.3
	c0.1,0.1,0.4,0.1,0.6,0.1c0.4,0,0.9-0.1,1.3-0.1c0.5,0,1,0.1,1.2,0.6c0.5,1.2,1,2.5,1.4,3.7c0.1,0.3-0.1,0.7-0.3,0.9
	c-0.1,0.1-0.5,0-0.7,0c-0.7-0.1-0.6-0.7-0.6-1.1c0-0.6,0.3-1.3-0.3-1.8c-0.3,0.1-0.6,0.3-0.9,0.4c-0.2-0.5-0.3-0.8-0.5-1.2
	c-0.4-0.7-0.6-0.6-1.1,0.3c-0.3-0.1-0.6-0.2-0.9-0.3c-0.3,0.8,0.4,2.5,1.1,2.8c0.1,0,0.3,0.1,0.4,0c0.6-0.3,0.8,0,0.9,0.5
	c0.1,0.4,0.1,0.9,0.2,1.5c-0.5-0.1-0.8-0.1-1-0.2c-1.1-0.4-2.2-0.9-3.3-1.2c-0.3-0.1-0.6,0-1.1,0c0.8,1.1,2.1,0.5,2.7,1.8
	c-1.4-0.2-2.6-0.3-3.8-0.5c0,0.1,0,0.2-0.1,0.3c0.2,0.1,0.5,0.3,0.7,0.4c0.1,0,0.1,0.1,0.2,0.1c1.5,0.3,3,0.6,4.5,0.8
	c0.6,0.1,0.8,0.3,0.7,0.9c-0.2,1-0.3,2.1-0.4,3.1c0,0.2-0.2,0.5-0.3,0.6c-0.2,0-0.4-0.1-0.6-0.3c-0.5-0.4-1-0.7-1.5-1.1
	c-0.2-0.2-0.6-0.4-0.6-0.7c-0.2-1.4-1.5-1.8-2.3-2.7c0,0,0,0,0,0c-0.1,0-0.2,0-0.3,0c-0.6,0-1.1-0.1-1.7-0.1c-0.2,0-0.5-0.1-0.6,0
	c-0.1,0.2-0.1,0.4-0.2,0.7c0,0.1,0,0.3,0,0.4c-0.2,0-0.4,0-0.5,0c-0.3-0.1-0.5-0.3-0.8-0.5c-0.2-0.1-0.5-0.1-0.7-0.1
	c0,0.1-0.1,0.2-0.1,0.3c0.4,0.3,0.8,0.6,1.3,0.8c1.3,0.4,2,1.2,2,2.6c0,0.2,0,0.4,0.1,0.6c0.3,0.7,0.7,0.9,1.5,0.6
	c0.7-0.3,1.5-0.6,2.3-0.8c0.2-0.1,0.6,0,0.8,0.1c0.5,0.3,1,0.7,1.4,1.1c0.6,0.6,0.5,1-0.2,1.4c-0.3,0.2-0.6,0.4-0.9,0.6
	c0,0.1,0,0.1,0.1,0.2c0.2,0,0.4,0.1,0.6,0c0.5-0.1,1.1-0.5,1.5-0.4c0.9,0.2,1.4,0.2,2.1-0.6c0.6-0.7,2-0.8,3-0.2
	c1.2,0.7,2.4,1.3,3.6,2.1c1.5,0.9,3,1.8,4.5,2.7c0.3,0.2,0.6,0.2,0.8,0.4c0.1-0.3,0.3-0.6,0.3-0.9c0.2-1.3,0.6-2.4,2-2.9
	c2.3-0.8,4.5-1.6,6.9-1.1c0.2,0,0.5-0.2,0.8-0.3c-0.1-0.2-0.1-0.5-0.3-0.7c-0.4-0.3-0.4-0.6-0.2-1c0.4-0.9,0.7-1.7,1.1-2.6
	c1.2-2.5,2.6-4.7,5.5-5.6c1.5-0.5,2.6-0.7,3.3,1c0.1,0.3,0.4,0.6,0.7,0.9c0.2,0.2,0.5,0.2,0.7,0.3c0.1-0.1,0.1-0.1,0.2-0.2
	c-0.2-0.3-0.3-0.7-0.5-0.9c-0.9-1-1.3-2.2-2.1-3.3c-1.2-1.8-2.1-3.9-2.9-6c-0.5-1.2-0.6-2.5-0.9-3.8c-0.1-0.5-0.2-1.1,0.5-1.4
	c0.1-0.1,0.1-0.4,0.1-0.7c0-0.3,0-0.6,0-0.9c0-0.2,0.1-0.4,0-0.6c-0.5-1.1,0.1-2.4,0.9-3c1.1-0.9,2-0.9,3.2-0.2
	c0.2,0.1,0.4,0.2,0.5,0.2c0.5-0.1,0.7,0.1,0.7,0.6c0,0.2,0.3,0.5,0.5,0.6c0.2,0.1,0.5-0.1,0.7-0.2c0.1-0.1,0.2-0.5,0.1-0.7
	c-0.5-0.8-0.9-1.7-1.7-2.1c-1.7-1.1-3-2.6-4.3-4.1c-0.7-0.8-1.4-1.1-2.5-1.1c-1.5,0-3.1,0-4.6-0.2c-0.4,0-0.7-0.6-1-0.9
	c-0.3-0.3-0.5-0.7-0.8-0.8c-1.2-0.3-2.4-0.6-3.6-0.9c-2.5-0.6-5-0.2-7.5-0.1c-0.8,0-1.6,0.2-2.4,0.2c-0.2,0-0.4-0.1-0.6-0.3
	c-0.9-0.7-1.8-1.4-2.8-2.1c-1.6-1.1-3.3-2-5.1-2.5c-0.2,0-0.3,0-0.5-0.1c0,0.1-0.1,0.1-0.1,0.2c0.3,0.3,0.5,0.6,0.8,0.7
	c1.2,0.6,2.4,1.2,3.7,1.8c0.9,0.5,1.7,1,2.6,1.5c0.3,0.2,0.4,0.6,0.5,0.9c-0.1,0.1-0.2,0.1-0.2,0.2c-0.2-0.2-0.4-0.3-0.6-0.5
	c-0.7-0.6-1.4-1.3-2.2-1.7c-2.1-1.1-4.3-2.1-6.4-3.2c-0.1-0.1-0.4,0-0.6,0.1c0,0.2,0,0.5,0.1,0.6c0.5,0.3,1,0.7,1.5,0.9
	c2.5,1.1,5,2,7,4.1c0.1,0.1,0.3,0.3,0.5,0.3c0.7-0.2,1,0.3,1.4,0.8l0,0c0,0,0,0,0,0l0,0l0,0c0.3,0.1,0.6,0.3,0.9,0.3
	c0.8,0.2,1.4,1.3,2.4,0.6c0,0,0.2,0,0.2,0.1c0.6,0.4,1.2,0.5,1.9,0.4c0.8,0,1.8-0.6,1.9-1.4c0.3,0.2,0.6,0.4,0.9,0.6
	c0.3,0.2,0.7,0.5,1,0.7c0.1,0.1,0.5,0,0.5-0.1c0.1-0.2,0.1-0.5,0-0.6c-0.4-0.4-0.9-0.8-1.4-1.2c-0.1-0.1-0.2-0.2-0.3-0.3
	c0.1-0.1,0.2-0.3,0.4-0.2c0.5,0.1,1,0.1,1.4,0.3c0.6,0.3,1.2,0.6,1.8,1c0.5,0.3,0.9,0.7,1.3,1c0.2,0.1,0.4,0.2,0.6,0.3
	c0,0,0.2-0.1,0.2-0.1c-0.1-0.2-0.2-0.4-0.4-0.6c-0.4-0.4-0.7-0.7-1.1-1.1c1-0.1,1.8,0,2.3,0.9c0.2,0.4,0.8,0.8,1.3,0.9
	c0.9,0.2,1.8,0.2,2.7,0.3c0.3,0,0.7,0.1,0.8,0.3c0.4,0.5,0.6,1.1,1,1.6c0.3,0.4,0.7,0.7,1.1,0.9c0.7,0.3,1.5,0.4,2.2,0.7
	c0.3,0.1,0.6,0.4,0.8,0.6c-0.5,0.5-1,0.9-1.5,1.3c-0.5,0.4-1,0.9-1.5,1.3c-0.1-0.1-0.4-0.3-0.6-0.5c-1.1-1.2-2.3-2.4-3.3-3.7
	c-0.7-0.8-1.5-1.2-2.2-0.8c0.1,0.2,0.3,0.5,0.5,0.9c-1.4-0.2-2.7-0.5-4-0.7c-1.3-0.2-2.5-0.3-3.6-0.4c0.1-0.5,0.1-0.9,0.2-1.2
	c-0.4,0-0.8-0.1-1.1,0c-0.8,0.3-1.6,0.6-2.3,1c-1.9,1.2-4,1.8-6.1,2.4c-1,0.3-2,0.6-3,0.9c0,0.1,0,0.2,0,0.3
	c0.4,0.1,0.8,0.2,1.2,0.2c0.8,0,1.5,0.4,1.4,1.1c0,0.4,0.1,0.7,0.3,1c0.2,0.2,0.4,0.5,0.6,0.7c0.7,1,1.5,1.5,2.7,1.5
	c0.3,0,0.7,0.3,1,0.3c1.1,0,2.2,0,3.3,0.1c0.8,0.1,1.6,0.4,2.4,0.6c0,0.1,0,0.2,0,0.3c-0.3,0-0.6,0.1-0.9,0.1c-0.3,0-0.7,0-1,0
	c-1.4-0.1-2.7-0.2-4.1-0.2c-0.2,0-0.3,0.1-0.5,0.1c0.1,0.2,0.1,0.4,0.2,0.5c0.2,0.2,0.5,0.2,0.7,0.3c0.9,0.4,1.5,1.2,2.6,1.2
	c0.1,0,0.2,0.1,0.2,0.2c0.4,0.3,0.8,0.6,1.3,0.9c0.2,0.1,0.4,0.2,0.6,0.3c0,0.1-0.1,0.2-0.1,0.3c-0.3-0.1-0.6-0.2-0.9-0.2
	c-0.3,0-0.7,0-0.8,0.2c-0.2,0.5-0.8,0.9-0.4,1.6c0.2,0.4,0,0.9,0.6,1.1c0.1,0,0.2,0.5,0.2,0.7c-0.1,0.4-0.2,0.7-0.4,1.4
	c-1.7-1.2-2.5-3.1-4-4.1c-0.7,0.7-0.7,1.1,0.1,2.1c0.3,0.4,0.5,0.7,0.3,1.2c-0.1,0.1,0,0.4,0,0.5c0.2,0.6,0.3,1.3,0.5,2.1
	c-0.4-0.2-0.7-0.2-0.9-0.4c-0.7-0.8-1.4-1.7-2-2.6c-0.7-1.1-0.7-2.4-0.5-3.6c0.1-0.3,0.6-0.6,0.9-0.9c0.1-0.1,0.1-0.1,0.2-0.3
	c-0.3-0.1-0.5-0.3-0.7-0.2c-1.3,0.4-2.5,0.9-3.8,1.4c-0.7,0.2-1.4,0.4-2.1,0.7c0-1.6,1-3.8,1.6-3.9c0.2,0.8,0.4,1.5,0.7,2.3
	c0.1,0,0.2,0,0.3,0c0.1-0.2,0.3-0.4,0.2-0.6c-0.1-0.8-0.2-1.6-0.3-2.4c0-1.1,0-2.3,0-3.4c0-0.2,0-0.6-0.2-0.7
	c-0.2-0.1-0.5-0.2-0.7-0.2c-1.2,0.5-2.4,1-3.6,1.5c-0.7,0.3-1.3,0.6-1.9,1c-0.9,0.7-1.8,1.5-2.7,2.3c-0.7,0.7-1.5,1.3-2.1,2.1
	c-0.5,0.7-1.3,1.3-1.1,2.3c0,0.1-0.2,0.2-0.3,0.3c-0.9,0.9-1.9,1.8-2.8,2.7c-0.2,0.2-0.4,0.4-0.5,0.6c-0.9-0.9-1.6-1.9-2.6-2.6
	c-1-0.8-2.2-1.5-3.4-2.2c-0.2-0.1-0.4,0-0.6-0.1c0,0.2,0,0.5,0.2,0.6c0.1,0.2,0.3,0.3,0.5,0.4c1.4,1,2.8,1.9,4.1,3
	c0.6,0.5,1.1,1.1,1.3,1.8c0.1,0.4-0.4,0.9-0.6,1.4c-0.1,0.2-0.1,0.4-0.2,0.6c-0.3,0.7-0.4,1.5-0.9,2.1c-0.7,0.9-0.7,1.8-0.6,2.8
	c0.1,0.9,0,1.8,0,2.7c-0.1,0-0.2,0.1-0.3,0.1c-0.2-0.4-0.4-0.8-0.6-1.3c-0.7-1.8-1.2-3.6-2-5.4c-0.6-1.5-0.7-3.1-0.7-4.7
	c0-0.6,0.2-1.3-0.6-1.8c-0.1,0.3-0.3,0.5-0.3,0.7c0.1,1.4,0.3,2.8,0.5,4.1c0.1,0.9,0.4,1.7,0.6,2.6c0.3,1.1,0.7,2.2,1.1,3.3
	c0.5,1.3,1,2.6,1.5,3.9c0.1,0.2,0.2,0.5,0.3,0.7c0.4,1,0.8,2,1.1,3c0.3,0.7,0.5,1.4,0.7,2.1c-1.2,0.5-1.6-1.3-2.8-0.6
	c0.4,0.6,1.4,0.8,0.7,1.9c1.1,0.6,2.2,1.3,3.3,1.7c1.2,0.4,1.5,1.3,2,2.2c0,0,0,0.1-0.1,0.2c-1.2-0.3-2.3-0.9-3.4-1.6
	c-0.2,0.3-0.3,0.6-0.4,0.9c-0.6,0.2-1.2,0.2-1.7,0.5c-0.7,0.4-1.1,0.2-1.7-0.2c-0.6-0.4-1.1-0.8-1.7-1.2C93.2,58,92.8,58,92.6,58
	c0,0.1-0.1,0.2-0.1,0.3c1.2,0.7,2.4,1.5,3.6,2.2C96.4,60.6,96.9,60.6,97.1,60.5z M106.3,46.7c-0.2-0.3-0.4-0.6-0.6-0.9
	c0.1-0.1,0.1-0.2,0.2-0.2c0.3,0,0.7,0,0.8,0.2c0.2,0.2,0.2,0.6,0.2,1C106.7,46.7,106.4,46.8,106.3,46.7z M107.3,49.1
	c-0.6-0.3-0.8-1.1-0.5-1.9C107.7,47.8,107.9,48.5,107.3,49.1z M121.5,15.2c-0.3-0.2-0.6-0.4-0.8-0.6c-0.1-0.1,0.1-0.4,0.1-0.6
	c0.1,0,0.2,0,0.2-0.1c0.2,0.3,0.4,0.7,0.6,1C121.6,15,121.5,15.1,121.5,15.2z M142.2,18.1c-0.6-0.1-1.3-0.3-1.9-0.4
	c0-0.2,0.1-0.3,0.1-0.5c0.6,0.2,1.3,0.3,1.9,0.5C142.2,17.8,142.2,18,142.2,18.1z M121.7,24.7c-0.2-0.1-0.4-0.1-0.5-0.2
	c-0.7-0.6-1.5-1.2-2.2-1.8c-0.2-0.2-0.2-0.5-0.3-0.7c0.3,0.1,0.6,0.1,0.8,0.3c0.6,0.5,1.2,1,1.8,1.5c0.2,0.2,0.4,0.5,0.6,0.8
	C121.8,24.5,121.7,24.6,121.7,24.7z M127.6,53.1c-0.3,0.4-0.5,0.9-0.7,1.3s-0.3,0.7-0.9,0.4c-0.8-0.4-1.7-0.7-1.7-1.9
	c0-0.6-0.5-1.1-0.6-1.7c-0.2-0.8-0.3-1.6-0.5-2.4c-0.1-0.3-0.3-0.6-0.5-1.2c-0.3,0.5-0.5,0.8-0.7,1.2c-0.1-0.3-0.2-0.6-0.4-0.9
	c-0.1-0.1-0.2-0.2-0.4-0.3c-0.1,0.2-0.3,0.4-0.3,0.6c-0.1,0.4-0.1,0.8-0.3,1.2c-0.1,0.2-0.3,0.4-0.5,0.3c-0.9-0.2-0.8,0.3-0.8,1
	c-0.3-0.1-0.6,0-0.8-0.1c-1.3-0.6-2.6-0.6-3.9,0c-0.3,0.1-0.8,0.1-1,0c-0.2-0.1-0.1-0.6-0.1-0.9c0.1-1.1,0.4-2.2,0.5-3.3
	c0-0.8,0.5-1.1,1.1-1.4c0.1-0.1,0.3-0.2,0.4-0.3c-0.1-0.1-0.2-0.2-0.3-0.4c-0.2-0.2-0.4-0.5-0.7-0.8c1.5,0.1,1.6,0.3,1.9,1.4
	c0.2,0.9,0.7,1.6,1.1,2.4c0.2,0.3,0.3,0.7,0.4,1.1c0.1,0.2,0.2,0.6,0.3,0.6c0.2,0,0.6-0.1,0.7-0.2c0.7-1,1.3-2,2-3
	c0.2-0.3,0.6-0.7,0.9-0.8c0.2,0,0.6,0.5,0.8,0.8c0.5,1.1,0.9,2.3,1.3,3.4c0.6,1.6,1.2,2.1,2.8,2.1c0.4,0,0.9,0,1.3,0
	c0.3,0,0.7,0.2,1.1,0.3C128.6,52.3,128,52.6,127.6,53.1z M129.2,50c0-0.3-0.1-0.6-0.2-0.9c0-0.2,0-0.3,0-0.5
	c0.2,0.1,0.5,0.1,0.5,0.2c0.2,0.5,0.4,1.1,0.5,1.7C129.4,50.7,129,50.7,129.2,50z M132.7,50.8c-0.3-0.1-0.5-0.5-0.8-0.7
	c0.1-0.1,0.1-0.2,0.2-0.3c0.6,0.1,1.1,0.3,1.7,0.4c0,0.1,0,0.2,0,0.3C133.5,50.6,133,50.8,132.7,50.8z M141.6,32.8
	c-0.7-0.2-1.3-0.3-2.2-0.6c0.3-0.2,0.4-0.4,0.6-0.4c0.9-0.3,1.1-0.7,0.3-1.3c-0.7-0.6-1.5-0.9-2.2-1.4c-0.4-0.2-0.7-0.4-1.1-0.6
	c0-0.1,0.1-0.2,0.1-0.3c0.7,0.3,1.4,0.7,2,1.1c0.5,0.3,0.9,0.8,1.4,1.1C141.4,31,141.8,31.7,141.6,32.8z M138.5,22.9
	c0.1,0,0.3,0.1,0.3,0.2c0,1,0.9,1.4,1.5,2c0.2,0.1,0.3,0.3,0.6,0.6c-0.9-0.5-1.7-0.9-2.4-1.4c-0.2-0.2-0.2-0.7-0.3-1.1
	C138.2,23.1,138.4,22.9,138.5,22.9z M140.9,27.9c-0.6-0.4-1.2-0.8-1.9-1.2c-0.1,0-0.1-0.1-0.2-0.2c-0.2-0.2-0.4-0.5-0.6-0.7
	c0.4,0,0.8-0.1,1.1,0.1C140,26.4,140.9,26.7,140.9,27.9z M140.6,29c-0.6-0.3-1.1-0.6-1.7-0.9c-0.8-0.4-1.6-0.8-2.4-1.2
	c-0.1-0.1-0.2-0.3-0.3-0.5c0.2,0,0.4-0.2,0.6-0.1C138.3,26.9,139.7,27.6,140.6,29z M135.9,20.9c-1.3,0.1-2.4,0.2-3.6,0.3
	C132.9,19.9,134.4,20,135.9,20.9z M130.8,22.6c0.4-0.6,1.3-1,2-0.8c0.8,0.1,1.6,0.1,2.4,0.1c0.3,0,0.5,0,0.8,0.2
	c-0.9,0.5-1.9,0.8-2.9,0.6c-0.2-0.1-0.4,0-0.6,0c0.1,0.2,0.1,0.4,0.2,0.6c0.8,1.6,1.1,1.3,2.9,1.1c0.5-0.1,1-0.1,1.4,0
	c0.2,0.1,0.3,0.5,0.5,0.8c-0.3,0-0.6,0.1-0.8,0c-0.6-0.3-1-0.3-1.4,0.3c-0.2,0.2-0.8,0-1.2,0c-0.2,0-0.5,0.1-0.7,0.1
	c0.1,0.2,0.2,0.5,0.4,0.6c0.2,0.2,0.5,0.2,0.8,0.3c1,0.1,1.3,0.6,1.4,1.7c0.1,0.7,0.4,1.5,0.8,2.1c0.3,0.5,0.8,1,1.5,0.4
	c0.1-0.1,0.4,0,0.7,0.1c0,0.1,0,0.2,0,0.3c-0.4,0.1-0.7,0.3-1.1,0.4c-0.3,0.1-0.6,0.1-0.9,0.2c-1.5,0.6-1.6,0.6-2.4-0.8
	c-0.9-1.5-2.2-2.6-3.3-4C130.4,25.6,129.9,24.2,130.8,22.6z M125.5,25.3c-0.6,0-1.2-0.1-1.7-0.2c-0.8-0.9-1.3-1.8-1.4-2.8
	c0-0.1,0.2-0.4,0.4-0.4c0.6-0.3,1.3-0.6,2-0.9c0.5-0.2,0.7-0.5,0.3-1c-0.1-0.1,0.2-0.6,0.3-0.6c1-0.2,1.6,0.2,2,1.2
	c0.1,0.3,0.5,0.5,0.7,0.7c0.2,0.1,0.5,0.1,0.8,0.3c1,0.4,1.1,0.7,0.8,1.7c-0.1,0.4-0.2,0.8-0.2,1.3c-0.1,0.5-0.3,0.7-0.8,0.7
	C127.7,25.2,126.6,25.3,125.5,25.3z M126.4,26.4c0-0.1,0.1-0.3,0.1-0.4c1.2-0.1,2.4,0,3.6,0.3c0,0.1,0,0.2,0.1,0.3
	c-0.2,0.1-0.3,0.4-0.5,0.4C128.5,26.8,127.4,26.6,126.4,26.4z M132.2,29.4c-0.2,0.2-0.4,0.5-0.6,0.7c-0.8,0.7-0.8,0.6-1.3-0.3
	c-0.2-0.3-0.6-0.5-0.9-0.7c-0.2-0.1-0.5-0.1-0.9-0.2C129.2,28.4,131.5,28.7,132.2,29.4z M129.8,31.5c-0.3,0.1-0.7,0.3-1,0.4
	c0,0-0.3-0.5-0.3-0.6c0.3-0.4,0.8-0.4,1.2-0.1C129.7,31.3,129.7,31.4,129.8,31.5z M127.8,34c0.2-0.4,0.7-0.7,1.1-1
	c0.8-0.5,1.7-1,2.6-1.6c0.3-0.2,0.5-0.6,0.8-0.8c0.1-0.1,0.3-0.2,0.5-0.2c0.5,0.1,1.5,1.6,1.3,2.4c-0.6-1-1.2-1.9-2.4-0.9
	c-0.4,0.3-0.7,0.7-1.1,1c-0.7,0.5-0.2,1-0.3,1.6c0,0.3,0,0.8-0.2,1c-0.9,0.6-1.3,1.6-1.7,2.5c-0.1,0.3-0.2,0.5-0.4,0.8
	c-0.2,0.3-0.4,0.7-0.7,1.2c-0.2-0.5-0.4-0.7-0.5-1C126.8,37.3,126.9,35.6,127.8,34z M122.6,39.2c0.6,0.4,1.2,0.6,1.9,0.1
	c0.5-0.4,1.6,0,1.9,0.7c0.3,0.6,0.5,1.3,0.9,1.9c0.1,0.2,0.4,0.4,0.7,0.4c0.1,0,0.3-0.3,0.4-0.5c0.3-1,0.5-2.1,0.8-3.1
	c0-0.1,0.1-0.2,0.1-0.3c0.8-1.7,2.1-3,3.8-3.9c0.1-0.1,0.3-0.2,0.4-0.3c0.3-0.3,0.6-0.5,0.9-0.7c1.4-0.8,3-0.5,4.6-0.4
	c1.3,0.1,2.2,0.9,3.2,1.4c0.2,0.1,0.3,0.4,0.5,0.6c0.2,0.3,0.4,0.7,0.5,1c0.3,0.6,0.6,1.3,0.9,1.9c0.1,0.2,0.1,0.4,0.3,0.9
	c-0.1,0-0.2,0-0.2,0c-1.2-0.1-2.2-0.2-3.2-0.4c-1.3-0.2-2.6-0.6-4-0.8c-0.6-0.1-0.9-0.2-0.8-0.9c0.2-1.4,0.1-1.4,1.5-1.2
	c1.6,0.2,3.1,0.5,4.4,1.5c0.1,0.1,0.5,0,0.7-0.1c0.1-0.1,0-0.4-0.1-0.5c0,0,0,0,0,0c-2.5-1.3-5-2.4-8-1.4c-1,0.3-0.8,1-0.8,1.7
	c-0.1-0.1-0.2-0.1-0.3-0.1c-0.2,0.4-0.5,0.7-0.7,1.1c0,0,0,0.1-0.1,0.1c-1.1,0.5-0.6,1.4-0.3,1.9c0.4,0.7,1.1,1.1,2.1,0.7
	c-0.1,0.3,0,0.6-0.2,0.8c-0.5,0.8-0.7,1.6-0.6,2.5c0.1,0.5-0.2,0.8-0.8,0.5c-0.8-0.4-1.6-0.9-2.5-1.4c0,0.2-0.1,0.4-0.1,0.6
	c0,0.2,0.1,0.4,0,0.5c-0.4,0.6-0.3,1,0.1,1.2c0.2,0.1,0.5,0.2,0.7,0.3c0.6,0.2,1.2,0.5,1.8,0.7c0.2,0.1,0.5,0.2,0.6,0.4
	c0.4,1.1,1.1,0.7,1.9,0.5c-0.2-0.7-0.2-1.3-0.5-1.9c-0.2-0.4-0.3-0.9-0.3-1.3c0-0.6,0.2-1.1,0.5-1.6c0.4-0.7,1.5-0.9,1.8-1.8
	c0-0.2,0.6-0.2,1-0.2c1.6-0.1,3.2-0.2,4.8-0.4c0.4,0,0.9-0.2,1.3-0.3c0.1,0,0.3,0,0.4-0.1c0.2,0,0.4,0.3,0.6,0.4
	c-1.5,0.6-2.9,1-4.2,1.7c-1.9,1.1-2.8,3-3.7,4.9c-0.6,1.2-1,2.5-1.5,3.7c-0.1,0.2-0.5,0.3-0.8,0.4c-0.1-0.2-0.3-0.5-0.2-0.7
	c0.2-0.6-0.1-0.9-0.6-0.8c-1.6,0.3-2.8-0.5-4.1-1.3c-0.4-0.3-1-0.4-0.9-1.3c0.7,0.3,1.3,0.6,2,0.9c0.3,0.2,0.6,0.4,0.9,0.5
	c0.2,0.1,0.4-0.1,0.7-0.2c-0.1-0.2-0.2-0.6-0.4-0.7c-0.7-0.4-1.4-0.7-2.1-1.2c0,0-0.1,0-0.1-0.1c-1.7-1.1-3.4-2.2-4.2-4.2
	c-0.1-0.3-0.4-0.4-0.5-0.7c-0.1,0.1-0.2,0.1-0.3,0.2c0.1,0.6,0.2,1.1,0.3,1.7c-0.1,0-0.2,0.1-0.2,0.1c-0.3-0.3-0.5-0.7-0.8-1
	c-0.3-0.3-0.4-0.9-1-0.3c-0.1,0.1-0.6,0-0.9,0c-0.5,0.7-0.2,1.6,0.6,2c0.1,0.1,0.2,0.1,0.3,0.1c1,0.2,2,0.3,2.9,0.6
	c0.9,0.2,1.4,0.9,1.6,1.8c0.1,0.3,0.2,0.6,0.2,0.9c0,0.3-0.1,0.7-0.2,0.8c-0.6,0.2-1,0.9-1.8,0.8c-0.1,0-0.4,0.4-0.4,0.7
	c0,0.2,0.1,0.5,0.2,0.7c-0.1,0-0.1,0.1-0.2,0.1c-0.2-0.3-0.4-0.5-0.6-0.8c-0.5-1.3-1.1-2.6-1.6-4c-0.2-0.5-0.5-1-1-1.2
	c-0.1,0-0.2-0.1-0.4-0.1c-0.7-0.1-0.8-0.6-0.9-1.2c-0.1-0.4-0.2-0.7-0.3-1c-0.1,0-0.3,0-0.4,0c-0.1,0.5-0.3,1.1-0.1,1.5
	c0.4,0.8-0.1,1.2-0.4,1.7c-0.3,0.5-0.5,1-0.9,1.4c-0.2,0.2-0.9,0.2-0.9,0.1c-0.4-0.7-0.8-1.4-1.1-2.1c0-0.1,0.3-0.6,0.5-0.6
	c0.9-0.1,1.4-0.6,1.7-1.3c0.2-0.4,0.3-0.7,0.5-1.1c0.4-0.9,0.8-1.8,1.3-2.8C121.7,38.7,122.2,38.9,122.6,39.2z M138.9,38.9
	c-0.4,0.5-1.8,0.9-2.2,0.6c-0.1-0.1-0.3-0.4-0.3-0.5c0-0.1,0.3-0.3,0.5-0.3C137.5,38.7,138.2,38.8,138.9,38.9z M117.4,42.7
	c0.1-0.2,0.1-0.5,0.2-0.6c0.3-0.2,0.6-0.3,1.1-0.5c-0.3,0.4-0.4,0.8-0.7,1C117.9,42.8,117.6,42.7,117.4,42.7z M105.9,30.5
	c1-1.2,2.4-2.1,3.7-3.1c0.7-0.6,1.5-1.2,2.3-1.6c1.1-0.5,2.2-0.9,3.4-1.4c-0.1,1,0.2,1.8-0.5,2.8c-0.8,1.1-1.2,2.4-1.7,3.7
	c-0.3,0.8-0.4,1.7-0.6,2.5c0,0.3,0.1,0.5,0.2,0.8c0.2-0.1,0.3-0.1,0.3-0.1c0.2-1.2,1.2-1.2,2.1-1.4c0.9-0.2,1.8-0.6,2.6-1
	c0.6-0.2,0.7-0.1,0.7,0.5c0,1.9,0.5,3.6,1.8,5c0.2,0.3,0.4,0.6,0.1,1c-0.4,0.4-0.6,0.4-0.9-0.1c-0.2-0.4-0.6-0.8-0.9-1.2
	c-0.1-0.1-0.4-0.1-0.6-0.1c-0.1,0-0.1,0.3-0.1,0.5c-0.1,0.5-0.1,1.1-0.2,1.6c-0.1,0.2-0.5,0.3-0.7,0.4c-0.5-1.1-1-1.9-1.4-2.8
	c-0.3-0.6-0.8-0.7-1.4-0.5c-0.6,0.2-0.8,0.1-0.7-0.5c0-0.5-0.1-0.7-0.5-0.6c-0.1,0-0.2,0.1-0.3,0.1c-0.5,0.3-0.9,0.1-1.1-0.4
	s-0.5-1-0.8-1.5c-0.4-0.8-0.8-1.5-0.1-2.3c0.1-0.1,0-0.4,0-0.5c-1.1-0.1-1.1-0.1-1,2.7c-0.3-0.3-0.6-0.6-0.9-0.9
	c-0.6,0.4-0.7,1.8-1.8,0.9c-0.1,0.1-0.3,0.2-0.3,0.3c0,1.2-0.9,1.7-1.7,2.3c-0.4,0.3-0.8,0.1-0.7-0.3
	C104.4,33.5,104.8,31.8,105.9,30.5z M99.8,52.2c-0.3-0.5-0.6-1-0.8-1.5c-0.6-1.8-0.4-3.7-0.2-5.5c0-0.6,0-1.2,0-1.8
	c0-0.1,0.1-0.3,0.2-0.5c0.6,0.6,0.7,1.3,0.6,2c-0.5,2.2-0.1,4.4,0.5,6.5c0.1,0.3,0.2,0.5,0.4,0.8C100.2,52.1,100,52.1,99.8,52.2z"/>
<path class="st0" d="M121.8,63.4c0.5-0.5,0.9-0.4,1.3,0.1c1.3,1.2,2.8,2,4.6,2.3c0.9,0.1,1.7-0.1,2.2-0.9c-0.4,0-0.7-0.1-1,0
	c-0.5,0-1.1,0.2-1.6,0.1c-1.8-0.4-3.3-1.3-4.3-2.9c-1.2-1.9-2.3-3.9-3.5-5.8c-0.5-0.8-0.7-1.8-1.9-2.3c0.1,0.5,0.1,0.9,0.3,1.3
	c1.2,2.2,2.5,4.3,3.7,6.4c0.1,0.2,0,0.5,0.1,0.8c-0.3-0.1-0.5-0.1-0.8-0.2c-0.1-0.1-0.2-0.2-0.3-0.4c-0.8-1.6-1.5-3.1-2.4-4.7
	c-0.4-0.8-1-1.5-1.5-2.3c-0.1,0-0.2,0.1-0.3,0.1c0,0.3,0,0.6-0.1,0.9c-0.9,0.3-1,0.7-0.6,1.5c0.4,0.8,0.9,1.6,1.4,2.4
	c0.1,0.2,0.4,0.4,0.5,0.6c-0.1-1.4-1.2-2.4-1.2-3.7c0.1,0,0.1-0.1,0.2-0.1c0.2,0.2,0.4,0.5,0.6,0.7c0.7,1.3,1.2,2.6,1.9,3.8
	c0.5,0.8,1.1,1.6,1.7,2.3C121.1,63.5,121.6,63.5,121.8,63.4z"/>
<path class="st0" d="M116.8,63.7c0.7,0.5,2.3,0.1,2.6-0.6c-0.4,0-0.7,0.2-1.1,0.1c-0.7,0-1.6,0.1-1.9-0.8c-0.1-0.2-0.1-0.5-0.2-0.7
	c0.2,0,0.5,0,0.7,0c0.2,0,0.4,0,0.5,0c0,0,0.1-0.3,0-0.3c-0.5-0.9-1.1-1.8-1.7-2.9c0,0.4,0,0.6-0.1,0.8c0,0.2-0.2,0.4-0.2,0.4
	c-1-0.2-0.6,0.5-0.6,1c0,0.3,0,0.6-0.1,1.1C115.4,62.3,116,63.1,116.8,63.7z"/>
<path class="st0" d="M131.2,15.8c-0.2-0.1-0.5-0.1-0.7-0.1c0,0.1,0,0.2-0.1,0.2c0.2,0.2,0.5,0.4,0.7,0.6c0.1,0,0.2,0,0.3,0
	C131.3,16.3,131.3,15.9,131.2,15.8z"/>
<path class="st0" d="M108.5,64c-0.5,0.3-0.1,1.7-1.3,0.9c0,1.2,0.3,1.6,0.8,1.7c0.3,0,0.6,0.2,0.9,0.2c0.2,0.1,0.5,0.1,0.7,0.2
	c-0.1-0.3,0-0.6-0.2-0.7c-0.5-0.5-0.7-1-0.6-1.7C108.8,64.3,108.6,64.2,108.5,64z"/>
<path class="st0" d="M122.4,31.2c0.3,0.2,0.6,0.4,0.8,0.3c0.3,0,0.7-0.3,0.8-0.5c0.1-0.2,0.1-0.6-0.1-0.8c-0.2-0.1-0.5,0-0.8-0.1
	c-0.4-0.1-0.8-0.1-1.1-0.3c-1.5-1.2-2.8-2.5-3.6-4.4c-0.1-0.2-0.3-0.4-0.4-0.6c-0.1,0-0.2,0.1-0.3,0.1c0.1,0.4,0.1,0.7,0.2,1.1
	c0.8,1.5,1.7,2.9,2.9,4C121.3,30.4,121.8,30.8,122.4,31.2z"/>
<path class="st0" d="M119.4,16.1c0.3,0.3,0.7,0.6,1,0.8c0.2,0.1,0.5,0.2,0.8,0.2c-0.1-0.2-0.3-0.5-0.4-0.8c-0.3-0.4-0.7-0.8-1.1-1.1
	C119.2,15.4,119,15.6,119.4,16.1z"/>
<path class="st0" d="M119.7,17.6c-0.1-0.8-0.1-0.8-1-1.1C118.7,17.3,118.9,17.5,119.7,17.6z"/>
<path class="st0" d="M100.3,58.2c0-0.1,0.1-0.2,0.1-0.2c-0.3-0.2-0.5-0.5-0.8-0.7c-0.8-0.3-1.6-0.6-2.4-0.8
	c-0.2-0.1-0.4,0.1-0.6,0.1c0.1,0.2,0.2,0.5,0.4,0.5c0.6,0.3,1.3,0.6,1.9,0.9l0,0c0,0,0,0,0,0c0,0,0,0,0,0
	C99.4,58.1,99.9,58.1,100.3,58.2z"/>
<path class="st0" d="M118.4,18.6c0.2-0.6-0.2-1.5-0.6-1.5c-0.1,0-0.3,0-0.3,0.1c-0.1,0.1-0.1,0.3,0,0.4
	C117.7,18,118,18.3,118.4,18.6z"/>
<path class="st0" d="M117.1,19.5c0.3-1.1-0.6-1.1-1-1.7C115.9,18.9,116.7,18.9,117.1,19.5z"/>
<path class="st0" d="M115.7,19.8c0-0.3-0.9-1-1.4-0.8c0.3,0.4,0.6,0.7,1,1C115.3,20.1,115.7,19.9,115.7,19.8z"/>
<path class="st0" d="M114.2,21c0.1,0,0.3,0,0.3-0.1c0-0.1,0-0.3,0-0.4c-0.4-0.4-0.7-0.8-1.2-1.2C113.1,20,113.7,21,114.2,21z"/>
<path class="st0" d="M115.9,13.6c-1.8-1-3.6-2-5.3-3c-0.3-0.2-0.6-0.3-0.9-0.5c-0.1,0.1-0.1,0.1-0.2,0.2c0.1,0.1,0.1,0.3,0.2,0.4
	c0.6,0.4,1.1,0.8,1.7,1.2c1.4,0.8,2.8,1.6,4.3,2.4c0.2,0.1,0.5,0.1,0.8,0.1c-0.1-0.2-0.2-0.5-0.3-0.7
	C116.1,13.8,116,13.7,115.9,13.6z"/>
<path class="st0" d="M114,15.4c-0.1-0.2-0.1-0.5-0.3-0.7c-0.1-0.1-0.3-0.2-0.4-0.2c-1-0.7-2-1.3-3-2c-0.2-0.1-0.5-0.2-0.8-0.3
	c0.1,0.3,0.2,0.6,0.3,0.9c0,0.1,0.2,0.2,0.3,0.3c1,0.7,2.1,1.4,3.1,2.1C113.5,15.5,113.8,15.4,114,15.4z"/>
<path class="st0" d="M109.4,15.9c0.4,0.4,0.8,0.7,1.2,1c0,0,0,0,0,0c0.4,0.3,0.7,0.6,1.1,0.9c0.2,0.1,0.4,0.1,0.6,0.1
	c0-0.2,0.1-0.5,0-0.6c-0.8-0.7-1.7-1.4-2.5-2.1c-0.1-0.1-0.4,0-0.6,0.1C109.3,15.5,109.3,15.8,109.4,15.9z"/>
<path class="st0" d="M107.7,17.7c0,0.2,0,0.4,0.2,0.5c0.2,0.3,0.5,0.5,0.8,0.7c0.2,0.2,0.4,0.4,0.7,0.6c0.2,0.1,0.5,0.1,0.7,0.2
	c0-0.3,0.1-0.7,0-0.8c-0.6-0.5-1.2-0.9-1.8-1.3C108.1,17.5,107.9,17.7,107.7,17.7z"/>
<path class="st0" d="M96.2,49.5c-0.1-0.2-0.1-0.4-0.3-0.4c-1.4-0.8-2.7-1.7-4.1-2.5c-0.1-0.1-0.3,0-0.4,0.1c0,0,0,0,0,0
	c0,0.1,0,0.2,0,0.3c0.1,0.2,0.3,0.4,0.5,0.5c0.8,0.5,1.6,0.9,2.5,1.4c0.5,0.3,1.1,0.6,1.7,0.8C96.1,49.7,96.1,49.6,96.2,49.5z"/>
<path class="st0" d="M91.7,48.5c1.2,1,2.4,1.8,3.7,2.2c0.1-0.1,0.1-0.2,0.2-0.4c-1.1-0.7-2.1-1.4-3.2-2.1
	C92.3,48.3,91.9,48.5,91.7,48.5z"/>
<path class="st0" d="M91.9,57.6c0.1,0,0.1-0.1,0.2-0.1c-1.1-1.3-2.2-2.6-3.3-3.9C88.3,54.4,90.1,56.6,91.9,57.6z"/>
<path class="st0" d="M104.6,18.7c0,0.1-0.1,0.4-0.1,0.4c0.5,0.4,0.7,1.3,1.7,1.2c0-0.3,0-0.6,0-0.9c0.4,0.2,0.8,0.4,1.3,0.6
	c0.2,0.1,0.4-0.1,0.6-0.1c-0.1-0.2-0.1-0.5-0.2-0.6c-0.5-0.3-1-0.6-1.5-0.9C105.7,18,105.2,18.9,104.6,18.7z"/>
<path class="st0" d="M98.6,23.3c1.3-0.5,2.6-0.9,4-0.7c0.3,0,0.6-0.2,0.8-0.3c-0.3-0.2-0.6-0.6-0.9-0.6c-1.2,0.2-2.3,0.5-3.4,0.8
	c-0.5,0.1-0.9,0.4-1.3,0.7c0,0.1,0.1,0.2,0.1,0.3C98.2,23.4,98.4,23.3,98.6,23.3z"/>
<path class="st0" d="M89.8,47c0.2,0,0.5,0.1,0.5,0c0.1-0.1,0.1-0.3,0.2-0.5c0-0.1,0-0.3,0-0.4c-0.5-1.8-1.2-3.6-1.6-5.4
	c-0.7-3.2-1.3-6.4-1.9-9.7c-0.1-0.4-0.1-0.8-0.3-1.2c0-0.1-0.2-0.2-0.3-0.3c0,0-0.1,0-0.1,0c-0.1,0-0.3,0.2-0.3,0.4
	c0,0.9-0.1,1.8,0.1,2.7c0.1,1,0.5,1.9,0.7,2.9c0.3,1.7,0.6,3.3,1,5c0.5,1.9,1.1,3.7,1.7,5.6C89.6,46.4,89.7,46.7,89.8,47z"/>
<path class="st0" d="M97.2,26.1c0.2-0.6,0.2-1.3,0.4-2c-0.1,0-0.2-0.1-0.4-0.1c-0.2,0.5-0.5,1-0.8,1.6c-0.6-0.6-1-1.2-1.6-1.7
	c-0.2-0.2-0.5-0.2-0.8-0.3c0.1,0.3,0.1,0.6,0.2,0.8c0.5,0.6,1.1,1.2,1.7,1.8C96.4,26.7,97,26.7,97.2,26.1z"/>
<path class="st0" d="M94.9,26.8c-0.1-0.9-0.8-1.5-1.2-2.3C93.3,25.3,93.8,26.2,94.9,26.8z"/>
<path class="st1" d="M187.9,24.9c0.8,0,1.5-0.1,1.5,0.6c0,0.7-1.1,2.6-1.5,3.3c-1.3,2.2-2.6,4-4.4,5.9c-0.3,0.3-0.9,0.9-0.9,1.3
	c0,0.9,2.4,2,3.1,2c0.5,0,0.9-0.3,1.2-0.6c1-1,2.7-3.5,3.5-4.7c1-1.6,4.8-8,4.8-9.6c0-0.6-0.8-2.2-2.6-2.2c-1.3,0-2.6,0-3.8,0h-8.2
	c-1.5,0-3-0.1-4.6-0.1c-1,0-0.9,0.5-0.9,2s-0.1,2,0.9,2c1.5,0,3-0.1,4.6-0.1L187.9,24.9L187.9,24.9z M179.6,13.1
	c1.9-1.8,3.6-3.8,5.2-5.9c0.2-0.2,0.3-0.4,0.6-0.4c0.3,0,0.5,0.1,0.6,0.4c1.7,2.2,3.7,4.2,5.8,6c0.1,0.1,0.2,0.2,0.2,0.3
	c0,0.2-0.2,0.3-0.4,0.3c-0.9,0-1.8,0.1-2.6,0.1h-6.6c-0.8,0-1.7,0-2.5-0.1c-0.2,0-0.5-0.1-0.5-0.4C179.4,13.3,179.5,13.3,179.6,13.1
	z M194,14.9c1.1,0.8,6.8,4.8,7.8,4.8c0.9,0,2-2.5,2-3.2c0-0.4-0.4-0.6-1-0.9c-6-2.8-10.6-6.4-14.6-11.7c0,0,0-0.1,0-0.2
	c0-0.1,0-0.2,0.2-0.3c0.2-0.1,0.5-0.2,0.5-0.5c0-0.6-1-0.7-1.5-0.8c-0.7-0.1-2.6-0.6-3.2-0.6c-0.4,0-0.5,0.3-0.6,0.6
	c-0.6,1.2-2,3.2-2.8,4.2c-3,3.9-6.9,7.2-11.2,9.6c-0.4,0.2-1.2,0.6-1.2,1c0,0.8,1.6,2.8,2.4,2.8c1.1,0,5.7-3.8,6.7-4.6
	c0.1-0.1,0.2-0.1,0.3-0.1c0.3,0,0.4,0.2,0.4,0.5v0.8c0,1,0.1,1.5,1,1.5c1.1,0,2.2-0.1,3.2-0.1h6.6c1.1,0,2.2,0.1,3.2,0.1
	c0.9,0,1-0.5,1-1.4v-1c0-0.2,0.1-0.5,0.4-0.5C193.8,14.8,193.9,14.9,194,14.9z"/>
<path class="st1" d="M220.3,22.1c0.1-0.7,0.4-1,1.1-1.1h12c0.7,0.1,1,0.4,1.1,1.1v7c-0.1,0.7-0.4,1-1.1,1.1h-12
	c-0.7-0.1-1-0.4-1.1-1.1V22.1z M221.4,17.2c-0.7-0.1-1-0.4-1.1-1.1V9.7c0.1-0.7,0.4-1,1.1-1.1h12c0.7,0.1,1,0.4,1.1,1.1v6.4
	c-0.1,0.7-0.4,1-1.1,1.1H221.4z M234.5,35.2c0,0.1,0,0.2,0,0.4c0,1.1,0.5,1.1,2.3,1.1s2.3,0,2.3-1.1c0-1.7-0.1-3.3-0.1-5v-20
	c0-1.3,0.1-2.6,0.1-3.8c0-1.6-0.7-2-2.2-2c-1.2,0-2.3,0.1-3.5,0.1h-11.7c-1.2,0-2.4-0.1-3.5-0.1c-1.6,0-2.2,0.5-2.2,2.1
	c0,1.3,0.1,2.5,0.1,3.8v20.1c0,1.6-0.1,3.3-0.1,5c0,1.1,0.6,1.1,2.3,1.1c1.9,0,2.3,0,2.3-1.1v-0.4c0-0.6,0.3-0.9,0.9-0.9h12.2
	C234.2,34.3,234.5,34.5,234.5,35.2z"/>
<path class="st1" d="M266.4,10.9c0.4,0,0.6,0.3,0.6,0.7c0,1.9-0.8,5.9-1.3,7.8c-1.1,4.1-3.4,8.6-5.4,8.6c-2,0-2.6-3.7-2.6-5.2
	c0-5.1,2.6-9.4,7.2-11.5C265.3,11.2,266.1,10.9,266.4,10.9z M270.2,6.3c-9.4,0-16.6,7.4-16.6,16.8c0,1.9,0.4,4,1.2,5.7
	c1.1,2,3,3.8,5.4,3.8c2.2,0,4-1.5,5.3-3.1c3.8-4.6,5.2-11.7,5.7-17.6c0-0.7,0-1.6,1-1.6c0.4,0,1.2,0.2,1.5,0.4
	c4.2,1.4,6.4,5.3,6.4,9.6c0,5.7-4.1,9.2-9.4,10.4c-0.4,0.1-1,0.2-1,0.6c0,0.9,1.6,3.4,2.7,3.4c1,0,3.4-1.1,4.4-1.6
	c4.9-2.6,7.8-7.4,7.8-12.9c0-3.8-1.4-7.2-4-9.8C277.7,7.4,274.1,6.3,270.2,6.3z"/>
<path class="st1" d="M300.1,11.6c1.1,0,2.2,0.1,3.3,0.1c1,0,1-0.5,1-1.6c0-1,0-1.6-0.9-1.6c-1.1,0-2.2,0.1-3.4,0.1h-3.1
	c-1.5,0-2.5-0.1-3.2-0.1c-1.1,0-1.2,0.2-1.2,1.6c0,1,0,1.6,0.9,1.6c1.1,0,2.2-0.1,3.4-0.1H300.1z M299.9,22.2c0.8,0,1.6,0.1,2.5,0.1
	s0.8-0.6,0.8-1.5c0-1,0-1.5-0.8-1.5c-0.7,0-1.6,0.1-2.4,0.1h-2.4c-0.9,0-1.8-0.1-2.4-0.1c-0.9,0-0.8,0.6-0.8,1.5
	c0,0.8,0,1.5,0.8,1.5c0.8,0,1.6-0.1,2.5-0.1H299.9z M299.7,17c0.9,0,1.8,0.1,2.6,0.1c0.9,0,0.8-0.6,0.8-1.7c0-1,0.1-1.6-0.8-1.6
	c-0.9,0-1.8,0-2.7,0h-2.1c-0.9,0-1.8,0-2.7,0c-0.8,0-0.8,0.7-0.8,1.6s0,1.7,0.8,1.7c0.9,0,1.8-0.1,2.7-0.1H299.7z M299.9,6.1
	c0.8,0,1.7,0.1,2.5,0.1c0.9,0,0.8-0.8,0.8-1.6c0-1,0-1.6-0.8-1.6c-0.6,0-1.6,0-2.5,0h-2.4c-0.9,0-1.9,0-2.4,0
	c-0.9,0-0.9,0.5-0.9,1.6c0,0.9-0.1,1.6,0.8,1.6c0.9,0,1.7-0.1,2.6-0.1H299.9z M300.1,30.7c-0.1,0.7-0.4,1-1.1,1.1h-0.6
	c-0.7-0.1-1-0.4-1.1-1.1v-1.9c0.1-0.7,0.4-1,1.1-1.1h0.6c0.7,0.1,1,0.4,1.1,1.1V30.7z M300.2,35.9c0.3,0.3,0.7,0.3,1.5,0.3h0.3
	c0.8,0,1.1,0.1,1.7,0.6c0.4,0.4,0.9,0.9,1.4,0.9c0.7,0,2.9-2.3,3.5-3c0.2-0.2,0.4-0.4,0.8-0.4c0.3,0,0.5,0.1,0.7,0.3
	c1.1,0.9,2.8,1.6,4.2,1.9c1.6,0.4,3.2,0.4,4.8,0.4h1.6c1.5,0,3.5,0,5,0c2.4,0,3.1-0.4,3.1-2.6c0-0.7-0.1-1.4-1-1.4
	c-1.2,0-3.9,0.2-5.9,0.2h-2.2c-2.7,0-5.7-0.2-7.8-1.7c-0.4-0.3-0.5-0.5-0.5-1c0-0.2,0-0.4,0.1-0.6c0.8-2.2,1.3-4.1,1.6-6.4
	c0.2-1.5,0.6-4.4,0.6-5.8c0-0.8-0.3-1.3-0.8-1.9c-0.6-0.6-1.2-0.5-2.5-0.5c-0.4,0-0.8-0.2-0.8-0.6c0-0.1,0-0.2,0.1-0.4
	c0.5-1.2,3.2-7.7,3.2-8.6c0-0.4-0.4-1-0.5-1.3c-0.5-0.8-1-1.2-2-1.2h-3.7c-0.2,0-1.6,0-1.7,0c-0.8,0-0.8,0.5-0.8,1.8
	c0,1.2,0,1.9,0.7,1.9c0.4,0,1.2-0.1,1.8-0.1h0.2c0.9,0,1.6,0,1.6,0.4c0,0.7-2.4,6.2-2.9,7.2c-0.3,0.6-1.7,3.7-1.7,4
	c0,0.9,2.1,1.5,2.7,1.5c0.3,0,0.4-0.1,0.7-0.3c0.4-0.4,0.8-0.8,1.4-0.8h0.5c0.6,0,0.8,0,0.8,0.5c0,1.8-0.6,5-1.1,6.8
	c0,0.2-0.2,0.3-0.4,0.3c-0.2,0-0.3-0.1-0.4-0.3c-0.4-1-0.9-2.6-1.1-3.7c-0.1-0.6-0.2-0.9-0.8-0.9s-2.4,0.3-2.4,1.2
	c0,1.5,1.6,5.8,2.4,7.2c0.1,0.2,0.2,0.5,0.2,0.8c0,0.4-0.1,0.6-0.4,0.9c-0.6,0.7-1.3,1.4-2,2c-0.1,0.1-0.2,0.2-0.4,0.2
	c-0.3,0-0.4-0.2-0.4-0.5c0-0.4,0-0.8,0-1.2V28c0-0.6,0-1.2,0-1.9c0-1-0.3-1.6-1.4-1.6c-0.6,0-1.3,0-1.9,0h-2.8c-0.6,0-1.3,0-2,0
	c-1.1,0-1.4,0.6-1.4,1.7c0,0.6,0,1.2,0,1.8v6.1c0,0.8,0,1.5,0,2.3c0,1,0.3,1,1.6,1c1.6,0,1.7-0.1,1.7-0.8c0-1.4-0.1-1.5,1-1.5h1
	C299.6,35.1,299.9,35.5,300.2,35.9z M320.5,25.8c0,0.6-0.3,0.9-1,0.9h-0.1c-0.7,0-1-0.3-1-0.9V15.2c0-1,0-1.5,0.4-1.8
	c0.3-0.2,0.5-0.2,0.5-0.5c0-0.4-0.6-0.4-0.9-0.4c-0.5,0-2.2-0.2-2.7-0.2c-0.3,0-0.6,0.1-0.6,0.5c0,0.1,0,0.2,0,0.3
	c0.2,1.1,0.1,2.1,0.1,3.2v9.4c0,0.6-0.3,0.9-0.9,0.9c-1.2,0-1.3,0.2-1.3,1.9c0,1.4,0,1.9,0.9,1.9c1.2,0,2.5-0.1,3.8-0.1h6.3
	c1.3,0,2.5,0.1,3.8,0.1c1,0,0.9-0.6,0.9-1.9s0-1.9-0.9-1.9c-0.9,0-1.8,0.1-2.7,0.1c-0.8,0-1.1-0.4-1.1-1.1v-6c0-0.8,0.3-1.1,1.1-1.1
	c0.6,0,2,0.1,2.3,0.1c0.7,0,0.7-0.5,0.7-2c0-1.4,0-1.9-0.7-1.9c-0.5,0-1.6,0.1-2.3,0.1c-0.8,0-1.1-0.3-1.1-1.1V8
	c0-0.8,0.2-1.1,1-1.4c0.3-0.1,1.7-0.6,1.9-0.6c0.2,0,0.5,0.1,0.6,0.1c0.1,0,0.2,0.1,0.3,0.1c0.2,0,0.4-0.2,0.4-0.4
	c0-0.3-1.8-3.6-2.4-3.6c-0.1,0-0.4,0.1-0.4,0.2c-2.8,1.3-6.3,2.1-9.4,2.4c-0.9,0.1-1.5,0.1-1.5,0.8c0,0.6,0.3,1.4,0.5,2
	c0.2,0.6,0.4,1,1.1,1s2.6-0.4,3.4-0.5c0.1,0,0.2,0,0.3,0c0.6,0,0.8,0.4,0.8,0.9L320.5,25.8L320.5,25.8z"/>
<path class="st1" d="M344.7,9.8c-0.5,0-0.8-0.2-0.8-0.7c0-0.1,0-0.2,0-0.3c0.2-0.6,0.4-1.2,0.5-1.6c0.4-1.3,0.4-1.6,1.1-1.9
	c0.3-0.1,0.7-0.3,0.7-0.7c0-0.5-0.7-0.6-2.6-1.1c-0.4-0.1-1.7-0.4-2-0.4c-0.5,0-0.6,0.6-0.6,1c-1.1,5.2-2.9,9.6-6.2,13.9
	c-0.2,0.2-0.6,0.7-0.6,1c0,0.9,2.3,1.9,3,1.9c1.2,0,3.8-5.1,4.3-6.2c0.4-0.7,0.7-0.9,1.5-0.9h5.8c0.8,0,1.1,0.3,1.1,1.1v4.3
	c0,0.8-0.3,1.1-1.1,1.1h-5c-1.6,0-3.2-0.1-4.8-0.1c-1.1,0-1.1,0.5-1.1,2c0,1.6,0,2.1,1.1,2.1c1.6,0,3.2-0.1,4.8-0.1h5
	c0.8,0,1.1,0.3,1.1,1.1v5.8c0,0.8-0.3,1.1-1.1,1.1h-8.4c-1.6,0-3.3-0.1-5-0.1c-1,0-1,0.5-1,2.1c0,1.6,0,2.1,1,2.1
	c1.7,0,3.4-0.1,5-0.1h23.4c1.7,0,3.3,0.1,5,0.1c1,0,1-0.5,1-2.1s0.1-2.1-1-2.1c-1.7,0-3.4,0.1-5,0.1h-8.3c-0.8,0-1.1-0.3-1.1-1.1
	v-5.8c0-0.8,0.4-1.1,1.1-1.1h5.1c1.6,0,3.2,0.1,4.8,0.1c1.1,0,1-0.6,1-2.1c0-1.5,0-2-1-2c-1.6,0-3.2,0.1-4.8,0.1h-5.1
	c-0.8,0-1.1-0.3-1.1-1.1v-4.3c0-0.8,0.4-1.1,1.1-1.1h6.8c1.6,0,3.3,0.1,4.9,0.1c1,0,1-0.5,1-2.1s0.1-2.1-1-2.1
	c-1.6,0-3.3,0.1-4.9,0.1h-6.8c-0.8,0-1.1-0.3-1.1-1.1v-3c0-1.4,0-2.2,0.5-2.5c0.3-0.2,0.5-0.3,0.5-0.6c0-0.5-0.7-0.5-1-0.6
	c-0.6-0.1-3.2-0.3-3.8-0.3c-0.4,0-0.8,0.1-0.8,0.6c0,0.1,0,0.3,0,0.4c0.1,0.9,0.2,2,0.2,3v3c0,0.8-0.3,1.1-1.1,1.1L344.7,9.8
	L344.7,9.8z"/>
<path class="st1" d="M406.5,15.7c-2.2,1.8-5.5,4-8,5.2c-0.1,0-0.2,0.1-0.4,0.1c-0.4,0-0.6-0.3-0.6-0.7v-2c0-2.3,0-3.4,0.5-3.7
	c0.2-0.1,0.6-0.2,0.6-0.6s-0.4-0.5-0.7-0.5c-0.7,0-3.4-0.2-4-0.2c-0.4,0-0.7,0.1-0.7,0.6v0.4c0.1,0.8,0.1,1.8,0.1,2.8v13.8
	c0,0.8,0,1.5,0,2.3c0,3.4,1.6,3.8,4.6,3.8h7.6c2.4,0,3.5-0.4,4.5-2.7c0.6-1.2,1.4-4,1.4-5.3c0-0.5-0.2-0.7-0.6-1
	c-0.6-0.3-1.6-0.6-2.3-0.6c-0.9,0-0.9,0.4-1,1.1c-0.7,4.1-1.1,4.6-3.1,4.6h-5.2c-1.5,0-1.8-0.3-1.8-1.8v-4.6c0-0.8,0.2-1.1,1-1.5
	c3.4-1.5,6.8-3.3,9.8-5.4c0.2-0.1,0.3-0.2,0.5-0.2c0.1,0,0.3,0.1,0.4,0.1c0.1,0,0.3,0.1,0.4,0.1c0.3,0,0.6-0.2,0.6-0.5
	c0-0.3-0.6-1-0.9-1.5c-0.1-0.1-0.4-0.5-0.5-0.6c-0.5-0.7-1.3-1.7-1.7-1.7C406.9,15.3,406.6,15.6,406.5,15.7z M382.1,32
	c0,1.4-0.1,2.8-0.1,4.2c0,1.2,0.5,1.4,2.2,1.4c1.6,0,2.1-0.2,2.1-1.4c0-1.4-0.1-2.8-0.1-4.2v-7.7c0-2.2,0-3,0.5-3.3
	c0.2-0.2,0.6-0.3,0.6-0.6c0-0.4-0.6-0.5-0.9-0.6c-0.1,0-0.2-0.1-0.2-0.2c0-0.1,0-0.1,0-0.2c0.8-0.9,1.6-2.2,2.2-3.2
	c0.4-0.7,0.4-0.7,1-0.8c0.2,0,0.6-0.2,0.6-0.5c0-0.4-0.5-0.6-0.8-0.8c-0.2-0.1-0.6-0.3-1-0.5c-0.8-0.4-1.9-1-2.2-1
	c-0.3,0-0.5,0.2-0.6,0.5c-2.4,4.3-5,7.3-8.6,10.5c-0.4,0.4-0.9,0.7-0.9,1.2c0,0.7,1.5,2.9,2.2,2.9c0.8,0,2.7-2.1,3.3-2.7
	c0.1-0.1,0.2-0.2,0.4-0.2c0.3,0,0.4,0.2,0.4,0.5L382.1,32L382.1,32z M389.9,4.3c0-0.9,0-1.1,0.5-1.5c0.2-0.2,0.4-0.3,0.4-0.5
	c0-0.4-0.6-0.4-1-0.5c-0.8-0.1-2.9-0.2-3.5-0.2c-0.3,0-0.7,0-0.7,0.5c0,0.1,0,0.2,0,0.4c0,0.5,0.1,1.4,0.1,1.8
	c0,0.8-0.4,1.1-1.1,1.1h-3c-1.6,0-3.1-0.1-4.7-0.1c-1,0-1,0.4-1,1.9c0,1.4,0,1.9,1,1.9c1.6,0,3.1-0.1,4.7-0.1h2.9c0.8,0,1,0.3,1.1,1
	c0,0.4,0,0.8,0,1.3c0,1.1,0.5,1,2.1,1c1.7,0,2.2,0,2.2-1.1c0-0.4,0-0.8-0.1-1.2c0-0.8,0.4-1,1.1-1h5.5c0.8,0,1.1,0.3,1.1,1
	c0,0.5-0.1,0.9-0.1,1.4c0,1,0.6,1,2,1c1.8,0,2.3,0,2.3-1c0-0.4,0-0.9-0.1-1.3c0-0.8,0.4-1.1,1.1-1.1h2.9c1.6,0,3.1,0.1,4.7,0.1
	c1,0,1-0.4,1-1.9s0-1.9-1-1.9c-1.6,0-3.1,0.1-4.7,0.1h-3c-0.7,0-1.1-0.3-1.1-1c0-1,0-1.2,0.5-1.5c0.3-0.2,0.4-0.3,0.4-0.5
	c0-0.4-0.7-0.4-1-0.5c-0.6,0-2.9-0.2-3.5-0.2c-0.3,0-0.7,0-0.7,0.5c0,0.1,0,0.2,0,0.4c0,0.5,0.1,1.4,0.2,1.9c0,0.8-0.4,1.1-1.1,1.1
	H391C390.3,5.4,389.9,5.1,389.9,4.3z"/>
<path class="st1" d="M493.5,15.7c-2.2,1.8-5.5,4-8,5.2c-0.1,0-0.2,0.1-0.4,0.1c-0.4,0-0.6-0.3-0.6-0.7v-2c0-2.3,0-3.4,0.5-3.7
	c0.2-0.1,0.6-0.2,0.6-0.6s-0.4-0.5-0.7-0.5c-0.7,0-3.4-0.2-4-0.2c-0.4,0-0.7,0.1-0.7,0.6v0.4c0.1,0.8,0.1,1.8,0.1,2.8v13.8
	c0,0.8,0,1.5,0,2.3c0,3.4,1.6,3.8,4.6,3.8h7.6c2.4,0,3.5-0.4,4.5-2.7c0.6-1.2,1.4-4,1.4-5.3c0-0.5-0.2-0.7-0.6-1
	c-0.6-0.3-1.6-0.6-2.3-0.6c-0.9,0-0.9,0.4-1,1.1c-0.7,4.1-1.1,4.6-3.1,4.6h-5.2c-1.5,0-1.8-0.3-1.8-1.8v-4.6c0-0.8,0.2-1.1,1-1.5
	c3.4-1.5,6.8-3.3,9.8-5.4c0.2-0.1,0.3-0.2,0.5-0.2c0.1,0,0.3,0.1,0.4,0.1c0.1,0,0.3,0.1,0.4,0.1c0.3,0,0.6-0.2,0.6-0.5
	c0-0.3-0.6-1-0.9-1.5c-0.1-0.1-0.4-0.5-0.5-0.6c-0.5-0.7-1.3-1.7-1.7-1.7C493.9,15.3,493.6,15.6,493.5,15.7z M469.1,32
	c0,1.4-0.1,2.8-0.1,4.2c0,1.2,0.5,1.4,2.2,1.4c1.6,0,2.1-0.2,2.1-1.4c0-1.4-0.1-2.8-0.1-4.2v-7.7c0-2.2,0-3,0.5-3.3
	c0.2-0.2,0.6-0.3,0.6-0.6c0-0.4-0.6-0.5-0.9-0.6c-0.1,0-0.2-0.1-0.2-0.2c0-0.1,0-0.1,0-0.2c0.8-0.9,1.6-2.2,2.2-3.2
	c0.4-0.7,0.4-0.7,1-0.8c0.2,0,0.6-0.2,0.6-0.5c0-0.4-0.5-0.6-0.8-0.8c-0.2-0.1-0.6-0.3-1-0.5c-0.8-0.4-1.9-1-2.2-1
	c-0.3,0-0.5,0.2-0.6,0.5c-2.4,4.3-5,7.3-8.6,10.5c-0.4,0.4-0.9,0.7-0.9,1.2c0,0.7,1.5,2.9,2.2,2.9c0.8,0,2.7-2.1,3.3-2.7
	c0.1-0.1,0.2-0.2,0.4-0.2c0.3,0,0.4,0.2,0.4,0.5L469.1,32L469.1,32z M476.9,4.3c0-0.9,0-1.1,0.5-1.5c0.2-0.2,0.4-0.3,0.4-0.5
	c0-0.4-0.6-0.4-1-0.5c-0.8-0.1-2.9-0.2-3.5-0.2c-0.3,0-0.7,0-0.7,0.5c0,0.1,0,0.2,0,0.4c0,0.5,0.1,1.4,0.1,1.8
	c0,0.8-0.4,1.1-1.1,1.1h-3c-1.6,0-3.1-0.1-4.7-0.1c-1,0-1,0.4-1,1.9c0,1.4,0,1.9,1,1.9c1.6,0,3.1-0.1,4.7-0.1h2.9c0.8,0,1,0.3,1.1,1
	c0,0.4,0,0.8,0,1.3c0,1.1,0.5,1,2.1,1c1.7,0,2.2,0,2.2-1.1c0-0.4,0-0.8-0.1-1.2c0-0.8,0.4-1,1.1-1h5.5c0.8,0,1.1,0.3,1.1,1
	c0,0.5-0.1,0.9-0.1,1.4c0,1,0.6,1,2,1c1.8,0,2.3,0,2.3-1c0-0.4,0-0.9-0.1-1.3c0-0.8,0.4-1.1,1.1-1.1h2.9c1.6,0,3.1,0.1,4.7,0.1
	c1,0,1-0.4,1-1.9s0-1.9-1-1.9c-1.6,0-3.1,0.1-4.7,0.1h-3c-0.7,0-1.1-0.3-1.1-1c0-1,0-1.2,0.5-1.5c0.3-0.2,0.4-0.3,0.4-0.5
	c0-0.4-0.7-0.4-1-0.5c-0.6,0-2.9-0.2-3.5-0.2c-0.3,0-0.7,0-0.7,0.5c0,0.1,0,0.2,0,0.4c0,0.5,0.1,1.4,0.2,1.9c0,0.8-0.4,1.1-1.1,1.1
	H478C477.3,5.4,476.9,5.1,476.9,4.3z"/>
<path class="st1" d="M529,22.4c1.4,0,2.8,0.1,4.2,0.1c0.8,0,0.8-0.4,0.8-1.7c0-1.2,0-1.7-0.8-1.7c-1.4,0-2.8,0.1-4.2,0.1h-13.4
	c-1.4,0-2.8-0.1-4.2-0.1c-0.8,0-0.8,0.3-0.8,1.7c0,1.3,0,1.7,0.8,1.7c1.4,0,2.8-0.1,4.2-0.1H529z M529.1,17.1c1.4,0,2.8,0.1,4.2,0.1
	c0.8,0,0.8-0.4,0.8-1.7s0-1.7-0.8-1.7c-1.4,0-2.8,0.1-4.2,0.1h-13.4c-1.4,0-2.8-0.1-4.2-0.1c-0.8,0-0.8,0.4-0.8,1.7
	c0,1.3,0,1.7,0.8,1.7c1.4,0,2.8-0.1,4.2-0.1H529.1z M534.5,11.7c1.4,0,2.8,0.1,4.2,0.1c0.9,0,0.8-0.4,0.8-1.8c0-1.3,0-1.7-0.8-1.7
	c-1.4,0-2.8,0.1-4.2,0.1h-24.1c-1.4,0-2.8-0.1-4.2-0.1c-0.8,0-0.8,0.4-0.8,1.7s0,1.8,0.8,1.8c1.4,0,2.8-0.1,4.2-0.1H534.5z
	 M529.5,6.2c1.3,0,2.6,0.1,3.9,0.1c0.8,0,0.8-0.4,0.8-1.7s0-1.7-0.8-1.7c-1.3,0-2.6,0.1-3.9,0.1h-14.1c-1.3,0-2.6-0.1-3.9-0.1
	c-0.8,0-0.8,0.4-0.8,1.7c0,1.3,0,1.7,0.8,1.7c1.3,0,2.6-0.1,3.9-0.1H529.5z M515.1,32.3c-0.7-0.1-1-0.4-1.1-1.1v-1.9
	c0.1-0.7,0.4-1.1,1.1-1.1h14.5c0.7,0,1,0.4,1.1,1.1v1.9c-0.1,0.7-0.4,1-1.1,1.1H515.1z M530.7,36.3c0,1.1,0.4,1.1,2.1,1.1
	c1.6,0,2.1,0,2.1-0.9s-0.1-1.9-0.1-2.9v-4.7c0-0.8,0.1-1.7,0.1-2.6c0-1.4-1-1.6-2.1-1.6s-2.2,0-3.4,0h-14.2c-1.1,0-2.2,0-3.4,0
	c-1.2,0-2.1,0.2-2.1,1.6c0,0.9,0.1,1.7,0.1,2.6v4.7c0,1-0.1,1.9-0.1,2.8c0,1,0.6,1,2.1,1c1.7,0,2.1,0,2.2-1.1c0-0.5,0.2-0.7,0.7-0.7
	H530C530.5,35.6,530.7,35.8,530.7,36.3z"/>
<path class="st1" d="M570.9,15.9c0,0.5-0.3,0.8-0.8,0.8h-3.9c-0.5,0-0.8-0.3-0.8-0.8v-0.2c0-0.4,0.3-0.8,0.8-0.8h3.9
	c0.5,0,0.7,0.3,0.8,0.8V15.9z M570.9,11c0,0.7-0.2,1-0.9,1h-3.4c-0.6,0-1.1-0.2-1.1-0.9v-0.2c0-0.4,0.1-0.6,0.4-0.8
	c0.2-0.2,0.5-0.3,0.5-0.5c0-0.4-0.6-0.4-0.9-0.4c-0.7,0-2.8-0.2-3.4-0.2c-0.4,0-0.7,0-0.7,0.5c0,0.1,0,0.2,0,0.4l0.1,1
	c0,0.8-0.3,1.1-1.1,1.1h-2.1c-0.5,0-1.1-0.2-1.1-0.8c0,0,0-0.2,0.1-0.3c0.1-0.2,0.2-0.3,0.4-0.4c0.3-0.2,0.4-0.2,0.5-0.5
	c0-0.2,0-0.2,0.2-0.2c1.7,0,2.2,0,2.2-1V8.3c0-0.6,0.2-0.9,0.9-0.9h5.2c0.6,0,0.9,0.3,0.9,0.9c0,0.2,0,0.4,0,0.6c0,1,0.6,0.9,2,0.9
	h0.2c0.7,0,0.9,0.3,1,0.9L570.9,11L570.9,11z M581.6,5.8c0-1.3,0-1.6-1-1.6c-1.6,0-3.1,0.1-4.7,0.1h-3.1c-0.5,0-1-0.2-1.1-0.8
	c0-0.4,0.1-0.5,0.5-0.8c0.3-0.2,0.5-0.3,0.5-0.5c0-0.4-0.7-0.4-1-0.5c-0.7,0-3-0.2-3.6-0.2c-0.4,0-0.7,0.1-0.7,0.5
	c0,0.2,0.1,1,0.1,1.2c0,0.8-0.4,1.1-1.1,1.1h-5c-0.5,0-1-0.2-1.1-0.8c0-0.4,0.1-0.5,0.4-0.8c0.3-0.2,0.5-0.3,0.5-0.5
	c0-0.4-0.6-0.4-1-0.4c-0.8-0.1-3-0.3-3.6-0.3c-0.4,0-0.6,0.1-0.6,0.5c0,0.2,0.1,1,0.1,1.2c0,0.8-0.3,1.1-1.1,1.1H552
	c-1.6,0-3.2-0.1-4.7-0.1c-1,0-1,0.4-1,1.6c0,1.3,0,1.6,1,1.6c1.6,0,3.2-0.1,4.7-0.1h3.6c0.5,0,0.7,0.2,0.7,0.7v0.2
	c-0.1,0.7-0.3,1-1,1c-0.4,0-0.9-0.1-1.4-0.1c-0.3,0-0.7,0-0.7,0.5c0,0.2,0.1,1,0.1,1.2c0,0.8-0.4,1.1-1.1,1.1h-0.4
	c-1.4,0-2.7-0.1-4-0.1c-0.7,0-0.7,0.5-0.7,1.5c0,1,0,1.6,0.7,1.6c1.4,0,2.7-0.1,4.1-0.1h0.4c0.8,0,1.1,0.4,1.1,1.1v2.6
	c0,1-0.1,2-0.1,3c0,1.4,0.7,1.7,2,1.7c1.1,0,2.2-0.1,3.4-0.1h2.3c0.6,0,0.7,0.4,0.8,0.9c0,0.2,0,0.3,0,0.4c0,0.8-0.3,1.1-1,1.1h-8.8
	c-1.6,0-3.2-0.1-4.8-0.1c-0.9,0-0.9,0.3-0.9,1.5c0,1.3,0,1.6,0.9,1.6c1.6,0,3.2-0.1,4.8-0.1h5.4c0.2,0,0.4,0.1,0.4,0.3
	c0,0.2-0.1,0.2-0.2,0.3c-2.9,1.7-6.4,3.1-9.6,3.9c-0.9,0.2-1.6,0.4-1.6,0.8c0,0.8,1.2,3.1,2.1,3.1c0.3,0,1.2-0.4,1.6-0.4
	c3.9-1.4,7.7-3.2,11-5.6c0.1-0.1,0.2-0.1,0.4-0.1c0.4,0,0.5,0.3,0.5,0.6v1.4c0,1.1-0.1,2.3-0.1,3.3c0,1.2,0.6,1.2,2.2,1.2
	c1.6,0,2.1,0,2.1-1.2c0-1.1-0.1-2.2-0.1-3.3v-1.6c0-0.3,0.1-0.6,0.5-0.6c0.2,0,0.2,0,0.4,0.1c2.9,2.2,6,3.9,9.3,5.3
	c0.6,0.2,2.7,1,3.2,1c1,0,2.2-2.1,2.2-2.9c0-0.6-0.6-0.7-1-0.8c-3.8-1-6.7-2.4-10-4.3c-0.1-0.1-0.2-0.2-0.2-0.3
	c0-0.2,0.2-0.3,0.4-0.3h5.2c1.6,0,3.2,0.1,4.8,0.1c0.9,0,0.9-0.3,0.9-1.6s0-1.6-0.9-1.6c-1.6,0-3.2,0.1-4.8,0.1h-9.1
	c-0.3,0-0.7-0.1-0.7-0.5c0-0.3,0.1-0.5,0.4-0.6c0.4-0.2,0.6-0.3,0.6-0.6c0-0.5-0.8-0.4-1.3-0.5c0,0-0.1,0-0.1-0.1c0,0,0-0.1,0.1-0.1
	h7.6c1.5,0,3,0.1,4.4,0.1c0.8,0,0.8-0.4,0.8-1.5s0-1.5-0.8-1.5c-1.5,0-3,0.1-4.4,0.1h-15c-0.8,0-1.1-0.3-1.1-1.1V16
	c0-0.8,0.3-1.1,1.1-1.1h2.2c0.8,0,1,0.4,1.1,1.1c0,0.6,0,1.3,0,1.9c0,1.1,0.8,1.2,1.7,1.2c1.2,0,2.4,0,3.6,0h2.7c1.2,0,2.4,0,3.6,0
	c1.2,0,1.7-0.2,1.7-1.3c0-0.6,0-1.2-0.1-1.8c0-0.8,0.4-1.1,1.1-1.1h0.4c1.3,0,2.7,0.1,4,0.1c0.6,0,0.7-0.3,0.7-1.4
	c0-1.2,0-1.7-0.7-1.7c-1.2,0-2.6,0.1-4,0.1h-0.4c-0.4,0-1-0.2-1-0.8c0-0.1,0-0.2,0-0.3c0-0.2,0.2-0.3,0.4-0.4
	c0.2-0.2,0.5-0.3,0.5-0.5c0-0.5-1-0.4-2.9-0.6c-0.6,0-0.9-0.3-1-1c0-0.7,0.4-1,1.1-1h3.1c1.6,0,3.1,0.1,4.7,0.1
	C581.6,7.5,581.6,7.1,581.6,5.8z"/>
<path class="st1" d="M310.4,71.9c0-0.2-0.1-0.5-0.3-0.8c-0.2-0.2-0.4-0.4-0.7-0.4c-0.6,0-1.4,0.1-2.4,0.4c-2.9,0.7-7.6,1.8-14.3,3.4
	c-0.7,0.2-1,0.6-1,1.3c0,0.8,0.3,1.2,1,1.2c1.4-0.1,3.8-0.7,7.2-1.6c-0.4,4.6-0.5,7.9-0.5,9.7c0,3.6,0.1,6.7,0.4,9.2
	c0.1,0.7,0.5,1.1,1.2,1.1c0.8,0,1.3-0.6,1.3-1.8v-2c0-0.5-0.1-0.8-0.4-1.1c-0.1-1.3-0.1-2.6-0.1-4c0-3.2,0.2-7.1,0.6-11.6
	c1.7-0.5,2.8-0.8,3.4-1c0.2,0.2,0.6,0.3,1,0.4l2.6-1C310.1,72.9,310.4,72.5,310.4,71.9z"/>
<path class="st1" d="M316.3,87c0-1.2-0.3-2.3-1-3.2c-0.7-0.9-1.6-1.6-2.6-1.9c-0.4-0.1-0.7-0.2-0.7-0.2c-0.2,0-0.5,0.1-0.9,0.4
	c-0.4,0.2-0.8,0.4-1,0.5c-1,0.5-1.9,1.4-2.5,2.7c-0.6,1.1-0.9,2.4-0.9,3.7c0,1.5,0.4,2.8,1.2,3.8c0.8,1,1.9,1.5,3.1,1.5
	c1.4,0,2.7-0.7,3.7-2C315.8,90.7,316.3,89,316.3,87z M313.9,87.4c0,1-0.3,1.9-0.8,2.8c-0.6,0.9-1.2,1.4-2,1.4
	c-0.6,0-1.1-0.3-1.4-0.8c-0.4-0.5-0.6-1.2-0.6-1.9c0-1,0.2-1.9,0.7-2.7c0.5-1,1.2-1.5,2.1-1.5c0.3,0.2,0.7,0.3,1.2,0.3
	C313.6,85.3,313.9,86.1,313.9,87.4z"/>
<path class="st1" d="M329,72.4c0-0.8-0.4-1.2-1.1-1.2c-0.6,0-1,0.3-1.1,0.9c-0.7,2.6-1.2,6.5-1.5,11.6c-0.6-0.5-1.2-0.8-1.6-0.8
	c-1.3,0-2.6,1-4,2.9c-1.4,2-2.2,3.7-2.2,5.2c0,1.1,0.3,2,0.8,2.6c0.6,0.7,1.4,1,2.4,1c0.8,0,1.7-0.4,2.6-1.2c0.9-0.7,1.5-1.5,2-2.4
	c0.3,2.6,0.5,4.3,0.6,4.9c0.1,0.8,0.5,1.2,1.1,1.2c0.3,0,0.5-0.1,0.8-0.4c0.2-0.2,0.4-0.5,0.4-0.8c0-0.1-0.1-0.6-0.2-1.4
	c-0.4-2.1-0.5-4.6-0.5-7.8c0-1.6,0.1-3.9,0.2-6.7c0.2-0.2,0.4-0.5,0.5-0.9c0-0.2,0-0.5,0.1-1c0-0.9,0.2-2.2,0.5-3.8
	C328.9,73.2,329,72.6,329,72.4z M324.6,87.1c-0.3,0.8-0.5,1.4-0.7,1.9c-0.4,0.8-0.8,1.4-1.4,2c-0.7,0.7-1.4,1.1-2,1.1
	c-0.5,0-0.8-0.4-0.8-1.1c0-0.8,0.4-1.7,1.1-2.8c1.3-1.7,2.2-2.6,2.7-2.6c0,0,0.1,0,0.2,0C323.9,86.3,324.2,86.8,324.6,87.1z"/>
<path class="st1" d="M341.1,86.6c0-0.3-0.1-0.6-0.4-0.9c0-0.7-0.1-1.3-0.3-1.8c0-0.1,0.1-0.3,0.1-0.4c0-0.4-0.2-0.7-0.6-1
	c-0.4-0.3-0.8-0.5-1.2-0.5c-1.6,0-3.5,1-5.4,2.8c-2.1,1.9-3.1,3.8-3.1,5.5c0,0.9,0.3,1.7,1,2.5c0.6,0.8,1.4,1.1,2.3,1.1
	c1.4,0,2.9-0.8,4.5-2.5c0.1,2.3,0.7,3.4,1.5,3.4c0.3,0,0.6-0.1,0.9-0.3c0.2-0.2,0.4-0.5,0.4-0.8c0-0.1-0.1-0.4-0.2-1.2
	c-0.1-0.7-0.2-1.2-0.2-1.6c0-1.2,0.2-2.4,0.6-3.7C341.1,86.9,341.1,86.7,341.1,86.6z M338.4,85.7c0,1-0.6,2.2-1.7,3.6s-2.2,2-3.1,2
	c-0.6,0-0.9-0.4-0.9-1.1c0-1,0.8-2.2,2.3-3.6c1.4-1.3,2.4-2,2.9-2C338.2,84.6,338.4,85,338.4,85.7z"/>
<path class="st1" d="M353.6,88.6v-2c0-2.1-0.5-3.2-1.4-3.2c-0.5,0-0.9,0.4-1.4,1.2c-0.9,1.6-1.6,2.8-2.2,3.5
	c-0.7,0.9-1.4,1.4-2.1,1.4c-0.5,0-0.7-0.3-0.7-0.8c0-0.5,0.1-1.4,0.3-2.8s0.3-2.2,0.3-2.5c0-0.7-0.1-1.4-0.4-1.9
	c-0.3-0.7-0.7-1-1.1-1c-0.9,0-1.3,0.4-1.3,1.1c0,0.2,0,0.4,0.1,0.8c0.1,0.4,0.1,0.6,0.1,0.8c0,0.6-0.1,1.5-0.2,2.8s-0.2,2.2-0.2,2.8
	c0,1,0.3,1.8,0.8,2.4c0.5,0.7,1.3,1,2.2,1c1.5,0,3.1-1.1,4.7-3.3c0,1-0.1,2-0.2,2.9c-0.7,4-3.4,6-8,6.1c-0.7-0.1-1.3-0.1-1.6-0.2
	c-0.8,0-1.1,0.4-1.1,1.2c0,1.1,0.9,1.6,2.8,1.6c2.9,0,5.3-0.8,7.2-2.4C352.5,96.2,353.6,93,353.6,88.6z"/>
<path class="st1" d="M358.7,73.1c0-0.7-0.1-1.2-0.4-1.5c-0.3-0.3-0.8-0.4-1.4-0.4c-0.4,0-0.6,0.2-0.8,0.5c-0.3,0.4-0.4,0.8-0.4,1.2
	c0,1,0.1,1.6,0.5,2l-0.7,4.4c0,0.2,0,0.4,0,0.6c0,0.7,0.4,1.1,1.2,1.1c0.6,0,1-0.4,1.2-1.1c0.2-1.6,0.4-2.7,0.5-3.5
	C358.6,74.9,358.7,73.8,358.7,73.1z"/>
<path class="st1" d="M369.1,82.7c0-0.2-0.1-0.4-0.2-0.7c-0.1-0.9-0.9-1.4-2.3-1.4c-0.9,0-1.5,0.3-1.8,0.8c-1.4,0.5-2.1,1.5-2.1,2.9
	c0,0.8,0.4,2.2,1.1,4s1.1,2.9,1.1,3.4c0,0.7-0.5,1.1-1.5,1.1c-0.4,0-0.9,0-1.5-0.1c-0.6-0.1-0.9-0.1-1-0.1c-0.3,0-0.5,0.2-0.7,0.5
	c-0.2,0.3-0.3,0.6-0.3,1c0,0.8,1,1.3,3.2,1.3c1.3,0,2.4-0.3,3.1-0.9c0.7-0.6,1-1.3,1-2.1c0-0.9-0.4-2.3-1.1-4.2
	c-0.8-1.9-1.1-3-1.1-3.3c0-0.6,0.4-0.9,1.2-0.9c0.2,0,0.5,0,0.8,0c0.4,0.1,0.6,0.1,0.8,0.1c0.3,0,0.6-0.1,0.8-0.3
	C369,83.3,369.1,83,369.1,82.7z"/>
<path class="st1" d="M393.6,73.7c0-0.9-0.8-1.3-2.3-1.3c-0.5,0-1.8,0.1-4,0.2c-2.2,0.1-3.3,0.2-3.3,0.2l-0.6-0.1
	c-0.4,0.1-0.6,0.2-0.8,0.4c-0.8,0.1-1.3,0.2-1.6,0.3c-0.6,0.2-0.9,0.6-0.9,1.2c0,0.8,0.5,1.2,1.4,1.4c-0.6,2.1-1,3.5-1.1,4.3
	c-0.5,2.6-0.9,5.5-1,8.8c-0.4,0.3-0.6,0.6-0.6,0.8c0,2.4,0.3,4.2,1,5.4c0.2,0.4,0.6,0.7,1,0.7c0.3,0,0.5-0.1,0.8-0.4
	c0.2-0.2,0.4-0.5,0.4-0.8c0-0.1-0.1-0.6-0.1-1.6c-0.1-0.9-0.1-1.6-0.1-2.2c0-1.7,0.1-3.5,0.3-5.5c2.8,0,5.7-0.5,8.7-1.4
	c1-0.3,1.5-0.8,1.5-1.5c0-0.8-0.4-1.2-1.2-1.2c-0.5,0.2-0.9,0.3-1.1,0.4c-1.6,0.6-4.1,1-7.5,1.3c0.5-2.8,1-5.3,1.8-7.7
	c3-0.2,5.6-0.4,7.6-0.4c0.1,0,0.2,0,0.3,0c0.1,0.1,0.2,0.1,0.3,0.1c0.2,0,0.5-0.1,0.7-0.4S393.6,73.9,393.6,73.7z"/>
<path class="st1" d="M400.1,73.3c0-0.4-0.3-0.8-0.8-1.3c-0.5-0.5-0.9-0.8-1.3-0.8c-0.4,0-0.8,0.6-1.1,1.6c-1.2,3.7-1.7,7.6-1.7,11.5
	c0,1,0.1,2.4,0.2,4.2c-0.2,0.4-0.3,1-0.3,1.9c0,1,0.2,1.9,0.7,2.8c0.4,0.9,0.9,1.3,1.5,1.3c0.1,0,0.3-0.1,0.5-0.3
	c0.2-0.1,0.3-0.3,0.3-0.4c0-0.1,0-0.3-0.1-0.5c-0.1-0.3-0.1-0.4-0.1-0.6c-0.3-3.7-0.5-6.2-0.5-7.7c0-3.4,0.5-6.9,1.4-10.4l0.2-0.3
	C399.8,74.3,400.1,73.8,400.1,73.3z"/>
<path class="st1" d="M410.2,87c0-1.2-0.3-2.3-1-3.2c-0.7-0.9-1.6-1.6-2.6-1.9c-0.4-0.1-0.7-0.2-0.7-0.2c-0.2,0-0.5,0.1-0.9,0.4
	c-0.4,0.2-0.8,0.4-1,0.5c-1,0.5-1.9,1.4-2.5,2.7c-0.6,1.1-0.9,2.4-0.9,3.7c0,1.5,0.4,2.8,1.2,3.8c0.8,1,1.9,1.5,3.1,1.5
	c1.4,0,2.7-0.7,3.7-2C409.7,90.7,410.2,89,410.2,87z M407.9,87.4c0,1-0.3,1.9-0.8,2.8c-0.6,0.9-1.2,1.4-2,1.4
	c-0.6,0-1.1-0.3-1.4-0.8c-0.4-0.5-0.6-1.2-0.6-1.9c0-1,0.2-1.9,0.7-2.7c0.5-1,1.2-1.5,2.1-1.5c0.3,0.2,0.7,0.3,1.2,0.3
	C407.6,85.3,407.9,86.1,407.9,87.4z"/>
<path class="st1" d="M431.4,84.7c0-2.4-0.5-3.7-1.6-3.7c-0.8,0-1.2,0.4-1.2,1.4c0,0.1,0,0.3,0.1,0.7c0,0.4,0.1,0.8,0.1,1
	c0,1.9-0.4,3.7-1.1,5.4c-0.8,1.9-1.7,2.8-2.8,2.8s-1.9-2.2-2.5-6.7c-0.1-0.7-0.5-1.1-1-1.1c-0.5,0-0.8,0.3-1.1,1
	c-1.3,3.2-3,5.5-5.1,6.8c-0.8-1.6-1.1-3.8-1.1-6.5c0-0.4,0.1-0.9,0.3-1.7c0.2-0.7,0.3-1.2,0.3-1.4c0-1.4-0.5-2-1.4-2
	c-0.6,0-1,0.4-1.2,1.1c-0.3,1.1-0.4,2.5-0.4,4c0,1.9,0.3,3.9,0.8,5.9c0.6,2.4,1.4,3.7,2.3,3.7c0.7,0,1.7-0.7,3-1.9
	c1.1-1.1,2-2.2,2.9-3.4c0.9,3.1,2.3,4.7,4.3,4.7c1.6,0,3.1-1,4.2-3c0.9-1.5,1.5-3.3,1.8-5.4C431.2,85.9,431.4,85.4,431.4,84.7z"/>
<path class="st1" d="M444.2,93c0-0.3-0.1-0.6-0.4-0.9c-0.2-0.2-0.5-0.4-0.8-0.4c-0.2,0-0.6,0.1-1.1,0.1s-0.9,0.1-1.1,0.1
	c-0.9,0-1.7-0.4-2.4-1.3c3-1.6,4.5-3.5,4.5-5.8c0-0.8-0.4-1.6-1.1-2.4s-1.4-1.1-2.2-1.1c-1.3,0-2.3,0.8-3.2,2.2
	c-0.7,1.3-1.1,2.6-1.1,4.1c0,0.3,0,0.7,0.1,1.2h-0.7c-0.4,0-0.8-0.1-1.2-0.4s-0.7-0.4-0.9-0.4c-0.8,0-1.2,0.4-1.2,1.3
	c0,0.7,0.5,1.2,1.5,1.6c0.8,0.3,1.5,0.5,2.3,0.5h0.9c1.1,2.1,2.8,3.1,5,3.1C443.2,94.5,444.2,94,444.2,93z M440.5,85
	c0,1-0.9,2.1-2.7,3.2v-0.5c0-0.8,0.1-1.6,0.4-2.3c0.3-0.9,0.7-1.4,1.3-1.4c0.2,0,0.5,0.1,0.7,0.3C440.4,84.6,440.5,84.8,440.5,85z"
	/>
<path class="st1" d="M456.1,83.3c0-0.4-0.2-0.8-0.5-1.2c-0.4-0.4-0.7-0.5-1.1-0.5c-2.3,0-4.4,1.4-6.3,4.1c-0.2-1.3-0.4-2.2-0.6-2.7
	c-0.3-0.6-0.8-0.9-1.4-0.9c-0.2,0-0.5,0.1-0.6,0.4c-0.2,0.3-0.3,0.6-0.3,0.9c0,1.3,0.3,2.4,0.8,3.1c0.1,1.2,0.2,2.1,0.2,2.9
	c0,0.8-0.1,1.5-0.2,2.2c-0.2,0.7-0.2,1.1-0.2,1.2c0,0.5,0.1,0.9,0.4,1.3c0.3,0.4,0.7,0.6,1,0.6s0.7-0.3,0.8-0.8
	c0.1-0.3,0.2-0.9,0.4-1.9c0.5-3.7,2-6.1,4.5-7.3c0.4,0.1,0.5,0.2,0.6,0.2c0.5,0,1-0.1,1.6-0.5C455.8,84,456.1,83.6,456.1,83.3z"/>
<path class="st1" d="M480.8,83.2c0-0.3-0.1-0.5-0.3-0.7c-0.2-0.2-0.5-0.3-0.7-0.3c-0.5,0-0.9,0.1-1.5,0.3c-1.2,0.5-1.9,0.7-2.3,0.7
	c-0.1,0-0.2,0-0.5-0.1c-0.2,0-0.4-0.1-0.5-0.1c-0.3,0-0.6,0.1-0.8,0.3c-0.3,0.2-0.4,0.5-0.4,0.8c0,0.2,0.1,0.6,0.3,1.3
	c0.2,0.8,0.3,1.4,0.3,1.8c0,0.8-0.2,1.5-0.6,2.3l-1.7-2.2c-0.8-0.9-1.6-2.3-2.5-4c1.7-1.2,2.8-2.2,3.4-2.9c0.9-1.1,1.4-2.5,1.4-4.1
	c0-1.2-0.4-2.2-1.1-2.9c-0.8-0.8-1.7-1.2-2.8-1.2c-1.5,0-2.7,0.6-3.6,1.9c-0.9,1.2-1.3,2.6-1.3,4.2c0,1,0.3,2.4,1,4.3
	c-1.3,1.1-2.2,2-2.7,2.8c-0.7,1.1-1,2.3-1,3.8c0,1.8,0.5,3.2,1.6,4.3c1.1,1.1,2.5,1.6,4.3,1.6c1.7,0,3.4-0.6,5.1-1.8
	c1.8,1.9,2.9,2.8,3.4,2.8c0.8,0,1.2-0.4,1.2-1.2c0-0.4-0.1-0.7-0.3-1c-1.1-1.1-2-1.9-2.6-2.5c0.8-1.3,1.2-2.7,1.2-4.2
	c0-0.5,0-1.1-0.1-1.6c1.2-0.3,2.2-0.6,2.9-1c0.4-0.2,0.7-0.4,0.9-0.6C480.7,83.9,480.8,83.6,480.8,83.2z M472,76.7
	c0,1.5-1.1,3-3.4,4.4c-0.4-1.1-0.5-2.1-0.5-2.9c0-2.2,0.9-3.4,2.7-3.4c0.4,0,0.7,0.2,0.9,0.5C471.9,75.8,472,76.2,472,76.7z
	 M472.3,91.4c-1.1,0.8-2.4,1.2-3.7,1.2c-1,0-1.8-0.3-2.4-0.9c-0.5-0.7-0.8-1.5-0.8-2.6c0-1.4,0.8-2.8,2.3-4.1
	C468.6,86.5,470.1,88.7,472.3,91.4z"/>
<path class="st1" d="M504.5,73.7c0-0.9-0.8-1.3-2.3-1.3c-0.5,0-1.8,0.1-4,0.2c-2.2,0.1-3.3,0.2-3.3,0.2l-0.6-0.1
	c-0.4,0.1-0.6,0.2-0.8,0.4c-0.8,0.1-1.3,0.2-1.6,0.3c-0.6,0.2-0.9,0.6-0.9,1.2c0,0.8,0.5,1.2,1.4,1.4c-0.6,2.1-1,3.5-1.1,4.3
	c-0.5,2.6-0.9,5.5-1,8.8c-0.4,0.3-0.6,0.6-0.6,0.8c0,2.4,0.3,4.2,1,5.4c0.2,0.4,0.6,0.7,1,0.7c0.3,0,0.5-0.1,0.8-0.4
	c0.2-0.2,0.4-0.5,0.4-0.8c0-0.1-0.1-0.6-0.1-1.6c-0.1-0.9-0.1-1.6-0.1-2.2c0-1.7,0.1-3.5,0.3-5.5c2.8,0,5.7-0.5,8.7-1.4
	c1-0.3,1.5-0.8,1.5-1.5c0-0.8-0.4-1.2-1.2-1.2c-0.5,0.2-0.9,0.3-1.1,0.4c-1.6,0.6-4.1,1-7.5,1.3c0.5-2.8,1-5.3,1.8-7.7
	c3-0.2,5.6-0.4,7.6-0.4c0.1,0,0.2,0,0.3,0c0.1,0.1,0.2,0.1,0.3,0.1c0.2,0,0.5-0.1,0.7-0.4S504.5,73.9,504.5,73.7z"/>
<path class="st1" d="M511.1,73.3c0-0.4-0.3-0.8-0.8-1.3c-0.5-0.5-0.9-0.8-1.3-0.8c-0.4,0-0.8,0.6-1.1,1.6c-1.2,3.7-1.7,7.6-1.7,11.5
	c0,1,0.1,2.4,0.2,4.2c-0.2,0.4-0.3,1-0.3,1.9c0,1,0.2,1.9,0.7,2.8c0.4,0.9,0.9,1.3,1.5,1.3c0.1,0,0.3-0.1,0.5-0.3
	c0.2-0.1,0.3-0.3,0.3-0.4c0-0.1,0-0.3-0.1-0.5c-0.1-0.3-0.1-0.4-0.1-0.6c-0.3-3.7-0.5-6.2-0.5-7.7c0-3.4,0.5-6.9,1.4-10.4l0.2-0.3
	C510.7,74.3,511.1,73.8,511.1,73.3z"/>
<path class="st1" d="M521.2,87c0-1.2-0.3-2.3-1-3.2c-0.7-0.9-1.6-1.6-2.6-1.9c-0.4-0.1-0.7-0.2-0.7-0.2c-0.2,0-0.5,0.1-0.9,0.4
	c-0.4,0.2-0.8,0.4-1,0.5c-1,0.5-1.9,1.4-2.5,2.7c-0.6,1.1-0.9,2.4-0.9,3.7c0,1.5,0.4,2.8,1.2,3.8c0.8,1,1.9,1.5,3.2,1.5
	c1.4,0,2.7-0.7,3.7-2C520.7,90.7,521.2,89,521.2,87z M518.8,87.4c0,1-0.3,1.9-0.8,2.8c-0.6,0.9-1.2,1.4-2,1.4
	c-0.6,0-1.1-0.3-1.4-0.8c-0.4-0.5-0.6-1.2-0.6-1.9c0-1,0.2-1.9,0.7-2.7c0.5-1,1.2-1.5,2.1-1.5c0.3,0.2,0.7,0.3,1.2,0.3
	C518.5,85.3,518.8,86.1,518.8,87.4z"/>
<path class="st1" d="M542.3,84.7c0-2.4-0.5-3.7-1.6-3.7c-0.8,0-1.2,0.4-1.2,1.4c0,0.1,0,0.3,0.1,0.7c0,0.4,0.1,0.8,0.1,1
	c0,1.9-0.4,3.7-1.1,5.4c-0.8,1.9-1.7,2.8-2.8,2.8s-1.9-2.2-2.5-6.7c-0.1-0.7-0.5-1.1-1-1.1c-0.5,0-0.8,0.3-1.1,1
	c-1.3,3.2-3,5.5-5.1,6.8c-0.8-1.6-1.1-3.8-1.1-6.5c0-0.4,0.1-0.9,0.3-1.7c0.2-0.7,0.3-1.2,0.3-1.4c0-1.4-0.5-2-1.4-2
	c-0.6,0-1,0.4-1.2,1.1c-0.3,1.1-0.4,2.5-0.4,4c0,1.9,0.3,3.9,0.8,5.9c0.6,2.4,1.4,3.7,2.3,3.7c0.7,0,1.7-0.7,3-1.9
	c1.1-1.1,2-2.2,2.9-3.4c0.9,3.1,2.3,4.7,4.3,4.7c1.7,0,3.1-1,4.2-3c0.9-1.5,1.5-3.3,1.8-5.4C542.2,85.9,542.3,85.4,542.3,84.7z"/>
<path class="st1" d="M555.2,93c0-0.3-0.1-0.6-0.4-0.9c-0.2-0.2-0.5-0.4-0.8-0.4c-0.2,0-0.6,0.1-1.1,0.1s-0.9,0.1-1.1,0.1
	c-0.9,0-1.7-0.4-2.4-1.3c3-1.6,4.5-3.5,4.5-5.8c0-0.8-0.4-1.6-1.1-2.4c-0.7-0.7-1.4-1.1-2.2-1.1c-1.3,0-2.3,0.8-3.2,2.2
	c-0.7,1.3-1.1,2.6-1.1,4.1c0,0.3,0,0.7,0.1,1.2h-0.7c-0.4,0-0.8-0.1-1.2-0.4c-0.4-0.3-0.7-0.4-0.9-0.4c-0.8,0-1.2,0.4-1.2,1.3
	c0,0.7,0.5,1.2,1.5,1.6c0.8,0.3,1.5,0.5,2.3,0.5h0.9c1.1,2.1,2.8,3.1,5,3.1C554.2,94.5,555.2,94,555.2,93z M551.4,85
	c0,1-0.9,2.1-2.7,3.2v-0.5c0-0.8,0.1-1.6,0.4-2.3c0.3-0.9,0.7-1.4,1.3-1.4c0.2,0,0.5,0.1,0.7,0.3C551.3,84.6,551.4,84.8,551.4,85z"
	/>
<path class="st1" d="M567,83.3c0-0.4-0.2-0.8-0.5-1.2c-0.4-0.4-0.7-0.5-1.1-0.5c-2.3,0-4.4,1.4-6.3,4.1c-0.2-1.3-0.4-2.2-0.6-2.7
	c-0.3-0.6-0.8-0.9-1.3-0.9c-0.2,0-0.5,0.1-0.6,0.4c-0.2,0.3-0.3,0.6-0.3,0.9c0,1.3,0.3,2.4,0.8,3.1c0.1,1.2,0.2,2.1,0.2,2.9
	c0,0.8-0.1,1.5-0.2,2.2c-0.2,0.7-0.2,1.1-0.2,1.2c0,0.5,0.1,0.9,0.4,1.3c0.3,0.4,0.7,0.6,1,0.6c0.4,0,0.7-0.3,0.8-0.8
	c0.1-0.3,0.2-0.9,0.4-1.9c0.5-3.7,2-6.1,4.5-7.3c0.4,0.1,0.5,0.2,0.6,0.2c0.5,0,1-0.1,1.6-0.5C566.7,84,567,83.6,567,83.3z"/>
<path class="st1" d="M595,84.7c0-2.4-0.5-3.7-1.6-3.7c-0.8,0-1.2,0.4-1.2,1.4c0,0.1,0,0.3,0.1,0.7c0,0.4,0.1,0.8,0.1,1
	c0,1.9-0.4,3.7-1.1,5.4c-0.8,1.9-1.7,2.8-2.8,2.8s-1.9-2.2-2.5-6.7c-0.1-0.7-0.5-1.1-1-1.1c-0.5,0-0.8,0.3-1.1,1
	c-1.3,3.2-3,5.5-5.1,6.8c-0.8-1.6-1.1-3.8-1.1-6.5c0-0.4,0.1-0.9,0.3-1.7c0.2-0.7,0.3-1.2,0.3-1.4c0-1.4-0.5-2-1.4-2
	c-0.6,0-1,0.4-1.2,1.1c-0.3,1.1-0.4,2.5-0.4,4c0,1.9,0.3,3.9,0.8,5.9c0.6,2.4,1.4,3.7,2.3,3.7c0.7,0,1.7-0.7,3-1.9
	c1.1-1.1,2-2.2,2.9-3.4c0.9,3.1,2.3,4.7,4.3,4.7c1.7,0,3.1-1,4.2-3c0.9-1.5,1.5-3.3,1.8-5.4C594.8,85.9,595,85.4,595,84.7z"/>
<path class="st1" d="M605.5,87c0-1.2-0.3-2.3-1-3.2c-0.7-0.9-1.6-1.6-2.6-1.9c-0.4-0.1-0.7-0.2-0.7-0.2c-0.2,0-0.5,0.1-0.9,0.4
	c-0.4,0.2-0.8,0.4-1,0.5c-1,0.5-1.9,1.4-2.5,2.7c-0.6,1.1-0.9,2.4-0.9,3.7c0,1.5,0.4,2.8,1.2,3.8c0.8,1,1.9,1.5,3.2,1.5
	c1.4,0,2.7-0.7,3.7-2C605,90.7,605.5,89,605.5,87z M603.1,87.4c0,1-0.3,1.9-0.8,2.8c-0.6,0.9-1.2,1.4-2,1.4c-0.6,0-1.1-0.3-1.4-0.8
	c-0.4-0.5-0.6-1.2-0.6-1.9c0-1,0.2-1.9,0.7-2.7c0.5-1,1.2-1.5,2.1-1.5c0.3,0.2,0.7,0.3,1.2,0.3C602.8,85.3,603.1,86.1,603.1,87.4z"
	/>
<path class="st1" d="M618.2,83.3c0-0.4-0.2-0.8-0.5-1.2c-0.4-0.4-0.7-0.5-1.1-0.5c-2.3,0-4.4,1.4-6.3,4.1c-0.2-1.3-0.4-2.2-0.6-2.7
	c-0.3-0.6-0.8-0.9-1.3-0.9c-0.2,0-0.5,0.1-0.6,0.4c-0.2,0.3-0.3,0.6-0.3,0.9c0,1.3,0.3,2.4,0.8,3.1c0.1,1.2,0.2,2.1,0.2,2.9
	c0,0.8-0.1,1.5-0.2,2.2c-0.2,0.7-0.2,1.1-0.2,1.2c0,0.5,0.1,0.9,0.4,1.3c0.3,0.4,0.7,0.6,1,0.6c0.4,0,0.7-0.3,0.8-0.8
	c0.1-0.3,0.2-0.9,0.4-1.9c0.5-3.7,2-6.1,4.5-7.3c0.4,0.1,0.5,0.2,0.6,0.2c0.5,0,1-0.1,1.6-0.5C617.9,84,618.2,83.6,618.2,83.3z"/>
<path class="st1" d="M629,72.4c0-0.8-0.4-1.2-1.1-1.2c-0.6,0-1,0.3-1.1,0.9c-0.7,2.6-1.2,6.5-1.5,11.6c-0.6-0.5-1.2-0.8-1.6-0.8
	c-1.3,0-2.6,1-4,2.9c-1.4,2-2.2,3.7-2.2,5.2c0,1.1,0.3,2,0.8,2.6c0.6,0.7,1.4,1,2.4,1c0.8,0,1.7-0.4,2.6-1.2c0.9-0.7,1.5-1.5,2-2.4
	c0.3,2.6,0.5,4.3,0.6,4.9c0.1,0.8,0.5,1.2,1.1,1.2c0.3,0,0.5-0.1,0.8-0.4c0.2-0.2,0.4-0.5,0.4-0.8c0-0.1-0.1-0.6-0.2-1.4
	c-0.4-2.1-0.5-4.6-0.5-7.8c0-1.6,0.1-3.9,0.2-6.7c0.2-0.2,0.4-0.5,0.5-0.9c0-0.2,0-0.5,0.1-1c0-0.9,0.2-2.2,0.5-3.8
	C628.9,73.2,629,72.6,629,72.4z M624.5,87.1c-0.3,0.8-0.5,1.4-0.7,1.9c-0.4,0.8-0.8,1.4-1.4,2c-0.7,0.7-1.3,1.1-2,1.1
	c-0.5,0-0.8-0.4-0.8-1.1c0-0.8,0.4-1.7,1.1-2.8c1.3-1.7,2.2-2.6,2.7-2.6c0,0,0.1,0,0.2,0C623.9,86.3,624.2,86.8,624.5,87.1z"/>
</svg>
