<?xml version="1.0" encoding="utf-8"?>
<!-- Generator: Adobe Illustrator 24.1.0, SVG Export Plug-In . SVG Version: 6.00 Build 0)  -->
<svg version="1.1" id="レイヤー_1" xmlns="http://www.w3.org/2000/svg" xmlns:xlink="http://www.w3.org/1999/xlink" x="0px"
	 y="0px" width="128.6px" height="4.1px" viewBox="0 0 128.6 4.1" style="enable-background:new 0 0 128.6 4.1;"
	 xml:space="preserve">
<style type="text/css">
	.st0{fill:#585757;}
</style>
<path class="st0" d="M24.7,0c-1.1,0-2,0.9-2,2c0,1.1,0.9,2,2,2c1.1,0,2-0.9,2-2C26.7,1,25.9,0,24.7,0z"/>
<path class="st0" d="M2,0C0.9,0,0,0.9,0,2c0,1.1,0.9,2,2,2c1.1,0,2-0.9,2-2C4.1,1,3.2,0,2,0z"/>
<path class="st0" d="M13.4,0c-1.1,0-2,0.9-2,2c0,1.1,0.9,2,2,2c1.1,0,2-0.9,2-2C15.4,1,14.6,0,13.4,0z"/>
<path class="st0" d="M47.3,0c-1.1,0-2,0.9-2,2c0,1.1,0.9,2,2,2c1.1,0,2-0.9,2-2C49.4,1,48.5,0,47.3,0z"/>
<path class="st0" d="M58.6,0c-1.1,0-2,0.9-2,2c0,1.1,0.9,2,2,2c1.1,0,2-0.9,2-2C60.7,1,59.8,0,58.6,0z"/>
<path class="st0" d="M36,0c-1.1,0-2,0.9-2,2c0,1.1,0.9,2,2,2c1.1,0,2-0.9,2-2C38,1,37.2,0,36,0z"/>
<path class="st0" d="M81.3,0c-1.1,0-2,0.9-2,2c0,1.1,0.9,2,2,2c1.1,0,2-0.9,2-2C83.3,1,82.5,0,81.3,0z"/>
<path class="st0" d="M70,0c-1.1,0-2,0.9-2,2c0,1.1,0.9,2,2,2c1.1,0,2-0.9,2-2C72,1,71.2,0,70,0z"/>
<path class="st0" d="M92.6,0c-1.1,0-2,0.9-2,2c0,1.1,0.9,2,2,2c1.1,0,2-0.9,2-2C94.7,1,93.8,0,92.6,0z"/>
<path class="st0" d="M126.6,0c-1.1,0-2,0.9-2,2c0,1.1,0.9,2,2,2c1.1,0,2-0.9,2-2C128.6,1,127.8,0,126.6,0z"/>
<path class="st0" d="M115.3,0c-1.1,0-2,0.9-2,2c0,1.1,0.9,2,2,2c1.1,0,2-0.9,2-2C117.3,1,116.5,0,115.3,0z"/>
<path class="st0" d="M103.9,0c-1.1,0-2,0.9-2,2c0,1.1,0.9,2,2,2c1.1,0,2-0.9,2-2C106,1,105.1,0,103.9,0z"/>
</svg>
