<?xml version="1.0" encoding="utf-8"?>
<!-- Generator: Adobe Illustrator 24.1.0, SVG Export Plug-In . SVG Version: 6.00 Build 0)  -->
<svg version="1.1" id="btn_x5F_cheer" xmlns="http://www.w3.org/2000/svg" xmlns:xlink="http://www.w3.org/1999/xlink" x="0px"
	 y="0px" width="80px" height="80px" viewBox="0 0 80 80" style="enable-background:new 0 0 80 80;" xml:space="preserve">
<style type="text/css">
	.st0{fill:#FFFFFF;}
</style>
<path class="st0" d="M34.2,52.1c0.3-0.5,0.6-0.9,0.8-1.4c1,1.3,3.1,2.6,5.1,3c4.6,0.9,8.8-1.2,8.8-1.2s-2.6-4-7-5.5
	c-2-0.7-4.3-0.6-5.9,0c0-0.3,0-0.5,0-0.8c0-0.3,0-0.6,0-0.8c1.6,0.6,3.9,0.7,5.9,0c4.4-1.5,7-5.5,7-5.5s-4.2-2.1-8.8-1.2
	c-2.1,0.4-4.1,1.6-5.1,3c-0.2-0.5-0.5-1-0.8-1.4c1.7-0.3,3.7-1.4,5.1-3c3.1-3.5,3.4-8.3,3.4-8.3s-4.7,0.3-8.2,3.4
	c-1.6,1.4-2.7,3.5-3,5.1C31,37,30.5,36.7,30,36.5c1.3-1.1,2.5-3.1,2.9-5.1c0.9-4.6-1.2-8.9-1.2-8.9s-3.9,2.6-5.5,7.1
	c-0.7,2-0.6,4.4,0,5.9c-0.3,0-0.5,0-0.8,0c-0.3,0-0.5,0-0.8,0c0.6-1.6,0.7-3.9,0-5.9c-1.5-4.5-5.5-7.1-5.5-7.1s-2.1,4.3-1.2,8.9
	c0.4,2.1,1.6,4.1,2.9,5.1c-0.5,0.2-1,0.5-1.4,0.8c-0.3-1.7-1.4-3.7-3-5.1c-3.5-3.1-8.2-3.4-8.2-3.4s0.3,4.8,3.4,8.3
	c1.4,1.6,3.4,2.7,5.1,3c-0.3,0.5-0.6,0.9-0.8,1.4c-1-1.3-3.1-2.6-5.1-3C6.2,37.6,2,39.7,2,39.7s2.6,4,7,5.5c2,0.7,4.3,0.6,5.9,0
	c0,0.3,0,0.5,0,0.8c0,0.3,0,0.6,0,0.8c-1.6-0.6-3.9-0.7-5.9,0c-4.4,1.5-7,5.5-7,5.5s4.2,2.1,8.8,1.2c2.1-0.4,4.1-1.6,5.1-3
	c0.2,0.5,0.5,1,0.8,1.4c-1.7,0.3-3.7,1.4-5.1,3c-3.1,3.5-3.4,8.3-3.4,8.3s4.7-0.3,8.2-3.4c1.6-1.4,2.7-3.5,3-5.1
	c0.4,0.3,0.9,0.6,1.4,0.8c-1.3,1.1-2.5,3.1-2.9,5.1c-0.9,4.6,1.2,8.9,1.2,8.9s3.9-2.6,5.5-7.1c0.7-2,0.6-4.4,0-5.9
	c0.3,0,0.5,0,0.8,0c0.3,0,0.5,0,0.8,0c-0.6,1.6-0.7,3.9,0,5.9c1.5,4.5,5.5,7.1,5.5,7.1s2.1-4.3,1.2-8.9c-0.4-2.1-1.6-4.1-2.9-5.1
	c0.5-0.2,1-0.5,1.4-0.8c0.3,1.7,1.4,3.7,3,5.1c3.5,3.1,8.2,3.4,8.2,3.4s-0.3-4.8-3.4-8.3C37.9,53.5,35.8,52.3,34.2,52.1z M31.9,48.3
	l2.2-2.2c0,0.8-0.1,1.5-0.3,2.3l-0.9,0.9l0.4,0.4c-0.2,0.4-0.4,0.9-0.7,1.2l-0.7-0.7l-2.2,2.3l0.7,0.7c-0.4,0.3-0.8,0.5-1.2,0.7
	l-0.4-0.4l-0.9,0.9c-0.7,0.2-1.5,0.3-2.3,0.3l2.2-2.2l-2.2-2.3l-2.2,2.3l2.2,2.2c-0.8,0-1.5-0.1-2.3-0.3l-0.9-0.9l-0.4,0.4
	c-0.4-0.2-0.8-0.4-1.2-0.7l0.7-0.7L19,50.3l-0.7,0.7c-0.3-0.4-0.5-0.8-0.7-1.2l0.4-0.4l-0.9-0.9c-0.2-0.7-0.3-1.5-0.3-2.3l2.2,2.2
	l2.2-2.3L19,43.8L16.9,46c0-0.8,0.1-1.5,0.3-2.3l0.9-0.9l-0.4-0.4c0.2-0.4,0.4-0.9,0.7-1.2l0.7,0.7l2.2-2.3l-0.7-0.7
	c0.4-0.3,0.8-0.5,1.2-0.7l0.4,0.4l0.9-0.9c0.7-0.2,1.5-0.3,2.3-0.3l-2.2,2.2l2.2,2.3l2.2-2.3l-2.2-2.2c0.8,0,1.5,0.1,2.3,0.3
	l0.9,0.9l0.4-0.4c0.4,0.2,0.8,0.4,1.2,0.7l-0.7,0.7l2.2,2.3l0.7-0.7c0.3,0.4,0.5,0.8,0.7,1.2l-0.4,0.4l0.9,0.9
	c0.2,0.7,0.3,1.5,0.3,2.3l-2.2-2.2l-2.2,2.3L31.9,48.3z"/>
<polygon class="st0" points="26.4,42.8 28.7,45.1 30.9,42.8 28.7,40.6 "/>
<polygon class="st0" points="24.5,42.8 22.3,40.6 20,42.8 22.3,45.1 "/>
<polygon class="st0" points="26.4,49.3 28.7,51.5 30.9,49.3 28.7,47 "/>
<polygon class="st0" points="20,49.3 22.3,51.5 24.5,49.3 22.3,47 "/>
<polygon class="st0" points="25.5,43.8 23.2,46.1 25.5,48.3 27.7,46.1 "/>
<path class="st0" d="M73.9,26.9c-1.4-0.5-3.1-0.4-4.2,0c0-0.2,0-0.4,0-0.6c0-0.2,0-0.4,0-0.6c1.1,0.4,2.8,0.5,4.2,0
	c3.1-1.1,5-3.9,5-3.9s-3-1.5-6.3-0.9c-1.5,0.3-2.9,1.2-3.6,2.1c-0.2-0.4-0.4-0.7-0.6-1c1.2-0.2,2.6-1,3.6-2.1
	c2.2-2.5,2.4-5.9,2.4-5.9s-3.4,0.2-5.9,2.4c-1.1,1-1.9,2.5-2.1,3.6c-0.3-0.2-0.7-0.4-1-0.6c0.9-0.8,1.8-2.2,2.1-3.7
	c0.6-3.3-0.9-6.3-0.9-6.3s-2.8,1.9-3.9,5c-0.5,1.4-0.4,3.1,0,4.2c-0.2,0-0.4,0-0.6,0c-0.2,0-0.4,0-0.6,0c0.4-1.1,0.5-2.8,0-4.2
	c-1.1-3.2-3.9-5-3.9-5s-1.5,3-0.9,6.3c0.3,1.5,1.2,2.9,2.1,3.7c-0.4,0.2-0.7,0.4-1,0.6c-0.2-1.2-1-2.7-2.1-3.6
	C53.4,14.2,50,14,50,14s0.2,3.4,2.4,5.9c1,1.1,2.4,1.9,3.6,2.1c-0.2,0.3-0.4,0.7-0.6,1c-0.7-0.9-2.2-1.8-3.6-2.1
	c-3.3-0.6-6.3,0.9-6.3,0.9s1.9,2.8,5,3.9c1.4,0.5,3.1,0.4,4.2,0c0,0.2,0,0.4,0,0.6s0,0.4,0,0.6c-1.1-0.4-2.8-0.5-4.2,0
	c-3.1,1.1-5,3.9-5,3.9s3,1.5,6.3,0.9c1.5-0.3,2.9-1.2,3.6-2.1c0.2,0.4,0.4,0.7,0.6,1c-1.2,0.2-2.6,1-3.6,2.1
	c-2.2,2.5-2.4,5.9-2.4,5.9s3.4-0.2,5.9-2.4c1.1-1,1.9-2.5,2.1-3.6c0.3,0.2,0.7,0.4,1,0.6c-0.9,0.8-1.8,2.2-2.1,3.7
	c-0.6,3.3,0.9,6.3,0.9,6.3s2.8-1.9,3.9-5c0.5-1.4,0.4-3.1,0-4.2c0.2,0,0.4,0,0.6,0c0.2,0,0.4,0,0.6,0c-0.4,1.1-0.5,2.8,0,4.2
	c1.1,3.2,3.9,5,3.9,5s1.5-3,0.9-6.3c-0.3-1.5-1.2-2.9-2.1-3.7c0.4-0.2,0.7-0.4,1-0.6c0.2,1.2,1,2.7,2.1,3.6c2.5,2.2,5.9,2.4,5.9,2.4
	s-0.2-3.4-2.4-5.9c-1-1.1-2.4-1.9-3.6-2.1c0.2-0.3,0.4-0.7,0.6-1c0.7,0.9,2.2,1.8,3.6,2.1c3.3,0.6,6.3-0.9,6.3-0.9
	S77.1,28,73.9,26.9z M66.8,27.9l1.5-1.6c0,0.6-0.1,1.1-0.2,1.6l-0.6,0.6l0.3,0.3c-0.1,0.3-0.3,0.6-0.5,0.9l-0.5-0.5l-1.6,1.6
	l0.5,0.5c-0.3,0.2-0.6,0.4-0.9,0.5l-0.3-0.3l-0.6,0.6c-0.5,0.1-1,0.2-1.6,0.2l1.5-1.6l-1.6-1.6l-1.6,1.6l1.5,1.6
	c-0.6,0-1.1-0.1-1.6-0.2L60,31.6l-0.3,0.3c-0.3-0.1-0.6-0.3-0.9-0.5l0.5-0.5l-1.6-1.6l-0.5,0.5c-0.2-0.3-0.4-0.6-0.5-0.9l0.3-0.3
	L56.4,28c-0.1-0.5-0.2-1.1-0.2-1.6l1.5,1.6l1.6-1.6l-1.6-1.6l-1.5,1.6c0-0.6,0.1-1.1,0.2-1.6L57,24l-0.3-0.3
	c0.1-0.3,0.3-0.6,0.5-0.9l0.5,0.5l1.6-1.6l-0.5-0.5c0.3-0.2,0.6-0.4,0.9-0.5L60,21l0.6-0.6c0.5-0.1,1-0.2,1.6-0.2l-1.5,1.6l1.6,1.6
	l1.6-1.6l-1.5-1.6c0.6,0,1.1,0.1,1.6,0.2l0.6,0.6l0.3-0.3c0.3,0.1,0.6,0.3,0.9,0.5l-0.5,0.5l1.6,1.6l0.5-0.5
	c0.2,0.3,0.4,0.6,0.5,0.9L67.5,24l0.6,0.6c0.1,0.5,0.2,1.1,0.2,1.6l-1.5-1.6l-1.6,1.6L66.8,27.9z"/>
<polygon class="st0" points="62.9,24 64.5,25.6 66.1,24 64.5,22.4 "/>
<polygon class="st0" points="61.6,24 60,22.4 58.4,24 60,25.6 "/>
<polygon class="st0" points="62.9,28.6 64.5,30.2 66.1,28.6 64.5,27 "/>
<polygon class="st0" points="58.4,28.6 60,30.2 61.6,28.6 60,27 "/>
<polygon class="st0" points="62.2,24.7 60.7,26.3 62.2,27.9 63.8,26.3 "/>
<path class="st0" d="M51.5,51.1c5.4,2.8,6.5,8.4,12.4,7.8c6.5-0.7,8.8-5.4,12.9-9.2C71.9,46.2,61.3,40.3,51.5,51.1z"/>
<path class="st0" d="M54.9,57.9c-1.7-1.2-3.3-1.7-5.4-1.8c-1.6,0-2.6,1-3.9,1.1l-0.1,0.2c-1.5,3.7,2,7.8,4.8,9.8
	c4.6,3.3,8.3-1.6,12.9-1.8C60,63.3,58,60.1,54.9,57.9z"/>
</svg>
