<?xml version="1.0" encoding="utf-8"?>
<!-- Generator: Adobe Illustrator 24.1.0, SVG Export Plug-In . SVG Version: 6.00 Build 0)  -->
<svg version="1.1" id="btn_x5F_cheer" xmlns="http://www.w3.org/2000/svg" xmlns:xlink="http://www.w3.org/1999/xlink" x="0px"
	 y="0px" width="80px" height="80px" viewBox="0 0 80 80" style="enable-background:new 0 0 80 80;" xml:space="preserve">
<style type="text/css">
	.st0{display:none;}
	.st1{display:inline;fill:#FFFFFF;}
	.st2{display:none;fill-rule:evenodd;clip-rule:evenodd;fill:#FFFFFF;}
	.st3{fill:#FFFFFF;}
	.st4{display:inline;fill-rule:evenodd;clip-rule:evenodd;fill:#FFFFFF;}
</style>
<g class="st0">
	<path class="st1" d="M46.6,68.9l5.3-6.8l-1.8-2.8l-8.7,1.3c-0.7,0.1-1.1,0.9-0.7,1.5l4.2,6.8C45.4,69.4,46.2,69.5,46.6,68.9z
		 M52.8,61.5l2.5-1.5l-1.8-2.8L51,58.7L52.8,61.5z M56.1,59.5l8.5-1.8c0.7-0.1,1-0.9,0.7-1.5L61,49.5c-0.4-0.6-1.3-0.6-1.7,0l-5,7.2
		L56.1,59.5z"/>
	<path class="st1" d="M28.4,17.9c1.9,1.3,5.3,1.4,5.3,1.4s-1.3-3.1-3.2-4.5c-1.9-1.3-3.1-1.1-3.7-0.3C26.3,15.4,26.5,16.6,28.4,17.9
		z"/>
	<path class="st1" d="M28.4,29.1c0.7,0.7,1.9,0.7,3.6-1c1.6-1.6,2.3-5,2.3-5s-3.3,0.7-5,2.4C27.7,27.2,27.7,28.4,28.4,29.1z"/>
	<path class="st1" d="M25,22.2c0.1,1,1,1.8,3.3,1.5s5-2.3,5-2.3s-3-1.6-5.3-1.4C25.7,20.2,24.9,21.1,25,22.2z"/>
	<path class="st1" d="M33.9,29c-0.2,2.3,0.6,3.2,1.6,3.3s1.9-0.7,2.1-3c0.2-2.3-1.4-5.3-1.4-5.3S34.1,26.7,33.9,29z"/>
	<path class="st1" d="M43,30.1c0.8-0.6,1-1.8-0.3-3.7c-1.3-1.9-4.5-3.2-4.5-3.2s0.2,3.4,1.5,5.3C41,30.5,42.2,30.7,43,30.1z"/>
	<path class="st1" d="M37.5,19c-1.1-0.7-2.5-0.5-3.3,0.6s-0.5,2.5,0.6,3.3s2.5,0.5,3.3-0.6C38.9,21.2,38.6,19.7,37.5,19z"/>
	<path class="st1" d="M39.3,21.6c0,0,2.3,2.5,4.6,3.1c2.2,0.6,3.3,0,3.6-1s-0.4-2-2.6-2.6C42.5,20.5,39.3,21.6,39.3,21.6z"/>
	<path class="st1" d="M35.8,12.6c-0.6-2.2-1.6-2.8-2.6-2.6c-1,0.3-1.6,1.3-0.9,3.5s3.1,4.5,3.1,4.5S36.4,14.8,35.8,12.6z"/>
	<path class="st1" d="M46.5,16c-0.4-0.9-1.6-1.3-3.7-0.3c-2.1,1-3.9,3.9-3.9,3.9s3.4,0.4,5.5-0.5C46.5,18,47,16.9,46.5,16z"/>
	<path class="st1" d="M37.9,12.7c-1,2.1-0.5,5.5-0.5,5.5s2.9-1.8,3.8-3.9s0.6-3.2-0.3-3.7C40,10.2,38.9,10.6,37.9,12.7z"/>
	<path class="st1" d="M26.5,32.5c-1.3,0-2.8,0.8-3.6,1.2c0.8-0.5,2.1-1.5,2.7-2.6c0.9-1.7,0.7-2.6-0.1-3c-0.7-0.4-1.7-0.1-2.6,1.5
		c-0.6,1.1-0.7,2.8-0.7,3.7c0-0.9-0.2-2.6-0.9-3.7c-1-1.6-1.9-1.9-2.6-1.4c-0.7,0.4-0.9,1.4,0.1,3c0.7,1.1,2,2,2.8,2.5
		c-0.8-0.4-2.3-1.1-3.6-1.1c-1.9,0-2.6,0.7-2.6,1.5c0,0.8,0.7,1.5,2.6,1.4c1.3,0,2.8-0.8,3.6-1.2c-0.8,0.5-2.1,1.5-2.7,2.6
		c-0.9,1.6-0.7,2.6,0.1,3c0.7,0.4,1.7,0.1,2.6-1.5c0.6-1.1,0.7-2.8,0.7-3.7c0,0.9,0.2,2.6,0.9,3.7c1,1.6,1.9,1.9,2.6,1.4
		c0.7-0.4,0.9-1.4-0.1-3c-0.7-1.1-2-2-2.8-2.5c0.8,0.4,2.3,1.1,3.6,1.1c1.9,0,2.6-0.7,2.6-1.5C29.1,33.1,28.3,32.5,26.5,32.5z"/>
	<polygon class="st1" points="53.3,25.6 22.7,44.5 49.5,57.8 53.3,55.4 	"/>
	<polygon class="st1" points="53.9,70 62.4,64.8 56.2,61.6 53.8,63.1 	"/>
</g>
<path class="st2" d="M40.4,30.7c-0.9-1.8-1.5-3.3-2.4-4.7c-3.1-4.7-9.3-6.3-14.2-3.9c-4.7,2.3-6.5,7-4.7,12.6
	c0.5,1.7,1.3,3.3,2.2,4.8c4.8,8.4,19,19.6,19,19.6s14-10.3,20.3-21.2c0.7-1.2,1.2-2.5,1.5-3.8c0.8-4,0.6-7.9-3-10.8
	c-5.1-4.2-13.2-2.5-16.7,3.6C41.7,28,41.1,29.3,40.4,30.7z"/>
<path class="st3" d="M40.6,15.5L18.4,34.7v29.8h14V51.3h16.1v13.2h13.9V34.7L40.6,15.5z M49.5,37.8h-6v7h-6v-7h-6v-6h6v-7h6v7h6
	V37.8z"/>
<g class="st0">
	<path class="st1" d="M49,32.3l2.7,3.2l-3.1-10.9c-0.1-0.5-0.5-0.9-0.9-1.2c-0.4-0.3-1-0.3-1.5-0.2s-0.9,0.5-1.2,0.9
		c-0.3,0.5-0.3,1-0.2,1.5l1.5,5.5c0.1,0,0.1,0,0.2,0C47.6,31.2,48.4,31.6,49,32.3z"/>
	<path class="st1" d="M43.7,36.7c-0.6-0.7-0.9-1.6-0.8-2.5c0-0.5,0.2-0.9,0.4-1.3c0.2-0.4,0.5-0.8,0.8-1c0,0,0.1,0,0.1-0.1L34,17.4
		c-0.6-0.9-1.8-1.1-2.7-0.5c-0.4,0.3-0.7,0.7-0.8,1.2c-0.1,0.5,0,1,0.3,1.4l7.8,10.9c0.2,0.3,0.1,0.6-0.1,0.8
		c-0.1,0.1-0.3,0.1-0.4,0.1c-0.2,0-0.3-0.1-0.4-0.2l-9.7-13.6c-0.6-0.9-1.8-1.1-2.7-0.5c-0.4,0.3-0.7,0.7-0.8,1.2
		c-0.1,0.5,0,1,0.3,1.4l8.9,12.5l12.4,7.1L43.7,36.7z"/>
	<path class="st1" d="M29.6,31.2c0.6-0.2,1.2-0.1,1.8,0l-5.7-8c-0.6-0.9-1.8-1.1-2.7-0.5l0,0c-0.4,0.3-0.7,0.7-0.8,1.2
		c-0.1,0.5,0,1,0.3,1.4l5.1,7.2C28.1,31.9,28.8,31.4,29.6,31.2z"/>
	<path class="st1" d="M26.8,34.2l0.2,0.1c0-0.2,0-0.3,0.1-0.5l-2.8-4c-0.3-0.4-0.8-0.7-1.3-0.8s-1,0-1.5,0.3
		c-0.4,0.3-0.7,0.7-0.8,1.2c-0.1,0.5,0,1,0.3,1.4l1.8,2.5c0.2-0.2,0.4-0.3,0.6-0.4C24.5,33.6,25.8,33.6,26.8,34.2z"/>
	<path class="st1" d="M58.4,45.6L47.9,33.2c-0.3-0.4-0.8-0.6-1.3-0.7c-0.5,0-1,0.1-1.4,0.4c-0.2,0.2-0.4,0.4-0.5,0.6
		c-0.1,0.2-0.2,0.5-0.2,0.7c-0.1,0.5,0.1,1,0.4,1.4l5.8,6.8c0.2,0.2,0.2,0.5,0,0.7c-0.2,0.2-0.5,0.3-0.8,0.1L31.5,32.8
		c-0.4-0.3-1-0.3-1.5-0.2s-0.9,0.5-1.2,0.9c0,0.1-0.1,0.1-0.1,0.2c-0.4,0.9-0.1,1.9,0.8,2.4l11.7,6.7c0.3,0.2,0.4,0.5,0.2,0.8
		c-0.1,0.1-0.2,0.2-0.4,0.3c-0.2,0-0.3,0-0.4-0.1l-14.6-8.3c-0.6-0.3-1.3-0.3-1.9,0c-0.3,0.2-0.6,0.4-0.8,0.7
		c-0.5,0.9-0.2,2.1,0.7,2.6l14.6,8.4c0.3,0.2,0.4,0.5,0.2,0.8c-0.2,0.3-0.5,0.4-0.8,0.2l-11.7-6.7c-0.1,0-0.1-0.1-0.2-0.1
		c-0.9-0.4-2,0-2.5,0.8c-0.5,0.9-0.2,2.1,0.7,2.6l11.8,6.7c0.2,0.1,0.3,0.3,0.3,0.4c0,0.1,0,0.2-0.1,0.3c-0.2,0.3-0.5,0.4-0.8,0.2
		l-7.7-4.4c-0.9-0.5-2.1-0.2-2.7,0.7c-0.3,0.4-0.3,1-0.2,1.4c0.1,0.5,0.4,0.9,0.9,1.2l18.9,10.8c1.4,0.8,2.9,1.2,4.3,1.2
		c2.5,0,4.9-1.2,6.1-3.3l3.9-6.7C60.7,51.1,60.3,48,58.4,45.6z"/>
</g>
<g class="st0">
	<path class="st1" d="M42.9,26.6c0,0,2.2-2.6,3-4.7c-2.3-1.2-6.7-2.2-9.8,0.2c-2.7,2.1-5.7,7.4-7.5,11c1.2-3.8,2.5-9.7,1.9-13.1
		C29.9,16,26,13.7,23.5,13c-0.8,2.1-1,5.5-1,5.5s-1.8-2.9-3.5-4.4c-1.9,1.9-4.1,5.8-2.8,9.5c1.2,3.2,5.2,7.8,8,10.5
		c-3.3-2.3-8.4-5.4-11.8-5.9c-3.8-0.6-7.2,2.4-8.7,4.6c1.8,1.4,4.9,2.6,4.9,2.6s-3.3,0.8-5.2,2c1.2,2.4,4.2,5.7,8.1,5.6
		c3.4-0.1,8.9-2.6,12.4-4.5c-3.2,2.4-7.7,6.4-9.2,9.5c-1.7,3.5,0,7.7,1.7,9.8c1.9-1.3,4-3.9,4-3.9s-0.2,3.4,0.3,5.6
		c2.6-0.4,6.7-2.3,7.8-6c1-3.3,0.3-9.3-0.4-13.3c1.3,3.8,3.7,9.3,6.1,11.8c2.8,2.7,7.3,2.3,9.7,1.4c-0.6-2.2-2.5-5.1-2.5-5.1
		s3.2,1.3,5.4,1.4c0.4-2.6,0-7.1-3.3-9.3c-2.8-1.9-8.7-3.2-12.7-3.7c4-0.1,10-0.6,13-2.2c3.5-1.8,4.5-6.2,4.3-8.9
		C46.2,25.7,42.9,26.6,42.9,26.6z"/>
	<path class="st1" d="M74.2,53.1c0,0,2-0.5,3.2-1.3c-0.7-1.5-2.6-3.6-4.9-3.5c-2.1,0.1-5.4,1.6-7.6,2.8c1.9-1.5,4.7-4,5.6-5.9
		c1.1-2.2,0-4.7-1-6C68.3,40,67,41.6,67,41.6s0.1-2.1-0.2-3.5c-1.6,0.2-4.1,1.4-4.8,3.7c-0.6,2-0.2,5.8,0.2,8.2
		c-0.8-2.3-2.3-5.8-3.7-7.3c-1.7-1.7-4.4-1.4-5.9-0.9c0.4,1.3,1.5,3.1,1.5,3.1s-1.9-0.8-3.3-0.9c-0.3,1.6,0,4.4,2,5.8
		c1.7,1.2,5.3,2,7.7,2.3c-2.4,0-6.1,0.4-7.9,1.4c-2.1,1.1-2.7,3.8-2.6,5.5c1.4,0.1,3.4-0.5,3.4-0.5s-1.3,1.6-1.8,2.9
		c1.4,0.8,4.1,1.3,6-0.1c1.7-1.3,3.5-4.6,4.5-6.8c-0.7,2.4-1.5,6-1.2,8.1c0.4,2.4,2.8,3.8,4.3,4.3c0.5-1.3,0.6-3.4,0.6-3.4
		s1.1,1.8,2.1,2.7c1.1-1.2,2.5-3.6,1.7-5.9c-0.7-2-3.2-4.8-4.9-6.5c2,1.4,5.1,3.3,7.2,3.7c2.4,0.4,4.4-1.5,5.3-2.9
		C76.2,53.8,74.2,53.1,74.2,53.1z"/>
	<path class="st1" d="M59.8,29.9C59.8,29.9,61.5,29.9,59.8,29.9c2.9-0.4,9-0.1,13.5-3.7c2.3-1.8,2.8-4.9,2.6-6.9c-1.6,0.1-4,1-4,1
		s1.4-2.1,1.9-3.7c-1.8-0.7-4.9-0.9-7.2,0.9C62,21.1,59.8,29.9,59.8,29.9z"/>
</g>
<g class="st0">
	<path class="st1" d="M58.9,31.6c0.4-0.2,0.7-0.3,1.1-0.6c0.3-0.2,0.7-0.5,1-0.7c0.3-0.3,0.6-0.5,0.9-0.8c0.3-0.3,0.6-0.6,0.8-0.9
		c0.3-0.3,0.5-0.7,0.7-1c0.2-0.3,0.4-0.7,0.6-1.1c0.2-0.4,0.4-0.7,0.5-1.1c0.2-0.4,0.3-0.8,0.4-1.2c0.1-0.4,0.2-0.8,0.3-1.2
		c0.1-0.4,0.2-0.8,0.2-1.2s0.1-0.8,0.1-1.2c0-0.4,0-0.8-0.1-1.2c0-0.4-0.1-0.8-0.2-1.2c-0.1-0.4-0.2-0.8-0.4-1.2
		c-0.2-0.4-0.3-0.9-0.4-1.3c-0.1-0.5-0.1-0.9-0.1-1.3c0-0.5,0-0.9,0.1-1.3c0.1-0.5,0.2-0.9,0.4-1.3c0.3-0.7,0.6-1.1,0.6-1.1
		s-0.3,0.4-1,0.9c-0.3,0.2-0.7,0.4-1.1,0.6c-0.4,0.2-0.8,0.3-1.3,0.4c-0.4,0.1-0.8,0.1-1.3,0.1c-0.4,0-0.8,0-1.3-0.1
		c-0.4-0.1-0.8-0.1-1.2-0.1c-0.4,0-0.8,0-1.2,0.1c-0.4,0-0.8,0.1-1.2,0.2c-0.4,0.1-0.8,0.2-1.2,0.3s-0.8,0.3-1.2,0.5
		c-0.4,0.2-0.7,0.4-1.1,0.6s-0.7,0.4-1,0.7c-0.3,0.2-0.7,0.5-1,0.8c-0.3,0.3-0.6,0.5-0.9,0.8c-0.3,0.3-0.6,0.6-0.8,0.9
		c-0.3,0.3-0.5,0.7-0.8,1c-0.2,0.3-0.4,0.7-0.6,1.1c-0.2,0.4-0.4,0.8-0.5,1.1c-0.1,0.4-0.3,0.8-0.3,1.2c-0.1-0.4-0.2-0.8-0.3-1.3
		c-0.1-0.4-0.3-0.8-0.4-1.2c-0.2-0.4-0.4-0.8-0.6-1.2c-0.2-0.4-0.5-0.8-0.7-1.1c-0.3-0.4-0.5-0.7-0.8-1c-0.3-0.4-0.6-0.7-0.9-1
		c-0.6-0.6-0.9-0.9-0.9-0.9s-0.1,0.3-0.5,1.2c-0.1,0.3-0.3,0.7-0.4,1.2c-0.1,0.3-0.3,0.7-0.4,1.2c-0.1,0.4-0.3,0.8-0.4,1.2
		c-0.1,0.4-0.3,0.8-0.4,1.2c-0.1,0.4-0.3,0.8-0.4,1.2c-0.1,0.4-0.3,0.8-0.4,1.2c-0.1,0.4-0.3,0.8-0.4,1.2c-0.1,0.4-0.2,0.8-0.3,1.2
		c-0.1,0.4-0.1,0.8-0.2,1.2c0,0.4-0.1,0.8-0.1,1.3c0,0.4,0,0.8,0.1,1.3c0,0.4,0.1,0.8,0.2,1.2c0.1,0.4,0.2,0.8,0.3,1.2
		c0.1,0.4,0.3,0.8,0.5,1.2s0.4,0.7,0.6,1.1c0.2,0.3,0.5,0.7,0.8,1c0.3,0.3,0.6,0.6,0.9,0.9c0.3,0.3,0.6,0.5,1,0.8
		c0.3,0.2,0.7,0.4,1.1,0.6c0.4,0.2,0.7,0.4,1.1,0.5c0.2,0.3,0.5,0.7,0.7,1c0.3,0.3,0.6,0.6,0.8,0.9c0.3,0.3,0.6,0.6,0.9,0.8
		c0.3,0.3,0.7,0.5,1.1,0.7s0.7,0.4,1.1,0.5s0.8,0.3,1.2,0.4c0.4,0.1,0.8,0.2,1.2,0.2s0.8,0.1,1.2,0.1c0.4,0,0.8,0,1.2-0.1
		c0.4-0.1,0.8-0.1,1.2-0.2c0.4-0.1,0.8-0.2,1.2-0.3c0.4-0.1,0.8-0.3,1.2-0.4c0.4-0.2,0.8-0.3,1.1-0.5c0.4-0.2,0.7-0.4,1.1-0.6
		c0.4-0.2,0.7-0.4,1.1-0.7c0.4-0.2,0.7-0.4,1.1-0.7c0.4-0.2,0.7-0.5,1.1-0.7c0.4-0.2,0.7-0.5,1.1-0.7c0.4-0.3,0.8-0.5,1.1-0.7
		c0.4-0.3,0.8-0.5,1.1-0.7c0.8-0.5,1-0.7,1-0.7s-0.4-0.3-1.1-0.7c-0.3-0.2-0.7-0.4-1.1-0.7c-0.4-0.2-0.7-0.4-1.2-0.6
		c-0.4-0.2-0.8-0.3-1.2-0.5c-0.4-0.1-0.8-0.3-1.2-0.3c-0.4-0.1-0.8-0.2-1.3-0.2C59.7,31.6,59.3,31.6,58.9,31.6z M48,33.3
		c-0.3,0.3-0.6,0.6-0.8,0.9c-0.3,0.3-0.6,0.6-0.8,0.9c-0.3,0.3-0.6,0.6-0.9,0.9c-0.4,0.4-0.8,0.7-1,0.7c0-0.2,0.2-0.6,0.5-1.1
		c0.2-0.3,0.4-0.6,0.7-1c0.2-0.3,0.4-0.6,0.7-1c0.2-0.3,0.5-0.6,0.7-1c-0.2-0.2-0.4-0.6-0.6-1.1c-0.1-0.3-0.3-0.7-0.4-1.2
		c-0.1-0.4-0.2-0.8-0.3-1.2c-0.1-0.4-0.2-0.8-0.3-1.2s-0.2-0.8-0.2-1.2c-0.1-0.4-0.2-0.8-0.2-1.2C45,25,45,24.6,44.9,24.2
		c-0.1-0.5-0.1-0.9-0.1-1.2c0.2,0.3,0.3,0.6,0.5,1.1c0.1,0.3,0.3,0.7,0.4,1.1c0.1,0.4,0.3,0.7,0.4,1.1c0.1,0.4,0.3,0.8,0.4,1.1
		c0.1,0.4,0.2,0.8,0.3,1.2c0.1,0.4,0.2,0.8,0.3,1.2c0.1,0.4,0.2,0.8,0.2,1.2c0.1,0.5,0.1,0.9,0.1,1.2c0.2-0.3,0.5-0.6,0.7-0.9
		c0.2-0.3,0.5-0.6,0.7-0.9c0.2-0.3,0.5-0.6,0.7-0.9s0.5-0.6,0.7-0.9c0.2-0.3,0.5-0.6,0.7-0.9c-0.2-0.2-0.3-0.6-0.5-1
		c-0.1-0.3-0.2-0.7-0.3-1.1c-0.1-0.3-0.2-0.7-0.3-1.1c-0.1-0.4-0.2-0.7-0.2-1.1c-0.1-0.4-0.1-0.8-0.2-1.1c-0.1-0.4-0.1-0.8-0.2-1.1
		c-0.1-0.5-0.1-0.8-0.1-1.1c0.2,0.3,0.3,0.7,0.5,1.1c0.1,0.4,0.3,0.8,0.4,1.2c0.1,0.4,0.3,0.8,0.4,1.2c0.1,0.4,0.2,0.8,0.3,1.2
		c0.1,0.4,0.2,0.8,0.3,1.2c0.1,0.5,0.2,0.9,0.2,1.2c0.3-0.3,0.5-0.7,0.8-1c0.3-0.3,0.6-0.7,0.8-1s0.6-0.7,0.8-1s0.6-0.7,0.8-1
		c-0.2-0.2-0.3-0.6-0.4-1.1c-0.1-0.3-0.2-0.7-0.3-1.2c-0.1-0.4-0.2-0.8-0.3-1.2c-0.1-0.4-0.1-0.8-0.2-1.2c-0.1-0.5-0.1-0.9-0.1-1.2
		c0.1,0.2,0.3,0.6,0.5,1c0.1,0.3,0.3,0.7,0.4,1.1c0.1,0.3,0.2,0.7,0.3,1.1c0.1,0.4,0.2,0.8,0.3,1.1c0.1,0.4,0.2,0.8,0.2,1.1
		c0.3-0.3,0.6-0.7,0.8-1c0.3-0.3,0.6-0.7,0.8-1c0.3-0.3,0.6-0.7,0.8-1c0.3-0.3,0.6-0.7,0.8-1c0.3-0.3,0.6-0.7,0.8-1
		c0.3-0.3,0.6-0.7,0.8-0.9c0.3-0.3,0.6-0.7,0.9-0.9c0.3-0.4,0.6-0.7,0.9-0.9c-0.2,0.3-0.4,0.7-0.7,1.1c-0.2,0.3-0.5,0.7-0.7,1
		c-0.2,0.3-0.5,0.7-0.7,1c-0.2,0.3-0.5,0.7-0.8,1c-0.2,0.3-0.5,0.7-0.8,1c-0.3,0.3-0.5,0.7-0.8,1c-0.3,0.3-0.5,0.7-0.8,1
		c-0.3,0.3-0.5,0.7-0.8,1c0.3,0,0.7-0.1,1.1-0.1c0.3,0,0.7,0,1.1,0c0.4,0,0.8,0.1,1.1,0.1c0.4,0,0.8,0.1,1.1,0.2
		c0.4,0.1,0.8,0.2,1.1,0.2c-0.3,0.1-0.7,0.1-1.2,0.2c-0.4,0-0.8,0-1.2,0.1c-0.4,0-0.8,0-1.2,0c-0.4,0-0.8,0-1.2-0.1
		c-0.5,0-0.9-0.1-1.2-0.2c-0.3,0.3-0.5,0.7-0.8,1c-0.3,0.3-0.5,0.7-0.8,1c-0.3,0.3-0.5,0.7-0.8,1c-0.3,0.3-0.5,0.7-0.8,1
		c0.3,0,0.8-0.1,1.3-0.1c0.4,0,0.8,0,1.3,0c0.4,0,0.8,0,1.3,0.1s0.8,0.1,1.3,0.1c0.4,0.1,0.9,0.1,1.2,0.2c0.5,0.1,0.9,0.2,1.2,0.3
		c-0.3,0.1-0.7,0.1-1.1,0.2c-0.3,0-0.7,0.1-1.1,0.1c-0.4,0-0.7,0-1.1,0c-0.4,0-0.8,0-1.1,0c-0.4,0-0.8,0-1.1,0
		c-0.4,0-0.8-0.1-1.1-0.1c-0.4-0.1-0.8-0.1-1.1-0.2c-0.3,0.3-0.5,0.6-0.7,0.9c-0.3,0.3-0.5,0.6-0.7,0.9c-0.3,0.3-0.5,0.6-0.7,0.9
		c-0.3,0.3-0.5,0.6-0.7,0.9c-0.3,0.3-0.5,0.6-0.8,0.9c0.3-0.1,0.7-0.1,1.2-0.1c0.4,0,0.8,0,1.2,0c0.4,0,0.8,0,1.2,0
		c0.4,0,0.8,0,1.2,0.1c0.4,0,0.8,0.1,1.2,0.1c0.4,0,0.8,0.1,1.2,0.2c0.4,0.1,0.8,0.1,1.2,0.2c0.5,0.1,0.8,0.2,1.2,0.3
		c-0.3,0.1-0.7,0.1-1.2,0.2c-0.4,0-0.8,0.1-1.2,0.1c-0.4,0-0.8,0-1.2,0.1c-0.4,0-0.8,0-1.2,0s-0.8,0-1.2,0c-0.4,0-0.8,0-1.2-0.1
		c-0.4,0-0.9-0.1-1.2-0.1C48.6,33.5,48.2,33.4,48,33.3z"/>
	<path class="st1" d="M37.2,34c0-0.4,0-0.8-0.1-1.2C37,32.4,37,32,36.9,31.6s-0.2-0.8-0.3-1.1c-0.1-0.4-0.3-0.7-0.4-1.1
		c-0.2-0.4-0.3-0.7-0.6-1c-0.2-0.3-0.4-0.7-0.7-1c-0.2-0.3-0.5-0.6-0.8-0.9c-0.3-0.3-0.5-0.6-0.8-0.8c-0.3-0.3-0.6-0.5-0.9-0.7
		c-0.3-0.2-0.7-0.5-1-0.7s-0.7-0.4-1.1-0.5s-0.7-0.3-1.1-0.4c-0.4-0.1-0.8-0.2-1.1-0.3s-0.8-0.2-1.2-0.2c-0.4,0-0.8-0.1-1.2-0.1
		c-0.4,0-0.8,0-1.2,0c-0.4,0-0.8,0.1-1.2,0.2c-0.4,0.1-0.8,0.2-1.2,0.3c-0.4-0.1-0.8-0.2-1.2-0.3s-0.8-0.1-1.2-0.2
		c-0.4,0-0.8,0-1.2,0c-0.4,0-0.8,0-1.2,0.1c-0.4,0-0.8,0.1-1.2,0.2c-0.4,0.1-0.8,0.2-1.1,0.3c-0.4,0.1-0.7,0.3-1.1,0.4
		c-0.3,0.2-0.7,0.3-1.1,0.5c-0.3,0.2-0.7,0.4-1,0.7c-0.3,0.2-0.6,0.5-0.9,0.7c-0.3,0.3-0.6,0.5-0.8,0.8c-0.3,0.3-0.5,0.6-0.8,0.9
		c-0.2,0.3-0.4,0.7-0.7,1c-0.2,0.3-0.4,0.7-0.6,1c-0.2,0.4-0.3,0.7-0.4,1.1c-0.1,0.4-0.2,0.8-0.3,1.1c-0.1,0.4-0.2,0.8-0.2,1.2
		c-0.1,0.4-0.1,0.8-0.1,1.2c-0.2,0.3-0.4,0.7-0.6,1c-0.2,0.3-0.4,0.7-0.5,1.1c-0.2,0.4-0.3,0.7-0.4,1.1c-0.1,0.4-0.2,0.8-0.3,1.2
		s-0.1,0.8-0.2,1.2c0,0.4,0,0.8,0,1.2c0,0.4,0,0.8,0.1,1.2s0.1,0.8,0.2,1.2c0.1,0.4,0.2,0.8,0.3,1.1c0.1,0.4,0.3,0.8,0.4,1.1
		c0.2,0.4,0.3,0.7,0.5,1.1c0.2,0.3,0.4,0.7,0.6,1C7.8,47.7,8,48,8.3,48.3s0.5,0.6,0.8,0.8s0.6,0.5,0.9,0.8c0.3,0.2,0.6,0.5,1,0.7
		c0.3,0.2,0.7,0.4,1,0.6c0.3,0.2,0.7,0.3,1.1,0.5c0.2,0.3,0.5,0.6,0.8,0.9s0.6,0.6,0.8,0.8c0.3,0.3,0.6,0.5,0.9,0.7s0.7,0.4,1,0.6
		c0.3,0.2,0.7,0.4,1.1,0.5c0.4,0.2,0.7,0.3,1.1,0.4c0.4,0.1,0.8,0.2,1.1,0.3c0.4,0.1,0.8,0.1,1.2,0.2c0.4,0,0.8,0.1,1.2,0.1
		s0.8,0,1.2-0.1s0.8-0.1,1.2-0.2c0.4-0.1,0.8-0.2,1.1-0.3c0.4-0.1,0.8-0.3,1.1-0.4c0.4-0.2,0.7-0.3,1.1-0.5c0.3-0.2,0.7-0.4,1-0.6
		c0.3-0.2,0.6-0.5,0.9-0.7s0.6-0.5,0.8-0.8s0.5-0.6,0.8-0.9c0.4-0.1,0.7-0.3,1.1-0.5c0.3-0.2,0.7-0.4,1-0.6c0.3-0.2,0.7-0.4,1-0.7
		c0.3-0.2,0.6-0.5,0.9-0.8c0.3-0.3,0.6-0.6,0.8-0.8c0.3-0.3,0.5-0.6,0.7-0.9c0.2-0.3,0.4-0.7,0.6-1c0.2-0.3,0.4-0.7,0.5-1.1
		c0.2-0.4,0.3-0.7,0.4-1.1c0.1-0.4,0.2-0.8,0.3-1.1c0.1-0.4,0.2-0.8,0.2-1.2c0-0.4,0.1-0.8,0.1-1.2c0-0.4,0-0.8-0.1-1.2
		s-0.1-0.8-0.2-1.2c-0.1-0.4-0.2-0.8-0.3-1.2c-0.1-0.4-0.3-0.8-0.4-1.1S38,35.3,37.8,35C37.6,34.6,37.4,34.3,37.2,34z M25.3,40
		l0.5,1.1l0.6,1.1l0.6,1.1l0.6,1.1l0.6,1.1l0.6,1.1l0.6,1.1l0.6,1.1l0.6,1.1l-0.8-0.9l-0.8-0.9l-0.8-0.9l-0.8-0.9l-0.8-0.9l-0.8-0.9
		l-0.8-0.9l-0.8-0.9l-0.8-0.9l-0.9,0.9l-0.9,0.9l-0.9,0.9l-0.9,0.9l-0.9,0.9l-0.9,0.9L16.5,48l-0.9,0.9l-0.9,0.9l0.6-1.1l0.6-1.1
		l0.6-1.1l0.6-1.1l0.6-1.1l0.6-1.1l0.6-1.1l0.6-1.1l0.6-1.1l-1.1-0.6l-1.1-0.6l-1.1-0.6l-1.1-0.6l-1.1-0.6l-1.1-0.6l-1.1-0.6
		l-1.1-0.6L10,35l1.2,0.2l1.2,0.2l1.2,0.2l1.2,0.2l1.2,0.2l1.2,0.2l1.2,0.2l1.2,0.2l1.2,0.2l0.2-1.2l0.2-1.2l0.2-1.2l0.2-1.2
		l0.2-1.2l0.2-1.2l0.2-1.2l0.2-1.2l0.2-1.2l0.2,1.2l0.2,1.2l0.2,1.2l0.2,1.2l0.2,1.2l0.2,1.2l0.2,1.2l0.2,1.2l0.2,1.2l1.2-0.2
		l1.2-0.2l1.2-0.2l1.2-0.2l1.2-0.2l1.2-0.2l1.2-0.2l1.2-0.2L35,35L34,35.5l-1.1,0.6l-1.1,0.6l-1.1,0.6l-1.1,0.6l-1.1,0.6l-1.1,0.6
		l-1.1,0.6L25.3,40z"/>
	<path class="st1" d="M75.3,38.8c-0.1-0.4-0.1-0.8-0.2-1.2c-0.1-0.4-0.2-0.8-0.3-1.2c-0.1-0.4-0.3-0.8-0.5-1.2L73,35.7
		c0.2,0.4,0.3,0.8,0.4,1.2c0.1,0.4,0.2,0.8,0.3,1.2s0.1,0.8,0.2,1.2c0,0.4,0.1,0.8,0.1,1.3c0,0.4,0,0.8-0.1,1.3
		c0,0.4-0.1,0.8-0.2,1.2c-0.1,0.4-0.2,0.8-0.3,1.2c-0.1,0.4-0.3,0.8-0.4,1.2c-0.2,0.4-0.4,0.8-0.6,1.1c-0.2,0.4-0.4,0.7-0.7,1
		c0-0.4,0-0.8-0.1-1.2c-0.1-0.4-0.1-0.8-0.2-1.2c-0.1-0.4-0.2-0.8-0.4-1.1c-0.2-0.4-0.4-0.7-0.6-1c-0.2-0.3-0.5-0.6-0.8-0.9
		c-0.3-0.3-0.7-0.4-1.1-0.6c-0.4-0.1-0.8-0.2-1.2-0.2c-0.4,0-0.8,0-1.2,0.1c-0.4,0.1-0.8,0.3-1.1,0.5c-0.3,0.2-0.6,0.5-0.9,0.8
		c-0.2,0.3-0.4,0.7-0.6,1.1c-0.1,0.4-0.3,0.8-0.3,1.3c0,0.4,0,0.9,0.1,1.3c0.1,0.4,0.3,0.8,0.5,1.2c0.2,0.4,0.4,0.7,0.8,1.1
		c0.3,0.3,0.6,0.6,1,0.9c0.3,0.2,0.7,0.5,1.1,0.7c0.5,0.2,0.9,0.4,1.4,0.4c0.5,0.1,1,0.1,1.5-0.1c-0.1,0.3-0.3,0.7-0.5,1.1
		c-0.2,0.3-0.4,0.7-0.6,1c-0.2,0.3-0.5,0.6-0.8,0.9c-0.3,0.3-0.6,0.5-0.9,0.8c-0.3,0.2-0.6,0.5-1,0.7c-0.3,0.2-0.7,0.4-1,0.6
		c-0.3,0.2-0.7,0.3-1.1,0.5c-0.4,0.1-0.7,0.3-1.1,0.3c-0.4,0.1-0.8,0.2-1.2,0.3c-0.4,0.1-0.8,0.1-1.2,0.2c-0.2,0-0.3,0-0.5,0
		c0-0.3,0.1-0.5,0.1-0.8c0-0.4,0-0.8,0-1.2c0-0.4-0.1-0.8-0.1-1.2c-0.1-0.4-0.2-0.8-0.3-1.2c-0.1-0.4-0.3-0.8-0.4-1.1
		c-0.2-0.4-0.4-0.7-0.6-1s-0.4-0.7-0.7-0.9c-0.3-0.3-0.5-0.6-0.8-0.8c-0.3-0.3-0.6-0.5-0.9-0.7s-0.7-0.4-1-0.6s-0.7-0.3-1.1-0.5
		c-0.2-0.3-0.5-0.6-0.8-0.9s-0.6-0.5-0.9-0.8s-0.6-0.5-1-0.7c-0.3-0.2-0.7-0.4-1.1-0.5c-0.4-0.2-0.7-0.3-1.1-0.4s-0.8-0.2-1.2-0.2
		c-0.4-0.1-0.8-0.1-1.2-0.1c-0.4,0-0.8,0-1.2,0.1c-0.4,0.1-0.8,0.1-1.2,0.2c-0.4,0.1-0.8,0.2-1.1,0.4c-0.4,0.2-0.7,0.3-1.1,0.5
		c-0.3,0.2-0.7,0.4-1,0.7c-0.3,0.2-0.6,0.5-0.9,0.8c-0.3,0.3-0.5,0.6-0.8,0.9c-0.4,0.1-0.7,0.3-1.1,0.5s-0.7,0.4-1,0.6
		c-0.3,0.2-0.6,0.5-0.9,0.7s-0.6,0.5-0.8,0.8c-0.3,0.3-0.5,0.6-0.7,0.9c-0.2,0.3-0.4,0.7-0.6,1c-0.2,0.3-0.3,0.7-0.4,1.1
		s-0.2,0.8-0.3,1.2s-0.1,0.8-0.1,1.2c0,0.4,0,0.8,0,1.2s0.1,0.8,0.2,1.2c0.1,0.4,0.2,0.8,0.3,1.1s0.3,0.7,0.5,1.1
		c0.2,0.3,0.4,0.7,0.6,1c0,0.4,0.1,0.8,0.1,1.2s0.2,0.8,0.3,1.2c0.1,0.4,0.3,0.8,0.4,1.1c0.2,0.4,0.3,0.7,0.6,1.1
		c0.2,0.3,0.4,0.7,0.7,1c0.2,0.3,0.5,0.6,0.8,0.9c0.3,0.3,0.6,0.5,0.9,0.8s0.7,0.4,1,0.6c0.3,0.2,0.7,0.4,1.1,0.5s0.7,0.3,1.1,0.3
		c0.4,0.1,0.8,0.2,1.2,0.2c0.4,0,0.8,0.1,1.2,0.1c0.4,0,0.8-0.1,1.2-0.1s0.8-0.2,1.2-0.3c0.4,0.1,0.8,0.2,1.2,0.3
		c0.4,0.1,0.8,0.1,1.2,0.1s0.8,0,1.2-0.1s0.8-0.1,1.2-0.2c0.4-0.1,0.8-0.2,1.1-0.3c0.4-0.1,0.7-0.3,1.1-0.5c0.3-0.2,0.7-0.4,1-0.6
		c0.3-0.2,0.6-0.5,0.9-0.8c0.3-0.3,0.6-0.6,0.8-0.9c0.3-0.3,0.5-0.6,0.7-1c0.2-0.3,0.4-0.7,0.6-1.1c0.2-0.4,0.3-0.7,0.4-1.1
		s0.2-0.8,0.3-1.2c0.1-0.4,0.1-0.8,0.1-1.2c0.2-0.3,0.4-0.7,0.6-1s0.3-0.7,0.5-1.1c0,0,0-0.1,0-0.1c0.2,0,0.3,0,0.5,0
		c0.4,0,0.8-0.1,1.2-0.2c0.4-0.1,0.8-0.1,1.2-0.2c0.4-0.1,0.8-0.2,1.1-0.3s0.8-0.2,1.1-0.4c0.4-0.1,0.7-0.3,1.1-0.5
		c0.4-0.2,0.7-0.4,1-0.6s0.7-0.4,1-0.7c0.3-0.2,0.6-0.5,0.9-0.8c0.3-0.3,0.6-0.6,0.8-0.9c0.3-0.3,0.5-0.6,0.7-0.9
		c0.2-0.3,0.4-0.7,0.6-1c0.2-0.3,0.3-0.7,0.4-1.1c0.1-0.4,0.2-0.7,0.3-1.1c0.3-0.2,0.5-0.4,0.8-0.7c0.3-0.3,0.6-0.6,0.8-0.9
		c0.2-0.3,0.5-0.7,0.7-1.1c0.2-0.4,0.4-0.7,0.6-1.1c0.2-0.4,0.3-0.8,0.4-1.2c0.1-0.4,0.2-0.8,0.3-1.2c0.1-0.4,0.2-0.8,0.2-1.2
		c0.1-0.4,0.1-0.8,0.1-1.3c0-0.4,0-0.8,0-1.3C75.4,39.6,75.4,39.2,75.3,38.8z M55.4,60.2L54.2,60L53,59.8l-1.2-0.2l-1.2-0.2
		l-1.2-0.2l-1.2-0.2L48,60.3l-0.2,1.2l-0.2,1.2l-0.2,1.2l-0.2,1.2l-0.2,1.2l-0.2,1.2l-0.2-1.2l-0.2-1.2l-0.2-1.2l-0.2-1.2L46,61.5
		l-0.2-1.2l-0.2-1.2l-1.2,0.2l-1.2,0.2L42,59.6l-1.2,0.2L39.6,60l-1.2,0.2l-1.2,0.2l1.1-0.5l1.1-0.5l1.1-0.5l1.1-0.5l1.1-0.5
		l1.1-0.5l1.1-0.5l-0.6-1.1l-0.6-1.1l-0.6-1.1l-0.6-1.1L42,51.1L41.4,50l-0.6-1.1l0.9,0.9l0.9,0.9l0.9,0.9l0.9,0.9l0.9,0.9l0.9,0.9
		l0.9,0.9l0.8-0.9l0.8-0.9l0.8-0.9l0.8-0.9l0.8-0.9l0.8-0.9l0.8-0.9l-0.6,1.1l-0.6,1.1l-0.6,1.1l-0.6,1.1l-0.6,1.1l-0.6,1.1L49,56.6
		l1.1,0.5l1.1,0.5l1.1,0.5l1.1,0.5l1.1,0.5l1.1,0.5l1.1,0.5L55.4,60.2z M70.1,49C70.1,49,70.1,49,70.1,49c-0.4,0.3-0.9,0.4-1.4,0.4
		c-0.4,0-0.9-0.1-1.4-0.3c-0.4-0.2-0.7-0.4-1-0.6c-0.3-0.2-0.6-0.5-0.8-0.8c-0.3-0.3-0.4-0.6-0.6-1c-0.1-0.4-0.2-0.8-0.2-1.1
		c0-0.4,0.1-0.8,0.2-1.1c0.2-0.4,0.4-0.8,0.9-1.1c0.4-0.3,0.8-0.4,1.4-0.4c0.3,0,0.6,0.1,1,0.2c0.4,0.1,0.7,0.4,1,0.8
		c0.2,0.3,0.5,0.7,0.6,1.2c0.1,0.4,0.3,0.8,0.3,1.3c0.1,0.4,0.1,0.9,0.1,1.3C70.3,48.1,70.2,48.5,70.1,49z"/>
</g>
<g class="st0">
	<path class="st1" d="M39,47.4c6-2.7,10.7-8.3,13-19.6c0,0-9.6,6.4-13.5,14c0,0,2.4-9,1.3-15s-2.3-11.5-2.3-11.5S32.1,26.5,32,30.2
		c0,3.7,0,8.4,0,8.4s-1.6-6.5-6.8-10.7c-5.2-4.2-6.9-5.4-9.4-7.3c-0.7-0.5-1.3-1-1.9-1.5c-0.3-0.3-1.4-1.1-1.5-1.5
		c0.3,1.4,0.9,2.7,1.3,4.1c0.9,3,1.4,5.1,3.6,11.4c2.1,6.3,7.7,10.1,7.7,10.1s-4.4-1.7-7.9-3C13.4,39,0.8,39.9,0.8,39.9
		s4.8,3,10,6.2c5.2,3.2,14.6,4.1,14.6,4.1C17,51.2,7.5,57.9,7.5,57.9c11.5,1.9,18.4-0.5,23-5.1c-5.2,7.1-4.9,11.8-4.9,11.8
		c0.6-1.7,3.8-4.4,6.3-7c1.1-1.2,2.6-3.1,3.1-4.9c0.4,0.6,0.9,1.3,1.3,1.9c0.9,1.4,1.6,3,2.9,4c0.4-0.4,0.8-0.8,1.2-1.1
		c-1.1-0.6-3.5-4.2-4.5-6c0.9,0.1,2.5-0.1,2.7-0.1c1.5-0.2,3-0.4,4.3-1c3.3-1.4,7-3.4,8.8-3.4C51.8,46.9,47.5,45,39,47.4z"/>
	<path class="st1" d="M75.9,44.5c-0.5-0.5-1.1-0.9-1.6-1.4c-1.4,1.9-3,3.5-4.8,5c0,0-0.1,0-0.1-0.1c1.6-1.7,2.7-3.8,3.9-5.7
		c-2.4-1.9-5.1-3.6-8.1-4.1c-3.1-0.6-7,0-10.3,0.1c-0.5,0.2-1,0.4-1.5,0.6c-0.8,0.4-1.7,0.9-2.4,1.3c0.8-0.5,5.3,9.2,5.6,10.5
		c0.4,1.8,1.8,5.1,1.4,6.9c-0.6,2.6-3.4,4.7-5.5,6c1.4,4.1,5.5-3.1,6.9-3.5c3.4-1.2,8.5-0.2,11.8,0.8c0.5,0.1,7.6,2,7.6,2.4
		C80.2,56.7,81.5,49.5,75.9,44.5z"/>
</g>
<g class="st0">
	<path class="st1" d="M28.1,28.6l3.1-0.8l0.1-0.1c0.4-0.6,0.4-1.3,0.2-1.9c-0.3-0.6-0.8-1.1-1.5-1.3l-0.2,0L27.1,26l4.9-4.3l-0.6-4
		l-4,0.3l-3.1,5.7l0.9-3L25,20.6c-0.3-0.6-0.9-1-1.6-1.1c-0.7-0.1-1.4,0.1-1.8,0.6l-0.1,0.1l0,3.2l-1.3-6.4l-3.8-1.4l-1.7,3.6
		l3.4,5.5l-2.2-2.3l-0.2,0c-0.7,0-1.3,0.3-1.8,0.8c-0.4,0.5-0.6,1.2-0.4,1.9l0,0.1l2.7,1.6l-6.2-2l-3.2,2.5l2.3,3.3l6.5-0.2
		l-3.1,0.8l-0.1,0.1c-0.4,0.6-0.4,1.3-0.2,1.9c0.3,0.6,0.8,1.1,1.5,1.3l0.2,0l2.8-1.5l-4.9,4.3l0.6,4l4-0.3l3.1-5.7l-0.9,3l0.1,0.1
		c0.3,0.6,0.9,1,1.6,1.1c0.4,0.1,0.8,0,1.1-0.1c0.3-0.1,0.5-0.3,0.8-0.5l0.1-0.1l0-3.2l1.3,6.4l3.8,1.4l1.7-3.6l-3.4-5.5l2.2,2.3
		l0.2,0c0.3,0,0.6,0,0.9-0.2c0.3-0.1,0.7-0.4,0.9-0.7c0.4-0.5,0.6-1.2,0.4-1.9l0-0.1l-2.7-1.6l6.2,2l3.2-2.5l-2.3-3.3L28.1,28.6z
		 M30.7,26c0.2,0.4,0.1,0.8-0.1,1.1l-6.1,1.5l-0.1-0.3l5.5-3.1C30.3,25.4,30.6,25.7,30.7,26z M29.4,20.2l0.3,1.7l-4.7,4.2l-0.3-0.3
		l3-5.5L29.4,20.2z M23.7,28.8l-0.3,1.9l-1.8,0.7l-1.5-1.2l0.3-1.9l1.8-0.7L23.7,28.8z M22.2,20.5c0.3-0.3,0.7-0.4,1.1-0.3
		c0.4,0.1,0.7,0.3,0.9,0.6l-1.8,6l-0.3,0L22.2,20.5z M17.5,18.5l1.7,0.6l1.3,6.1L20,25.4L16.7,20L17.5,18.5z M14.5,23.7
		c0.3-0.3,0.6-0.5,1-0.5l4.4,4.5l-0.2,0.3l-5.4-3.2C14.1,24.4,14.2,24,14.5,23.7z M10.1,27.8l1.4-1.1l6,2l-0.1,0.4l-6.3,0.2
		L10.1,27.8z M13.1,33c-0.2-0.4-0.1-0.8,0.1-1.1l6.1-1.5l0.1,0.3l-5.5,3.1C13.6,33.6,13.3,33.4,13.1,33z M14.5,38.8l-0.3-1.7
		l4.7-4.2l0.3,0.3l-3,5.5L14.5,38.8z M21.6,38.5c-0.3,0.3-0.7,0.4-1.1,0.3c-0.4-0.1-0.7-0.3-0.9-0.6l1.8-6l0.3,0L21.6,38.5z
		 M26.3,40.6l-1.7-0.6l-1.3-6.1l0.4-0.2l3.3,5.3L26.3,40.6z M29.4,35.4c-0.3,0.3-0.6,0.5-1,0.5L24,31.4l0.2-0.3l5.4,3.2
		C29.7,34.6,29.6,35,29.4,35.4z M32.4,32.3l-6-2l0.1-0.4l6.3-0.2l1,1.5L32.4,32.3z"/>
	<circle class="st4" cx="51.4" cy="19" r="5.5"/>
	<circle class="st4" cx="22.4" cy="60" r="3.5"/>
	<path class="st1" d="M54.9,49.4l1.3,1l-0.7-1.5c-0.4-0.7,0-1.6,0.7-1.9l1.5-0.7l-1.7-0.1c-0.8-0.1-1.4-0.8-1.3-1.6l0.2-1.6L54,44.3
		c-0.4,0.7-1.4,0.8-2,0.4l-1.3-1l0.7,1.5c0.4,0.7,0,1.6-0.7,1.9l-1.5,0.7l1.7,0.1c0.8,0.1,1.4,0.8,1.3,1.6l-0.2,1.7l0.9-1.4
		C53.3,49,54.2,48.9,54.9,49.4z"/>
	<path class="st1" d="M62.5,56.9l-1.3-1.6l0.1-0.2l3.5,1l2.3-1.4l-2.3-1.4l-3.2,1l2.9-8l1.8,2.8l2.7,0.4L68,47.1l-3.3-1.4l0.1-0.2
		l2-0.4l2.2,1.1l5-2.8l-5.6-0.9l-1.7,1.7l-2,0.4l-0.1-0.1l2.6-2.5L67,39.2l-2.4,1.3l-0.7,3.2l-5.5-6.5l3.3-0.2l1.7-2.1l-2.7-0.5
		l-2.9,2.2l-0.1-0.1l0.7-1.9l2-1.4l0-5.7l-3.7,4.4l0.7,2.3l-0.7,1.9l-0.2,0l-0.8-3.5l-2.4-1.3l-0.1,2.7l2.4,2.2l-8.4,1.5l1.5-2.9
		l-1-2.5l-1.8,2l0.4,3.6l-0.2,0l-1.3-1.6L45,34L40,31.1l2,5.3l2.4,0.6l1.3,1.6l-0.1,0.2l-3.5-1l-2.3,1.4l2.3,1.4l3.2-1l-2.9,8
		l-1.8-2.8L38,44.4l0.8,2.6l3.3,1.4l-0.1,0.2l-2,0.4l-2.2-1.1l-4.9,2.8l5.7,0.9l1.7-1.7l2-0.4l0.1,0.1l-2.6,2.5l0.1,2.7l2.4-1.3
		l0.7-3.2l5.5,6.5l-3.3,0.2L43.4,59l2.7,0.5l2.9-2.2l0.1,0.1l-0.7,1.9l-2,1.4l0,5.7l3.7-4.4l-0.7-2.3l0.7-1.9l0.2,0l0.8,3.5l2.4,1.3
		l0.1-2.7L51,57.7l8.4-1.5l-1.5,2.9l1,2.5l1.8-2L60.2,56l0.2,0l1.3,1.6l0.2,2.4l4.9,2.9l-2-5.3L62.5,56.9z M60.1,54.1l-1.6-3.3
		c-0.3-0.7-0.4-1.4-0.1-2.1s0.8-1.2,1.4-1.5l3.3-1.5l0.4-0.1l-3.2,8.7L60.1,54.1z M51.8,52.8l-0.9,1.4l0.2-1.6c0.1-1-0.2-2-0.8-2.8
		c-0.4-0.5-1-0.9-1.6-1.1c-0.3-0.1-0.7-0.2-1-0.2l-1.6-0.1l1.5-0.7c0.9-0.4,1.6-1.2,2-2.1c0.3-0.9,0.3-2-0.2-2.9l-0.7-1.5l1.3,1
		c0.8,0.6,1.8,0.8,2.8,0.6s1.9-0.7,2.4-1.6l0.9-1.4l-0.2,1.6c-0.1,1,0.2,2,0.8,2.8c0.7,0.8,1.6,1.2,2.6,1.3l1.6,0.1l-1.5,0.7
		c-0.9,0.4-1.6,1.2-2,2.1c-0.3,0.9-0.3,2,0.2,2.9l0.7,1.5l-1.3-1c-0.8-0.6-1.8-0.8-2.8-0.6C53.2,51.4,52.3,51.9,51.8,52.8z M63,44.8
		l-3.6-0.2c-0.7-0.1-1.4-0.4-1.9-0.9c-0.5-0.6-0.7-1.3-0.6-2l0.4-3.6l0.1-0.4l6,7.1L63,44.8z M56.3,37.7l-2,3c-0.4,0.6-1,1-1.8,1.1
		s-1.4,0-2-0.5l-2.9-2.1l-0.3-0.3l9.2-1.6L56.3,37.7z M46.7,39.9l1.6,3.3c0.3,0.7,0.4,1.4,0.1,2.1s-0.8,1.2-1.4,1.5l-3.3,1.5
		l-0.4,0.1l3.2-8.7L46.7,39.9z M43.9,49.2l3.6,0.2c0.7,0.1,1.4,0.4,1.9,0.9c0.5,0.6,0.7,1.3,0.6,2L49.6,56l-0.1,0.4l-6-7.1
		L43.9,49.2z M50.6,56.3l2-3c0.4-0.6,1-1,1.8-1.1s1.4,0,2,0.5l2.9,2.1l0.3,0.3l-9.2,1.6L50.6,56.3z"/>
</g>
</svg>
