<?xml version="1.0" encoding="utf-8"?>
<!-- Generator: Adobe Illustrator 24.3.0, SVG Export Plug-In . SVG Version: 6.00 Build 0)  -->
<svg version="1.1" id="title_x5F_sozai" xmlns="http://www.w3.org/2000/svg" xmlns:xlink="http://www.w3.org/1999/xlink" x="0px"
	 y="0px" viewBox="0 0 793 151.9" style="enable-background:new 0 0 793 151.9;" xml:space="preserve">
<style type="text/css">
	.st0{fill:none;}
	.st1{fill-rule:evenodd;clip-rule:evenodd;fill:#595757;}
	.st2{fill:#595757;}
	.st3{fill:#E9B9BE;}
	.st4{fill-rule:evenodd;clip-rule:evenodd;fill:#E9B9BE;}
	.st5{fill:#E4B6BB;}
	.st6{fill-rule:evenodd;clip-rule:evenodd;fill:#E4B6BB;}
	.st7{fill:#EAB9BD;}
</style>
<g id="h_x5F_flowername">
	<rect y="-0.1" class="st0" width="793" height="152"/>
	<path class="st7" d="M241.4,78.1c-3-1.4-6-2.7-9.1-4.1c-1.8-0.8-3.6-1.4-5.4-2.1c-0.3-0.1-0.7-0.2-1-0.3c-0.1,0.1-0.2,0.2-0.2,0.4
		c0.4,0.3,0.7,0.6,1.1,0.8c2.1,0.8,4.1,1.6,6.2,2.4c2.3,0.9,4.6,1.9,6.9,2.9c0.7,0.3,1.2,0.8,1.9,1.2c0.4,0.3,0.9,0.7,1.3,1
		c0.2,0.1,0.5,0,0.8,0c-0.1-0.3-0.1-0.6-0.3-0.8C242.8,79,242.1,78.4,241.4,78.1z"/>
	<path class="st7" d="M220.7,119.9c-0.7-0.6-1.4-1.3-2.2-1.7c-2.3-1.1-4.8-1.3-7.3-1.5c-1.5-0.1-2.4-0.1-3-1.9
		c-0.5-1.5-1.8-2.7-2.7-4.1c-0.3-0.4-1-0.8-0.4-1.5c0.5,0.2,1.2,0.8,1.2-0.4l0.1-0.1c0.4-0.7,0.3-1.1-0.5-1.4
		c-1.3-0.4-2.3-1.1-2.7-2.4c0-0.1-0.2-0.1-0.3-0.2c-0.3,0.4-0.6,0.7-0.9,1.1c-0.1,0-0.2,0-0.2,0c-0.1-0.6-0.2-1.2-0.4-1.9
		c-0.7,0.8-0.7,1.4-0.2,2.4c0.2,0.3,0.4,0.7,0.4,1c-0.2,1.5,0.3,3.1-0.8,4.5c0.7,0,1.1-0.3,1.2-0.9c0.2-1.2,0.3-2.4,0.5-3.6
		c0-0.2,0.2-0.5,0.3-0.8c1.1,0.9,1.1,1.4,0.2,2.1c1.1,0.8,0.9,1.8,0.8,2.9c-0.1,1-0.2,2-0.3,3c-0.1,1.5,0,3-0.4,4.4
		c-0.1,0.2,0.1,0.7,0.3,0.7c0.4,0.1,0.7-0.1,0.7-0.5c0-0.5,0.1-1,0.1-1.5c0.1-1.7,0.1-3.4,0.2-5.1c0-0.4,0.2-0.8,0.3-1.4
		c1.4,1.5,2.3,3,3,4.7c0.7,1.6,1.5,3.2,2.6,4.8c0.4-1.3-0.9-1.9-0.8-2.9c3.8,0.4,7.8,0.1,10.9,3.2
		C220.8,120.4,220.9,120,220.7,119.9z"/>
	<path class="st7" d="M213.6,122.7c0.1,0.2,0,0.4,0.2,0.5c0.3,0.2,0.6,0.5,1,0.6c0.5,0.1,0.7,0.3,0.6,0.9c0,0.1,0.5,0.5,0.6,0.5
		c0.8-0.6,1.3-0.3,1.7,0.6c0.2,0,0.5,0,0.8,0c-0.1-0.3-0.1-0.7-0.3-0.9c-1.1-1.2-2.7-1.6-4.2-2.2C214,122.5,213.8,122.6,213.6,122.7
		z"/>
	<path class="st7" d="M230.9,71c1.4,0.6,2.8,1.1,4.2,1.6c0.3,0.1,0.6,0,1,0c-0.1-0.4,0-0.6-0.1-0.8c-0.1-0.1-0.3-0.2-0.5-0.3
		c-0.5-0.1-1-0.1-1.4-0.2c-0.9-0.3-1.8-0.8-2.7-1.1c-0.2-0.1-0.5,0.1-0.8,0.1C230.6,70.6,230.7,70.9,230.9,71z"/>
	<path class="st7" d="M220.3,72.8c-0.1-0.1-0.4,0-0.6,0c0,0.2,0,0.4,0.1,0.6c0.2,0.2,0.5,0.4,0.7,0.6v0.1c0.5,0.3,1,0.5,1.5,0.8
		c0.1,0.1,0.3-0.1,0.5-0.1c0-0.2,0-0.4-0.1-0.5C221.7,73.8,221.1,73.3,220.3,72.8z"/>
	<path class="st7" d="M199.2,99c3.4,0.9,6.5,2.4,9.4,4.3c0.2,0.1,0.5,0.2,1,0.3c-0.1-0.5-0.1-0.8-0.3-0.9c-0.3-0.3-0.6-0.5-1-0.7
		c-1.3-0.7-2.5-1.3-3.8-2c-1.9-1-3.9-1.7-6-2.1c-0.3,0-0.6,0.1-0.8,0.2s-0.2,0.4-0.3,0.6c0.2,0.1,0.4,0.2,0.6,0.2
		C198.4,99,198.8,98.9,199.2,99z"/>
	<path class="st7" d="M203.2,102.8c1.4,0.7,2.7,1.4,4,2.1c0.2,0.1,0.5,0.1,0.8,0.2c0-0.3,0-0.6-0.2-0.9c-0.1-0.2-0.3-0.3-0.5-0.4
		c-2.1-1-4.3-2-6.4-2.9c-0.2-0.1-0.4,0-0.7,0c0.1,0.2,0.1,0.5,0.2,0.7C201.5,102.1,202.4,102.4,203.2,102.8z"/>
	<path class="st7" d="M216.8,75.4c0.2,0.1,0.4,0,0.7,0c-0.2-0.4-0.4-0.7-0.6-1.1C216.2,74.8,216.4,75.1,216.8,75.4z"/>
	<path class="st7" d="M218.1,70.5c0.4-1.1,0.8-2.2,1.1-3.3c0-0.1,0-0.4-0.1-0.5s-0.4-0.1-0.5,0c-0.2,0.2-0.5,0.4-0.6,0.7
		c-0.3,1-0.6,2-0.8,3c0,0.2,0.2,0.4,0.3,0.7C217.8,70.8,218,70.7,218.1,70.5z"/>
	<path class="st7" d="M213.8,76.2c-0.7,0.5-0.7,0.7,0.1,1.2c0.4-0.6,1.2-1.1,0.9-2.2C214.4,75.6,214.1,75.9,213.8,76.2z"/>
	<path class="st7" d="M190.7,109c-0.3,0.2-0.8,0.3-1,0.6c-0.3,0.6-0.6,1.3-0.7,1.9c-0.6,2.4-1.1,4.8-0.9,7.3c0.1,1.7,0.5,3.4,1,5
		c0.3,0.9,1.1,1.8,1.8,2.5c0.2,0.3,0.9,0.2,1.4,0.1c0.2,0,0.3-0.6,0.4-1c-1.4,0.5-1.7,0.3-2.4-0.8c-0.9-1.4-1.2-3.1-1.3-4.7
		c-0.4-3.4,0.3-6.7,1.7-9.9C190.8,109.8,190.7,109.3,190.7,109z"/>
	<path class="st7" d="M215.1,71.9c0.4-0.6,0.8-1.3,1.1-1.9c0-0.1-0.2-0.3-0.4-0.6c-0.5,0.8-0.8,1.5-1.2,2.1c0,0.1,0,0.3,0.1,0.4
		C214.8,72,215,72,215.1,71.9z"/>
	<path class="st7" d="M199.4,106.8c0.3-0.7,0.6-1.3,1-2c-0.1-0.1-0.2-0.1-0.3-0.2c-0.7,0.2-1,0.8-1.3,1.4c-0.1,0.2,0.2,0.5,0.3,0.8
		C199.2,106.8,199.3,106.8,199.4,106.8z"/>
	<path class="st7" d="M202.9,89.2c0-0.1-0.3-0.3-0.5-0.4c-0.3,0-0.5,0-0.8,0.1c-1.6,0.4-3.2,0.9-4.8,1.4c-0.8,0.2-1.5,0.5-2.3,0.8
		c0,0.4-0.2,0.7-0.1,0.8c0.1,0.2,0.5,0.2,0.7,0.2c0.7-0.2,1.3-0.6,1.9-0.8c1.8-0.5,3.7-1,5.5-1.5C202.7,89.7,202.9,89.4,202.9,89.2z
		"/>
	<path class="st7" d="M197.2,100.8c-0.2,0-0.5,0.1-0.7,0.1c-0.2,0.1-0.4,0.2-0.6,0.3c-0.2,0.1-0.3,0.3-0.5,0.4
		c0.2,0.2,0.3,0.6,0.5,0.6c0.3,0,0.7-0.2,1-0.3c0-0.1,0-0.1,0-0.2c0.1-0.1,0.2-0.2,0.2-0.2C197.2,101.3,197.2,101,197.2,100.8z"/>
	<path class="st7" d="M184.2,115.7c0.5-2.7,1-5.4,1.6-8.1c-1,0.5-1.3,1.4-1.5,2.4c-0.4,1.7-0.7,3.3-0.4,5
		C183.9,115.3,184.1,115.5,184.2,115.7z"/>
	<path class="st7" d="M184.5,107c-1.2,1.3-1.7,2.8-0.9,3.4C183.8,109.2,185,108.4,184.5,107z"/>
	<path class="st7" d="M186.5,79.7c0.2,0.1,0.4,0.1,0.7,0.1c0-0.1,0-0.2,0-0.2c-1.3-1-2.6-1.9-4-2.9c-0.1-0.1-0.3,0-0.5,0
		c0,0.2,0,0.4,0.1,0.5C184,78,185.2,78.8,186.5,79.7z"/>
	<path class="st7" d="M183.4,81.6c0.6,0.4,1.4,0.3,1.9-0.4c-0.6-0.2-1.1-0.2-1.6-0.5s-0.9-0.7-1.3-1C182.1,80.4,182.4,81,183.4,81.6
		z"/>
	<path class="st7" d="M189.5,54.3c0.5-0.6,1-1.2,1.5-1.8c0.2-0.2,0.4-0.4,0.5-0.7c0-0.2-0.1-0.5-0.2-0.6c-0.1-0.1-0.4,0-0.5,0.1
		c-0.5,0.5-1,1-1.5,1.5c-0.2,0.3-0.5,0.6-0.6,1c-0.1,0.2,0.1,0.5,0.1,0.7C189,54.4,189.4,54.4,189.5,54.3z"/>
	<path class="st7" d="M186.3,49.7c0-0.5,0-0.9,0.1-1.4c-0.1,0-0.3-0.1-0.4-0.1c-0.2,0.4-0.5,0.8-0.5,1.2c0,0.2,0,0.5,0,0.7
		c0,1.7,0.1,3.4,0.1,5c0,0.3,0,0.6,0,1h0.9c-0.1-2-0.2-4-0.3-6C186.3,50,186.3,49.9,186.3,49.7z"/>
	<path class="st7" d="M586,50.2H239.1c-1.7-0.6-3.5-1-5.3-1.3c-2.4-0.4-4.8-0.6-7.2-1.1c-2.1-0.4-4.2-1-6.3-1.4
		c-0.3-0.1-0.7,0.1-0.9,0.2c-0.6,0.6-1.2,1.2-1.7,1.8s-1,1.2-1.6,1.8h-14.5c-0.7-1.9-1.9-3.6-3.3-5.2c-1.6-1.8-3.5-3.3-5.6-4.6
		c-0.5-0.3-1.3-0.5-1.5-1.3c0.1-0.1,0.2-0.1,0.3-0.2c0.9-0.8,1.8-1.6,2.7-2.4c0.1-0.1,0.1-0.5,0.2-0.7c-0.2,0-0.5,0-0.7,0.1
		c-0.4,0.2-0.7,0.5-1,0.8c-1.1,0.8-2.2,1.5-3.2,2.4c-1.4,1.1-2.8,2.3-4.2,3.5c-0.9,0.7-1.9,1.2-2.8,1.9c-1.2,1.1-2.3,2.4-3.6,3.5
		c-0.8,0.8-1.7,1.5-2.5,2.2h-10.6v6h4.3c-0.5,0.5-0.9,1.1-1.2,1.9c-1,3.3-2.3,6.5-2.1,10c0.1,1.2,0,2.4,0.2,3.6
		c0.4,2.5,1.8,4.7,3.3,6.7c1,1.3,1.7,2.7,3.1,3.7c2,1.3,4,2.5,6.4,2.8c0.6,0.1,1.1,0.3,1.7,0.4c1.1,0.3,2.3,0.6,3.4,0.9
		c1.1,0.2,1.3,0.3,1.8,1.3c-0.4-0.1-0.7-0.2-1-0.4c-1-0.5-3.1,0-3.9,0.8c-0.9,0.9-1.6,1.9-2.1,3c-0.2,0.5-0.5,1.1-1.3,1.1
		c-0.5,0-1,0-1.4,0.2c-0.7,0.2-1.4,0.6-2.1,0.8c-1.8,0.5-3.6,0.8-5.4,1.4c-1.2,0.4-2.4,1-3.6,1.5c-2.1,0.9-4.2,1.7-6.2,2.8
		c-1.5,0.8-3,1.4-4.6,1.5c-0.7,0.1-1-0.2-1-0.9c-0.2-2.3-0.4-4.6-0.7-6.9c-0.4-3-0.8-6-1.2-9c-0.1-0.6,0-1.3-0.1-1.9
		c-0.5-2.8-1-5.5-1.7-8.3c-0.2-0.8,0.1-1.1,0.7-1.3c0.2-0.1,0.4-0.1,0.5-0.1c2-0.6,3.5-1.5,4.5-3.4c0.7-1.4,1.6-2.9,2.7-4
		c1.4-1.3,2.1-2.9,2.3-4.7c0.4-2.8,1.3-5.5,2.2-8.2c0.2-0.5,0.3-0.9,0.3-1.4c0.1-1.9,0.3-3.9,0.4-5.8c0.1-1.6,0.1-3.2,0.1-4.7
		c0-1,0-1.9-0.1-2.9s-0.4-2-0.5-3c-0.1-0.9-0.1-1.9-0.2-2.8c-0.1-1.2-0.3-2.4-0.6-3.6c-0.4-1.7-0.4-3.6-1.5-5.1
		c-0.5-0.8-0.8-1.7-1.3-2.6c-0.7-1.1-2.3-1.4-2.9-0.6c-0.8,1-1.7,1.9-2.1,3.2c-0.4,1.7-0.9,1.5-2.4,0.6c-0.2-0.1-0.3-0.3-0.4-0.4
		c-0.4-1-0.9-2.1-1.3-3.2c-0.3-0.8-0.3-1.8-1-2.4c-1.5-1.3-2.9-2.5-4.4-3.8c-0.3-0.3-0.7-0.4-0.9-0.7c-1-1.2-1.2-2.6-0.7-4.1
		c0.1-0.3,0.1-0.7-0.1-0.8c-0.8-0.9-1.5-1.9-2.4-2.7c-0.4-0.4-1-0.5-1.5-0.8c-1.2-0.7-2.4-1.6-3.9-1.8c-0.6-0.1-1.2-0.4-1.8-0.6
		c-0.5-0.1-1-0.3-1.4-0.2c-0.9,0.3-1.8,0.7-2.6,1.1c-0.6,0.3-1.1,0.8-1.7,1.2c-1.2-1.7-2.8-2.2-4.7-2c-2.1,0.2-4.1,0.6-6.2,0.9
		c-1.1,0.1-2.2,0.1-3.2,0.2c-1.2,0.1-2.3,0.4-3.5,0.6c-1.1,0.2-2.2,0.3-3.2,0.5c-1.4,0.3-2.4,1.3-3.5,2.2s-1.8,2-2.1,3.5
		c-0.2,0.8-0.6,1.8-1.2,2.4c-0.5,0.5-1.5,0.5-2.3,0.7c-0.3,0.1-0.7,0-1,0c-1.3-0.2-2.6-0.5-3.9-0.6c-0.3,0-0.9,0.2-1.1,0.5
		c-0.8,1.3-1.5,2.7-2.1,4.1c-0.8,1.9-1.7,3.7-2.2,5.7c-0.4,1.7-1.1,3.2-1.9,4.7c-0.3,0.4-0.3,0.7,0.1,1c0.1,0,0.1,0.1,0.2,0.1
		c0.8-0.8,1.7-2.7,2.1-4.6c0.8-3.5,2.4-6.6,4.3-9.5c0.4-0.6,0.9-0.8,1.7-0.7c2.1,0.5,4.2,0.7,6.3,0.1c0.2-0.1,0.5-0.2,0.6-0.3
		c0.3-0.5,0.7-1,0.9-1.6c0.5-1.6,1-3.3,2.4-4.4c1-0.9,2-1.9,3.3-2.1c3-0.5,6.1-0.9,9.2-1.3c1.4-0.2,2.7-0.4,4.1-0.6
		c1.6-0.3,3.2-0.6,4.8,0.1c1,0.4,1.3,1,1.1,2c-0.1,0.4-0.2,0.8-0.3,1.3c-0.1,0.5-0.1,1,0.6,1.1c0.5-0.1,1-0.2,1.5,0
		c0.5,0.1,0.8,0.2,1.1-0.4c-0.4-0.2-0.7-0.5-1.1-0.6c-0.6-0.3-0.7-0.7-0.3-1.1c1.1-1.1,2-2.2,3.5-2.7c0.3-0.1,0.6-0.2,0.9-0.1
		c1.2,0.3,2.3,0.6,3.5,1c0.5,0.2,1,0.4,1.5,0.7c0.8,0.5,1.6,0.9,2.3,1.5c0.6,0.4,1,1,1.6,1.4c0.7,0.6,0.6,1.2,0.5,2
		c-0.2,2.1,0.2,3.8,2.1,5.1c1.1,0.8,2.3,1.6,3.3,2.5c0.8,0.7,1.5,1.4,1.6,2.5c0.1,0.9,0.5,1.9,0.8,2.8c0.6,1.4,1.6,2.4,3.2,2.7
		c-0.3,1.4-0.5,2.7-0.8,4.2c-0.6-1.2-1.1-2.1-1.7-3.2c-0.7,0.7-0.4,1.2-0.2,1.7c0.9,1.6,1.7,3.3,2.6,4.9c0.1,0.3,0.2,0.6,0.2,0.9
		c-0.1,0-0.1,0.1-0.2,0.1c-1.3-1.7-2.7-3.4-4-5.1c-0.1,0-0.2,0.1-0.3,0.1c-0.1,0.8,0.2,1.4,0.7,2c0.6,0.7,1.4,1.5,1.9,2.2
		c1.8,2.3,3.4,4.7,4.6,7.4c0.1,0.3,0.2,0.6,0.3,0.9c-0.1,0-0.2,0.1-0.3,0.1c-0.2-0.2-0.4-0.3-0.5-0.5c-1.3-2.1-2.5-4.1-3.8-6.1
		c-0.2-0.3-0.4-0.5-0.7-0.7c-0.1,0-0.1,0.1-0.2,0.1c0,0.2,0,0.4,0,0.6c0.3,0.6,0.5,1.2,0.9,1.8c1.3,2.1,2.7,4.1,4,6.2
		c0.2,0.3,0.3,0.7,0.5,1c-0.1,0.1-0.2,0.2-0.2,0.2c-0.4-0.2-0.8-0.4-1.1-0.7c-0.7-1-1.3-2.1-2-3.2c-0.1-0.2-0.3-0.4-0.5-0.7
		c-0.1,0-0.1,0.1-0.2,0.1c0,0.2,0,0.4,0.1,0.6c0.4,0.9,0.9,1.9,1.4,2.8c0.2,0.4,0.4,0.7-0.2,1c-0.5-0.6-0.9-1.3-1.4-1.9
		c-0.1,0.1-0.2,0.1-0.3,0.2c0.1,0.2,0.2,0.5,0.2,0.7c0.1,0.5,0.4,1.3,0.2,1.5c-0.5,0.4-0.2,0.7-0.1,1c0.1,0.3,0.3,0.5,0.4,0.7
		c-0.2,0.5-1.2,0.2-0.7,1c0,0.1,1.7,1.4,1.8,1.5s0.1,0.1,0.2,0.2c-0.4,0.7-0.8,0.9-1.6,0.8c-0.2,0-0.4,0-0.7,0.1
		c0.1,0.2,0.2,0.4,0.3,0.7s0.4,0.6,0.3,0.9c-0.3,1.4-0.6,2.7-1,4.1c0,0.1-0.2,0.2-0.4,0.5c-0.2-0.7-0.4-1.3-0.6-2
		c-0.4-1.3-0.8-2.7-1.2-4c-0.1-0.2-0.4-0.3-0.6-0.4c-0.1,0.2-0.3,0.5-0.3,0.6c0.1,0.6,0.4,1.1,0.6,1.7c0.8,2.2,1.6,4.5,2.3,6.8
		c0.2,0.5,0.4,1.1,0,1.7c-0.1-0.2-0.3-0.3-0.3-0.4c-0.9-2.3-1.7-4.6-2.6-6.8c-0.2-0.5-0.7-1-1.1-1.4c-0.1,0.1-0.2,0.1-0.3,0.2
		c0.1,0.3,0.1,0.6,0.2,0.8c0.5,0.9,1,1.8,1.4,2.8c0.9,2.2,1.7,4.4,2.5,6.5c0.1,0.2-0.1,0.4-0.1,0.6c-0.3-0.2-0.4-0.4-0.5-0.6
		c-0.9-2.3-1.8-4.6-2.8-6.9c-0.1-0.3-0.3-0.5-0.5-0.8c-0.1,0-0.2,0.1-0.3,0.1c0,0.2,0,0.4,0.1,0.6c0.1,0.6,0.2,1.3,0.3,1.9
		c0.2,1.1,0.3,2.3,0.7,3.4c0.5,1.3,1.3,2.6,1.8,3.9c0.1,0.2-0.3,0.6-0.4,1c-0.2-0.2-0.6-0.3-0.7-0.5c-0.4-1.2-0.7-2.4-1.1-3.6
		c-0.1-0.3-0.3-0.6-0.5-0.9c-0.1,0-0.2,0-0.3,0.1c0,0.2-0.2,0.5-0.1,0.7c0.2,0.8,0.5,1.5,0.7,2.3c0.2,0.6,0.3,1.1,0.5,1.7
		c-0.1,0-0.2,0.1-0.3,0.1c-0.4-0.9-0.9-1.7-1.4-2.8c-0.2,0.4-0.3,0.6-0.3,0.7c0.4,1-0.5,1.7-0.6,2.5c-0.2,0.9-0.3,1.6,0.5,2.4
		c-1.4,1-2.7,1.9-4.2,2.9c0.9,0.2,1.6,0.2,2.1-0.2c1.1-0.8,2.1-1.7,3.2-2.5c1.4-0.9,2.8-1.7,4.2-2.6c0.2-0.1,0.4-0.4,0.5-0.7
		c0.1-0.5,0.1-1,0.2-1.4c0.2-0.7,0.5-1.4,0.6-2.1c0.1-1.2,0.1-2.4-0.1-3.5c-0.4-2.3,0.5-4.3,1-6.4c0.1-0.4,0.4-0.9,0.7-1.1
		c1.2-0.8,2.4-1.6,3.7-2.1c1-0.4,2.1-0.5,1.6-2v-0.1c0.7-0.8,0.3-1.8,0.2-2.7c-0.3-3-1.5-5.7-3.3-8.1c-0.9-1.3-1.6-2.6-2.1-4
		c-0.4-1.3-0.8-2.5-0.3-3.9c0.2-0.7,0-1.5,0.1-2.2c0-0.2,0.3-0.6,0.5-0.6c0.6-0.1,0.8-0.3,1-0.8c0.4-0.8,0.8-1.7,1.3-2.4
		c0.9-1.2,1.6-1,2.2,0.3c0.3,0.7,0.8,1.4,1.2,2.1c0.2,0.3,0.4,0.7,0.5,1c0.5,2.9,1.5,5.8,1.5,8.8c0,1.3,0.5,2.7,0.6,4
		c0,2.7-0.1,5.4-0.2,8c0,0.6,0,1.3-0.1,1.9c-0.1,1.4-0.1,2.7-0.4,4c-0.3,1.2-0.9,2.4-1.2,3.6c-0.4,1.3-0.8,2.7-1,4
		c-0.2,1.4-0.4,2.8-1.3,3.9c-1.1,1.4-2.1,2.9-3.3,4.2c-0.7,0.7-1.8,1.1-2.6,1.6c-0.9,0.6-2,0.8-2.7,2c1.8,0.1,2.9-1.3,4.4-1.4
		c-2.5,2.6-5.9,2.8-9,3.8c-0.3-1.1-1.4-1.8-2-1.4c-0.3,0.2-0.6,0.4-1,0.5c-1,0.5-2,0.7-3.1,0.8c-2,0.3-4.1,0.5-6.1,0.6
		c-1.5,0.1-2.7-0.8-3.8-1.7c-0.3-0.3-1-0.6-1.3-0.4c-0.9,0.5-1.8,0.7-2.7,0.6l-0.1,0.1c0.6,0.6,1.8,0.9,2.6,0.5
		c0.6-0.2,0.9,0,1.4,0.3c0.6,0.4,1.2,0.8,1.8,1.1c0.2,0.1,0.4,0.3,0.6,0.5c-0.5,0.2-0.8,0.4-1.1,0.4c-1.6,0.3-3.1,0.6-4.7,0.8
		c-0.7,0.1-1.5,0.3-1.5-0.9c0-0.1-0.2-0.2-0.3-0.3c-1.1-0.8-2-1.6-2.2-3.1c0.9,0.2,1.8,0.3,2.7,0.5v-0.1c0-0.1,0-0.2,0.1-0.3
		c-4.8-1.5-9.5-3.3-13.6-6.1c-0.3,0.1-0.6,0.2-0.8,0.1c-0.2-0.1-0.3-0.5-0.4-0.7c-0.1,0-0.2,0.1-0.3,0.1c0.1,0.4,0.2,0.8,0.4,1.2
		c0.7,1.2,1.5,2.5,2.3,3.7c0.1,0.2,0.4,0.3,0.5,0.3s0.2-0.3,0.3-0.5c0.1-0.1,0-0.3,0.1-0.6c0.5,0.8,0.8,1.4,1.3,1.9
		c0.2,0.2,0.5,0.4,0.8,0.5c0.2,0.1,0.6,0.1,0.8,0.2c0.4,0.3,0.7,0.6,1,0.9c0.1-0.1,0.2-0.2,0.3-0.2c-0.9-1.2-2.1-2.1-2.7-3.7
		c0.9,0.3,1.6,0.5,2.1,1.3c1.1,1.8,2.8,2.9,4.3,4.4c0.1,0.1,0.3,0.2,0.5,0.3c0.1-0.1,0.1-0.1,0.2-0.2c-0.6-0.7-1.2-1.3-1.8-2
		c-0.6-0.6-1.2-1.3-1.8-1.9c0.9,0,5.8,4.5,6,5.4c-0.2,0-0.4,0-0.6,0c-1.4-0.4-2.8-0.7-4.1-1.2c-1.9-0.7-3.7-1.7-5.6-2.6
		c-3-1.5-5.7-3.5-7.9-6.1c-0.3-0.3-0.3-0.9-0.5-1.3c0.1,0,0.2-0.1,0.2-0.1c-0.3-0.2-0.6-0.4-0.9-0.5c-1.6-0.9-3.3-1.8-4.9-2.7
		c-0.1-0.1-0.3-0.2-0.4-0.2c-0.3-0.1-0.6-0.1-0.9,0.3c1.1,0.6,2.1,1.1,3.1,1.7c0.6,0.4,1.3,0.7,1.8,1.2c0.8,0.9,1.5,1.9,2.3,2.9
		c1.5,1.8,3.3,3.3,5.3,4.4c2.3,1.3,4.6,2.7,7.1,3.7c3,1.1,6,2,9.2,1.6c1.6-0.2,3.2-0.7,4.8-1.1c0.3-0.1,0.5-0.1,0.8-0.1
		c1.4,0.2,2.7,0.5,4.1,0.8c0.4,0.1,0.9,0.1,1.3,0c1.7-0.6,3.3-1.3,5-1.9c0.8-0.3,1.7-0.5,2.5-0.7c0.2,0,0.7,0.3,0.8,0.5
		c0.5,1.7,1.1,3.4,1.5,5.2c0.3,1.2,0.2,2.5,0.5,3.7c0.8,2.6,1,5.3,1.4,8c0.2,1.4,0.3,2.8,0.3,4.2c0.1,2,0.1,3.9,0.1,5.9
		c0,0.1-0.1,0.3-0.2,0.5c-0.3-0.2-0.5-0.3-0.6-0.6c-0.5-1-1.1-2-1.5-3c-0.5-1.2-0.8-2.6-1.4-3.8c-1.2-2.6-2.5-5.1-3.9-7.6
		c-0.6-1-1.3-2-2.2-2.6c-2.5-1.6-5.3-2.2-8.2-2.6c-2.4-0.3-4.8-0.7-7.2-1c-1.7-0.2-3.4-0.3-5.1-0.4c-1.3-0.1-2.6-0.1-3.9-0.1
		c-1.6,0-3.2,0-4.8,0.3c-1.4,0.3-2.7,0.2-4-0.2c-1.5-0.5-3-1.2-4.5-1.8c-0.2-0.1-0.5,0-0.7,0c0.1,0.2,0.2,0.5,0.4,0.7
		c0.3,0.2,0.8,0.4,1.1,0.6c1.7,0.9,3.4,1.8,5.4,1.8c1.3,0,2.6-0.2,3.9-0.3c2-0.1,4-0.1,6.1-0.2c2.6-0.1,5.2,0.2,7.8,0.6
		c1.5,0.3,3,0.4,4.4,0.8c2.1,0.4,4.2,0.8,6.2,1.5c1.6,0.5,3.2,1.3,4.1,3c1.2,2.2,2.5,4.3,3.6,6.5c0.6,1,1,2.2,1.5,3.3
		c-0.3,0.1-0.4,0.1-0.5,0.1c-0.2,0-0.5,0.1-0.7,0.2c0.1,0.2,0.3,0.5,0.4,0.7c0.1,0.1,0.2,0.2,0.3,0.2c0.8,0.3,1.1,1,1.1,1.8
		c-0.5-0.3-0.9-0.8-1.4-1.1c-1.8-1-3.6-2-5.4-3c-0.3-0.2-0.6-0.3-0.8-0.6c-0.6-1.2-1.1-2.5-1.7-3.7c-0.7-1.2-1.5-2.3-2.3-3.4
		c-0.2-0.2-0.7-0.4-0.9-0.3c-0.4,0.2-0.2,0.5,0.1,0.8c1.5,1.7,2.7,3.6,3.6,5.7c0.1,0.3,0.1,0.6,0.1,0.9c-0.3,0-0.7,0-1-0.1
		s-0.6-0.4-0.8-0.7c-0.4-0.4-0.7-0.9-1.1-1.3c-1.1-1.2-2.2-2.5-3.3-3.7c-0.8-0.9-1.5-1.7-2.2-2.6c-0.7,0.4-0.4,0.9-0.2,1.2
		c1.2,1.4,2.4,2.7,3.7,4.1c0.5,0.6,1,1.2,1.5,1.8c-0.1,0.1-0.1,0.1-0.2,0.2c-0.2,0-0.4,0-0.5-0.1c-1.9-0.7-3.9-1.3-5.8-2
		c-0.4-0.1-0.6-0.6-0.9-0.9c-0.8-1.1-1.6-2.1-2.4-3.2c-0.1-0.1-0.4-0.1-0.6-0.1c0,0.2-0.1,0.5-0.1,0.7c0.1,0.3,0.4,0.5,0.6,0.8
		c0.4,0.5,0.8,1,1.3,1.6c-0.3,0.1-0.4,0.2-0.5,0.1c-0.7-0.3-1.7-0.3-2.2-0.8c-0.6-0.7-0.9-1.7-1.3-2.5c-0.1-0.3-0.2-0.6-0.4-1
		c-1.2,1.1,0.1,2.1,0,3c-1.3-0.1-1.8-0.5-2.2-1.5c-0.2-0.6-0.4-1.1-0.7-1.8c-0.9,0.9,0.1,2.4-1.4,2.8c0.3,0.2,0.4,0.4,0.5,0.4
		c0.6,0.2,1.3,0.3,1.9,0.5c3.2,1.1,6.5,2.1,9.7,3.2c1.1,0.4,2.5,0.5,3.3,1.7c0.1,0.2,0.6,0.3,0.9,0.3c1.8,0.1,3.2,0.6,3.9,2.4
		c0,0.1,0.1,0.1,0.1,0.1c0.2,0.1,0.5,0.2,0.7,0.3c0-0.2,0-0.5,0-0.7c-0.1-0.3-0.2-0.6-0.3-0.9c4.1,0.7,7,2.9,9.8,5.8
		c-0.4,0-0.6,0.1-0.7,0c-1.2-0.6-2.2,0-3,0.7c-1.7,1.4-3.5,2.5-5.5,3.4c-2.7,1.2-5.3,2.6-8,3.8c-1.2,0.6-2.5,1.2-3.8,1.4
		c-1.1,0.2-2.2-0.2-3.3-0.4c-2.4-0.5-4.9-0.9-7.3-1.5c-1.2-0.3-2.3-1.2-3.4-1.8c-1.6-0.9-2.8-2-3.6-3.8c-1.1-2.7-2.4-5.3-3.6-8
		c-0.9-2-2.2-3.9-2.3-6.2c0-0.2-0.1-0.3-0.2-0.5c-0.6-1.4-1.2-2.8-1.8-4.2c-0.4-1-0.7-2-1.2-2.9c-0.6-1.2-1.6-2.2-1-3.6
		c0.5-0.2,0.7-0.4,0.7-0.7c0-0.1-0.1-0.3-0.3-0.5c-1.4-1.2-2.8-2.3-4.2-3.4c-0.2-0.2-0.6-0.1-0.9-0.2c0.1,0.3,0.1,0.7,0.3,0.9
		c0.3,0.4,0.9,0.7,1,1.2c0.5,1.3,1.1,2.5,2.2,3.4c0.1,0.1,0.2,0.3,0.3,0.5c0.2,0.7,0.3,1.3,0.6,2c0.6,1.5,1.2,2.9,1.8,4.4
		c1.7,4.1,3.3,8.2,5.1,12.2c0.8,2,1.8,3.9,2.7,5.8c0.3,0.5,0.4,1.1,0.7,1.6c0.7,1.3,1.9,2,3.1,2.8c2,1.3,4,2.3,6.3,2.8
		c2.3,0.4,4.6,0.8,7,1.2c1.1,0.2,2.2,0.2,3.2-0.3c0.8-0.4,1.5-0.8,2.3-1.2c3.2-1.6,6.4-3.1,9.6-4.7c1.3-0.6,2.5-1.4,3.6-2.3
		c1.1-0.8,2.1-1.3,3.4-0.7c0.2,0.1,0.5,0.1,0.8,0.1c0.8,0.1,1.6,0.2,2,1.1c0.2,0.5,0.5,0.9,0.9,1.3c0.2,0.2,0.6,0.3,0.9,0.4
		c0-0.3,0-0.6-0.1-0.9c-0.3-0.5-0.7-1-1-1.5c-0.1-0.1-0.2-0.3-0.2-0.5c0-0.6,0-1.3,0-1.9c0-1.1,0-2.3,0-3.4
		c-0.1-1.7-0.1-3.4-0.3-5.1c-0.1-1.7-0.3-3.4-0.5-5.1c-0.4-2.5-0.9-5.1-1.4-7.6c-0.1-0.4-0.1-0.8-0.2-1.3c-0.4-1.5-0.9-3.1-1.3-4.6
		c-0.1-0.2,0.1-0.6,0.3-0.8c0.7-0.5,1.3-0.1,1.5,0.8c0.1,0.8,0.2,1.7,0.4,2.5c0.5,2.7,1,5.4,1.4,8.1c0.4,2.9,0.7,5.8,1.1,8.6
		c0.1,0.9,0.2,1.8,0.3,2.6c0,0.4,0.2,0.7,0.2,1.1c0.1,1.3,0.2,2.5,0.3,3.8c0.1,0.6,0.7,1,1.3,0.9c0.4-0.1,0.8-0.2,1.3-0.2
		c0.4,0,0.8,0.1,1.1,0.1c-0.2,0.4-0.4,0.7-0.6,1.1c-0.1,0.1-0.2,0.1-0.3,0.2c-0.5,0.6-1,1.1-1.4,1.7c-0.3,0.4-0.1,0.8,0.4,0.9
		c1-1,2-1.9,2.9-3c0.6-0.7,1.2-1.2,2.1-1.4c0.4-0.1,0.9-0.3,1.3-0.6c1.5-1.3,3.3-1.9,5.1-2.5c2.6-0.9,5.3-1.6,7.9-2.3
		c0.8-0.2,1.8-0.7,2.7,0c0,0,0.5-0.3,0.5-0.4c-0.1-0.4-0.4-0.8-0.6-1.4c0.3-0.1,0.7-0.2,1.1-0.3c0.7-0.2,0.9,0.1,0.7,0.7
		c-1,3.1-1,6.3-1.3,9.5c-0.1,1.4-0.1,2.8,0,4.3s0,3,0.4,4.4c0.6,2.5,1.5,5,2.2,7.5c0.6,2,2,3.6,3.4,5c0.9,0.9,1.7,1.8,2.6,2.7
		c0.7,0.7,1.4,1.5,2.3,2.1c1.6,1.2,3.3,2.2,5,3.3c1.6,1,3,2.3,4.7,3.1c3,1.6,6,3,9.1,4.4c2,0.9,4.1,1.7,6.2,2.5
		c1.7,0.6,3.4,1.1,5.1,1.5c0.2,0.1,0.6-0.1,0.8-0.3c0.1-0.2,0.2-0.5,0.1-0.7c0-0.1-0.2-0.2-0.3-0.3c-0.1,0-0.1,0-0.2,0
		c-0.8,0.5-1.6,0-2.3-0.2c-2.4-0.8-4.8-1.5-7.1-2.5c-2.9-1.2-5.8-2.6-8.6-4.1c-1.9-1-3.8-2.2-5.7-3.4c-0.9-0.5-1.7-1.1-2.6-1.7
		c-1.4-0.9-2.8-1.8-4-2.9c-1.6-1.4-3-3-4.5-4.5c-1.1-1.1-2.2-2.3-2.7-3.8c-1.4-3.7-2.4-7.5-2.7-11.5c-0.2-3.1,0.3-6.1,0.3-9.1
		c0-2.1,0.7-4.1,1.2-6.2c0-0.1,0.1-0.3,0.1-0.4c0.8-1.1,1.5-2.3,2.3-3.3c1.1-1.3,2.8-2.3,4.4-0.5c0.1,0.1,0.1,0.1,0.2,0.2
		c0.6,0.4,1.6,0,1.8-0.7c0.1-0.2,0.4-0.4,0.6-0.6c0.3-0.2,0.6-0.4,0.8-0.7c0.7-1.3,1.8-2,3.2-2.4c0.8-0.3,1.5-0.6,2.2-0.9
		c0.3-0.1,0.6-0.1,0.8-0.2c0,0.1,0.1,0.1,0.1,0.2c-0.2,0.2-0.4,0.4-0.6,0.6c-0.4,0.4-1,0.7-1.3,1.2c-0.8,1.2-1.5,2.4-2.2,3.7
		c-0.1,0.2,0,0.5,0.1,0.8c0.1,0,0.2,0,0.3,0c0.4-0.6,0.8-1.1,1.1-1.7c0.9-1.6,1.9-3.1,3.4-4.2c0.9-0.6,1.7-1,2.7-0.4
		c0.5,0.3,1,0.5,1.5,0.7c1.2,0.4,2.3,1,3.5,1.2c2.8,0.5,5.5,1.1,7.7,3c2.1,1.8,4.3,3.5,6.2,5.5c2.5,2.9,4.6,6.2,5.6,10
		c0.5,1.8,1,3.6,1.3,5.4s0.3,3.7,0.5,5.5c0.1,1,0.3,1.9,0.3,2.9c0,3.5-0.1,6.9,0,10.4c0.1,2.5,0.1,5-0.3,7.5
		c-0.4,2.5-1.5,4.7-2.8,6.9c-0.6,1-0.7,1.8-0.5,2.9c0.3,1.2,0.5,2.4,0.7,3.6c0,0.2-0.2,0.7-0.4,0.8c-0.5,0.2-0.6-0.3-0.6-0.7
		c-0.3-1.7-0.5-3.4-0.9-5.1c-0.2-0.9-0.5-1.7-0.9-2.6c-0.6-1.4-1.2-2.7-1.8-4c-1.2-2.8-2.3-5.5-3.6-8.3c-0.9-2.1-1.9-4.1-2.9-6.1
		c-0.4-0.8-0.9-1.5-1.4-2.3c-0.1,0-0.2,0.1-0.3,0.1c0,0.2,0,0.5,0.1,0.6c0.4,0.8,0.9,1.5,1.2,2.2c1,2.1,2,4.2,3,6.4
		c1.2,2.7,2.1,5.5,3.3,8.2c0.6,1.4,1.3,2.7,1.8,4.2c0.2,0.5,0.3,1,0.4,1.5c0.3,2,0.6,4,0.9,6c0.1,0.5,0.2,0.8,0.7,0.7
		c0.5,0,0.9-0.1,1.4,0c0.8,0.2,1.1,0,1-0.8c-0.2-1.3-0.4-2.6-0.7-3.8c-0.2-1-0.3-2,0.3-3c0.4-0.6,0.6-1.2,0.9-1.8
		c1.5-2.8,2.2-5.8,2.2-8.9c0-1.8,0-3.6,0-5.5c0-0.5,0.1-1,0.1-1.5c-0.2-3.6-0.5-7.2-0.7-10.9c-0.1-1.9-0.2-3.8-0.5-5.7
		c-0.3-2-0.8-3.9-1.3-5.9c-0.7-2.6-2.2-4.8-3.6-7c-1.7-2.8-4.2-4.8-6.5-6.9c-0.7-0.6-1.5-1.1-2.2-1.6c-1.7-1.4-3.6-2.2-5.8-2.5
		c-2.8-0.3-5.3-1.7-8-2.8c0.2-0.3,0.4-0.5,0.6-0.6c1-0.7,2-1.4,3.1-1.9c0.7-0.3,1.5-0.5,2.4-0.1c2.1,1.1,4.3,2.3,6.4,3.3
		c0.7,0.4,1.5,0.8,2.2,0.8c1.8-0.2,3.5-0.1,5.3-0.7s3.8-0.7,5.5-1.6c0.2-0.1,0.4-0.1,0.6-0.1c0.9,0.1,1.8,0.1,2.7,0.3
		c1.5,0.3,3.1,0.5,4.5,1.1c2.8,1.1,5.7,1.7,8.7,2.2c1.2,0.2,2.5,0.6,3.6-0.3c0.2-0.1,0.4-0.1,0.6-0.2c1.4-0.4,2.8-0.8,4.2-1.4
		c2.5-1.1,4.5-2.7,6-5.1c1.2-1.9,1.3-3.7,0.8-5.7c-0.7-2.3-1.4-4.7-2.1-7c-0.6-2,0.2-4.1,1.8-5.4c1.1-0.9,2.2-0.8,3.4-0.6
		c0.4,0,0.8,0,0.8-0.4c0-0.2-0.5-0.5-0.7-0.5c-1.4-0.1-2.9-0.2-4.3-0.3c-1.9-0.2-3.7-0.7-5.4-1.7c-0.1-0.1-0.2-0.1-0.3-0.2H586V50.2
		z M147.9,65.9c0,0-0.3,0-0.5,0c0-0.4,0-0.8,0-1.2l0,0c0,0.4,0,0.8,0,1.2C147.6,65.9,147.9,65.9,147.9,65.9c0-0.4,0-0.8,0-1.2l0,0
		C147.9,65.1,147.9,65.5,147.9,65.9z M158.4,46.1c-1.3-0.2-2.6-0.4-4.2-0.7l0,0C155.7,45.6,157,45.9,158.4,46.1
		c0.1,0,0.3-0.3,0.4-0.4l0,0C158.6,45.8,158.5,46.1,158.4,46.1z M157.7,44.4c-0.1,0-0.2-0.2-0.2-0.3l0,0
		C157.5,44.2,157.6,44.4,157.7,44.4c0.5,0.2,1.1,0.3,1.8,0.6l0,0C158.8,44.8,158.3,44.6,157.7,44.4z M158.3,42.7
		c-0.2-0.3-0.4-0.6-0.5-1C157.8,42.1,158.1,42.4,158.3,42.7c0.3,0.6,0.8,0.6,1.4,0.4l0,0C159,43.3,158.5,43.3,158.3,42.7z
		 M155.4,34.4c0,0.1,0,0.2,0,0.3c0.2,0.4,0.4,0.9,0.6,1.3c0.7,1.3,1.4,2.6,2,3.9c0.1,0.2,0.1,0.4,0.1,0.6c0-0.2-0.1-0.4-0.1-0.6
		c-0.6-1.3-1.3-2.6-2-3.9c-0.2-0.4-0.4-0.9-0.6-1.3C155.4,34.6,155.4,34.5,155.4,34.4z M137.5,74.7c-0.9,0-1.8-0.2-2.7-0.4
		c-0.2,0-0.3-0.2-0.5-0.3l0,0c0.2,0.1,0.3,0.3,0.5,0.3C135.7,74.5,136.6,74.7,137.5,74.7c1.7,0.1,3.2-0.6,4.6-1.4l0,0
		C140.8,74.1,139.3,74.8,137.5,74.7z M238.9,58c-0.2,1.9-0.4,3.9-0.9,5.8c-0.4,1.6,0,1.8-1.8,1.7c-1.8-0.1-1.6,0-1.4-1.7
		c0.4-2.5,0.6-5,0.8-7.6h3.1C239,56.8,239,57.4,238.9,58z M219.4,48c0.9-1,2.1-0.4,3.1-0.2c3,0.5,5.8,1.7,8.9,1.8
		c1.4,0,2.9,0.3,4.3,0.6h-18.1C218.2,49.4,218.8,48.7,219.4,48z M189.2,82.1c-0.1-0.1-0.3-0.3-0.3-0.5c-0.1-1.2-0.2-2.3-0.4-3.5
		c-0.4-3.1-0.8-6.2-1.2-9.2c-0.1-0.4,0-0.9,0.1-1.3c0.1-0.3,0.4-0.7,0.7-0.8c2.1-0.4,3.9-1.4,5.5-2.7c1.3-1.1,2.5-2.3,3.7-3.5
		c0.6-0.6,1.3-1.1,1.9-1.6c0.2-0.2,0.4-0.6,0.5-0.9c0-0.1-0.2-0.4-0.4-0.4s-0.4,0.1-0.5,0.2c-1.2,1.2-2.4,2.5-3.7,3.7
		c-2.1,2-4.4,3.5-7.2,4.3c-0.2,0.1-0.5,0.1-0.8,0.1c-0.1-1.6-0.2-3.3-0.2-4.9c-0.1-1.7-0.2-3.4-0.2-5.1h-0.9c0,0.8,0,1.6,0.1,2.4
		c0.1,1.2,0.2,2.4,0.2,3.6c0.1,0.8,0.1,1.7,0.1,2.5c0,0.2-0.1,0.3-0.2,0.7c-0.7-1-1.3-1.9-2-2.7c-1.6-2-3.2-4-4.8-5.9
		c-0.2-0.2-0.5-0.3-0.7-0.4c-0.1,0-0.1,0.1-0.2,0.1c0.1,0.3,0.1,0.6,0.3,0.7c2.4,2.6,4.5,5.6,6.6,8.5c1.5,2.1,1.3,4.4,1.7,6.6
		c0,0.1-0.1,0.2-0.2,0.4c-3.7-4.4-7.4-8.7-11-13c-0.1,0.1-0.2,0.1-0.4,0.2c0.1,0.3,0.1,0.7,0.3,0.9c1.1,1.3,2.1,2.6,3.2,3.9
		c1.5,1.7,3.1,3.5,4.6,5.2c1.1,1.3,2.3,2.5,3.3,3.9c0.5,0.7,0.7,1.6,0.8,2.5c0.3,2.4,0.5,4.8,0.7,7.2c0,0.3,0,0.7-0.2,0.9
		c-0.3,0.6-0.4,0.9,0.3,1.2c0.1,0,0.3,0.5,0.2,0.8c-0.1,0.4-0.7,0.6-0.9,0.3c-0.9-1.4-2.4-1.3-3.7-1.7c-1.8-0.5-3.7-0.7-5.5-1.3
		c-2.6-0.8-5-2.2-6.5-4.6c-1-1.6-2.1-3.2-2.9-4.9c-0.9-1.6-1.1-3.4-1-5.2c0.1-0.8,0-1.6,0-2.4c0-2.1,0.9-3.9,1.5-5.9
		c0.3-1,0.5-2,1-2.8c0.3-0.6,0.9-1.1,1.4-1.6c0.2-0.2,0.3-0.3,0.5-0.5c0.9-0.9,1.9-1.8,2.8-2.7c1-1,2-1.9,3-2.8
		c0.2-0.2,0.5-0.4,0.7-0.6c1.1-1,2.3-2,3.3-3.1c2-2.3,4.8-3.4,6.9-5.5c0.1-0.1,0.1-0.1,0.2-0.2c0.8-0.8,1.1-0.9,2-0.3
		c1.5,1,3,2.1,4.5,3.2c2.2,1.8,3.8,3.9,4.9,6.4c0.2,0.4,0.3,0.7,0.5,1.1c0.6,1.6,0.8,3.2,0.8,4.9c0,0.7-0.1,1.5-0.3,2.2
		c0,0.1,0,0.1,0,0.2c-0.5,2.2-0.7,4.4-1.1,6.6c-0.2,0.9-0.7,1.7-1.1,2.5c-0.4,0.8-1,1.6-1.5,2.4s-1.2,1.5-1.7,2.3
		c-0.6,1-1.2,2-1.8,3c-0.2,0.3-0.3,0.5-0.5,0.8c-0.7,1-1.4,2.1-2.1,3.1c-0.6,0.9-1.3,1.7-2,2.6C189.6,82,189.3,82.2,189.2,82.1z
		 M204.1,77.9c-0.3,0-0.5,0-0.8,0.1c-0.4,0.1-0.7,0.3-1.1,0.5c-2.3,1.4-4.5,3.1-7.1,4.1c-1.6,0.6-3.5,0.9-4.8,2.3
		c-0.1,0.1-0.4,0.1-0.6,0c-0.1-0.1-0.3-0.4-0.2-0.5c0.3-0.7,0.7-1.3,1.2-1.9c0.6-0.8,1.3-1.5,1.9-2.3c0.5-0.7,1-1.5,1.5-2.3
		c0.6-1,1.2-2,1.8-2.9s1.2-1.8,1.8-2.7c0.3-0.4,0.7-0.8,1-1.3c0.5-0.7,1-1.5,1.4-2.3c0.5-0.9,1-1.9,1.2-2.8c0.5-2.5,0.7-5.1,1.3-7.6
		c0.2-0.7,0.2-1.3,0.3-2h5.5c-0.6,1.2-1.1,2.5-1.8,3.6c-0.8,1.4-1.2,2.9-1.5,4.5c-0.2,1-0.3,2.1-0.6,3.1c-0.4,1.8-0.9,3.7-1.3,5.5
		c-0.2,1.1-0.3,2.2-0.4,3.3c0,0.2,0.2,0.5,0.3,0.7c0.2-0.2,0.5-0.4,0.5-0.6c0.2-0.9,0.2-1.8,0.4-2.8c0.4-1.6,0.9-3.3,1.2-4.9
		c0.3-1.3,0.5-2.6,0.7-3.9c0.3-2.2,1.3-4.1,2.3-6c0.5-0.9,0.9-1.7,1.4-2.6h25.1c0,0.1,0,0.1,0,0.2c0,1.2,0.1,2.4,0,3.6
		c-0.1,1.4-0.5,2.9-0.7,4.3c-0.1,0.9-0.8,1.2-1.6,1.4c-0.7,0.1-1.4,0.1-2,0.3c-1.4,0.3-2.9,0.8-4.3,1.1c-0.4,0.1-0.8,0.2-1.1,0.4
		c-0.7,0.4-1.4,0.8-2.2,1.2c-0.1,0.1-0.4,0.1-0.5,0.1c-0.1-0.1-0.1-0.3-0.1-0.5c0.2-0.9,0.4-1.8,0.7-2.7c0.2-0.9,0.5-1.9,0.6-2.8
		c0-0.2-0.2-0.5-0.4-0.8c-0.2,0.2-0.5,0.5-0.6,0.7c-0.4,1.5-0.6,3-1,4.5c-0.2,0.9-0.4,1.8-1.2,2.7c-2.3,2.3-4.8,3.8-8,4.3
		c-2.5,0.4-4.9,1.3-6.9,2.8C205.1,77.4,204.6,77.9,204.1,77.9z M254.2,59c0.7,0.1,0.6,0.5,0.3,0.8c-0.3,0.5-0.8,0.9-1.1,1.4
		c-0.2,0.3-0.5,0.8-0.5,1.1c0,1,0,2.1,0.2,3.1c0.5,2.1,1.2,4.1,1.8,6.1c0.4,1.3,0.9,2.6,0.5,3.9c-0.8,2.2-1.9,4.1-3.9,5.5
		c-2.1,1.4-4.5,2.2-6.9,3c-0.8,0.2-1.7,0.5-2.5,0.4c-1.7-0.2-3.4-0.5-5-0.9c-2.2-0.6-4.4-1.2-6.6-2c-1.5-0.6-3-0.7-4.5-0.8
		c-0.8,0-1.6-0.2-2.3,0.1c-3,1.1-6.1,1.8-9.2,2.1c-0.5,0.1-1.1,0-1.6-0.3c-2.3-1-4.6-2.1-6.8-3.2c-0.9-0.5-0.8-0.7,0-1.4
		c2-1.6,4.4-2.3,6.9-2.9c1.6-0.4,3.4-0.7,4.8-1.7c0.8-0.6,1.6-1.3,2.4-1.8c1.4-0.9,2.9-1.7,4.4-2.5c0.6-0.3,1.1-0.6,1.7-0.8
		c0.7-0.2,1.4-0.3,2.2-0.5c1.3-0.3,2.5-0.7,3.8-1c0.6-0.1,0.8,0.1,0.6,0.7c-0.1,0.3-0.2,0.7-0.3,1c0.1,0,0.2,0.1,0.3,0.1
		c0.2-0.4,0.5-0.7,0.7-1.1c0.5-1.4,1.8-1,2.8-1.1c0.9-0.1,0.5,0.7,0.8,1c0.1,0.1,0.1,0.1,0.1,0c0.6-0.3,1-0.9,1.5-0.8
		c2.4,0,4.8,0.2,7.1,0.3c0.3,0,0.5-0.1,0.8-0.2c0-0.1,0-0.2,0-0.3c-0.3-0.1-0.6-0.4-0.9-0.4c-2.1-0.1-4.2-0.1-6.3-0.2
		c-0.5,0-0.8-0.2-0.7-0.8c0.4-2.1,0.8-4.3,1.1-6.4c0.1-0.7,0.1-1.5,0-2.2h8.1l0,0l0,0C249.7,57.7,251.8,58.6,254.2,59z"/>
	<path class="st7" d="M194.1,53.9c-0.2,0.1-0.4,0.3-0.5,0.5c-0.4,0.6-0.8,1.2-1.3,1.7c-0.6,0.7-1.3,1.2-2.2,1.5
		c-0.4,0.1-0.8,0.3-1.1,0.6c-0.2,0.2-0.2,0.5-0.3,0.8c0.3,0.1,0.7,0.3,0.9,0.2c1.5-0.8,3-1.5,4.1-3c0,0,0,0,0-0.1
		c0.4-0.6,0.8-1.1,1.1-1.7c0.1-0.1,0.1-0.5,0-0.5C194.5,53.9,194.3,53.8,194.1,53.9z"/>
	<path class="st7" d="M190.9,48.7c0-0.1-0.1-0.2-0.1-0.2c-0.3,0.1-0.6,0.1-0.9,0.3c-0.1,0.1,0.1,0.5,0.2,0.9
		C190.4,49.2,190.7,49,190.9,48.7z"/>
	<path class="st7" d="M136.1,100.8c0.8-0.4,1.7-0.7,2.6-1.1c0.2-0.1,0.4-0.3,0.7-0.4c-0.9-0.9-3.5-0.1-4.6,1.2
		C135.4,101,135.5,101,136.1,100.8z"/>
	<path class="st7" d="M134.4,96.9c-1.8,0.3-3.5,0.6-5.3,1c-0.3,0.1-0.6,0.3-0.9,0.4c0,0.1,0,0.2,0,0.3c0.3,0.1,0.6,0.4,0.9,0.4
		c1.9-0.4,3.7-0.8,5.6-1.2c0.3-0.1,0.4-0.4,0.7-0.6C135.1,97,134.7,96.9,134.4,96.9z"/>
	<path class="st7" d="M127.2,94.1c0.2,0,0.5-0.1,0.7-0.1c0-0.2,0-0.5,0-0.5c-0.3-0.2-0.7-0.4-1-0.3c-2.2,0.4-4.4,0.4-6.7,0.2
		c-2.2-0.2-4.4-0.3-6.6-0.4c-0.2,0-0.5,0.3-0.7,0.4c0.3,0.2,0.5,0.5,0.8,0.6c1.8,0.1,3.7,0.1,5.5,0.2
		C121.9,94.4,124.5,94.5,127.2,94.1z"/>
	<path class="st7" d="M97.1,59.5c1.1-0.7,2.1-0.4,3.2,0.1l0,0c0.9,0.4,1.9,0.8,2.8,1.1s2-0.3,2.5-1.1c0.2-0.4,0.5-0.7,1-0.3
		c0.5,0.5,0.9,1.1,1.4,1.5c1,0.8,2.2,1.5,3.3,2.2c0.2,0.1,0.8-0.2,1.1-0.4c0.1-0.1,0-0.7-0.1-0.9c-0.2-0.2-0.7-0.1-1-0.1
		c-0.4,0-0.8,0-1.1-0.2c-1.1-1-2.1-2-3.1-3.2c-0.5-0.6-0.8-0.7-1.4-0.2c-0.2,0.2-0.8,0.3-0.9,0.1c-0.7-0.8-1.4-1.6-1.9-2.5
		c-0.7-1.4-1.3-2.9-1.8-4.4c-0.8-2-0.9-4.1-0.6-6.2c0.2-1.1,0.2-2.1-0.1-3.1c-0.2-0.8-0.4-1.7-0.3-2.4c0.4-1.4,1-2.8,1.6-4.1
		c0.3-0.6,1-1.1,1.4-1.7c0.1,0,0.2,0.1,0.2,0.1c0.1,1.1-0.4,2.5,0.9,3.5c0-0.8,0-1.3-0.1-1.9c0.1,0,0.1,0,0.2,0
		c0.3,0.4,0.7,0.9,1,1.2c0.8-0.6,1.5-1,2-1.4c0.3,0.4,0.5,0.8,0.7,0.8c0.5,0,1-0.2,1.4-0.3c0.9-0.2,1.8-0.9,2.5,0.3
		c0.1,0.1,0.4,0.1,0.6,0.1c0.4,0,0.9-0.1,1.3-0.1c0.5,0,1,0.1,1.2,0.6c0.5,1.2,1,2.5,1.4,3.7c0.1,0.3-0.1,0.7-0.3,0.9
		c-0.1,0.1-0.5,0-0.7,0c-0.7-0.1-0.6-0.7-0.6-1.1c0-0.6,0.3-1.3-0.3-1.8c-0.3,0.1-0.6,0.3-0.9,0.4c-0.2-0.5-0.3-0.8-0.5-1.2
		c-0.4-0.7-0.6-0.6-1.1,0.3c-0.3-0.1-0.6-0.2-0.9-0.3c-0.3,0.8,0.4,2.5,1.1,2.8c0.1,0,0.3,0.1,0.4,0c0.6-0.3,0.8,0,0.9,0.5
		c0.1,0.4,0.1,0.9,0.2,1.5c-0.5-0.1-0.8-0.1-1-0.2c-1.1-0.4-2.2-0.9-3.3-1.2c-0.3-0.1-0.6,0-1.1,0c0.8,1.1,2.1,0.5,2.7,1.8
		c-1.4-0.2-2.6-0.3-3.8-0.5c0,0.1,0,0.2-0.1,0.3c0.2,0.1,0.5,0.3,0.7,0.4c0.1,0,0.1,0.1,0.2,0.1c1.5,0.3,3,0.6,4.5,0.8
		c0.6,0.1,0.8,0.3,0.7,0.9c-0.2,1-0.3,2.1-0.4,3.1c0,0.2-0.2,0.5-0.3,0.6c-0.2,0-0.4-0.1-0.6-0.3c-0.5-0.4-1-0.7-1.5-1.1
		c-0.2-0.2-0.6-0.4-0.6-0.7c-0.2-1.4-1.5-1.8-2.3-2.7l0,0c-0.1,0-0.2,0-0.3,0c-0.6,0-1.1-0.1-1.7-0.1c-0.2,0-0.5-0.1-0.6,0
		c-0.1,0.2-0.1,0.4-0.2,0.7c0,0.1,0,0.3,0,0.4c-0.2,0-0.4,0-0.5,0c-0.3-0.1-0.5-0.3-0.8-0.5c-0.2-0.1-0.5-0.1-0.7-0.1
		c0,0.1-0.1,0.2-0.1,0.3c0.4,0.3,0.8,0.6,1.3,0.8c1.3,0.4,2,1.2,2,2.6c0,0.2,0,0.4,0.1,0.6c0.3,0.7,0.7,0.9,1.5,0.6
		c0.7-0.3,1.5-0.6,2.3-0.8c0.2-0.1,0.6,0,0.8,0.1c0.5,0.3,1,0.7,1.4,1.1c0.6,0.6,0.5,1-0.2,1.4c-0.3,0.2-0.6,0.4-0.9,0.6
		c0,0.1,0,0.1,0.1,0.2c0.2,0,0.4,0.1,0.6,0c0.5-0.1,1.1-0.5,1.5-0.4c0.9,0.2,1.4,0.2,2.1-0.6c0.6-0.7,2-0.8,3-0.2
		c1.2,0.7,2.4,1.3,3.6,2.1c1.5,0.9,3,1.8,4.5,2.7c0.3,0.2,0.6,0.2,0.8,0.4c0.1-0.3,0.3-0.6,0.3-0.9c0.2-1.3,0.6-2.4,2-2.9
		c2.3-0.8,4.5-1.6,6.9-1.1c0.2,0,0.5-0.2,0.8-0.3c-0.1-0.2-0.1-0.5-0.3-0.7c-0.4-0.3-0.4-0.6-0.2-1c0.4-0.9,0.7-1.7,1.1-2.6
		c1.2-2.5,2.6-4.7,5.5-5.6c1.5-0.5,2.6-0.7,3.3,1c0.1,0.3,0.4,0.6,0.7,0.9c0.2,0.2,0.5,0.2,0.7,0.3c0.1-0.1,0.1-0.1,0.2-0.2
		c-0.2-0.3-0.3-0.7-0.5-0.9c-0.9-1-1.3-2.2-2.1-3.3c-1.2-1.8-2.1-3.9-2.9-6c-0.5-1.2-0.6-2.5-0.9-3.8c-0.1-0.5-0.2-1.1,0.5-1.4
		c0.1-0.1,0.1-0.4,0.1-0.7c0-0.3,0-0.6,0-0.9c0-0.2,0.1-0.4,0-0.6c-0.5-1.1,0.1-2.4,0.9-3c1.1-0.9,2-0.9,3.2-0.2
		c0.2,0.1,0.4,0.2,0.5,0.2c0.5-0.1,0.7,0.1,0.7,0.6c0,0.2,0.3,0.5,0.5,0.6s0.5-0.1,0.7-0.2c0.1-0.1,0.2-0.5,0.1-0.7
		c-0.5-0.8-0.9-1.7-1.7-2.1c-1.7-1.1-3-2.6-4.3-4.1c-0.7-0.8-1.4-1.1-2.5-1.1c-1.5,0-3.1,0-4.6-0.2c-0.4,0-0.7-0.6-1-0.9
		c-0.3-0.3-0.5-0.7-0.8-0.8c-1.2-0.3-2.4-0.6-3.6-0.9c-2.5-0.6-5-0.2-7.5-0.1c-0.8,0-1.6,0.2-2.4,0.2c-0.2,0-0.4-0.1-0.6-0.3
		c-0.9-0.7-1.8-1.4-2.8-2.1c-1.6-1.1-3.3-2-5.1-2.5c-0.2,0-0.3,0-0.5-0.1c0,0.1-0.1,0.1-0.1,0.2c0.3,0.3,0.5,0.6,0.8,0.7
		c1.2,0.6,2.4,1.2,3.7,1.8c0.9,0.5,1.7,1,2.6,1.5c0.3,0.2,0.4,0.6,0.5,0.9c-0.1,0.1-0.2,0.1-0.2,0.2c-0.2-0.2-0.4-0.3-0.6-0.5
		c-0.7-0.6-1.4-1.3-2.2-1.7c-2.1-1.1-4.3-2.1-6.4-3.2c-0.1-0.1-0.4,0-0.6,0.1c0,0.2,0,0.5,0.1,0.6c0.5,0.3,1,0.7,1.5,0.9
		c2.5,1.1,5,2,7,4.1c0.1,0.1,0.3,0.3,0.5,0.3c0.7-0.2,1,0.3,1.4,0.8l0,0l0,0l0,0l0,0c0.3,0.1,0.6,0.3,0.9,0.3
		c0.8,0.2,1.4,1.3,2.4,0.6c0,0,0.2,0,0.2,0.1c0.6,0.4,1.2,0.5,1.9,0.4c0.8,0,1.8-0.6,1.9-1.4c0.3,0.2,0.6,0.4,0.9,0.6
		c0.3,0.2,0.7,0.5,1,0.7c0.1,0.1,0.5,0,0.5-0.1c0.1-0.2,0.1-0.5,0-0.6c-0.4-0.4-0.9-0.8-1.4-1.2c-0.1-0.1-0.2-0.2-0.3-0.3
		c0.1-0.1,0.2-0.3,0.4-0.2c0.5,0.1,1,0.1,1.4,0.3c0.6,0.3,1.2,0.6,1.8,1c0.5,0.3,0.9,0.7,1.3,1c0.2,0.1,0.4,0.2,0.6,0.3l0.2-0.1
		c-0.1-0.2-0.2-0.4-0.4-0.6c-0.4-0.4-0.7-0.7-1.1-1.1c1-0.1,1.8,0,2.3,0.9c0.2,0.4,0.8,0.8,1.3,0.9c0.9,0.2,1.8,0.2,2.7,0.3
		c0.3,0,0.7,0.1,0.8,0.3c0.4,0.5,0.6,1.1,1,1.6c0.3,0.4,0.7,0.7,1.1,0.9c0.7,0.3,1.5,0.4,2.2,0.7c0.3,0.1,0.6,0.4,0.8,0.6
		c-0.5,0.5-1,0.9-1.5,1.3s-1,0.9-1.5,1.3c-0.1-0.1-0.4-0.3-0.6-0.5c-1.1-1.2-2.3-2.4-3.3-3.7c-0.7-0.8-1.5-1.2-2.2-0.8
		c0.1,0.2,0.3,0.5,0.5,0.9c-1.4-0.2-2.7-0.5-4-0.7s-2.5-0.3-3.6-0.4c0.1-0.5,0.1-0.9,0.2-1.2c-0.4,0-0.8-0.1-1.1,0
		c-0.8,0.3-1.6,0.6-2.3,1c-1.9,1.2-4,1.8-6.1,2.4c-1,0.3-2,0.6-3,0.9c0,0.1,0,0.2,0,0.3c0.4,0.1,0.8,0.2,1.2,0.2
		c0.8,0,1.5,0.4,1.4,1.1c0,0.4,0.1,0.7,0.3,1c0.2,0.2,0.4,0.5,0.6,0.7c0.7,1,1.5,1.5,2.7,1.5c0.3,0,0.7,0.3,1,0.3
		c1.1,0,2.2,0,3.3,0.1c0.8,0.1,1.6,0.4,2.4,0.6c0,0.1,0,0.2,0,0.3c-0.3,0-0.6,0.1-0.9,0.1s-0.7,0-1,0c-1.4-0.1-2.7-0.2-4.1-0.2
		c-0.2,0-0.3,0.1-0.5,0.1c0.1,0.2,0.1,0.4,0.2,0.5c0.2,0.2,0.5,0.2,0.7,0.3c0.9,0.4,1.5,1.2,2.6,1.2c0.1,0,0.2,0.1,0.2,0.2
		c0.4,0.3,0.8,0.6,1.3,0.9c0.2,0.1,0.4,0.2,0.6,0.3c0,0.1-0.1,0.2-0.1,0.3c-0.3-0.1-0.6-0.2-0.9-0.2s-0.7,0-0.8,0.2
		c-0.2,0.5-0.8,0.9-0.4,1.6c0.2,0.4,0,0.9,0.6,1.1c0.1,0,0.2,0.5,0.2,0.7c-0.1,0.4-0.2,0.7-0.4,1.4c-1.7-1.2-2.5-3.1-4-4.1
		c-0.7,0.7-0.7,1.1,0.1,2.1c0.3,0.4,0.5,0.7,0.3,1.2c-0.1,0.1,0,0.4,0,0.5c0.2,0.6,0.3,1.3,0.5,2.1c-0.4-0.2-0.7-0.2-0.9-0.4
		c-0.7-0.8-1.4-1.7-2-2.6c-0.7-1.1-0.7-2.4-0.5-3.6c0.1-0.3,0.6-0.6,0.9-0.9c0.1-0.1,0.1-0.1,0.2-0.3c-0.3-0.1-0.5-0.3-0.7-0.2
		c-1.3,0.4-2.5,0.9-3.8,1.4c-0.7,0.2-1.4,0.4-2.1,0.7c0-1.6,1-3.8,1.6-3.9c0.2,0.8,0.4,1.5,0.7,2.3c0.1,0,0.2,0,0.3,0
		c0.1-0.2,0.3-0.4,0.2-0.6c-0.1-0.8-0.2-1.6-0.3-2.4c0-1.1,0-2.3,0-3.4c0-0.2,0-0.6-0.2-0.7s-0.5-0.2-0.7-0.2
		c-1.2,0.5-2.4,1-3.6,1.5c-0.7,0.3-1.3,0.6-1.9,1c-0.9,0.7-1.8,1.5-2.7,2.3c-0.7,0.7-1.5,1.3-2.1,2.1c-0.5,0.7-1.3,1.3-1.1,2.3
		c0,0.1-0.2,0.2-0.3,0.3c-0.9,0.9-1.9,1.8-2.8,2.7c-0.2,0.2-0.4,0.4-0.5,0.6c-0.9-0.9-1.6-1.9-2.6-2.6c-1-0.8-2.2-1.5-3.4-2.2
		c-0.2-0.1-0.4,0-0.6-0.1c0,0.2,0,0.5,0.2,0.6c0.1,0.2,0.3,0.3,0.5,0.4c1.4,1,2.8,1.9,4.1,3c0.6,0.5,1.1,1.1,1.3,1.8
		c0.1,0.4-0.4,0.9-0.6,1.4c-0.1,0.2-0.1,0.4-0.2,0.6c-0.3,0.7-0.4,1.5-0.9,2.1c-0.7,0.9-0.7,1.8-0.6,2.8c0.1,0.9,0,1.8,0,2.7
		c-0.1,0-0.2,0.1-0.3,0.1c-0.2-0.4-0.4-0.8-0.6-1.3c-0.7-1.8-1.2-3.6-2-5.4c-0.6-1.5-0.7-3.1-0.7-4.7c0-0.6,0.2-1.3-0.6-1.8
		c-0.1,0.3-0.3,0.5-0.3,0.7c0.1,1.4,0.3,2.8,0.5,4.1c0.1,0.9,0.4,1.7,0.6,2.6c0.3,1.1,0.7,2.2,1.1,3.3c0.5,1.3,1,2.6,1.5,3.9
		c0.1,0.2,0.2,0.5,0.3,0.7c0.4,1,0.8,2,1.1,3c0.3,0.7,0.5,1.4,0.7,2.1c-1.2,0.5-1.6-1.3-2.8-0.6c0.4,0.6,1.4,0.8,0.7,1.9
		c1.1,0.6,2.2,1.3,3.3,1.7c1.2,0.4,1.5,1.3,2,2.2c0,0,0,0.1-0.1,0.2c-1.2-0.3-2.3-0.9-3.4-1.6c-0.2,0.3-0.3,0.6-0.4,0.9
		c-0.6,0.2-1.2,0.2-1.7,0.5c-0.7,0.4-1.1,0.2-1.7-0.2s-1.1-0.8-1.7-1.2c0.3,0.8-0.1,0.8-0.3,0.8c0,0.1-0.1,0.2-0.1,0.3
		c1.2,0.7,2.4,1.5,3.6,2.2C96.4,59.6,96.9,59.6,97.1,59.5z M106.3,45.7c-0.2-0.3-0.4-0.6-0.6-0.9c0.1-0.1,0.1-0.2,0.2-0.2
		c0.3,0,0.7,0,0.8,0.2c0.2,0.2,0.2,0.6,0.2,1C106.7,45.7,106.4,45.8,106.3,45.7z M107.3,48.1c-0.6-0.3-0.8-1.1-0.5-1.9
		C107.7,46.8,107.9,47.5,107.3,48.1z M121.5,14.2c-0.3-0.2-0.6-0.4-0.8-0.6c-0.1-0.1,0.1-0.4,0.1-0.6c0.1,0,0.2,0,0.2-0.1
		c0.2,0.3,0.4,0.7,0.6,1C121.6,14,121.5,14.1,121.5,14.2z M142.2,17.1c-0.6-0.1-1.3-0.3-1.9-0.4c0-0.2,0.1-0.3,0.1-0.5
		c0.6,0.2,1.3,0.3,1.9,0.5C142.2,16.8,142.2,17,142.2,17.1z M121.7,23.7c-0.2-0.1-0.4-0.1-0.5-0.2c-0.7-0.6-1.5-1.2-2.2-1.8
		c-0.2-0.2-0.2-0.5-0.3-0.7c0.3,0.1,0.6,0.1,0.8,0.3c0.6,0.5,1.2,1,1.8,1.5c0.2,0.2,0.4,0.5,0.6,0.8
		C121.8,23.5,121.7,23.6,121.7,23.7z M127.6,52.1c-0.3,0.4-0.5,0.9-0.7,1.3s-0.3,0.7-0.9,0.4c-0.8-0.4-1.7-0.7-1.7-1.9
		c0-0.6-0.5-1.1-0.6-1.7c-0.2-0.8-0.3-1.6-0.5-2.4c-0.1-0.3-0.3-0.6-0.5-1.2c-0.3,0.5-0.5,0.8-0.7,1.2c-0.1-0.3-0.2-0.6-0.4-0.9
		c-0.1-0.1-0.2-0.2-0.4-0.3c-0.1,0.2-0.3,0.4-0.3,0.6c-0.1,0.4-0.1,0.8-0.3,1.2c-0.1,0.2-0.3,0.4-0.5,0.3c-0.9-0.2-0.8,0.3-0.8,1
		c-0.3-0.1-0.6,0-0.8-0.1c-1.3-0.6-2.6-0.6-3.9,0c-0.3,0.1-0.8,0.1-1,0s-0.1-0.6-0.1-0.9c0.1-1.1,0.4-2.2,0.5-3.3
		c0-0.8,0.5-1.1,1.1-1.4c0.1-0.1,0.3-0.2,0.4-0.3c-0.1-0.1-0.2-0.2-0.3-0.4c-0.2-0.2-0.4-0.5-0.7-0.8c1.5,0.1,1.6,0.3,1.9,1.4
		c0.2,0.9,0.7,1.6,1.1,2.4c0.2,0.3,0.3,0.7,0.4,1.1c0.1,0.2,0.2,0.6,0.3,0.6c0.2,0,0.6-0.1,0.7-0.2c0.7-1,1.3-2,2-3
		c0.2-0.3,0.6-0.7,0.9-0.8c0.2,0,0.6,0.5,0.8,0.8c0.5,1.1,0.9,2.3,1.3,3.4c0.6,1.6,1.2,2.1,2.8,2.1c0.4,0,0.9,0,1.3,0
		c0.3,0,0.7,0.2,1.1,0.3C128.6,51.3,128,51.6,127.6,52.1z M129.2,49c0-0.3-0.1-0.6-0.2-0.9c0-0.2,0-0.3,0-0.5
		c0.2,0.1,0.5,0.1,0.5,0.2c0.2,0.5,0.4,1.1,0.5,1.7C129.4,49.7,129,49.7,129.2,49z M132.7,49.8c-0.3-0.1-0.5-0.5-0.8-0.7
		c0.1-0.1,0.1-0.2,0.2-0.3c0.6,0.1,1.1,0.3,1.7,0.4c0,0.1,0,0.2,0,0.3C133.5,49.6,133,49.8,132.7,49.8z M141.6,31.8
		c-0.7-0.2-1.3-0.3-2.2-0.6c0.3-0.2,0.4-0.4,0.6-0.4c0.9-0.3,1.1-0.7,0.3-1.3c-0.7-0.6-1.5-0.9-2.2-1.4c-0.4-0.2-0.7-0.4-1.1-0.6
		c0-0.1,0.1-0.2,0.1-0.3c0.7,0.3,1.4,0.7,2,1.1c0.5,0.3,0.9,0.8,1.4,1.1C141.4,30,141.8,30.7,141.6,31.8z M138.5,21.9
		c0.1,0,0.3,0.1,0.3,0.2c0,1,0.9,1.4,1.5,2c0.2,0.1,0.3,0.3,0.6,0.6c-0.9-0.5-1.7-0.9-2.4-1.4c-0.2-0.2-0.2-0.7-0.3-1.1
		C138.2,22.1,138.4,21.9,138.5,21.9z M140.9,26.9c-0.6-0.4-1.2-0.8-1.9-1.2c-0.1,0-0.1-0.1-0.2-0.2c-0.2-0.2-0.4-0.5-0.6-0.7
		c0.4,0,0.8-0.1,1.1,0.1C140,25.4,140.9,25.7,140.9,26.9z M140.6,28c-0.6-0.3-1.1-0.6-1.7-0.9c-0.8-0.4-1.6-0.8-2.4-1.2
		c-0.1-0.1-0.2-0.3-0.3-0.5c0.2,0,0.4-0.2,0.6-0.1C138.3,25.9,139.7,26.6,140.6,28z M135.9,19.9c-1.3,0.1-2.4,0.2-3.6,0.3
		C132.9,18.9,134.4,19,135.9,19.9z M130.8,21.6c0.4-0.6,1.3-1,2-0.8c0.8,0.1,1.6,0.1,2.4,0.1c0.3,0,0.5,0,0.8,0.2
		c-0.9,0.5-1.9,0.8-2.9,0.6c-0.2-0.1-0.4,0-0.6,0c0.1,0.2,0.1,0.4,0.2,0.6c0.8,1.6,1.1,1.3,2.9,1.1c0.5-0.1,1-0.1,1.4,0
		c0.2,0.1,0.3,0.5,0.5,0.8c-0.3,0-0.6,0.1-0.8,0c-0.6-0.3-1-0.3-1.4,0.3c-0.2,0.2-0.8,0-1.2,0c-0.2,0-0.5,0.1-0.7,0.1
		c0.1,0.2,0.2,0.5,0.4,0.6c0.2,0.2,0.5,0.2,0.8,0.3c1,0.1,1.3,0.6,1.4,1.7c0.1,0.7,0.4,1.5,0.8,2.1c0.3,0.5,0.8,1,1.5,0.4
		c0.1-0.1,0.4,0,0.7,0.1c0,0.1,0,0.2,0,0.3c-0.4,0.1-0.7,0.3-1.1,0.4c-0.3,0.1-0.6,0.1-0.9,0.2c-1.5,0.6-1.6,0.6-2.4-0.8
		c-0.9-1.5-2.2-2.6-3.3-4C130.4,24.6,129.9,23.2,130.8,21.6z M125.5,24.3c-0.6,0-1.2-0.1-1.7-0.2c-0.8-0.9-1.3-1.8-1.4-2.8
		c0-0.1,0.2-0.4,0.4-0.4c0.6-0.3,1.3-0.6,2-0.9c0.5-0.2,0.7-0.5,0.3-1c-0.1-0.1,0.2-0.6,0.3-0.6c1-0.2,1.6,0.2,2,1.2
		c0.1,0.3,0.5,0.5,0.7,0.7c0.2,0.1,0.5,0.1,0.8,0.3c1,0.4,1.1,0.7,0.8,1.7c-0.1,0.4-0.2,0.8-0.2,1.3c-0.1,0.5-0.3,0.7-0.8,0.7
		C127.7,24.2,126.6,24.3,125.5,24.3z M126.4,25.4c0-0.1,0.1-0.3,0.1-0.4c1.2-0.1,2.4,0,3.6,0.3c0,0.1,0,0.2,0.1,0.3
		c-0.2,0.1-0.3,0.4-0.5,0.4C128.5,25.8,127.4,25.6,126.4,25.4z M132.2,28.4c-0.2,0.2-0.4,0.5-0.6,0.7c-0.8,0.7-0.8,0.6-1.3-0.3
		c-0.2-0.3-0.6-0.5-0.9-0.7c-0.2-0.1-0.5-0.1-0.9-0.2C129.2,27.4,131.5,27.7,132.2,28.4z M129.8,30.5c-0.3,0.1-0.7,0.3-1,0.4
		c0,0-0.3-0.5-0.3-0.6c0.3-0.4,0.8-0.4,1.2-0.1C129.7,30.3,129.7,30.4,129.8,30.5z M127.8,33c0.2-0.4,0.7-0.7,1.1-1
		c0.8-0.5,1.7-1,2.6-1.6c0.3-0.2,0.5-0.6,0.8-0.8c0.1-0.1,0.3-0.2,0.5-0.2c0.5,0.1,1.5,1.6,1.3,2.4c-0.6-1-1.2-1.9-2.4-0.9
		c-0.4,0.3-0.7,0.7-1.1,1c-0.7,0.5-0.2,1-0.3,1.6c0,0.3,0,0.8-0.2,1c-0.9,0.6-1.3,1.6-1.7,2.5c-0.1,0.3-0.2,0.5-0.4,0.8
		s-0.4,0.7-0.7,1.2c-0.2-0.5-0.4-0.7-0.5-1C126.8,36.3,126.9,34.6,127.8,33z M122.6,38.2c0.6,0.4,1.2,0.6,1.9,0.1
		c0.5-0.4,1.6,0,1.9,0.7c0.3,0.6,0.5,1.3,0.9,1.9c0.1,0.2,0.4,0.4,0.7,0.4c0.1,0,0.3-0.3,0.4-0.5c0.3-1,0.5-2.1,0.8-3.1
		c0-0.1,0.1-0.2,0.1-0.3c0.8-1.7,2.1-3,3.8-3.9c0.1-0.1,0.3-0.2,0.4-0.3c0.3-0.3,0.6-0.5,0.9-0.7c1.4-0.8,3-0.5,4.6-0.4
		c1.3,0.1,2.2,0.9,3.2,1.4c0.2,0.1,0.3,0.4,0.5,0.6c0.2,0.3,0.4,0.7,0.5,1c0.3,0.6,0.6,1.3,0.9,1.9c0.1,0.2,0.1,0.4,0.3,0.9
		c-0.1,0-0.2,0-0.2,0c-1.2-0.1-2.2-0.2-3.2-0.4c-1.3-0.2-2.6-0.6-4-0.8c-0.6-0.1-0.9-0.2-0.8-0.9c0.2-1.4,0.1-1.4,1.5-1.2
		c1.6,0.2,3.1,0.5,4.4,1.5c0.1,0.1,0.5,0,0.7-0.1c0.1-0.1,0-0.4-0.1-0.5l0,0c-2.5-1.3-5-2.4-8-1.4c-1,0.3-0.8,1-0.8,1.7
		c-0.1-0.1-0.2-0.1-0.3-0.1c-0.2,0.4-0.5,0.7-0.7,1.1c0,0,0,0.1-0.1,0.1c-1.1,0.5-0.6,1.4-0.3,1.9c0.4,0.7,1.1,1.1,2.1,0.7
		c-0.1,0.3,0,0.6-0.2,0.8c-0.5,0.8-0.7,1.6-0.6,2.5c0.1,0.5-0.2,0.8-0.8,0.5c-0.8-0.4-1.6-0.9-2.5-1.4c0,0.2-0.1,0.4-0.1,0.6
		c0,0.2,0.1,0.4,0,0.5c-0.4,0.6-0.3,1,0.1,1.2c0.2,0.1,0.5,0.2,0.7,0.3c0.6,0.2,1.2,0.5,1.8,0.7c0.2,0.1,0.5,0.2,0.6,0.4
		c0.4,1.1,1.1,0.7,1.9,0.5c-0.2-0.7-0.2-1.3-0.5-1.9c-0.2-0.4-0.3-0.9-0.3-1.3c0-0.6,0.2-1.1,0.5-1.6c0.4-0.7,1.5-0.9,1.8-1.8
		c0-0.2,0.6-0.2,1-0.2c1.6-0.1,3.2-0.2,4.8-0.4c0.4,0,0.9-0.2,1.3-0.3c0.1,0,0.3,0,0.4-0.1c0.2,0,0.4,0.3,0.6,0.4
		c-1.5,0.6-2.9,1-4.2,1.7c-1.9,1.1-2.8,3-3.7,4.9c-0.6,1.2-1,2.5-1.5,3.7c-0.1,0.2-0.5,0.3-0.8,0.4c-0.1-0.2-0.3-0.5-0.2-0.7
		c0.2-0.6-0.1-0.9-0.6-0.8c-1.6,0.3-2.8-0.5-4.1-1.3c-0.4-0.3-1-0.4-0.9-1.3c0.7,0.3,1.3,0.6,2,0.9c0.3,0.2,0.6,0.4,0.9,0.5
		c0.2,0.1,0.4-0.1,0.7-0.2c-0.1-0.2-0.2-0.6-0.4-0.7c-0.7-0.4-1.4-0.7-2.1-1.2c0,0-0.1,0-0.1-0.1c-1.7-1.1-3.4-2.2-4.2-4.2
		c-0.1-0.3-0.4-0.4-0.5-0.7c-0.1,0.1-0.2,0.1-0.3,0.2c0.1,0.6,0.2,1.1,0.3,1.7c-0.1,0-0.2,0.1-0.2,0.1c-0.3-0.3-0.5-0.7-0.8-1
		s-0.4-0.9-1-0.3c-0.1,0.1-0.6,0-0.9,0c-0.5,0.7-0.2,1.6,0.6,2c0.1,0.1,0.2,0.1,0.3,0.1c1,0.2,2,0.3,2.9,0.6
		c0.9,0.2,1.4,0.9,1.6,1.8c0.1,0.3,0.2,0.6,0.2,0.9c0,0.3-0.1,0.7-0.2,0.8c-0.6,0.2-1,0.9-1.8,0.8c-0.1,0-0.4,0.4-0.4,0.7
		c0,0.2,0.1,0.5,0.2,0.7c-0.1,0-0.1,0.1-0.2,0.1c-0.2-0.3-0.4-0.5-0.6-0.8c-0.5-1.3-1.1-2.6-1.6-4c-0.2-0.5-0.5-1-1-1.2
		c-0.1,0-0.2-0.1-0.4-0.1c-0.7-0.1-0.8-0.6-0.9-1.2c-0.1-0.4-0.2-0.7-0.3-1c-0.1,0-0.3,0-0.4,0c-0.1,0.5-0.3,1.1-0.1,1.5
		c0.4,0.8-0.1,1.2-0.4,1.7s-0.5,1-0.9,1.4c-0.2,0.2-0.9,0.2-0.9,0.1c-0.4-0.7-0.8-1.4-1.1-2.1c0-0.1,0.3-0.6,0.5-0.6
		c0.9-0.1,1.4-0.6,1.7-1.3c0.2-0.4,0.3-0.7,0.5-1.1c0.4-0.9,0.8-1.8,1.3-2.8C121.7,37.7,122.2,37.9,122.6,38.2z M138.9,37.9
		c-0.4,0.5-1.8,0.9-2.2,0.6c-0.1-0.1-0.3-0.4-0.3-0.5s0.3-0.3,0.5-0.3C137.5,37.7,138.2,37.8,138.9,37.9z M117.4,41.7
		c0.1-0.2,0.1-0.5,0.2-0.6c0.3-0.2,0.6-0.3,1.1-0.5c-0.3,0.4-0.4,0.8-0.7,1C117.9,41.8,117.6,41.7,117.4,41.7z M105.9,29.5
		c1-1.2,2.4-2.1,3.7-3.1c0.7-0.6,1.5-1.2,2.3-1.6c1.1-0.5,2.2-0.9,3.4-1.4c-0.1,1,0.2,1.8-0.5,2.8c-0.8,1.1-1.2,2.4-1.7,3.7
		c-0.3,0.8-0.4,1.7-0.6,2.5c0,0.3,0.1,0.5,0.2,0.8c0.2-0.1,0.3-0.1,0.3-0.1c0.2-1.2,1.2-1.2,2.1-1.4s1.8-0.6,2.6-1
		c0.6-0.2,0.7-0.1,0.7,0.5c0,1.9,0.5,3.6,1.8,5c0.2,0.3,0.4,0.6,0.1,1c-0.4,0.4-0.6,0.4-0.9-0.1c-0.2-0.4-0.6-0.8-0.9-1.2
		c-0.1-0.1-0.4-0.1-0.6-0.1c-0.1,0-0.1,0.3-0.1,0.5c-0.1,0.5-0.1,1.1-0.2,1.6c-0.1,0.2-0.5,0.3-0.7,0.4c-0.5-1.1-1-1.9-1.4-2.8
		c-0.3-0.6-0.8-0.7-1.4-0.5s-0.8,0.1-0.7-0.5c0-0.5-0.1-0.7-0.5-0.6c-0.1,0-0.2,0.1-0.3,0.1c-0.5,0.3-0.9,0.1-1.1-0.4
		s-0.5-1-0.8-1.5c-0.4-0.8-0.8-1.5-0.1-2.3c0.1-0.1,0-0.4,0-0.5c-1.1-0.1-1.1-0.1-1,2.7c-0.3-0.3-0.6-0.6-0.9-0.9
		c-0.6,0.4-0.7,1.8-1.8,0.9c-0.1,0.1-0.3,0.2-0.3,0.3c0,1.2-0.9,1.7-1.7,2.3c-0.4,0.3-0.8,0.1-0.7-0.3
		C104.4,32.5,104.8,30.8,105.9,29.5z M99.8,51.2c-0.3-0.5-0.6-1-0.8-1.5c-0.6-1.8-0.4-3.7-0.2-5.5c0-0.6,0-1.2,0-1.8
		c0-0.1,0.1-0.3,0.2-0.5c0.6,0.6,0.7,1.3,0.6,2c-0.5,2.2-0.1,4.4,0.5,6.5c0.1,0.3,0.2,0.5,0.4,0.8C100.2,51.1,100,51.1,99.8,51.2z"
		/>
	<path class="st7" d="M121.8,62.4c0.5-0.5,0.9-0.4,1.3,0.1c1.3,1.2,2.8,2,4.6,2.3c0.9,0.1,1.7-0.1,2.2-0.9c-0.4,0-0.7-0.1-1,0
		c-0.5,0-1.1,0.2-1.6,0.1c-1.8-0.4-3.3-1.3-4.3-2.9c-1.2-1.9-2.3-3.9-3.5-5.8c-0.5-0.8-0.7-1.8-1.9-2.3c0.1,0.5,0.1,0.9,0.3,1.3
		c1.2,2.2,2.5,4.3,3.7,6.4c0.1,0.2,0,0.5,0.1,0.8c-0.3-0.1-0.5-0.1-0.8-0.2c-0.1-0.1-0.2-0.2-0.3-0.4c-0.8-1.6-1.5-3.1-2.4-4.7
		c-0.4-0.8-1-1.5-1.5-2.3c-0.1,0-0.2,0.1-0.3,0.1c0,0.3,0,0.6-0.1,0.9c-0.9,0.3-1,0.7-0.6,1.5s0.9,1.6,1.4,2.4
		c0.1,0.2,0.4,0.4,0.5,0.6c-0.1-1.4-1.2-2.4-1.2-3.7c0.1,0,0.1-0.1,0.2-0.1c0.2,0.2,0.4,0.5,0.6,0.7c0.7,1.3,1.2,2.6,1.9,3.8
		c0.5,0.8,1.1,1.6,1.7,2.3C121.1,62.5,121.6,62.5,121.8,62.4z"/>
	<path class="st7" d="M116.8,62.7c0.7,0.5,2.3,0.1,2.6-0.6c-0.4,0-0.7,0.2-1.1,0.1c-0.7,0-1.6,0.1-1.9-0.8c-0.1-0.2-0.1-0.5-0.2-0.7
		c0.2,0,0.5,0,0.7,0s0.4,0,0.5,0c0,0,0.1-0.3,0-0.3c-0.5-0.9-1.1-1.8-1.7-2.9c0,0.4,0,0.6-0.1,0.8c0,0.2-0.2,0.4-0.2,0.4
		c-1-0.2-0.6,0.5-0.6,1c0,0.3,0,0.6-0.1,1.1C115.4,61.3,116,62.1,116.8,62.7z"/>
	<path class="st7" d="M131.2,14.8c-0.2-0.1-0.5-0.1-0.7-0.1c0,0.1,0,0.2-0.1,0.2c0.2,0.2,0.5,0.4,0.7,0.6c0.1,0,0.2,0,0.3,0
		C131.3,15.3,131.3,14.9,131.2,14.8z"/>
	<path class="st7" d="M108.5,63c-0.5,0.3-0.1,1.7-1.3,0.9c0,1.2,0.3,1.6,0.8,1.7c0.3,0,0.6,0.2,0.9,0.2c0.2,0.1,0.5,0.1,0.7,0.2
		c-0.1-0.3,0-0.6-0.2-0.7c-0.5-0.5-0.7-1-0.6-1.7C108.8,63.3,108.6,63.2,108.5,63z"/>
	<path class="st7" d="M122.4,30.2c0.3,0.2,0.6,0.4,0.8,0.3c0.3,0,0.7-0.3,0.8-0.5c0.1-0.2,0.1-0.6-0.1-0.8c-0.2-0.1-0.5,0-0.8-0.1
		c-0.4-0.1-0.8-0.1-1.1-0.3c-1.5-1.2-2.8-2.5-3.6-4.4c-0.1-0.2-0.3-0.4-0.4-0.6c-0.1,0-0.2,0.1-0.3,0.1c0.1,0.4,0.1,0.7,0.2,1.1
		c0.8,1.5,1.7,2.9,2.9,4C121.3,29.4,121.8,29.8,122.4,30.2z"/>
	<path class="st7" d="M119.4,15.1c0.3,0.3,0.7,0.6,1,0.8c0.2,0.1,0.5,0.2,0.8,0.2c-0.1-0.2-0.3-0.5-0.4-0.8
		c-0.3-0.4-0.7-0.8-1.1-1.1C119.2,14.4,119,14.6,119.4,15.1z"/>
	<path class="st7" d="M119.7,16.6c-0.1-0.8-0.1-0.8-1-1.1C118.7,16.3,118.9,16.5,119.7,16.6z"/>
	<path class="st7" d="M100.3,57.2c0-0.1,0.1-0.2,0.1-0.2c-0.3-0.2-0.5-0.5-0.8-0.7c-0.8-0.3-1.6-0.6-2.4-0.8
		c-0.2-0.1-0.4,0.1-0.6,0.1c0.1,0.2,0.2,0.5,0.4,0.5c0.6,0.3,1.3,0.6,1.9,0.9l0,0l0,0l0,0C99.4,57.1,99.9,57.1,100.3,57.2z"/>
	<path class="st7" d="M118.4,17.6c0.2-0.6-0.2-1.5-0.6-1.5c-0.1,0-0.3,0-0.3,0.1c-0.1,0.1-0.1,0.3,0,0.4
		C117.7,17,118,17.3,118.4,17.6z"/>
	<path class="st7" d="M117.1,18.5c0.3-1.1-0.6-1.1-1-1.7C115.9,17.9,116.7,17.9,117.1,18.5z"/>
	<path class="st7" d="M115.7,18.8c0-0.3-0.9-1-1.4-0.8c0.3,0.4,0.6,0.7,1,1C115.3,19.1,115.7,18.9,115.7,18.8z"/>
	<path class="st7" d="M114.2,20c0.1,0,0.3,0,0.3-0.1s0-0.3,0-0.4c-0.4-0.4-0.7-0.8-1.2-1.2C113.1,19,113.7,20,114.2,20z"/>
	<path class="st7" d="M115.9,12.6c-1.8-1-3.6-2-5.3-3c-0.3-0.2-0.6-0.3-0.9-0.5c-0.1,0.1-0.1,0.1-0.2,0.2c0.1,0.1,0.1,0.3,0.2,0.4
		c0.6,0.4,1.1,0.8,1.7,1.2c1.4,0.8,2.8,1.6,4.3,2.4c0.2,0.1,0.5,0.1,0.8,0.1c-0.1-0.2-0.2-0.5-0.3-0.7
		C116.1,12.8,116,12.7,115.9,12.6z"/>
	<path class="st7" d="M114,14.4c-0.1-0.2-0.1-0.5-0.3-0.7c-0.1-0.1-0.3-0.2-0.4-0.2c-1-0.7-2-1.3-3-2c-0.2-0.1-0.5-0.2-0.8-0.3
		c0.1,0.3,0.2,0.6,0.3,0.9c0,0.1,0.2,0.2,0.3,0.3c1,0.7,2.1,1.4,3.1,2.1C113.5,14.5,113.8,14.4,114,14.4z"/>
	<path class="st7" d="M109.4,14.9c0.4,0.4,0.8,0.7,1.2,1l0,0c0.4,0.3,0.7,0.6,1.1,0.9c0.2,0.1,0.4,0.1,0.6,0.1c0-0.2,0.1-0.5,0-0.6
		c-0.8-0.7-1.7-1.4-2.5-2.1c-0.1-0.1-0.4,0-0.6,0.1C109.3,14.5,109.3,14.8,109.4,14.9z"/>
	<path class="st7" d="M107.7,16.7c0,0.2,0,0.4,0.2,0.5c0.2,0.3,0.5,0.5,0.8,0.7c0.2,0.2,0.4,0.4,0.7,0.6c0.2,0.1,0.5,0.1,0.7,0.2
		c0-0.3,0.1-0.7,0-0.8c-0.6-0.5-1.2-0.9-1.8-1.3C108.1,16.5,107.9,16.7,107.7,16.7z"/>
	<path class="st7" d="M96.2,48.5c-0.1-0.2-0.1-0.4-0.3-0.4c-1.4-0.8-2.7-1.7-4.1-2.5c-0.1-0.1-0.3,0-0.4,0.1l0,0c0,0.1,0,0.2,0,0.3
		c0.1,0.2,0.3,0.4,0.5,0.5c0.8,0.5,1.6,0.9,2.5,1.4c0.5,0.3,1.1,0.6,1.7,0.8C96.1,48.7,96.1,48.6,96.2,48.5z"/>
	<path class="st7" d="M91.7,47.5c1.2,1,2.4,1.8,3.7,2.2c0.1-0.1,0.1-0.2,0.2-0.4c-1.1-0.7-2.1-1.4-3.2-2.1
		C92.3,47.3,91.9,47.5,91.7,47.5z"/>
	<path class="st7" d="M91.9,56.6c0.1,0,0.1-0.1,0.2-0.1c-1.1-1.3-2.2-2.6-3.3-3.9C88.3,53.4,90.1,55.6,91.9,56.6z"/>
	<path class="st7" d="M104.6,17.7c0,0.1-0.1,0.4-0.1,0.4c0.5,0.4,0.7,1.3,1.7,1.2c0-0.3,0-0.6,0-0.9c0.4,0.2,0.8,0.4,1.3,0.6
		c0.2,0.1,0.4-0.1,0.6-0.1c-0.1-0.2-0.1-0.5-0.2-0.6c-0.5-0.3-1-0.6-1.5-0.9C105.7,17,105.2,17.9,104.6,17.7z"/>
	<path class="st7" d="M98.6,22.3c1.3-0.5,2.6-0.9,4-0.7c0.3,0,0.6-0.2,0.8-0.3c-0.3-0.2-0.6-0.6-0.9-0.6c-1.2,0.2-2.3,0.5-3.4,0.8
		c-0.5,0.1-0.9,0.4-1.3,0.7c0,0.1,0.1,0.2,0.1,0.3C98.2,22.4,98.4,22.3,98.6,22.3z"/>
	<path class="st7" d="M89.8,46c0.2,0,0.5,0.1,0.5,0c0.1-0.1,0.1-0.3,0.2-0.5c0-0.1,0-0.3,0-0.4c-0.5-1.8-1.2-3.6-1.6-5.4
		c-0.7-3.2-1.3-6.4-1.9-9.7c-0.1-0.4-0.1-0.8-0.3-1.2c0-0.1-0.2-0.2-0.3-0.3h-0.1c-0.1,0-0.3,0.2-0.3,0.4c0,0.9-0.1,1.8,0.1,2.7
		c0.1,1,0.5,1.9,0.7,2.9c0.3,1.7,0.6,3.3,1,5c0.5,1.9,1.1,3.7,1.7,5.6C89.6,45.4,89.7,45.7,89.8,46z"/>
	<path class="st7" d="M97.2,25.1c0.2-0.6,0.2-1.3,0.4-2c-0.1,0-0.2-0.1-0.4-0.1c-0.2,0.5-0.5,1-0.8,1.6c-0.6-0.6-1-1.2-1.6-1.7
		c-0.2-0.2-0.5-0.2-0.8-0.3c0.1,0.3,0.1,0.6,0.2,0.8c0.5,0.6,1.1,1.2,1.7,1.8C96.4,25.7,97,25.7,97.2,25.1z"/>
	<path class="st7" d="M94.9,25.8c-0.1-0.9-0.8-1.5-1.2-2.3C93.3,24.3,93.8,25.2,94.9,25.8z"/>
	<g>
		<g>
			<path class="st2" d="M225.3,25.3c0-0.2-0.1-0.5-0.4-0.5c-0.2,0-0.2,0.1-0.4,0.2c-0.6,0.6-2.5,2.7-3.3,2.7c-0.8,0-2.2-2.2-2.2-2.9
				c0-0.4,0.4-0.8,0.9-1.2c3.7-3.2,6.3-6.2,8.6-10.5c0.2-0.2,0.3-0.5,0.6-0.5c0.3,0,1.4,0.5,2.2,1c0.4,0.2,0.8,0.4,1,0.5
				c0.3,0.2,0.8,0.4,0.8,0.8c0,0.3-0.4,0.4-0.6,0.5c-0.6,0.1-0.6,0.2-1,0.8c-0.6,1-1.5,2.3-2.2,3.2c0,0,0,0.1,0,0.2
				c0,0.1,0.1,0.2,0.2,0.2c0.3,0,0.9,0.1,0.9,0.6c0,0.3-0.3,0.5-0.6,0.6c-0.6,0.4-0.5,1.2-0.5,3.3V32c0,1.4,0.1,2.8,0.1,4.2
				c0,1.2-0.4,1.4-2.1,1.4c-1.7,0-2.2-0.2-2.2-1.4c0-1.4,0.1-2.8,0.1-4.2V25.3z M234.3,5.4h5.5c0.7,0,1.1-0.3,1.1-1.1
				c0-0.5-0.1-1.4-0.2-1.9c0-0.1,0-0.2,0-0.4c0-0.4,0.4-0.5,0.7-0.5c0.6,0,2.9,0.2,3.5,0.2c0.3,0,1,0,1,0.5c0,0.2-0.2,0.3-0.4,0.5
				C245,3.1,245,3.4,245,4.4c0,0.8,0.4,1,1.1,1h3c1.6,0,3.1-0.1,4.7-0.1c1,0,1,0.4,1,1.9c0,1.5,0,1.9-1,1.9c-1.6,0-3.1-0.1-4.7-0.1
				h-2.9c-0.8,0-1.1,0.3-1.1,1.1c0,0.4,0.1,0.9,0.1,1.3c0,1.1-0.5,1-2.3,1c-1.5,0-2,0-2-1c0-0.5,0-0.9,0.1-1.4c0-0.8-0.4-1-1.1-1
				h-5.5c-0.7,0-1,0.3-1.1,1c0,0.4,0.1,0.8,0.1,1.2c0,1.1-0.5,1.1-2.2,1.1c-1.6,0-2.1,0-2.1-1c0-0.4,0-0.8,0-1.3c0-0.8-0.3-1-1.1-1
				H225c-1.6,0-3.1,0.1-4.7,0.1c-1,0-1-0.5-1-1.9c0-1.5,0-1.9,1-1.9c1.6,0,3.1,0.1,4.7,0.1h3c0.7,0,1-0.3,1.1-1.1
				c0-0.5-0.1-1.4-0.1-1.8c0-0.1,0-0.3,0-0.4c0-0.4,0.4-0.5,0.7-0.5c0.6,0,2.8,0.2,3.5,0.2c0.4,0,1,0.1,1,0.5c0,0.2-0.2,0.3-0.4,0.5
				c-0.5,0.4-0.5,0.6-0.5,1.5C233.2,5.1,233.5,5.4,234.3,5.4z M250.4,15.3c0.4,0,1.2,1,1.7,1.7c0.1,0.1,0.4,0.5,0.5,0.6
				c0.3,0.4,0.9,1.2,0.9,1.5c0,0.3-0.3,0.5-0.6,0.5c-0.1,0-0.2-0.1-0.4-0.1c-0.1,0-0.3-0.1-0.4-0.1c-0.2,0-0.4,0.1-0.5,0.2
				c-3.1,2.1-6.4,4-9.8,5.4c-0.7,0.4-1,0.7-1,1.5v4.6c0,1.5,0.2,1.8,1.8,1.8h5.2c2,0,2.4-0.5,3.1-4.6c0.1-0.8,0.2-1.1,1-1.1
				c0.7,0,1.7,0.3,2.3,0.6c0.4,0.2,0.6,0.5,0.6,1c0,1.3-0.8,4.1-1.4,5.3c-1,2.3-2.1,2.7-4.5,2.7h-7.6c-3,0-4.6-0.4-4.6-3.8
				c0-0.8,0-1.5,0-2.3V16.9c0-1,0-1.9-0.1-2.8v-0.4c0-0.5,0.3-0.6,0.7-0.6c0.6,0,3.3,0.2,4,0.2c0.3,0,0.7,0.2,0.7,0.5
				c0,0.4-0.3,0.5-0.6,0.6c-0.6,0.4-0.5,1.4-0.5,3.7v2c0,0.4,0.2,0.7,0.6,0.7c0.2,0,0.2,0,0.4-0.1c2.5-1.2,5.8-3.4,8-5.2
				C249.9,15.6,250.1,15.3,250.4,15.3z"/>
			<path class="st2" d="M289.1,10.2c2.7,2.7,4,6,4,9.8c0,5.6-2.9,10.3-7.8,12.9c-0.9,0.5-3.4,1.6-4.4,1.6c-1,0-2.7-2.5-2.7-3.4
				c0-0.4,0.6-0.5,1-0.6c5.2-1.2,9.4-4.7,9.4-10.4c0-4.3-2.2-8.1-6.4-9.6c-0.4-0.1-1.2-0.4-1.5-0.4c-0.9,0-0.9,0.9-1,1.6
				c-0.4,5.8-1.8,13-5.7,17.6c-1.3,1.6-3.1,3.1-5.3,3.1c-2.4,0-4.4-1.8-5.4-3.8c-0.9-1.6-1.2-3.8-1.2-5.7c0-9.4,7.2-16.8,16.6-16.8
				C282.7,6.3,286.3,7.4,289.1,10.2z M273.5,11.4c-4.6,2.2-7.2,6.4-7.2,11.5c0,1.5,0.5,5.2,2.6,5.2c2,0,4.2-4.6,5.4-8.6
				c0.5-1.9,1.3-5.9,1.3-7.8c0-0.4-0.2-0.7-0.6-0.7C274.6,10.9,273.9,11.2,273.5,11.4z"/>
			<path class="st2" d="M327.7,35.3h-12.5c-0.6,0-0.9,0.2-0.9,0.9v0.5c0,0.8-0.6,0.8-2.2,0.8c-1.6,0-2.1,0-2.1-0.8
				c0-0.7,0.1-1.9,0.1-2.8v-7.2c0-0.2,0-0.8-0.6-0.8c-0.1,0-0.2,0-0.4,0.1c-1.2,0.5-5.8,2.5-6.9,2.5c-1,0-2.1-2.2-2.1-2.9
				c0-0.6,0.5-0.8,1-0.9c4-1,8.7-3,12.3-5.1c0.2-0.2,0.5-0.4,0.5-0.7c0-0.3-0.1-0.4-0.2-0.6c-1-1.1-2-2.2-3-3.2
				c-0.2-0.2-0.6-0.6-0.6-0.9c0-0.7,1.9-2.2,2.6-2.2c0.4,0,0.6,0.4,0.9,0.6c1.1,1.1,2.3,2.2,3.4,3.4c0.2,0.2,0.5,0.4,0.8,0.4
				c0.3,0,0.5-0.1,0.7-0.3c1.1-0.8,6.2-5.3,6.2-6.5c0-0.4-0.6-0.4-1.6-0.4h-8.6c-0.8,0-1.2,0.2-1.8,0.8c-1.3,1.4-7.8,7.6-9.4,7.6
				c-0.8,0-2.4-1.6-2.4-2.5c0-0.5,0.6-1,1-1.2c4-2.7,8.9-6.9,11.1-11.2c0.2-0.4,0.6-1.2,1.1-1.2c0.4,0,2.2,0.6,2.8,0.7
				c0.7,0.2,1.6,0.4,1.6,0.9c0,0.4-0.6,0.4-0.8,0.5c-0.4,0.1-0.5,0.5-0.9,1.1c-0.1,0.2-0.1,0.2-0.1,0.4c0,0.4,0.3,0.5,0.6,0.5h6.6
				c1.2,0,2.4,0,3.6,0c1,0,1.5,0.2,2.2,0.9c0.4,0.4,1,1.2,1,1.7c0,0.5-0.6,1.4-1.1,2c-0.1,0.1-0.2,0.2-0.2,0.3c-3,4-6.1,7-10.2,9.8
				c-0.1,0.1-0.2,0.2-0.2,0.3c0,0.2,0.2,0.3,0.4,0.3h7.6c1.1,0,2.2,0,3.3,0s2.4,0.1,2.4,1.5c0,0.8,0,1.6,0,2.3v9.2
				c0,0.9,0.1,2.2,0.1,2.8c0,0.8-0.5,0.8-2.1,0.8c-1.6,0-2.1,0-2.1-0.8c0-0.2,0-0.4,0-0.5C328.6,35.6,328.4,35.3,327.7,35.3z
				 M327.6,31.6c0.7-0.1,1.1-0.4,1.1-1.1v-4.8c0-0.7-0.4-1.1-1.1-1.1h-12.2c-0.7,0-1,0.4-1.1,1.1v4.8c0.1,0.6,0.4,1.1,1.1,1.1H327.6
				z"/>
			<path class="st2" d="M355.4,8.2c0,0,0,0.2,0.3,0.2h5.6c0.9,0,1.2-0.1,1.7-0.8c1.2-1.5,2.3-3.8,3.2-5.5c0.1-0.2,0.2-0.5,0.6-0.5
				c0.2,0,1.7,0.6,2,0.7c0.8,0.3,2.3,0.9,2.3,1.4c0,0.5-0.5,0.5-0.6,0.5c-0.4,0-0.6,0-0.8,0.3c-0.3,0.3-1.4,2-2.1,3.1
				c-0.1,0.2-0.1,0.2-0.1,0.4c0,0.4,0.3,0.4,0.6,0.5h3.5c1.6,0,3.2-0.1,4.8-0.1c0.9,0,0.9,0.4,0.9,1.8c0,1.3,0,1.8-0.9,1.8
				c-1.6,0-3.2-0.1-4.8-0.1h-23.7c-1.6,0-3.2,0.1-4.8,0.1c-0.9,0-0.9-0.5-0.9-1.8c0-1.4,0-1.8,0.9-1.8c1.6,0,3.2,0.1,4.8,0.1h3.5
				c0.4,0,0.6-0.2,0.6-0.6c0-0.2,0-0.2-0.1-0.4c-0.7-1.2-1.5-2.4-2.3-3.5c-0.2-0.2-0.4-0.5-0.4-0.8c0-0.8,2.5-1.6,3.1-1.6
				c0.6,0,0.8,0.4,2,2.1c0.4,0.5,2,3.1,2,3.5c0,0.3-0.4,0.6-0.6,0.7C355.4,8.1,355.4,8.2,355.4,8.2z M349.5,29.2
				c-0.8,0-1.1,0.3-1.1,1.1v2.2c0,1.3,0.1,2.6,0.1,3.9c0,1-0.3,1-2,1c-1.6,0-2,0-2-1c0-1.3,0.1-2.6,0.1-4V18.9c0-1-0.1-1.9-0.1-2.9
				c0-1.3,0.6-1.6,1.8-1.6c0.9,0,1.8,0.1,2.7,0.1h4.7c0.9,0,1.8-0.1,2.6-0.1c1.2,0,1.9,0.2,1.9,1.6c0,1,0,1.9,0,2.9v12.5
				c0,0.7,0,1.4,0,2.1c0,1.2-0.1,2.4-1.3,3c-1.1,0.6-2.8,0.8-4,0.8c-1.4,0-2.4,0-2.4-2.8c0-0.7,0.1-1,0.7-1c0.6,0,1.2,0,1.9,0
				c1.4,0,1.3-0.7,1.3-1.6v-1.7c0-0.8-0.3-1.1-1.1-1.1H349.5z M353.5,20.5c0.7-0.1,1.1-0.4,1.1-1.1V19c0-0.7-0.4-1-1.1-1.1h-4
				c-0.7,0.1-1,0.4-1.1,1.1v0.4c0.1,0.7,0.4,1,1.1,1.1H353.5z M349.5,23.5c-0.7,0-1,0.4-1.1,1.1v0.5c0.1,0.7,0.4,1,1.1,1.1h4
				c0.7-0.1,1.1-0.4,1.1-1.1v-0.5c0-0.7-0.4-1.1-1.1-1.1H349.5z M362.7,18.3c0-0.9-0.1-1.9-0.2-2.8c0-0.1,0-0.2,0-0.3
				c0-0.4,0.4-0.4,0.7-0.4c0.5,0,2.8,0.2,3.3,0.2c0.3,0,0.9,0,0.9,0.4c0,0.3-0.3,0.4-0.6,0.6c-0.4,0.2-0.4,0.5-0.4,1.8v7.6
				c0,1.4,0.1,2.9,0.1,4.3c0,1-0.4,1.1-1.9,1.1c-1.6,0-2,0-2-1.1c0-1.4,0.1-2.9,0.1-4.3V18.3z M370.6,16.8c0-0.9,0-1.7-0.1-2.4
				c0-0.1,0-0.2,0-0.3c0-0.5,0.4-0.5,0.8-0.5c0.5,0,2.6,0.2,3.2,0.2c0.3,0,1,0,1,0.5c0,0.3-0.3,0.4-0.6,0.6
				c-0.4,0.3-0.4,0.6-0.4,2.1v13.8c0,0.7,0.1,1.6,0.1,2.4c0,1.2-0.2,2.5-1.2,3.2c-1.3,0.9-3.8,1.2-5.4,1.2c-0.5,0-1.2,0-1.6-0.4
				c-0.4-0.6-0.6-1.7-0.6-2.4c0-0.6,0.1-1.3,0.8-1.3c0.2,0,1.3,0.1,2.2,0.1c1.8,0,1.9-0.4,1.9-2.6V16.8z"/>
			<path class="st2" d="M399.8,4.8c0.3,0.1,1,0.2,1,0.6c0,0.2-0.2,0.4-0.3,0.5c-0.8,0.6-0.8,1.2-1.1,2.6c-0.1,0.5-0.2,1-0.3,1.7
				c0,0.1-0.1,0.3-0.1,0.4c0,0.6,0.4,0.8,0.9,0.8c0.2,0,0.3,0,0.5,0c1.6,0,3.1,0,4.6,0.9c2,1.3,2.4,3.6,2.4,5.8
				c0,3.7-0.6,9.1-2.4,12.3c-1.6,2.9-4.3,4.3-7.6,4.3c-0.9,0-1.4-0.1-1.8-1c-0.3-0.7-0.7-2.1-0.7-2.8c0-0.4,0.1-0.7,0.5-0.7
				c0.4,0,1.1,0.1,1.9,0.1c2.2,0,3.2-0.5,4.2-2.4c1.2-2.3,1.8-6.5,1.8-9c0-2-0.1-3.6-2.5-3.6c-2.3,0-2.7,0.3-3,1.4
				c-1,4-3,8.3-5.1,11.9c-1,1.6-2.8,4.5-4,5.8c-0.2,0.2-0.4,0.4-0.7,0.4c-0.7,0-3.2-1.5-3.2-2.4c0-0.4,0.3-0.7,0.6-0.9
				c3.2-3.3,5.5-6.9,7.1-11.2c0.2-0.5,1-2.6,1-3c0-0.3-0.2-0.5-0.5-0.5c-0.6,0-3.9,1.1-4.6,1.4c-0.2,0.1-0.6,0.2-0.8,0.2
				c-1,0-1.7-3.9-1.7-4.1c0-0.6,0.7-0.6,1.2-0.6c2.1-0.2,4.6-0.8,6.6-1.2c0.8-0.2,1.2-0.4,1.3-1.2c0.2-1.4,0.4-3.7,0.4-5.2
				c0-0.4,0-0.9,0-1.4c0-0.3,0-0.8,0.4-0.8C396.1,3.9,399.2,4.6,399.8,4.8z M417.2,17.7c0,0.9-2.5,2.4-3.3,2.4
				c-0.5,0-0.7-0.5-0.9-0.9c-1.6-3.4-2.7-5.7-5.4-8.6c-0.2-0.2-0.4-0.4-0.4-0.7c0-0.7,2.3-2.1,3-2.1
				C411.7,7.8,417.2,16.7,417.2,17.7z"/>
			<path class="st2" d="M433,11.4c0.3,0.1,0.7,0.2,0.7,0.6c0,0.2-0.2,0.4-0.4,0.4c-0.6,0.4-0.7,0.8-0.8,1.6c-0.3,1.8-0.6,3.7-1,5.6
				c0,0.2-0.1,0.6-0.1,0.8s0.1,0.5,0.4,0.5c0.2,0,0.4-0.1,0.5-0.2c3-2.1,5.4-3.7,9.2-3.7c4.9,0,8.7,3.3,8.7,8.3
				c0,5.7-4.2,8.1-9.1,9.5c-1.2,0.4-4,1.1-5.2,1.1c-0.9,0-1.1-0.4-1.5-1.1c-0.3-0.6-0.7-1.9-0.7-2.6c0-0.6,0.5-0.7,1-0.7
				c1.7-0.1,3.6-0.4,5.3-0.8c2.8-0.7,5.8-2,5.8-5.4c0-2.8-2.2-4.2-4.8-4.2c-4.2,0-8.4,3.5-11,6.7c-0.3,0.4-0.6,0.8-1.2,0.8
				c-0.4,0-3-0.4-3-1.6c0-0.4,0.3-1,0.4-1.4c0.4-1.3,0.7-2.6,0.9-3.9c0.5-2.9,0.8-5.8,1-8.7c0-0.3,0-0.6,0-0.9c0-1.2,0-1.8,0.7-1.8
				C429.5,10.3,432.3,11.2,433,11.4z M433.7,2.8c0.6,0,3.8,2.1,4.6,2.5c0.6,0.4,2.9,1.6,2.9,2.3c0,0.7-1.6,3.2-2.5,3.2
				c-0.4,0-1-0.6-1.3-0.8c-1.5-1.3-3.3-2.4-5-3.4c-0.4-0.2-0.9-0.4-0.9-0.9C431.5,5.2,432.7,2.8,433.7,2.8z"/>
			<path class="st2" d="M468.8,8.8c0.9,0,0.9,0.6,0.9,1.9c0,1.4,0,1.9-0.9,1.9c0,0-1.8-0.1-1.9-0.1c-0.8,0-1.1,0.3-1.1,1.1v4.1
				c0,0.2,0,0.8,0.6,0.8c0.2,0,0.3,0,0.4-0.1c0.4-0.2,1.6-0.9,2-0.9c0.9,0,0.9,1.7,0.9,2.4c0,1.1-0.2,1.2-1.8,2
				c-0.3,0.2-0.7,0.3-1.2,0.6c-0.8,0.4-1,0.7-1,1.6v6.8c0,0.9,0.1,1.8,0.1,2.7c0,3.5-2.7,4.1-5.6,4.1c-0.8,0-2.1,0.2-2.1-3
				c0-0.5,0-1.2,0.7-1.2c0.3,0,1,0,1.6,0c1.6,0,1.6-0.7,1.6-2.5v-5.4c0-0.4-0.2-0.8-0.7-0.8c-0.4,0-0.5,0.1-0.8,0.2
				c-0.8,0.3-0.8,0.3-0.9,0.8c-0.1,0.2-0.3,0.4-0.5,0.4c-0.4,0-0.5-0.4-0.8-1.4c-0.1-0.4-0.3-0.8-0.4-1.4c-0.1-0.3-0.3-0.9-0.3-1.2
				c0-0.4,0.2-0.4,1.4-0.8c0.5-0.2,1.2-0.3,2.2-0.7c0.8-0.3,1-0.6,1-1.4v-5.6c0-0.7-0.3-1.1-1-1.1c-0.6,0-1.6,0.1-2.1,0.1
				c-0.9,0-0.9-0.6-0.9-1.9c0-1.3,0-1.9,0.9-1.9c0.1,0,1.8,0.1,2.1,0.1c0.8,0,1-0.4,1-1.1V5.8c0-1,0-2.1-0.1-3.1c0-0.1,0-0.3,0-0.4
				c0-0.5,0.4-0.6,0.8-0.6c0.3,0,3,0.2,3.4,0.2c0.3,0,0.7,0.1,0.7,0.5c0,0.3-0.3,0.4-0.5,0.6c-0.4,0.3-0.4,0.8-0.4,2.2v2.5
				c0,0.8,0.3,1.1,1,1.1C467.5,8.9,468.3,8.8,468.8,8.8z M479.4,27.7c0-0.2-0.1-0.4-0.3-0.4c-0.2,0-0.2,0-0.3,0.2
				c-1,1.3-6.9,8.5-8.1,8.5c-0.8,0-2.6-1.8-2.6-2.6c0-0.4,0.6-0.8,0.9-1c3-2.2,5.7-4.8,8-7.6c0.1-0.2,0.1-0.2,0.1-0.4
				c0-0.4-0.3-0.4-0.6-0.5h-1.1c-1.5,0-2.9,0.1-4.4,0.1c-1.1,0-1-0.5-1-1.9c0-1.4,0-2,1-2c1.5,0,2.9,0.1,4.4,0.1h3
				c0.8,0,1-0.3,1.1-1.1c0-0.7-0.1-2.3-0.1-2.4c0-0.5,0.3-0.6,0.7-0.6c0.8,0,2.4,0.2,3.4,0.2c0.4,0,1,0.1,1,0.6
				c0,0.3-0.2,0.4-0.5,0.6c-0.5,0.4-0.5,0.9-0.5,1.6c0,0.8,0.3,1.1,1.1,1.1h3.4c1.4,0,2.9-0.1,4.4-0.1c1.1,0,1,0.5,1,2
				c0,1.4,0,1.9-1,1.9c-1.4,0-2.9-0.1-4.4-0.1h-1.8c-0.3,0-0.6,0.1-0.6,0.5c0,0.2,0.1,0.3,0.2,0.4c2,2.7,4.8,5.3,7.5,7.5
				c0.4,0.4,1,0.7,1,1.2c0,0.9-1.8,2.5-2.5,2.5c-0.5,0-1.7-1.2-2.1-1.6c-2.3-2.3-3.8-4.2-5.6-6.8c-0.1-0.1-0.2-0.2-0.3-0.2
				c-0.2,0-0.3,0.2-0.3,0.4v4c0,1.5,0.1,3,0.1,4.5c0,1.4-0.4,1.4-2,1.4s-2.1,0-2.1-1.4c0-1.5,0.1-3,0.1-4.5V27.7z M480.6,8.5
				c-0.4,0.2-0.4,0.2-0.6,0.8c-1.8,5.2-6.8,8.2-7.6,8.2c-0.8,0-2.3-1.7-2.3-2.5c0-0.4,0.6-0.7,0.9-0.8c1.7-0.9,3.2-2.1,4.4-3.7
				c0.8-1,1-1.8,1.3-3c0.1-0.4,0.2-0.8,0.6-0.8c0.3,0,2.5,0.6,3,0.7c0.3,0.1,0.8,0.2,0.8,0.6C481.1,8.3,480.8,8.5,480.6,8.5z
				 M475.5,6.3c-0.8,0-1.1,0.3-1.1,1.1c0,0.4,0,0.9,0,1.3c0,0.9-0.8,0.8-1.8,0.8c-1.2,0-1.9,0-1.9-0.8c0-0.5,0-0.9,0-1.4V6
				c0-0.6,0-1.2,0-1.6c0-1.4,1-1.6,2.2-1.6c1.1,0,2.1,0.1,3.2,0.1h11.1c1,0,2-0.1,3.1-0.1c1.1,0,2.2,0.2,2.2,1.6c0,0.6,0,1.1,0,1.7
				v1.4c0,0.4,0,1,0,1.3c0,0.9-0.7,0.9-1.9,0.9c-1.1,0-1.9,0.1-1.9-0.8c0-0.4,0.1-0.8,0.1-1.2V7.4c0-0.8-0.3-1.1-1.1-1.1h-0.4
				c-0.8,0-1.1,0.3-1.1,1.1v3.8c0,1.4,0.3,1.6,1.3,1.6h0.4c1.3,0,1.3-0.6,1.5-1.7c0.1-0.6,0.3-0.8,0.9-0.8c0.8,0,2.8,0.3,2.8,1.4
				c0,1-0.7,3.1-1.4,3.8c-0.8,1-2,0.9-3.2,0.9h-3c-2.4,0-3.2-0.8-3.2-3.2c0-0.5,0-1,0-1.4V7.4c0-0.8-0.4-1.1-1.1-1.1H475.5z"/>
			<path class="st2" d="M516.9,2.9c1,0.1,2.2,0.2,2.2,0.6c0,0.2-0.1,0.3-0.2,0.4c-0.3,0.2-0.6,0.5-0.6,1.7c0,0.8,0,1.7,0,2.6
				c0,0.8,0.4,1.2,1.2,1.2c0.3,0,1.9-0.1,2.3-0.1c2-0.1,6.2-0.3,8-0.3c0.6,0,0.9,0.2,0.9,2c0,2.4-0.5,2.4-0.9,2.4
				c-0.6,0-3.6-0.2-5.8-0.2c-0.7,0-4.4,0-4.9,0.2c-0.6,0.2-0.8,0.8-0.8,1.3v1.4c0,1.1,0,1.4,0.4,2.1c0.9,1.6,1.2,3.8,1.2,5.6
				c0,6.4-4.3,13.6-6,13.6c-0.5,0-3.7-1-3.7-1.7c0-0.3,0.7-0.9,0.9-1.1c1.5-1.4,1.9-2.1,2.9-3.9c0.1-0.2,0.2-0.4,0.2-0.6
				c0-0.1-0.1-0.3-0.3-0.3c-0.1,0-0.2,0-0.3,0c-0.3,0.1-0.6,0.2-0.9,0.2c-3.5,0-4.8-3.8-4.8-6.7c0-3.7,1.6-7.2,5.6-7.6
				c0.2,0,0.5-0.2,0.5-0.5c0-1.5-0.3-1.7-0.7-1.7c-0.3,0-2.2,0.2-2.6,0.2c-2.1,0.2-7.2,0.8-9.2,1.2c-0.2,0-0.4,0.1-0.6,0.1
				c-0.6,0-0.7-0.6-0.8-1.1c-0.1-0.7-0.3-2.2-0.3-2.9c0-0.8,0.4-0.7,2.3-0.8c1.1,0,10.5-0.6,10.8-0.6c0.6-0.2,0.9-0.6,0.9-1.2
				c0-1.2-0.2-3.8-0.4-5c0-0.1,0-0.2,0-0.3c0-0.3,0.2-0.5,0.5-0.5C514.7,2.5,515.9,2.8,516.9,2.9z M511.6,22.9
				c0,1.2,0.3,3.4,1.9,3.4s2.1-2,2.1-3.3c0-1.2-0.4-3.5-2-3.5C512,19.5,511.6,21.7,511.6,22.9z"/>
		</g>
	</g>
	<g>
		<g>
			<path class="st2" d="M284.9,74c-0.2,0-0.4,0-0.7-0.1c-3.1,0.1-5.7,0.2-7.8,0.4c-0.8,2.7-1.5,5.5-2,8.5c3-0.1,5.7-0.6,8.2-1.5
				l0.8-0.2c0.5,0.1,0.7,0.4,0.8,0.9c0,0.5-0.5,1-1.3,1.2c-2.8,1-5.8,1.4-8.8,1.4c-0.3,2.2-0.4,3.8-0.4,4.8c0,0.8,0.1,2.4,0.3,5
				c-0.1,0.5-0.4,0.7-0.9,0.8c-0.3,0-0.6-0.2-0.7-0.5c-0.6-1.3-0.9-3-1-5.4c0-0.2,0.2-0.4,0.6-0.7c0.2-4.3,1-9,2.3-14.1
				c-1.1-0.1-1.6-0.4-1.6-0.9c0-0.4,0.2-0.8,0.7-0.9c0.3-0.1,0.8-0.2,1.5-0.3c0.2-0.2,0.5-0.3,0.8-0.4c0,0,0.2,0.1,0.6,0.2
				c0.1,0,1.3-0.1,3.7-0.2c2.3-0.1,3.5-0.2,3.6-0.2c1.3,0,2,0.4,2,1C285.6,73.5,285.3,73.8,284.9,74z"/>
			<path class="st2" d="M290.9,85.3c-0.7,2.8-1,5-1,6.6c0.4,0.4,0.6,0.9,0.6,1.4c0,0.4-0.2,0.6-0.6,0.6c-0.5,0-0.9-0.4-1.3-1.1
				c-0.3-0.6-0.5-1.4-0.5-2.3c0-0.8,0.4-3.2,1.2-7.3c-0.1-0.4-0.1-0.6-0.1-0.7c0-0.3,0.2-0.5,0.5-0.7c1.1,0.1,1.7,0.6,1.7,1.6
				C291.3,83.8,291.1,84.5,290.9,85.3z M292.1,73.7c-1.2-0.2-1.7-0.8-1.7-1.9c0-0.2,0-0.4,0-0.6c0.1-0.7,0.5-1.1,1.3-1.4
				c1,0.1,1.5,0.8,1.5,2C293.1,73.1,292.7,73.7,292.1,73.7z"/>
			<path class="st2" d="M305.5,89.3c-0.1,1-0.2,2.4-0.4,4c-0.1,0.3-0.2,0.5-0.4,0.5c-0.3,0-0.6-0.2-0.9-0.4
				c-0.2-0.3-0.4-0.6-0.4-0.9c0-0.4,0.1-1.1,0.2-1.9l0.5-5.1c-2.9,2-4.8,4.1-5.9,6.3c-0.2,0.4-0.3,0.8-0.5,1.2
				c-0.2,0.4-0.4,0.7-0.5,0.7c-0.6,0-1-0.4-1.2-1.1c-0.4-1.1-0.5-2.5-0.5-4.2c0-1.8,0.3-4.3,1-7.4c0.1-0.3,0.2-0.5,0.4-0.5
				c0.3,0,0.6,0.2,0.9,0.5c0.2,0.3,0.4,0.7,0.4,1c-0.1,0.3-0.2,0.6-0.2,1c-0.5,2.1-0.7,4.3-0.7,6.8c2.4-3.1,4.8-5.4,7.2-6.8
				c0.4,0,0.7,0.2,0.9,0.4c0.3,0.3,0.4,0.6,0.4,0.9C305.8,85.6,305.7,87.3,305.5,89.3z"/>
			<path class="st2" d="M318.8,73.8c-0.2,1.3-0.4,2.3-0.4,3c-0.1,0.3-0.1,0.7-0.1,1.3c0,0.7-0.2,1.2-0.5,1.7
				c-0.3,3.4-0.4,5.6-0.4,6.7c0,2.7,0.2,5.3,0.7,7.9c0.1,0.6,0.2,1.1,0.2,1.5c0,0.2-0.1,0.4-0.3,0.6c-0.2,0.2-0.4,0.3-0.6,0.3
				c-0.5,0-0.8-0.5-0.9-1.3c-0.3-1.7-0.5-3.5-0.6-5.4c-0.5,1-1.1,1.9-1.9,2.6c-1,0.9-1.9,1.4-2.8,1.4c-1,0-1.7-0.3-2.2-0.9
				c-0.5-0.6-0.8-1.4-0.8-2.4c0-1.6,0.7-3.4,2.1-5.3c1.4-1.9,2.6-2.9,3.8-2.9c0.6,0,1.2,0.4,1.9,1.1c0.4-5.5,0.9-9.5,1.6-12
				c0.1-0.5,0.4-0.7,0.8-0.7c0.5,0,0.8,0.3,0.8,0.9C319.1,71.9,319,72.6,318.8,73.8z M314.4,84.5c-0.2,0-0.4-0.1-0.4-0.1
				c-0.7,0-1.6,0.8-2.6,2.2c-1.1,1.5-1.6,2.9-1.6,4c0,1,0.4,1.5,1.1,1.5c1,0,2-0.6,2.9-1.8c0.9-1.1,1.5-2.4,1.9-3.9
				C315.1,86,314.6,85.4,314.4,84.5z"/>
			<path class="st2" d="M341.7,89.8c-1,1.2-2.2,2.2-3.7,3c-0.8,0.5-1.7,0.8-2.7,1.1c-1,0.3-1.7,0.5-2.2,0.5c-0.8,0-1.2-0.3-1.4-1
				c0.1-0.4,0.3-0.7,0.8-1c-0.1-1.3-0.2-2.7-0.2-4.1c0-5.1,0.5-10.2,1.5-15.2c0.3-1.5,0.8-2.3,1.3-2.3c0.7,0,1,0.4,1,1.3
				c0,0.4-0.1,1-0.2,1.7c-0.1,0.9-0.3,1.5-0.4,1.8c-0.1,0.4-0.4,0.6-0.6,0.7c-0.4,2.5-0.7,6-0.9,10.6c2.3-2.9,4.3-4.4,6-4.4
				c1,0,1.7,0.3,2.3,1s0.8,1.5,0.8,2.5C343.2,87.3,342.7,88.5,341.7,89.8z M340,84.6c-0.5,0-1.3,0.4-2.1,1c-1.4,1.1-2.4,2.3-3.2,3.8
				c-0.2,0.5-0.4,0.9-0.4,1.3c0,0.4,0,0.9,0.1,1.5c1.6-0.4,3.1-1.1,4.6-2.3c1.7-1.3,2.5-2.6,2.5-3.9C341.5,85.1,341,84.6,340,84.6z"
				/>
			<path class="st2" d="M352.8,97.6c-1.8,1.6-4.1,2.4-7,2.4c-1.6,0-2.5-0.4-2.5-1.3c0-0.6,0.3-0.9,0.8-0.9c0.8,0.1,1.3,0.2,1.6,0.2
				c4.7,0,7.5-2.2,8.3-6.5c0.2-1.1,0.3-2.5,0.3-4.3c-0.5,1.1-1.2,2.1-2,3c-1,1-1.9,1.6-2.9,1.6c-0.8,0-1.5-0.3-2-0.9
				c-0.5-0.5-0.8-1.3-0.8-2.2c0-0.7,0.1-1.7,0.2-3c0.1-1.4,0.2-2.4,0.2-3c0-0.2-0.1-0.5-0.2-0.9c-0.1-0.4-0.1-0.6-0.1-0.7
				c0-0.5,0.3-0.8,1-0.8c0.4,0,0.7,0.3,0.9,0.8c0.2,0.5,0.3,1.1,0.3,1.8c0,0.7-0.1,1.7-0.3,3.1c-0.2,1.4-0.3,2.4-0.3,3
				c0,0.2,0.1,0.5,0.3,0.7c0.2,0.2,0.4,0.3,0.7,0.3c0.7,0,1.5-0.5,2.3-1.5c0.8-1,1.5-2.3,2.2-3.9c0.3-0.8,0.7-1.2,1.1-1.2
				c0.7,0,1,0.9,1,2.6v2.5C356,92.6,354.9,95.7,352.8,97.6z"/>
			<path class="st2" d="M382.2,74c-0.2,0-0.4,0-0.7-0.1c-3.1,0.1-5.7,0.2-7.8,0.4c-0.8,2.7-1.5,5.5-2,8.5c3-0.1,5.7-0.6,8.2-1.5
				l0.8-0.2c0.5,0.1,0.7,0.4,0.8,0.9c0,0.5-0.5,1-1.3,1.2c-2.8,1-5.8,1.4-8.8,1.4c-0.3,2.2-0.4,3.8-0.4,4.8c0,0.8,0.1,2.4,0.3,5
				c-0.1,0.5-0.4,0.7-0.9,0.8c-0.3,0-0.6-0.2-0.7-0.5c-0.6-1.3-0.9-3-1-5.4c0-0.2,0.2-0.4,0.6-0.7c0.2-4.3,1-9,2.3-14.1
				c-1.1-0.1-1.6-0.4-1.6-0.9c0-0.4,0.2-0.8,0.7-0.9c0.3-0.1,0.8-0.2,1.5-0.3c0.2-0.2,0.5-0.3,0.8-0.4c0,0,0.2,0.1,0.6,0.2
				c0.1,0,1.3-0.1,3.7-0.2c2.3-0.1,3.5-0.2,3.6-0.2c1.3,0,2,0.4,2,1C382.8,73.5,382.6,73.8,382.2,74z"/>
			<path class="st2" d="M389.1,73.8l-0.2,0.2c-0.3,1.3-0.6,3-0.9,5c-0.3,2.2-0.4,4.1-0.4,5.6c0,3.7,0.1,6.8,0.4,9.2
				c0,0.3-0.2,0.4-0.5,0.4c-0.4,0-0.8-0.4-1.3-1c-0.4-0.6-0.6-1.2-0.6-1.6c0-0.1,0-0.5,0-1c0-0.6,0-0.9,0-1c0-0.4,0.1-0.8,0.3-1.1
				c-0.1-1.2-0.1-2.8-0.1-4.7c0-3.8,0.6-7.9,2-12.3c0.1-0.4,0.3-0.6,0.5-0.6c0.3,0,0.7,0.2,1.1,0.6c0.5,0.4,0.7,0.8,0.7,1.2
				C390.1,73.1,389.8,73.5,389.1,73.8z"/>
			<path class="st2" d="M400.6,89.3c-0.1,0.2-0.2,0.6-0.4,1.1c-0.3,0.8-0.8,1.5-1.7,2.2c-0.8,0.7-1.6,1-2.4,1
				c-1.3,0-2.3-0.5-3.1-1.7c-0.8-1-1.1-2.2-1.1-3.5c0-1.2,0.3-2.5,0.9-3.7c0.6-1.3,1.4-2.2,2.5-2.7c0.5-0.3,0.9-0.5,1.2-0.8
				c0.1,0,0.3-0.1,0.4-0.1c0.1,0,0.3,0.1,0.7,0.2c1,0.4,1.9,1,2.5,2c0.6,1,1,2,1,3.1C401.1,87.6,400.9,88.6,400.6,89.3z M398.1,84
				c-0.5,0-0.9-0.1-1.2-0.3c-1,0.1-1.9,0.6-2.5,1.6c-0.5,0.9-0.8,2-0.8,3.1c0,0.9,0.2,1.7,0.7,2.3c0.5,0.7,1,1,1.7,1
				c0.8,0,1.5-0.6,2.2-1.7c0.7-1,1-2.1,1-3.1C399.3,85.5,398.9,84.6,398.1,84z"/>
			<path class="st2" d="M422.3,85.6c-0.3,2-0.9,3.8-1.7,5.4c-1.1,2.1-2.5,3.2-4,3.2c-1.7,0-3.1-1.9-4-5.6c-0.5,1.2-1.5,2.5-2.9,4
				c-1.4,1.5-2.5,2.2-3.1,2.2c-0.4,0-0.7-0.3-1.1-0.9c-0.3-0.5-0.6-1-0.7-1.5c-0.8-2.9-1.2-5.3-1.2-7.2c0-1.4,0.1-2.7,0.4-4
				c0.1-0.6,0.5-1,0.9-1c0.8,0,1.1,0.6,1.1,1.9c0,0.2-0.1,0.7-0.3,1.4c-0.2,0.7-0.3,1.2-0.3,1.6c0,3.3,0.5,5.8,1.3,7.6
				c1-0.5,2-1.4,3-2.8c1-1.4,1.7-2.8,2.1-4.2c0.3-1.1,0.7-1.7,1.2-1.7c0.4,0,0.7,0.4,0.8,1.2c0.7,4.7,1.7,7,2.8,7
				c0.6,0,1.2-0.5,2-1.4c0.7-0.8,1.2-2.1,1.6-3.7c0.3-1.4,0.5-2.8,0.5-4.3c0-0.1,0-0.3-0.1-0.6c-0.1-0.3-0.1-0.5-0.1-0.6
				c0-0.7,0.3-1.1,1-1.1c0.4,0,0.8,0.3,0.9,1c0.2,0.7,0.3,1.3,0.3,1.8C422.7,84.6,422.6,85.4,422.3,85.6z"/>
			<path class="st2" d="M433.5,94c-2.3,0-4-1.1-5-3.3c-0.2,0.1-0.5,0.1-0.8,0.1c-1,0-1.9-0.2-2.5-0.6c-0.8-0.4-1.1-0.9-1.1-1.3
				c0-0.7,0.3-1,0.9-1c0.1,0,0.4,0.2,0.9,0.5c0.5,0.3,1,0.5,1.5,0.5c0.2,0,0.4,0,0.6,0c-0.1-0.5-0.1-0.9-0.1-1.4
				c0-1.4,0.4-2.9,1.1-4.2c0.8-1.5,1.8-2.3,3.1-2.3c0.8,0,1.5,0.4,2.3,1.2c0.5,0.6,0.8,1.3,0.8,2.1c0,1.2-0.5,2.3-1.5,3.5
				c-0.9,1-2,1.9-3.3,2.4c0.6,1.3,1.5,1.9,2.8,1.9c0.3,0,0.7,0,1.3-0.2c0.5-0.1,0.9-0.1,1-0.1c0.2,0,0.4,0.1,0.6,0.3
				c0.2,0.2,0.3,0.5,0.3,0.7C436.2,93.6,435.3,94,433.5,94z M432.8,83.4c-0.3-0.3-0.7-0.4-1-0.4c-0.6,0-1.1,0.5-1.5,1.4
				c-0.4,0.9-0.6,1.9-0.6,2.8c0,0.4,0,0.8,0.1,1.2c1-0.4,1.8-1,2.5-1.7c0.7-0.7,1-1.4,1-2.2C433.2,84,433.1,83.7,432.8,83.4z"/>
			<path class="st2" d="M447.7,83.4c-0.5,0.2-0.9,0.4-1.2,0.4c-0.1,0-0.2-0.1-0.6-0.2c-2.6,1.2-4.1,3.7-4.6,7.5c-0.3,2-0.6,3-1,3
				c-0.3,0-0.6-0.2-0.8-0.6c-0.2-0.4-0.4-0.7-0.4-1.1c0.1-0.3,0.2-0.8,0.3-1.6c0.1-0.9,0.2-1.7,0.2-2.5c0-0.9-0.1-1.7-0.3-2.6
				c-0.4-0.4-0.5-0.8-0.6-1.2c-0.2-0.8-0.2-1.5-0.2-2c0-0.2,0.1-0.4,0.2-0.6c0.1-0.2,0.2-0.4,0.4-0.4c0.7,0,1.1,0.6,1.4,1.7
				c0.2,1.1,0.4,2,0.5,2.6c0.7-1.4,1.6-2.5,2.8-3.4c1.1-0.9,2.3-1.4,3.5-1.4c0.3,0,0.6,0.2,0.9,0.5c0.2,0.3,0.4,0.6,0.4,1
				C448.7,82.8,448.3,83.1,447.7,83.4z"/>
			<path class="st2" d="M475.5,73.1c-1.1,3.5-1.6,7.7-1.6,12.3c0,1.4,0.2,3.2,0.5,5.5c0,0.2,0,0.5,0.1,0.8c0,0.6-0.3,0.9-0.9,0.9
				c-0.2,0-0.4-0.1-0.7-0.3c-0.2,0-0.4-0.1-0.7-0.4c-3.9-4.4-7-8.8-9.5-13c-0.8,4.6-1.2,8.8-1.3,12.5h0.3c0.1,0.2,0.1,0.3,0.1,0.4
				c0,0.9-0.2,2.1-0.6,3.8c-0.2,0.5-0.4,0.8-0.8,0.8c-0.2,0-0.4-0.1-0.6-0.3c-0.2-0.2-0.2-0.5-0.2-0.7v-2.6c0-5,0.6-10.6,1.9-16.8
				c-0.1-0.2-0.1-0.3-0.1-0.4c0-0.2,0.1-0.5,0.4-0.7c0.2-0.3,0.5-0.5,0.7-0.5c0.6,0,1,0.3,1,1c0,0.2-0.1,0.4-0.1,0.6
				c0,0.4,0.4,1.3,1.2,2.7c1.3,2.6,3.9,6.2,7.9,10.9c-0.2-1.2-0.3-2.8-0.3-4.8c0-1.7,0.2-3.9,0.5-6.5c0.4-2.8,0.8-4.9,1.4-6.2
				c0.2-0.5,0.5-0.7,0.9-0.7c0.2,0,0.4,0.1,0.6,0.3c0.2,0.2,0.2,0.4,0.2,0.7C475.7,72.3,475.6,72.6,475.5,73.1z"/>
			<path class="st2" d="M487.9,86.6c-0.5,1.3-0.7,2.6-0.7,4c0,0.5,0,1,0.1,1.5c0.2,0.9,0.3,1.3,0.3,1.4c0,0.6-0.3,0.9-1,0.9
				c-0.6,0-0.9-0.5-1-1.5c-0.1-0.5-0.1-1.3-0.3-2.4c-1.7,2-3.2,3-4.8,3c-0.8,0-1.5-0.4-2.1-1.1c-0.6-0.7-0.8-1.4-0.8-2.3
				c0-1.4,0.6-2.8,1.9-4.4c0.2-0.3,0.7-0.8,1.3-1.4c2-1.8,3.6-2.7,5-2.7c0.3,0,0.6,0.1,1,0.4c0.3,0.3,0.5,0.6,0.5,0.9
				c0,0.1,0,0.2-0.1,0.4c0.2,0.6,0.4,1.3,0.4,2c0.2,0.3,0.4,0.6,0.4,0.8C488,86.2,488,86.3,487.9,86.6z M485.2,83.6
				c-0.4,0-1,0.3-1.9,1c-0.8,0.6-1.4,1.1-1.9,1.7c-1.3,1.4-1.9,2.6-1.9,3.6c0,1,0.4,1.6,1.2,1.6c1.1,0,2.2-0.7,3.4-2.1
				c1.1-1.4,1.7-2.8,1.7-4.1C485.9,84.2,485.7,83.6,485.2,83.6z"/>
			<path class="st2" d="M509.5,93.2c-1,0-1.8-2.3-2.3-7c-1.6,1.6-3,3.4-4.3,5.4c-0.5,0.9-1,1.3-1.5,1.3c-0.5,0-0.9-0.5-1.3-1.4
				c-0.7-1.5-1-3.5-1-6.2c-1.2,0.8-2.3,1.8-3.4,3.1c-1.4,1.6-2.2,2.9-2.5,4.2c-0.2,1-0.6,1.6-1,1.6c-0.8,0-1.1-0.7-1.1-2.1
				c0-1,0.2-2.5,0.6-4.5c0.5-2.4,0.8-4,0.8-4.8c0-0.5-0.2-1.2-0.5-1.9c0.1-0.4,0.3-0.7,0.6-0.9c0.3-0.2,0.5-0.3,0.8-0.3
				c0.7,0,1,0.9,1,2.6c0,0.8-0.2,1.8-0.4,3.1c-0.2,1-0.5,2.1-0.7,3.1c3.8-4,6.1-6,7-6c0.4,0,0.7,0.7,0.7,2c0,2.6,0.2,4.6,0.7,5.8
				c3.1-4.3,5.3-6.5,6.6-6.5c0.5,0,0.8,0.7,0.8,2.1c0,0.9,0.1,1.9,0.3,2.9c0.2,1.3,0.5,2.2,1,2.7c0.2,0.4,0.4,0.6,0.4,0.7
				C510.8,92.9,510.3,93.2,509.5,93.2z"/>
			<path class="st2" d="M521.6,94c-2.3,0-4-1.1-5-3.3c-0.2,0.1-0.5,0.1-0.8,0.1c-1,0-1.9-0.2-2.5-0.6c-0.8-0.4-1.1-0.9-1.1-1.3
				c0-0.7,0.3-1,0.9-1c0.1,0,0.4,0.2,0.9,0.5c0.5,0.3,1,0.5,1.5,0.5c0.2,0,0.4,0,0.6,0c-0.1-0.5-0.1-0.9-0.1-1.4
				c0-1.4,0.4-2.9,1.1-4.2c0.8-1.5,1.8-2.3,3.1-2.3c0.8,0,1.5,0.4,2.3,1.2c0.5,0.6,0.8,1.3,0.8,2.1c0,1.2-0.5,2.3-1.5,3.5
				c-0.9,1-2,1.9-3.3,2.4c0.6,1.3,1.5,1.9,2.8,1.9c0.3,0,0.7,0,1.3-0.2c0.5-0.1,0.9-0.1,1-0.1c0.2,0,0.4,0.1,0.6,0.3
				c0.2,0.2,0.3,0.5,0.3,0.7C524.3,93.6,523.4,94,521.6,94z M520.9,83.4c-0.3-0.3-0.7-0.4-1-0.4c-0.6,0-1.1,0.5-1.5,1.4
				c-0.4,0.9-0.6,1.9-0.6,2.8c0,0.4,0,0.8,0.1,1.2c1-0.4,1.8-1,2.5-1.7c0.7-0.7,1-1.4,1-2.2C521.4,84,521.2,83.7,520.9,83.4z"/>
		</g>
	</g>
</g>
</svg>
