<svg xmlns="http://www.w3.org/2000/svg" viewBox="0 0 192 78.01"><defs><style>.cls-1{fill:none;}.cls-2{fill:#595757;}.cls-3{fill:#e9b9be;}</style></defs><g id="レイヤー_2" data-name="レイヤー 2"><g id="title_sozai"><g id="h_how_to_use"><rect class="cls-1" y="78" width="192"/><rect class="cls-2" width="192" height="1"/><rect class="cls-2" y="77.01" width="192" height="1"/><path class="cls-2" d="M57.13,27c-.47,0-1.31-1.13-1.31-1.6,0-.26.18-.43.32-.63a30.5,30.5,0,0,0,6-11.17c.06-.26.18-.58.5-.58a18.59,18.59,0,0,1,2,.61c.2.06.52.2.52.46s-.23.32-.38.38a.83.83,0,0,0-.55.61,41.07,41.07,0,0,1-2.58,5.74.27.27,0,0,0,0,.15c0,.17.12.23.26.26s.7,0,.7.35-.15.26-.38.4-.35.7-.35,1.63V34.18c0,1.27.09,2.52.09,3.8,0,.84-.2,1-1.25,1s-1.24-.11-1.24-1c0-1.27.08-2.55.08-3.82V25.07c0-.15-.06-.29-.23-.29s-.14.06-.2.11C58.81,25.36,57.68,27,57.13,27Zm21.43,1.19H75c-.58,0-.82.2-.88.78a13.09,13.09,0,0,1-.69,3.66,1,1,0,0,0-.09.43.72.72,0,0,0,.41.64,26.15,26.15,0,0,0,8,2.87c.41.09.73.15.73.64s-.29,1.68-1.07,1.68a19.19,19.19,0,0,1-3.14-.78,28.8,28.8,0,0,1-5.77-2.55,1,1,0,0,0-.52-.15.89.89,0,0,0-.64.29,14,14,0,0,1-5.86,3,4.38,4.38,0,0,1-.87.14c-.67,0-1.28-1.07-1.28-1.65,0-.4.24-.52.59-.58a10.75,10.75,0,0,0,5.54-2.29.73.73,0,0,0,.26-.52.81.81,0,0,0-.29-.55c-.47-.47-2.41-2.59-2.41-3.14,0-.37,1.07-1.16,1.48-1.16s.64.5.84.79a11.68,11.68,0,0,0,1.33,1.59.48.48,0,0,0,.38.18.49.49,0,0,0,.44-.35A8.28,8.28,0,0,0,71.8,29c0-.52-.23-.75-.75-.75H67.71c-.26,0-.34.17-.43.38s-.23.32-1.07.32-1.16,0-1.16-.64,0-1.34,0-2V23.7c0-.58,0-1.13,0-1.71,0-1,.52-1.24,1.42-1.24l2.08,0h2.67c.5,0,.7-.2.7-.69v-1c0-.49-.2-.69-.7-.69h-2.9c-1,0-2.09.05-3.13.05-.61,0-.64-.29-.64-1.1s0-1.1.64-1.1c1,0,2.09.06,3.13.06h2.79c.58,0,.81-.24.81-.79a8.83,8.83,0,0,0-.12-1.79v-.29c0-.35.21-.44.5-.44s1.82.12,2.23.17c.2,0,.46.09.46.35s-.17.29-.37.41c-.44.26-.41.64-.41,1.65.06.55.29.73.81.73h3.37c1,0,2.09-.06,3.13-.06.67,0,.67.32.67,1.1s0,1.1-.64,1.1c-1,0-2.09-.05-3.16-.05H74.91c-.5,0-.7.2-.7.69v1c0,.49.2.69.7.69h2.81l2,0c.93,0,1.45.23,1.45,1.24,0,.58,0,1.13,0,1.71v2.59c0,.66.06,1.33.06,2s-.29.64-1.16.64-1-.06-1.16-.38A.37.37,0,0,0,78.56,28.23ZM68.09,22.75c-.58,0-.81.26-.81.81v1.88c0,.58.23.82.81.82h3c.58,0,.81-.24.81-.82V23.56c0-.55-.23-.81-.81-.81Zm6.12,2.69c0,.58.23.82.81.82h3.11c.58,0,.81-.24.81-.82V23.56c0-.55-.23-.81-.81-.81H75c-.58,0-.81.26-.81.81Z"/><path class="cls-2" d="M89.7,19.09c.2.06.55.15.55.41s-.12.29-.29.4c-.35.29-.38.7-.47,1.22a19.1,19.1,0,0,0-.2,2.82,17.87,17.87,0,0,0,1,6.55c.41,1,1.51,2.82,2.67,2.82.84,0,1.8-1.37,2.18-2,.14-.26.38-.72.72-.72.5,0,1.63,1,1.63,1.39s-1.63,2.35-2.06,2.82A3.25,3.25,0,0,1,93,36c-1.74,0-3.16-1.39-4.06-2.78-1.86-2.82-2.15-6.7-2.15-10,0-.93.09-3.34.15-4.29,0-.26.12-.41.38-.41A21.76,21.76,0,0,1,89.7,19.09Zm12.29-.4c.58,0,2.61,1.68,3.75,3.42a15.2,15.2,0,0,1,2.08,5.8,4.58,4.58,0,0,1,.09.9.59.59,0,0,1-.43.67,4.57,4.57,0,0,1-1.4.26c-.84,0-.81-.38-.87-.93a11.08,11.08,0,0,0-4.32-8.27.51.51,0,0,1-.23-.43A2,2,0,0,1,102,18.69Z"/><path class="cls-2" d="M121.68,17.73c.58,0,.82-.23.82-.81v-1a11.19,11.19,0,0,0-.12-2,1.16,1.16,0,0,1,0-.32c0-.32.2-.38.49-.38.61,0,1.19.06,1.8.12s1,.09,1,.41-.24.31-.44.43c-.41.26-.38.52-.38,2.55v.21c0,.58.24.81.82.81h6.64c1.13,0,2.26-.06,3.39-.06.61,0,.61.29.61,1.16s0,1.19-.61,1.19c-1.13,0-2.26-.09-3.39-.09H123.8c-.09,0-.14,0-.14.06s0,.06.11.09.26.11.26.29-.26.35-.49.49a.56.56,0,0,0-.23.49c0,.79-.06,1.54-.09,2.33,0,.52.2.75.73.75h6.44c.66,0,1.33-.06,2-.06,1.21,0,1.36.73,1.36,1.57,0,2.87-.9,8.61-2.15,11.14C130.65,39,128.7,39,126.85,39c-1.34,0-2.18.12-2.18-1.68,0-.44.06-.82.58-.82.26,0,.7.06,1,.09a6.33,6.33,0,0,0,.78.06c1,0,2.15-.12,2.67-1.13a26.42,26.42,0,0,0,1.57-8.12c0-.79-.24-.76-1.51-.76h-6.12a.82.82,0,0,0-1,.76,17.41,17.41,0,0,1-6,9.45c-.66.53-2.43,1.89-3.24,1.89-.64,0-1.43-1-1.43-1.63,0-.31.27-.4.73-.63,6.18-3.14,8.24-8.82,8.24-15.41v-.4c-.06-.55-.29-.7-.81-.76h-5c-1.14,0-2.24.09-3.37.09-.64,0-.64-.29-.64-1.19s0-1.16.64-1.16c1.13,0,2.23.06,3.37.06Z"/><path class="cls-3" d="M60.65,49.37a87.44,87.44,0,0,0-1.39,14.24c0,.24,0,.57,0,1s0,.72,0,.81a1,1,0,0,1-.29.72.91.91,0,0,1-.67.29c-.75,0-1.11-.67-1.11-2,0-1.84.15-4.51.48-8a41.2,41.2,0,0,1-6.53,1c-.14,1.9-.29,4.42-.43,7.58a1.75,1.75,0,0,1-.31.92,1,1,0,0,1-.72.38.77.77,0,0,1-.65-.36,1.16,1.16,0,0,1-.26-.77c0-1.92.12-4.49.4-7.7l-.45,0h-.51c-1.1,0-1.63-.33-1.63-1a1.07,1.07,0,0,1,.24-.68.73.73,0,0,1,.58-.31l.86.05c.51,0,.87.07,1.06.07a38.34,38.34,0,0,1,1.77-8.57,7.77,7.77,0,0,1,.41-1.1,1,1,0,0,1,.89-.63.87.87,0,0,1,1,1,16.46,16.46,0,0,1-.62,2.13,16.15,16.15,0,0,0-.58,2.19,38,38,0,0,0-.86,4.87A23.57,23.57,0,0,0,58,54.34c.24-2,.48-3.6.72-4.75,0-.38.17-.94.34-1.66a.86.86,0,0,1,.86-.77,1,1,0,0,1,.67.32,1,1,0,0,1,.29.69Z"/><path class="cls-3" d="M68.3,63.8a3.49,3.49,0,0,1-2.92,1.63,3.22,3.22,0,0,1-2.52-1.18,4.45,4.45,0,0,1-1-3,6.21,6.21,0,0,1,.7-2.93,4.34,4.34,0,0,1,2-2.13c.19-.08.45-.22.79-.41a1.42,1.42,0,0,1,.7-.31,3.77,3.77,0,0,1,.57.14,4.34,4.34,0,0,1,2.09,1.56,4.43,4.43,0,0,1,.79,2.57A7,7,0,0,1,68.3,63.8Zm-1.41-5.69a1.77,1.77,0,0,1-.94-.22,1.92,1.92,0,0,0-1.65,1.18,4.19,4.19,0,0,0-.55,2.16,2.5,2.5,0,0,0,.45,1.51,1.29,1.29,0,0,0,1.15.67,1.94,1.94,0,0,0,1.56-1.08,4.21,4.21,0,0,0,.68-2.25A2.25,2.25,0,0,0,66.89,58.11Z"/><path class="cls-3" d="M86.76,59.19a12.47,12.47,0,0,1-1.44,4.34c-.93,1.59-2.06,2.41-3.38,2.41-1.56,0-2.69-1.25-3.41-3.75a23.29,23.29,0,0,1-2.35,2.71c-1.08,1-1.9,1.54-2.43,1.54-.74,0-1.37-1-1.85-2.93a17.81,17.81,0,0,1-.67-4.73,12.63,12.63,0,0,1,.34-3.19,1,1,0,0,1,1-.84c.77,0,1.15.55,1.15,1.63a6.55,6.55,0,0,1-.26,1.08,5.38,5.38,0,0,0-.24,1.35A12.35,12.35,0,0,0,74.06,64a11.27,11.27,0,0,0,4.11-5.47c.22-.53.5-.79.89-.79s.69.28.79.84q.72,5.35,2,5.35c.86,0,1.6-.72,2.25-2.21a10.67,10.67,0,0,0,.89-4.3c0-.19,0-.45-.05-.79s-.07-.53-.07-.57c0-.72.31-1.08,1-1.08.82,0,1.25,1,1.25,2.92A2.13,2.13,0,0,1,86.76,59.19Z"/><path class="cls-3" d="M101.88,57.37a.82.82,0,0,1-.62.36,1.21,1.21,0,0,1-.89-.34l-1.25,0c-.67,0-1.1,0-1.34,0-.44,1.87-.7,3-.8,3.48a23.46,23.46,0,0,0-.48,3.63,1,1,0,0,1,0,1.51,1.12,1.12,0,0,1-.7.29c-.79,0-1.17-.68-1.17-2a19.46,19.46,0,0,1,.45-3.43l.72-3.46c-.74,0-1.1-.34-1.1-1a.88.88,0,0,1,.43-.87,2.87,2.87,0,0,1,1.13-.16c.62-2.55,1.15-4.52,1.58-6,.15-.5.43-.76.87-.76.62,0,1,.36,1,1.08-.15.5-.34,1.08-.55,1.75-.29,1-.6,2.25-.94,3.84l1.78,0c1.39.07,2.08.48,2.08,1.24A1.36,1.36,0,0,1,101.88,57.37Z"/><path class="cls-3" d="M108.36,63.8a3.5,3.5,0,0,1-2.93,1.63,3.22,3.22,0,0,1-2.52-1.18,4.5,4.5,0,0,1-1-3,6.2,6.2,0,0,1,.69-2.93,4.38,4.38,0,0,1,2-2.13,7.8,7.8,0,0,0,.79-.41,1.45,1.45,0,0,1,.7-.31,3.48,3.48,0,0,1,.58.14,4.32,4.32,0,0,1,2.08,1.56,4.44,4.44,0,0,1,.8,2.57A7,7,0,0,1,108.36,63.8Zm-1.42-5.69a1.73,1.73,0,0,1-.93-.22,1.93,1.93,0,0,0-1.66,1.18,4.29,4.29,0,0,0-.55,2.16,2.44,2.44,0,0,0,.46,1.51,1.28,1.28,0,0,0,1.15.67A2,2,0,0,0,107,62.33a4.2,4.2,0,0,0,.67-2.25C107.64,59.07,107.4,58.4,106.94,58.11Z"/><path class="cls-3" d="M126.79,57.77a19.26,19.26,0,0,0-.62,2.81,17.49,17.49,0,0,0-.31,2.38,4.31,4.31,0,0,0,.07.72,4.85,4.85,0,0,1,.07.57,1.57,1.57,0,0,1-.29.94.89.89,0,0,1-.79.43,1.35,1.35,0,0,1-.77-.24.7.7,0,0,1-.36-.65,1,1,0,0,1,.17-.55c0-.41.1-1.39.29-3-2.35,2.71-4.15,4.05-5.43,4.05a2.14,2.14,0,0,1-1.39-.43,1.6,1.6,0,0,1-.58-1.32,15.66,15.66,0,0,1,.49-2.9,28,28,0,0,0,.52-3.12v-.27a1.23,1.23,0,0,1,0-.26,1.17,1.17,0,0,1,.29-.72.72.72,0,0,1,.6-.36c.65,0,1,.53,1,1.53a17.28,17.28,0,0,1-.43,2.76,17.76,17.76,0,0,0-.46,2.72c0,.19.1.28.29.28,1.13,0,3.19-2.2,6.22-6.64a1,1,0,0,1,.77-.51c.57,0,.86.34.86,1A3,3,0,0,1,126.79,57.77Z"/><path class="cls-3" d="M134.54,56.93a.83.83,0,0,1-.64.27,3.51,3.51,0,0,1-.63-.05l-.65,0c-.62,0-.93.24-.93.69a12.22,12.22,0,0,0,.89,2.67,11.08,11.08,0,0,1,.88,3.36,2.1,2.1,0,0,1-.84,1.7,4.14,4.14,0,0,1-2.52.7c-1.72,0-2.56-.36-2.56-1a1.19,1.19,0,0,1,.26-.76.68.68,0,0,1,.55-.39c.05,0,.31,0,.79.1a8.32,8.32,0,0,0,1.18.09c.79,0,1.2-.26,1.2-.84a11.87,11.87,0,0,0-.89-2.68,10,10,0,0,1-.86-3.2,2.27,2.27,0,0,1,1.68-2.28,1.53,1.53,0,0,1,1.41-.6q1.66,0,1.8,1.08a1.27,1.27,0,0,1,.15.56A.8.8,0,0,1,134.54,56.93Z"/><path class="cls-3" d="M143.35,65.74a4.24,4.24,0,0,1-4-2.47h-.72a4.71,4.71,0,0,1-1.85-.38c-.82-.34-1.2-.77-1.2-1.3s.31-1,.94-1a1.63,1.63,0,0,1,.72.36,1.63,1.63,0,0,0,1,.36h.55a5.86,5.86,0,0,1-.09-1,6.39,6.39,0,0,1,.86-3.24,2.93,2.93,0,0,1,2.54-1.78,2.49,2.49,0,0,1,1.76.87,2.66,2.66,0,0,1,.86,1.89c0,1.78-1.2,3.31-3.6,4.61a2.43,2.43,0,0,0,1.92,1,8,8,0,0,0,.91-.07c.41-.05.72-.1.92-.1a1,1,0,0,1,.67.32,1.17,1.17,0,0,1,.29.72C145.78,65.33,145,65.74,143.35,65.74Zm-.81-8.13a1,1,0,0,0-.58-.24c-.43,0-.77.36-1,1.08a5,5,0,0,0-.33,1.87v.43c1.43-.94,2.16-1.8,2.16-2.59A1,1,0,0,0,142.54,57.61Z"/></g></g></g></svg>