<?xml version="1.0" encoding="utf-8"?>
<!-- Generator: Adobe Illustrator 24.1.0, SVG Export Plug-In . SVG Version: 6.00 Build 0)  -->
<svg version="1.1" id="レイヤー_1" xmlns="http://www.w3.org/2000/svg" xmlns:xlink="http://www.w3.org/1999/xlink" x="0px"
	 y="0px" width="35.2px" height="35.4px" viewBox="0 0 35.2 35.4" style="enable-background:new 0 0 35.2 35.4;"
	 xml:space="preserve">
<style type="text/css">
	.st0{fill:#FFFFFF;}
</style>
<path class="st0" d="M24.7,20.6l-4.2,4.2l10.1,10.1c0.7,0.7,1.8,0.7,2.5,0l1.7-1.7c0.7-0.7,0.7-1.8,0-2.5L24.7,20.6z"/>
<path class="st0" d="M20.5,3.5c-4.7-4.7-12.3-4.7-17,0c-4.7,4.7-4.7,12.3,0,17c4.2,4.2,10.7,4.6,15.4,1.3l1.5,1.5l2.8-2.8l-1.5-1.5
	C25.1,14.3,24.7,7.7,20.5,3.5z M18.4,18.4c-3.5,3.5-9.2,3.5-12.7,0c-3.5-3.5-3.5-9.2,0-12.7c3.5-3.5,9.2-3.5,12.7,0
	C21.9,9.1,21.9,14.9,18.4,18.4z"/>
<path class="st0" d="M7.8,7.8C8,7.6,8,7.2,7.8,7C7.6,6.9,7.2,6.9,7.1,7C6.4,7.7,5.9,8.5,5.5,9.4C5.2,10.2,5,11.1,5,12
	c0,0.9,0.2,1.8,0.5,2.6c0.4,0.9,0.9,1.6,1.5,2.3c0.2,0.2,0.5,0.2,0.7,0c0.2-0.2,0.2-0.5,0-0.7c-0.6-0.6-1-1.2-1.3-2
	C6.1,13.5,6,12.8,6,12c0-0.8,0.1-1.5,0.4-2.3C6.7,9,7.2,8.3,7.8,7.8z"/>
</svg>
