<?xml version="1.0" encoding="utf-8"?>
<!-- Generator: Adobe Illustrator 24.2.0, SVG Export Plug-In . SVG Version: 6.00 Build 0)  -->
<svg version="1.1" id="btn_x5F_cheer" xmlns="http://www.w3.org/2000/svg" xmlns:xlink="http://www.w3.org/1999/xlink" x="0px"
	 y="0px" width="80px" height="80px" viewBox="0 0 80 80" style="enable-background:new 0 0 80 80;" xml:space="preserve">
<style type="text/css">
	.st0{fill:#FFFFFF;}
</style>
<path class="st0" d="M70.5,57.9c-1.3,1.3-3.4,1.3-4.6,0c-1.3-1.3-1.3-3.3,0-4.5c1.3-1.3,3.4-1.3,4.6,0
	C71.8,54.7,71.8,56.7,70.5,57.9z"/>
<path class="st0" d="M9.6,40.5c-1,1-2.8,1-3.8,0c-1-1-1-2.7,0-3.7c1-1,2.8-1,3.8,0C10.6,37.8,10.6,39.5,9.6,40.5z"/>
<path class="st0" d="M16.5,55c-1.6,1.6-4.3,1.6-6,0c-1.6-1.6-1.6-4.2,0-5.9c1.6-1.6,4.3-1.6,6,0C18.2,50.8,18.2,53.4,16.5,55z"/>
<path class="st0" d="M65.2,41.4c0.3-0.4,0.5-0.8,0.7-1c0.8,0.3,1.5,0.6,1.9,1c-0.2,0.6-0.4,1.2-0.7,1.7c-0.2-0.3-0.5-0.6-0.8-0.8
	C66,41.8,65.6,41.6,65.2,41.4z"/>
<path class="st0" d="M67.3,45.1C67.3,45.1,67.3,45.1,67.3,45.1C67.3,45.1,67.3,45.1,67.3,45.1c0.3-0.5,0.6-1.1,0.9-1.7
	c0.5-1.3,1-2.7,1.4-3.8c0.2-0.5,0.4-1,0.6-1.3c0.1,0.3,0.2,0.6,0.3,0.9c0.1,0.5,0.3,0.9,0.4,1.2c0.1,0.2,1.1,2.1,0.5,3.8
	c0,0,0,0.1,0,0.1c-0.2,0.5-0.4,0.8-0.6,1.1c-0.1-0.1-0.2-0.1-0.4-0.1C69.6,45.1,68.5,45.1,67.3,45.1z"/>
<path class="st0" d="M68.8,38.6c-0.2,0.5-0.4,1.1-0.6,1.7c-0.6-0.4-1.4-0.7-2.2-1c-1.5-0.4-3.2-0.7-4.4-0.3
	c-0.2,0.1-0.3,0.1-0.4,0.2c-0.1-0.2-0.2-0.4-0.3-0.5c0.4-0.2,0.8-0.5,0.9-0.9c0,0,0,0,0-0.1c0-0.1,0.1-0.2,0.1-0.3
	c0.2-0.7,0.6-1.2,1.1-1.4c0.7-0.3,1.8-0.3,3.1,0.2c0.3,0.1,0.8,0.2,1.4,0.2c0.8,0.1,1.7,0.2,2.1,0.5c0.1,0.1,0.2,0.2,0.2,0.3
	c0,0,0,0-0.1,0.1C69.3,37.6,69.1,38.1,68.8,38.6z"/>
<path class="st0" d="M63.4,45.7c1.2,0.4,2.6,0.4,3.8,0.5c1.1,0,2.1,0.1,2.7,0.2c-0.6,0.5-1.2,1.2-1.7,2.3c-0.3,0.8-1.6,1.1-3,1.4
	l0,0c-0.7,0.2-1.1-0.2-1.7-0.8c-0.4-0.4-0.7-0.8-1.2-0.8c0.2-0.8,0.2-1.9,0.1-3C62.8,45.4,63.1,45.6,63.4,45.7z"/>
<path class="st0" d="M61.5,40.3C61.5,40.3,61.6,40.3,61.5,40.3c0.1-0.1,0.2-0.2,0.4-0.3c0.2-0.1,0.6-0.1,1-0.2
	c0.6,0,1.2,0.1,1.9,0.2c-0.6,0.7-1.1,1.8-1.4,2.8c-0.2,0.5-0.3,1-0.3,1.5c-0.3-0.1-0.5-0.3-0.8-0.5C62.2,42.7,61.9,41.4,61.5,40.3z"
	/>
<path class="st0" d="M64.7,42.4c0.3,0.1,0.6,0.3,0.9,0.6c0.4,0.3,0.7,0.7,0.9,1.2c-0.3,0.5-0.6,0.8-0.9,0.8c-0.5,0-1-0.1-1.4-0.2
	c-0.1-0.3,0-0.9,0.2-1.6C64.5,42.9,64.6,42.6,64.7,42.4z"/>
<path class="st0" d="M53.1,60c1.7-0.4,4.5-1.3,6.2-2.7c2.6-2.3,2.8-4,1.8-5.2c-1-1.1-2.8-1.2-5.5,1.1c-1.7,1.5-2.9,4.1-3.5,5.7
	C52.6,59,53,59.5,53.1,60z"/>
<path class="st0" d="M52.6,61.5c-0.2,0.2-0.4,0.3-0.7,0.4c-0.3,0.1-0.6,0-0.8,0c-0.5,1.7-1.1,4.4-0.7,6.6c0.7,3.4,2.2,4.4,3.7,4.1
	c1.5-0.3,2.5-1.8,1.8-5.2C55.4,65.2,53.7,62.9,52.6,61.5z"/>
<path class="st0" d="M50,60.6c-1.7,0.4-4.5,1.2-6.2,2.7c-2.6,2.3-2.8,4-1.8,5.2c1,1.1,2.8,1.2,5.5-1.1c1.7-1.5,2.9-4.1,3.5-5.7
	C50.5,61.6,50.1,61.2,50,60.6z"/>
<path class="st0" d="M50,60.6c-0.1-0.6,0.1-1.1,0.5-1.5c-1.2-1.3-3.3-3.2-5.5-3.9c-3.3-1.1-5-0.4-5.5,1.1c-0.5,1.4,0.4,3,3.7,4.1
	C45.3,61.2,48.2,60.9,50,60.6z"/>
<path class="st0" d="M50.5,59.1c0.2-0.2,0.4-0.3,0.7-0.4c0.3-0.1,0.6,0,0.8,0c0.5-1.7,1.1-4.4,0.7-6.6c-0.7-3.4-2.2-4.4-3.7-4.1
	c-1.5,0.3-2.5,1.8-1.8,5.2C47.7,55.5,49.4,57.8,50.5,59.1z"/>
<path class="st0" d="M59.9,60.2c-2.2-0.7-5-0.4-6.8-0.2c0.1,0.6-0.1,1.1-0.5,1.5c1.2,1.3,3.3,3.2,5.5,3.9c3.3,1.1,5,0.4,5.5-1.1
	C64,62.9,63.2,61.3,59.9,60.2z"/>
<path class="st0" d="M24.2,40.7c-1.2-0.3-2.8,0-3.7,0.3c0.9-0.3,2.4-0.9,3.3-1.8c1.3-1.3,1.3-2.3,0.7-2.8c-0.6-0.6-1.6-0.5-2.8,0.8
	c-0.9,0.9-1.4,2.4-1.6,3.3c0.2-0.9,0.4-2.5,0.1-3.7c-0.5-1.8-1.4-2.2-2.1-2c-0.8,0.2-1.2,1.1-0.7,2.8c0.4,1.2,1.4,2.4,2.1,3
	c-0.7-0.6-2-1.6-3.2-1.9c-1.8-0.4-2.6,0-2.8,0.8c-0.2,0.8,0.3,1.6,2.1,2c1.2,0.3,2.8,0,3.7-0.3c-0.9,0.3-2.4,0.9-3.3,1.8
	c-1.3,1.3-1.3,2.3-0.7,2.8c0.6,0.6,1.6,0.5,2.8-0.8c0.9-0.9,1.4-2.4,1.6-3.3c-0.2,0.9-0.4,2.5-0.1,3.7c0.5,1.8,1.4,2.2,2.1,2
	c0.8-0.2,1.2-1.1,0.7-2.8c-0.4-1.2-1.4-2.4-2.1-3c0.7,0.6,2,1.6,3.2,1.9c1.8,0.4,2.6,0,2.8-0.8C26.5,42,26,41.2,24.2,40.7z"/>
<path class="st0" d="M25.7,61.4c-0.7,0.1-1.4,0.2-1.8,0.3c-0.1,1.2,0,2.4,0.2,3c0.9,0.1,1.8,0.1,2.7,0.2c-0.3-0.5-0.5-1-0.7-1.5
	C25.9,62.6,25.7,61.9,25.7,61.4z"/>
<path class="st0" d="M29.4,66.2C29.5,66.2,29.5,66.2,29.4,66.2C29.5,66.2,29.5,66.2,29.4,66.2c-0.9,0.2-1.8,0.2-2.8,0.2
	c-2,0-4.3-0.3-6-0.4c-0.8-0.1-1.6,0-2.1,0c0.3,0.3,0.7,0.6,1.1,0.9c0.6,0.5,1.1,0.9,1.4,1.3c0.2,0.3,2.2,2.7,4.9,3
	c0.1,0,0.1,0,0.2,0c0.7,0.1,1.3,0,1.9-0.2c0-0.2,0-0.4,0-0.5C28.1,69.3,28.8,67.8,29.4,66.2z"/>
<path class="st0" d="M19.8,64.4c0.8,0,1.7,0.1,2.6,0.2c-0.2-1-0.2-2.2,0-3.5c0.3-2.3,1-4.6,2.3-5.9c0.2-0.2,0.4-0.3,0.6-0.4
	c-0.2-0.2-0.4-0.5-0.5-0.7c-0.6,0.4-1.1,0.7-1.7,0.6c0,0-0.1,0-0.1,0c-0.2,0-0.4-0.1-0.5-0.1c-1.1-0.1-1.9,0.1-2.6,0.6
	c-0.9,0.7-1.4,2.1-1.5,4.2c0,0.5-0.3,1.2-0.5,2c-0.3,1.1-0.8,2.4-0.6,3c0,0.2,0.1,0.3,0.2,0.5c0,0,0.1,0,0.1-0.1
	C18.2,64.4,18.9,64.4,19.8,64.4z"/>
<path class="st0" d="M32.6,61.6c-0.2,1.8-1,3.7-1.6,5.3c-0.6,1.5-1.2,2.8-1.4,3.6c1.1-0.4,2.3-0.9,4.1-0.8c1.3,0,2.4-1.4,3.6-3.1
	l0-0.1c0.6-0.8,0.4-1.6-0.1-2.6c-0.3-0.7-0.6-1.4-0.4-2.1c-1.2-0.2-2.6-0.8-4.2-1.6C32.6,60.6,32.6,61.1,32.6,61.6z"/>
<path class="st0" d="M34.5,54.4c-0.3,0-0.5,0-0.8-0.1l0,0c-0.3,0-0.5,0-0.8-0.1c-0.1,0-0.2,0-0.3,0c-0.9-0.2-1.5-0.7-2-1.1
	c-0.5-0.5-0.9-0.9-1.8-1c-0.4-0.1-0.9,0-1.6,0.1c-0.3,0.1-0.8,0.4-1.3,0.7c0.2,0.4,0.7,1,1.4,1.6c0.9,0.8,2,1.7,3.3,2.5
	c0.3,0.2,0.7,0.5,1.1,0.7c0.2,0,0.3,0.1,0.4,0.2c2,1.2,4,2,5.2,2.2c0.3-1.2,0.2-2.4-0.4-3.9C36.3,54.8,35.4,54.5,34.5,54.4z"/>
<path class="st0" d="M26.4,55.9C26.4,55.9,26.4,55.9,26.4,55.9c-0.2,0-0.4,0.1-0.7,0.3c-0.3,0.2-0.5,0.6-0.8,1.2
	c-0.4,0.7-0.6,1.7-0.8,2.6c1.3-0.3,3-0.4,4.6-0.2c0.8,0.1,1.6,0.3,2.2,0.6c0-0.4-0.1-0.9-0.2-1.3C29.2,58.1,27.7,57,26.4,55.9z"/>
<path class="st0" d="M27.3,61.3c0,0.4,0.1,1,0.3,1.6c0.2,0.7,0.6,1.4,1,1.9c0.8-0.1,1.4-0.4,1.7-0.7c0.2-0.7,0.4-1.3,0.6-2
	c-0.4-0.3-1.3-0.6-2.3-0.7C28.2,61.3,27.8,61.3,27.3,61.3z"/>
<path class="st0" d="M58.3,44.8c0.1-0.2,0.1-0.3,0.2-0.5l0,0c0.1-0.2,0.1-0.3,0.2-0.5c0-0.1,0-0.1,0.1-0.2c0.1-0.6,0-1.1-0.2-1.5
	c-0.2-0.4-0.3-0.8-0.1-1.4c0.1-0.3,0.3-0.6,0.5-0.9c0.1-0.2,0.5-0.4,0.8-0.6c0.2,0.3,0.5,0.7,0.7,1.3c0.3,0.8,0.5,1.7,0.7,2.7
	c0,0.3,0.1,0.6,0.1,0.8c0,0.1,0,0.2,0,0.3c0.2,1.6,0.2,3.1-0.1,3.8c-0.8-0.2-1.6-0.5-2.4-1.3C58.1,46.1,58.1,45.4,58.3,44.8z"/>
<path class="st0" d="M57.4,7.3c-0.3-0.7-0.9-1-1.6-1.2c-0.9-0.2-1.9-0.2-2.8-0.2c-1.8,0.2-9.1,3.8-10,4.2l0,4c0,0,0.1,0.2,0.2,0.3
	c0.3,0.2,0.6,0.4,1,0.6c-1.1,0-2.2,0.3-3.2,0.9c-0.4,0.2-0.7,0.5-1,0.8c-0.3-0.3-0.6-0.6-1-0.8c-1-0.6-2.1-0.9-3.2-0.9
	c0.3-0.2,0.6-0.4,1-0.6c0.1-0.1,0.2-0.3,0.2-0.3l0-4c-0.8-0.3-8.1-4-10-4.2c-0.9-0.1-1.9,0-2.8,0.2c-0.8,0.2-1.3,0.5-1.6,1.2
	c-0.4,0.8,0.2,4.6,0,8.5c0,0.5,0,1.1,0.3,1.6c0.1,0.2,0.3,0.4,0.5,0.4c0.5,0.1,1.1,0.3,1.6,0.2c1.1-0.1,2.1-0.3,3.2-0.5
	c1.1-0.3,2.2-0.6,3.3-0.9c-0.4,0.3-0.7,0.7-1,1.1c0,0-1.5,2.3-2.6,3.6c-0.7,0.9-1.6,1.8-2.3,2.4c-0.4,0.1-0.7,0.2-0.9,0.5
	c-1.3,1.9,0.8,4.8,4.2,7c3.4,2.2,7.1,2.5,8.2,0.9c0.2-0.2,0.2-0.6,0.1-1c0.2-0.9,0.7-2,1.3-3c0.4-0.8,1-1.7,1.5-2.5
	c0.5,0.8,1.1,1.7,1.5,2.5c0.6,1,1.1,2.2,1.3,3c-0.1,0.4-0.1,0.7,0.1,1c1.1,1.6,4.8,1.3,8.2-0.9c3.4-2.2,5.5-5.1,4.2-7
	c-0.2-0.2-0.5-0.4-0.9-0.5c-0.7-0.5-1.6-1.5-2.3-2.4c-1.1-1.3-2.6-3.6-2.6-3.6c-0.3-0.4-0.6-0.8-1-1.1c1.1,0.3,2.2,0.6,3.3,0.9
	c1,0.2,2.1,0.4,3.2,0.5c0.5,0.1,1.1-0.1,1.6-0.2c0.2,0,0.4-0.2,0.5-0.4c0.3-0.5,0.3-1,0.3-1.6C57.3,11.9,57.8,8.1,57.4,7.3z
	 M25.9,16.5c-0.4,0.1-1.6,0.2-1.9,0c-0.3-0.2,0-0.8,0.3-1c1.6-1,6.2-1.8,7-1.9c1.1-0.1,2.2-0.3,3.3-0.3c0.5,0,1,0.1,1.5,0.1
	c0,0,0,0.1,0.1,0.1c-0.2,0.1-0.4,0.3-0.6,0.4c-1.1,0.7-2.4,1.1-3.7,1.4C29.8,15.7,27.9,16.1,25.9,16.5z M29.7,30.1
	c-2.9-1.8-4.3-4-3.8-5.2c0.6-0.3,2.1-0.2,3.9,0.7c-0.1,0.1-0.3,0.3-0.4,0.5c-0.7,1.1-0.4,2.6,0.7,3.4c1.1,0.7,2.7,0.4,3.4-0.7
	c0.1-0.2,0.2-0.4,0.3-0.6c1.5,1.2,2.1,2.7,2.2,3.3C35.5,32.1,32.5,31.9,29.7,30.1z M49.9,29.3c1.1-0.7,1.5-2.2,0.7-3.4
	c-0.1-0.2-0.2-0.3-0.4-0.5c1.8-0.8,3.3-1,3.9-0.7c0.5,1.2-0.9,3.4-3.8,5.2c-2.9,1.8-5.9,2-6.4,1.2c0.1-0.5,0.7-2.1,2.2-3.3
	c0.1,0.2,0.1,0.4,0.3,0.6C47.2,29.7,48.7,30,49.9,29.3z M56.1,16.5c-0.3,0.2-1.5,0.1-1.9,0c-2-0.4-3.9-0.8-5.9-1.3
	c-1.3-0.3-2.5-0.7-3.7-1.4c-0.2-0.1-0.4-0.3-0.6-0.4c0,0,0-0.1,0.1-0.1c0.5,0,1-0.1,1.5-0.1c1.1,0.1,2.2,0.2,3.3,0.3
	c0.7,0.1,5.4,0.9,7,1.9C56.1,15.7,56.4,16.2,56.1,16.5z"/>
<path class="st0" d="M39.3,14.8h1.5c0.7,0,1.3-0.6,1.3-1.3v-2.9c0-0.7-0.6-1.3-1.3-1.3h-1.5c-0.7,0-1.3,0.6-1.3,1.3v2.9
	C38,14.2,38.6,14.8,39.3,14.8z"/>
<path class="st0" d="M25.3,18.9c-6.9,2.1-8.4-1.9-8.4-1.9s-0.2,6.1-6.1,2.7c2,4.8,0.4,6-3.9,5.2c3.6,3.5-1.2,8.4-1.2,8.4
	s5.5-3.4,7.7,2.4c-0.2-6.6,2.8-5.5,6.8-3.8c-1-4.4,0.4-5.6,4-4.5C20.5,22.8,25.3,18.9,25.3,18.9z"/>
<path class="st0" d="M55.4,18.9c6.9,2.1,8.4-1.9,8.4-1.9s0.2,6.1,6.1,2.7c-2,4.8-0.4,6,3.9,5.2c-3.6,3.5,1.2,8.4,1.2,8.4
	s-5.5-3.4-7.7,2.4c0.2-6.6-2.8-5.5-6.8-3.8c1-4.4-0.4-5.6-4-4.5C60.2,22.8,55.4,18.9,55.4,18.9z"/>
</svg>
