<?xml version="1.0" encoding="utf-8"?>
<!-- Generator: Adobe Illustrator 24.1.0, SVG Export Plug-In . SVG Version: 6.00 Build 0)  -->
<svg version="1.1" id="レイヤー_1" xmlns="http://www.w3.org/2000/svg" xmlns:xlink="http://www.w3.org/1999/xlink" x="0px"
	 y="0px" width="182.8px" height="87.2px" viewBox="0 0 182.8 87.2" style="enable-background:new 0 0 182.8 87.2;"
	 xml:space="preserve">
<style type="text/css">
	.st0{fill:#FFFFFF;}
</style>
<path class="st0" d="M52,26l-2.6-3.8c-5.3,4.2-10.9,6.6-16.9,7V18.5h-4.2v28.4c0,3.8,1.6,5.6,4.9,5.6h12.4c4.2,0,6.6-3.7,7.3-11
	l-4.5-0.9c-0.5,5.5-1.7,8.2-3.8,8.2H34.7c-1.4,0-2.1-0.6-2.1-1.9V33.5C39.8,32.6,46.2,30.1,52,26L52,26z M18.3,18.3
	C13.7,27,7.7,33,0,36.3l2.6,3.8c3.2-1.6,6.2-3.7,8.9-6.2v19.5h4.2V29.5c2.3-2.8,4.4-5.9,6.3-9.4L18.3,18.3z M33,6.6H20.4V0h-4.2v6.6
	H1.4v3.8h14.8v6.1h4.2v-6.1H33v6.1h4.2v-6.1H52V6.6H37.3V0H33V6.6z"/>
<path class="st0" d="M95,31.2c4.4-5.1,7.9-11.2,10.4-18l-4-1.9c-2.4,6.9-5.9,12.9-10.6,17.9c-4.3-1.9-8.9-3.8-13.8-5.5L75,27.4
	c4.5,1.4,8.8,3,12.8,4.9c-3.8,3.5-8.2,6.5-13.3,9l3,3.5c5.5-2.8,10.4-6.3,14.5-10.4c4.4,2.3,8.5,4.8,12.2,7.6l2.8-3.8
	C103.5,35.7,99.5,33.4,95,31.2L95,31.2z M80.8,22.5l3.8-2.6c-1.6-2.5-3.5-5.1-5.9-7.7L75.2,15C77.4,17.3,79.3,19.8,80.8,22.5
	L80.8,22.5z M71.2,6.6h39.4v41.3H71.2V6.6z M110.6,53.4h4.2V3H67v50.4h4.2v-2.1h39.4V53.4z M91.1,19.7l4-2.6
	c-1.9-2.8-4.1-5.6-6.6-8.4L85,11.5C87.4,14.1,89.4,16.9,91.1,19.7L91.1,19.7z"/>
<path class="st0" d="M179,34h-27.2v14.8h-3v3.5h34v-3.5H179V34z M155.8,48.8V37.5h3.8v11.3H155.8z M175,37.5v11.3h-3.8V37.5H175z
	 M163.6,48.8V37.5h3.8v11.3H163.6z M153.5,18.8v-4.9h7.3v4.9H153.5z M153.5,10.5V5.2h3.3v5.4H153.5z M164.5,22V10.5h-4.2V5.2h5.4
	V1.6h-15.9v28.8h16.9V27h-6.3V22H164.5z M153.5,27V22h3.3V27H153.5z M168,25.3h12.4v-3.5H168V25.3z M169.9,20.2c1-2.3,2-4.8,2.8-7.3
	h10.1V9.4h-9.1c0.7-2.8,1.3-5.7,1.8-8.7L171.3,0c-0.8,6.6-2.7,12.7-5.6,18.5L169.9,20.2z M131.4,45l4-0.9c-0.3-4.1-1-8.7-2.1-13.8
	l-3.5,0.7C130.7,35.9,131.3,40.6,131.4,45L131.4,45z M142.2,41.7l3.8,0.7c0.9-3.8,1.6-7.7,1.9-11.7l-4.2-0.7
	C143.5,33.9,143,37.8,142.2,41.7L142.2,41.7z M134.8,18h2.2v6.1h-7.3v3.5h7.3v19.9c-2.5,0.6-4.9,1.1-7.3,1.4l0.9,4.5
	c5.8-1.3,11.5-3,17.1-5.2v-4.2c-2.3,0.9-4.6,1.7-6.8,2.4V27.7h6.8v-3.5h-6.8V18h5.2v-3.8h-9.6c1.5-3.3,2.6-6.9,3.5-10.5
	c2,2.3,3.4,5.2,4.2,8.7l4.2-1.6c-1.1-3.8-3.2-7.3-6.3-10.8h-5.4c-1.3,7.5-3.9,13.8-8,18.8l4.2,2.3C133.7,20.1,134.3,19.1,134.8,18
	L134.8,18z"/>
<path class="st0" d="M8.4,80c0,2.3,0,3.9-0.1,5c-0.1,1.1-0.2,1.4-0.7,1.6c-0.2,0-0.4,0.1-0.6,0.1c-0.2,0-0.3,0.1-0.3,0.1
	c0,0.1,0.1,0.2,0.4,0.2c0.6,0,1.7,0,2.1-0.1h0.2c0.1,0,1.6,0.1,3,0.1c0.3,0,0.4,0,0.4-0.2c0-0.1-0.1-0.1-0.3-0.2c-0.3,0-0.7,0-1-0.1
	c-0.6-0.1-0.9-0.6-1-1.7c-0.1-1.1-0.1-2.8-0.1-4.8v-2c0-0.2,0-0.2,0.2-0.2c0.4,0,3,0,3.6,0.1c1.2,0.2,1.3,1,1.4,1.5
	c0,0.2,0,0.4,0.2,0.4c0.1,0,0.1-0.1,0.2-0.4c0-0.4,0-0.9,0.1-1.7c0.1-0.8,0.2-1.2,0.2-1.3c0-0.1,0-0.2-0.1-0.2
	c-0.1,0-0.1,0.1-0.3,0.2c-0.3,0.4-0.6,0.4-1.9,0.5c-1,0-2.4,0-3.3,0c-0.1,0-0.2-0.1-0.2-0.2v-6.6c0-0.2,0.1-0.3,0.2-0.3
	c1.2,0,2.4,0,3.7,0.1c0.7,0,1.1,0.2,1.4,0.5c0.3,0.3,0.4,0.9,0.5,1.2c0,0.2,0,0.3,0.2,0.3c0.1,0,0.2-0.2,0.2-0.5
	c0-0.7,0-1.1,0.1-1.8c0-0.3,0.1-0.6,0.1-0.7c0-0.1,0-0.2-0.1-0.2c0,0-0.1,0-0.2,0.1c-0.2,0.1-0.6,0.1-1.2,0.1c-0.6,0-5.4,0-5.9,0
	c-0.9,0-1.8-0.1-2.7-0.1c-0.3,0-0.4,0-0.4,0.2c0,0.1,0.2,0.1,0.4,0.2s0.5,0,0.6,0c0.8,0.2,1,0.6,1,1.4c0,0.8,0,1.4,0,5.2V80z"/>
<path class="st0" d="M23.3,77.4c0-3.2,0-3.7,0-4.3c0-0.7,0.2-1.1,0.9-1.2c0.2,0,0.5,0,0.6,0c0.1,0,0.3-0.1,0.3-0.2s-0.1-0.2-0.3-0.2
	c-0.7,0-2.1,0.1-2.5,0.1c0,0-1.5-0.1-2.5-0.1c-0.2,0-0.4,0-0.4,0.2c0,0.1,0.1,0.2,0.3,0.2c0.2,0,0.5,0,0.6,0c0.8,0.1,0.9,0.5,1,1.2
	c0,0.6,0,1.2,0,4.3V81c0,1.8,0,3.5-0.1,4.4c-0.1,0.6-0.2,1.1-0.6,1.1c-0.2,0-0.4,0-0.6,0c-0.2,0-0.3,0.1-0.3,0.1
	c0,0.1,0.1,0.2,0.4,0.2c0.8,0,1.3-0.1,2.1-0.1c2.4,0,4.2,0.1,5.8,0.1c1.2,0,1.1-0.1,1.3-0.6c0.1-0.6,0.3-1.9,0.3-2.2
	c0-0.2,0-0.3-0.1-0.3c-0.1,0-0.2,0.1-0.2,0.3c0,0.4-0.2,0.8-0.5,1.2c-0.5,0.7-1.5,0.7-2.5,0.7c-1.7,0-2.1-0.1-2.5-0.5
	c-0.4-0.4-0.5-1.8-0.5-4.5V77.4z"/>
<path class="st0" d="M39.7,87.2c5.1,0,8.5-3.7,8.5-8.3c0-4.8-3.6-7.7-8.4-7.7c-5.9,0-8.4,4.8-8.4,8C31.4,82.9,33.8,87.2,39.7,87.2z
	 M40.3,86.4c-4,0-6.6-3.1-6.6-7.8c0-4.5,2.7-6.6,6-6.6c3.3,0,6.3,2.7,6.3,7.5C46,85.6,41.9,86.4,40.3,86.4z"/>
<path class="st0" d="M55.2,85.4c0.5,1.5,0.6,1.8,0.8,1.8c0.2,0,0.4-0.3,0.7-1.2c0.7-1.8,3.6-9.1,4.4-10.9L65.3,86
	c0.3,0.9,0.5,1.2,0.7,1.2c0.2,0,0.4-0.3,1-2c0.7-2,2.9-8.4,3.8-11c0.4-1.1,0.6-2.1,1.3-2.3c0.2,0,0.6-0.1,0.6-0.1
	c0.2,0,0.3-0.1,0.3-0.2c0-0.1-0.1-0.1-0.3-0.1c-0.6,0-1.8,0.1-2,0.1c-0.2,0-1.1-0.1-2-0.1c-0.3,0-0.4,0-0.4,0.1s0.1,0.2,0.3,0.2
	c1,0,1.2,0.3,1.2,0.6c0,0.3,0,0.4-0.2,1C69,75.9,67,82,66.5,83.9l-4.2-11.3c-0.3-0.8-0.4-1.1-0.6-1.1c-0.1,0-0.2,0.1-0.6,1
	l-4.4,11.3c-0.4-1.2-2.4-8.3-2.7-9.6c-0.2-0.9-0.4-1.6-0.4-1.8c0-0.2,0-0.4,0.2-0.5c0.3-0.1,0.6-0.1,0.8-0.1c0.2,0,0.3,0,0.3-0.2
	c0-0.1,0-0.2-0.3-0.2c-1.1,0-2.2,0.1-2.4,0.1c-0.2,0-1.3-0.1-2.6-0.1c-0.2,0-0.4,0-0.4,0.1c0,0.1,0.2,0.2,0.3,0.2
	c0.2,0,0.6,0,0.9,0.1c0.7,0.2,0.8,0.6,1.2,1.6L55.2,85.4z"/>
<path class="st0" d="M76.4,81c0,1.8,0,2.8,0,3.6c0,1.5-0.3,1.8-0.8,1.9c-0.2,0-0.3,0.1-0.5,0.1c-0.1,0-0.2,0.1-0.2,0.2
	c0,0.1,0.1,0.2,0.3,0.2c0.6,0,1-0.1,1.6-0.1c0.9,0,2,0,2.8,0.1c0.8,0,1.5,0,3.1,0c0.8,0,1,0,1.1-0.5c0.1-0.4,0.3-1.9,0.3-2.1
	c0-0.1,0-0.4-0.1-0.4c-0.1,0-0.2,0.1-0.2,0.3c-0.2,0.9-0.4,1.4-1.1,1.6c-0.6,0.2-1.4,0.1-1.8,0.1c-0.8,0-1.4,0-1.8-0.2
	c-0.5-0.2-0.6-0.7-0.7-1.6c0-0.4,0-2.5,0-3.3v-1.8c0-0.1,0-0.2,0.2-0.2c0.4,0,2.3,0,2.9,0.1c0.9,0.1,1.1,0.4,1.2,0.7
	c0,0.2,0.1,0.4,0.1,0.6c0,0.2,0,0.3,0.1,0.3c0.1,0,0.1-0.1,0.2-0.3c0-0.3,0-0.8,0.1-1.5c0.1-0.7,0.2-1.2,0.2-1.3
	c0-0.1,0-0.1-0.1-0.1c-0.1,0-0.2,0-0.3,0.2c-0.2,0.3-0.6,0.3-1.1,0.4c-0.5,0-3,0.1-3.2,0.1c-0.1,0-0.1-0.1-0.1-0.2v-5.4
	c0-0.1,0-0.2,0.1-0.2c0,0,2.4,0,2.7,0c1.2,0.1,1.4,0.2,1.6,0.7c0.1,0.2,0.1,0.4,0.2,0.8c0,0.2,0,0.3,0.2,0.3c0.1,0,0.2-0.1,0.2-0.4
	c0-0.5,0-0.8,0.1-1.2c0-0.6,0.2-0.9,0.2-1.1c0-0.1,0-0.2-0.1-0.2c-0.1,0-0.1,0-0.3,0.1c-0.2,0.1-0.5,0.1-0.9,0.1c-0.5,0-4.8,0-4.9,0
	c-1.3,0-2-0.1-2.5-0.1c-0.2,0-0.4,0-0.4,0.2c0,0.1,0.1,0.1,0.3,0.1c0.2,0,0.4,0,0.6,0c0.7,0.1,0.9,0.5,0.9,1.2c0,0.6,0,1.2,0,4.4V81
	z"/>
<path class="st0" d="M88.9,81c0,1.8,0,3.8-0.1,4.6c-0.1,0.6-0.2,0.8-0.6,0.9c-0.2,0-0.4,0-0.5,0c-0.1,0-0.3,0.1-0.3,0.1
	c0,0.1,0.1,0.2,0.3,0.2c0.6,0,1.7-0.1,2.1-0.1c0.1,0,1.4,0.1,2.7,0.1c0.2,0,0.3-0.1,0.3-0.2c0-0.1-0.1-0.1-0.3-0.1
	c-0.2,0-0.5,0-0.7,0C91,86.5,91,86,90.9,85.4c-0.1-0.9-0.1-2.6-0.1-4.5v-0.3c0-0.1,0-0.1,0.1-0.1l2.5,0c0.1,0,0.2,0,0.3,0.1
	c0.4,0.5,1.4,1.8,2.3,3c1.2,1.6,2,2.7,3,3.1c0.5,0.2,1.1,0.3,2.2,0.3h1.7c0.3,0,0.4,0,0.4-0.2c0-0.1-0.1-0.2-0.3-0.2
	c-0.1,0-0.6,0-0.7,0c-0.7-0.1-1.4-0.3-2.5-1.5c-1.2-1.3-2.7-3-4.4-5.2c1.9-1.5,2.5-3.2,2.5-4.5c0-1.6-1-2.6-1.4-2.9
	c-1.1-0.8-2.6-0.9-3.9-0.9c-0.7,0-2.3,0.1-2.5,0.1c0,0-1.5-0.1-2.5-0.1c-0.2,0-0.3,0.1-0.3,0.2s0.1,0.1,0.3,0.1c0.2,0,0.4,0,0.6,0
	c0.7,0.1,0.9,0.5,1,1.2c0,0.6,0,1.2,0,4.4V81z M90.8,72.6c0-0.1,0.1-0.2,0.1-0.2c0.3-0.1,0.8-0.1,1.4-0.1c2.1,0,3.5,1.4,3.5,4.1
	c0,1.5-0.5,2.6-1.2,3c-0.5,0.3-1.1,0.4-1.6,0.4c-0.9,0-1.8-0.1-2.1-0.3c-0.1,0-0.1-0.2-0.1-0.3V72.6z"/>
<path class="st0" d="M112.7,81c0,1.9,0,3.5-0.1,4.4c-0.1,0.6-0.2,1.1-0.6,1.2c-0.2,0-0.3,0-0.4,0c-0.3,0-0.3,0.1-0.3,0.2
	c0,0.1,0.1,0.1,0.3,0.1c0.8,0,1.4-0.1,2.2-0.1c0.1,0,0.7,0,1.3,0.1c0.6,0,1.1,0,1.5,0c3.6,0,5.4-2.2,5.4-4.5c0-2.4-2.1-3.8-3.7-4.3
	c1-0.8,2-1.9,2-3.7c0-1-0.7-3-4.3-3c-0.9,0-1.7,0.1-2.3,0.1c0,0-1.5-0.1-2.5-0.1c-0.2,0-0.4,0-0.4,0.2c0,0.1,0.1,0.2,0.3,0.2
	c0,0,0.4,0,0.6,0c0.7,0.1,0.9,0.5,0.9,1.1c0,0.6,0,1.2,0,4.4V81z M114.6,72.5c0-0.1,0.1-0.2,0.3-0.2c0.2-0.1,0.7-0.1,0.9-0.1
	c2,0,2.8,1.8,2.8,3.5c0,0.8-0.2,1.5-0.6,1.9c-0.5,0.5-0.8,0.6-2,0.6c-0.8,0-1.1,0-1.2-0.1c-0.1,0-0.1-0.1-0.1-0.2V72.5z M114.6,79
	c0-0.1,0-0.1,0.1-0.1c0.3,0,1.2,0,1.6,0c0.5,0,0.9,0.1,1.6,0.5c1.6,1.1,2.1,3,2.1,4.2c0,2.2-1.8,2.7-2.8,2.7c-0.2,0-1.2,0-1.8-0.3
	c-0.7-0.3-0.7-0.6-0.8-1.7c0-0.2,0-2.8,0-4.3V79z"/>
<path class="st0" d="M133.2,87.2c5.1,0,8.5-3.7,8.5-8.3c0-4.8-3.6-7.7-8.4-7.7c-5.9,0-8.4,4.8-8.4,8
	C124.9,82.9,127.3,87.2,133.2,87.2z M133.8,86.4c-4,0-6.6-3.1-6.6-7.8c0-4.5,2.7-6.6,6-6.6c3.3,0,6.3,2.7,6.3,7.5
	C139.4,85.6,135.4,86.4,133.8,86.4z"/>
<path class="st0" d="M153,87.2c5.1,0,8.5-3.7,8.5-8.3c0-4.8-3.6-7.7-8.4-7.7c-5.9,0-8.4,4.8-8.4,8C144.7,82.9,147.1,87.2,153,87.2z
	 M153.6,86.4c-4,0-6.6-3.1-6.6-7.8c0-4.5,2.7-6.6,6-6.6c3.3,0,6.3,2.7,6.3,7.5C159.2,85.6,155.2,86.4,153.6,86.4z"/>
<path class="st0" d="M168.3,77.4c0-3.2,0-3.7,0-4.4c0-0.7,0.1-1.1,0.8-1.2c0.2,0,0.3,0,0.4,0c0.2,0,0.3-0.1,0.3-0.2
	c0-0.1-0.1-0.2-0.4-0.2c-0.7,0-2.1,0.1-2.2,0.1c-0.1,0-1.4-0.1-2.2-0.1c-0.3,0-0.4,0-0.4,0.2c0,0.1,0.1,0.1,0.3,0.2
	c0.1,0,0.3,0,0.6,0.1c0.5,0.1,0.6,0.5,0.7,1.1c0,0.6,0,1.2,0,4.4V81c0,1.8,0,3.5-0.1,4.4c-0.1,0.6-0.1,1.1-0.6,1.2
	c-0.2,0-0.5,0.1-0.6,0.1c-0.2,0-0.3,0.1-0.3,0.2c0,0.1,0.2,0.2,0.4,0.2c0.7,0,2.1-0.1,2.2-0.1c0.1,0,1.5,0.1,2.7,0.1
	c0.2,0,0.3-0.1,0.3-0.2s0-0.1-0.3-0.2c-0.1,0-0.6,0-0.9-0.1c-0.6-0.1-0.7-0.4-0.8-1.1c-0.1-0.9-0.1-2.5-0.1-4.4v-1.9
	c1.9,2.2,5.7,6.2,6.8,6.9c1,0.7,1.4,0.9,3.3,0.9h1.6c0.3,0,0.4,0,0.4-0.1c0-0.1-0.1-0.2-0.3-0.2c-0.4,0-0.3,0-0.6-0.1
	c-1-0.2-1.8-0.6-3.5-2.2c-1-0.9-4.9-4.8-6.2-6.1c1.1-1,3.1-3,4.9-4.6c1.2-1.1,1.6-1.4,2.1-1.6c0.3-0.1,0.8-0.2,1.2-0.2
	c0.2,0,0.3-0.1,0.3-0.2s0-0.1-0.4-0.1c-0.3,0-1.6,0.1-2.4,0.1c-0.8,0-1.5-0.1-1.6-0.1c-0.2,0-0.2,0.1-0.2,0.1c0,0.1,0.1,0.1,0.3,0.2
	c0.3,0.1,0.4,0.2,0.4,0.4c0,0.3-0.1,0.4-1.2,1.7c-1.1,1.2-3.7,3.7-4.8,4.7V77.4z"/>
</svg>
