<?xml version="1.0" encoding="utf-8"?>
<!-- Generator: Adobe Illustrator 24.1.0, SVG Export Plug-In . SVG Version: 6.00 Build 0)  -->
<svg version="1.1" id="h_x5F_rank_x5F_column" xmlns="http://www.w3.org/2000/svg" xmlns:xlink="http://www.w3.org/1999/xlink"
	 x="0px" y="0px" width="192px" height="78px" viewBox="0 0 192 78" style="enable-background:new 0 0 192 78;"
	 xml:space="preserve">
<style type="text/css">
	.st0{fill-rule:evenodd;clip-rule:evenodd;fill:#595757;}
	.st1{fill:#595757;}
	.st2{fill:#E9B9BE;}
</style>
<rect y="77" class="st0" width="192" height="1"/>
<path class="st1" d="M35.5,23.4c1.1,3.7,3,7.1,5.6,9.9c1.3,1.4,3,2.9,4.7,3.9c0.1,0.1,0.3,0.2,0.5,0.2c0.5,0,1.4-1,1.4-1.6
	c0-0.3-0.3-0.5-0.6-0.6c-4.2-2.8-7.3-6.4-9.2-11.1c-0.9-2.2-1.4-4.8-1.6-7.1c0-0.2,0-0.5,0-0.6c0-0.7,0-1.4,0.1-2.1
	c0-0.2,0.1-0.3,0.3-0.4c0.2-0.1,0.5-0.2,0.5-0.5c0-0.3-0.3-0.3-0.6-0.4c-0.4-0.1-1.6-0.3-2-0.3c-0.5,0-0.6,0.2-0.6,0.8s0,1.2,0,1.9
	c0,4.8-1.3,9.7-4.1,13.7c-1.8,2.6-3.9,4.3-6.5,5.9c-0.4,0.2-0.6,0.4-0.6,0.6c0,0.5,0.9,1.6,1.5,1.6c0.4,0,1.1-0.5,1.4-0.7
	c4.9-3.3,7.8-7.5,9.5-13.1c0-0.1,0.1-0.2,0.2-0.2S35.5,23.3,35.5,23.4z"/>
<path class="st1" d="M69.7,20.8c1,0,2,0.1,2.9,0.1c0.6,0,0.6-0.4,0.6-1c0-0.6,0-1-0.6-1c-1,0-2,0.1-2.9,0.1h-8.2c-1,0-2-0.1-2.9-0.1
	c-0.6,0-0.6,0.3-0.6,1c0,0.6,0,1,0.6,1c1,0,2-0.1,2.9-0.1H69.7z M70.6,24.5c0.5,0,0.7,0.2,0.7,0.7c0,0.7,0,1.4,0,2.2
	c0,2.4,0.2,6.2,1.2,8.3c0.5,1.1,1.2,1.8,2.4,1.8c1.7,0,2.4-1.6,2.8-3c0.2-0.7,0.5-2.2,0.5-2.9c0-0.6-0.8-0.9-1.3-0.9
	c-0.6,0-0.6,0.2-0.6,0.7c-0.1,0.6-0.4,3.7-1.2,3.7c-1.2,0-1.4-6-1.4-7c0-1.7,0.2-3.7,0.2-4.4c0-1.2-0.9-1.2-1.9-1.2
	c-0.6,0-1.2,0.1-1.7,0.1H58.9c-1.1,0-2.2-0.1-3.4-0.1c-0.6,0-0.6,0.3-0.6,1.1s0.1,1.1,0.6,1.1c1.1,0,2.2-0.1,3.4-0.1
	C58.9,24.5,70.6,24.5,70.6,24.5z M72.6,17.3c1.1,0,2.2,0.1,3.2,0.1c0.6,0,0.6-0.3,0.6-1s0-1-0.6-1c-1.1,0-2.2,0.1-3.2,0.1H60.8
	c-0.2,0-0.4-0.1-0.4-0.3c0-0.1,0-0.1,0.1-0.2c0.1-0.2,0.3-0.4,0.3-0.5c0.3-0.5,0.3-0.6,0.7-0.6c0.2,0,0.4-0.1,0.4-0.3
	c0-0.3-0.5-0.4-0.9-0.5c-0.3-0.1-1.3-0.4-1.5-0.4c-0.2,0-0.3,0.1-0.3,0.3c-1.2,2.6-3.5,5.3-5.7,7.1c-0.3,0.3-0.6,0.5-0.6,0.8
	c0,0.4,1,1.1,1.3,1.1c0.7,0,3.6-3.2,4.1-3.8c0.4-0.5,0.6-0.5,1.2-0.5L72.6,17.3L72.6,17.3z M64.2,30c0.6-0.8,1.2-1.6,1.7-2.4
	c0.1-0.2,0.3-0.5,0.6-0.6c0.2,0,0.6-0.1,0.6-0.3c0-0.3-0.4-0.5-0.6-0.6C66,26,65,25.4,64.7,25.4s-0.4,0.5-0.6,0.7
	C63.7,27,63,28,62.4,28.8c-0.2,0.2-0.4,0.3-0.6,0.3c-0.2,0-0.3-0.1-0.5-0.2c-0.7-0.5-3.8-2.3-4.4-2.3c-0.5,0-1.2,1-1.2,1.3
	s0.5,0.6,0.8,0.7c1,0.5,2.3,1.1,3.3,1.7c0.1,0.1,0.3,0.3,0.3,0.5c0,0.2-0.1,0.3-0.2,0.4c-1.5,1.4-3.6,2.7-5.5,3.6
	c-0.5,0.2-0.9,0.4-0.9,0.8s0.7,1.5,1.2,1.5c0.3,0,0.6-0.2,0.8-0.3c2.4-1.3,4.3-2.5,6.3-4.3c0.2-0.1,0.4-0.3,0.6-0.3
	c0.2,0,0.4,0.1,0.5,0.2c1.2,1,1.8,1.7,2.9,2.7c0.2,0.2,0.5,0.5,0.8,0.5c0.6,0,1.2-1,1.2-1.4c0-0.7-2.9-2.9-3.4-3.4
	c-0.2-0.2-0.3-0.3-0.3-0.6C64,30.3,64.1,30.2,64.2,30z"/>
<path class="st1" d="M93.1,18.5c0.3,0,0.4,0.3,0.4,0.6c0,2.7-0.7,5.6-1.7,8.3c-0.5,1.2-1.9,4.2-3.4,4.2c-1.6,0-2.1-2.8-2.1-4.1
	c0-3.9,2.1-7.2,5.7-8.6C92.3,18.7,92.9,18.5,93.1,18.5z M95.5,15.9C89,15.9,84,21,84,27.5c0,1.3,0.3,2.7,0.8,3.9
	c0.7,1.3,2,2.5,3.6,2.5c1.5,0,2.6-1,3.5-2c2.7-3.3,3.7-8.5,4-12.6c0-0.5,0-1.1,0.8-1.1c0.3,0,0.9,0.2,1.2,0.3c3.2,1,5,3.9,5,7.1
	c0,4-2.9,6.8-6.7,7.6c-0.3,0.1-0.7,0.1-0.7,0.4c0,0.5,1,1.8,1.6,1.8c0.6,0,2.3-0.7,2.9-1c3.4-1.8,5.4-5.1,5.4-8.9
	c0-2.6-0.9-4.9-2.7-6.8C100.6,16.7,98.2,15.9,95.5,15.9z"/>
<path class="st1" d="M118.7,26.7c0.8,0,1.5,0,2.1,0s0.6-0.3,0.6-1c0-0.6,0-1-0.6-1c-0.4,0-1.3,0-2.1,0h-2.8c-0.8,0-1.6,0-2.1,0
	c-0.6,0-0.6,0.3-0.6,1c0,0.7,0,1,0.6,1c0.6,0,1.3,0,2.1,0H118.7z M118.7,22.9c0.7,0,1.4,0.1,2.1,0.1c0.6,0,0.6-0.3,0.6-1
	c0-0.6,0-1-0.6-1c-0.6,0-1.3,0.1-2.1,0.1H116c-0.7,0-1.5-0.1-2.1-0.1c-0.6,0-0.6,0.3-0.6,1s0,1,0.6,1s1.3-0.1,2.1-0.1H118.7z
	 M120.1,19.1c0.7,0,1.5,0.1,2.2,0.1c0.6,0,0.6-0.3,0.6-1s0-1-0.6-1c-0.7,0-1.5,0.1-2.2,0.1h-5.6c-0.7,0-1.5-0.1-2.2-0.1
	c-0.6,0-0.6,0.3-0.6,1c0,0.6,0,1,0.6,1c0.7,0,1.5-0.1,2.2-0.1H120.1z M119.1,15.5c0.7,0,1.3,0,1.8,0c0.6,0,0.6-0.4,0.6-1
	c0-0.6,0-1-0.6-1c-0.3,0-1.2,0.1-1.7,0.1h-3.4c-0.6,0-1.4-0.1-1.8-0.1c-0.6,0-0.6,0.4-0.6,1s0,1,0.6,1c0.3,0,1.1,0,1.8,0H119.1z
	 M132,24.5c0.3,0,0.5,0,0.6,0.3c0.1,0.4,0.8,0.3,1.3,0.3c0.9,0,1.1-0.1,1.1-0.6c0-0.8-0.1-1.8-0.1-2.8v-4.5c0-0.7,0-1.4,0-2.1
	c0-1.1-0.3-1.3-1.4-1.3c-0.6,0-1.3,0-1.9,0h-4.4c-1,0-2-0.1-3-0.1c-0.6,0-0.6,0.3-0.6,1.1s0,1.1,0.6,1.1c1,0,2-0.1,3-0.1h4.7
	c0.6,0,0.8,0.2,0.8,0.8v4.8c0,0.6-0.2,0.8-0.8,0.8h-4c-0.7,0-1.3,0-2,0c-1,0-1.4,0.2-1.4,1.1c0,0.6,0,1.3,0,1.9v5.8
	c0,0.9-0.1,1.8-0.1,2.7c0,2.4,1.1,2.7,3.3,2.7h4.6c1.3,0,2.3,0.1,3.1-1.2c0.5-0.9,1.3-3.3,1.3-4.3c0-0.7-1-1-1.5-1
	c-0.5,0-0.6,0.3-0.7,0.7c-0.5,3.3-0.9,3.6-2.6,3.6h-3.5c-1.7,0-1.7-0.1-1.7-2.7v-6.4c0-0.5,0.2-0.8,0.8-0.8L132,24.5L132,24.5z
	 M116.1,34.1c-0.5-0.1-0.7-0.3-0.8-0.8V31c0.1-0.5,0.3-0.8,0.8-0.8h2.5c0.5,0,0.7,0.3,0.8,0.8v2.2c-0.1,0.5-0.3,0.8-0.8,0.8H116.1z
	 M119.3,36.4c0,0.1,0,0.3,0,0.4c0,0.6,0.3,0.6,1.1,0.6c0.8,0,1.1-0.1,1.1-0.6c0-0.6,0-1.2,0-1.8v-3.8c0-0.5,0-1,0-1.5
	c0-0.9-0.4-1.2-1.3-1.2c-0.4,0-0.8,0-1.2,0h-3.4c-0.4,0-0.8,0-1.3,0c-0.9,0-1.2,0.4-1.2,1.2c0,0.5,0,1,0,1.5v3.8c0,0.6,0,1.2,0,1.8
	c0,0.6,0.2,0.6,1.1,0.6c0.8,0,1.2,0,1.2-0.6c0-0.1,0-0.3,0-0.4c0-0.4,0.2-0.5,0.6-0.5h2.9C119.2,35.9,119.3,36,119.3,36.4z"/>
<path class="st1" d="M155.1,21c0-0.3,0.3-0.6,0.6-0.6h3.6c0.3,0,0.6,0.2,0.6,0.6v0.6c0,0.3-0.3,0.6-0.6,0.6h-3.6
	c-0.3,0-0.6-0.2-0.6-0.6V21z M152.2,20.4c0.3,0,0.6,0.2,0.6,0.6v0.6c0,0.3-0.3,0.6-0.6,0.6h-3.6c-0.3,0-0.6-0.2-0.6-0.6V21
	c0-0.3,0.2-0.6,0.6-0.6H152.2z M160,29.8c0.3,0,0.6,0.2,0.6,0.6v0.2c0,0.3-0.2,0.6-0.6,0.6h-4.3c-0.3,0-0.6-0.3-0.6-0.6v-0.2
	c0-0.3,0.3-0.6,0.6-0.6H160z M155.1,27.5c0-0.3,0.3-0.6,0.6-0.6h4.3c0.3,0,0.6,0.3,0.6,0.6v0.2c0,0.3-0.2,0.6-0.6,0.6h-4.3
	c-0.3,0-0.6-0.3-0.6-0.6V27.5z M162.8,27.5c0-0.4,0-0.8,0-1.2c0-1-0.5-1.1-1.4-1.1c-0.6,0-1.2,0-1.8,0h-4c-0.4,0-0.6-0.2-0.6-0.6
	v-0.3c0-0.4,0.2-0.6,0.6-0.6h2.7c0.7,0,1.3,0,1.9,0c1.1,0,1.8-0.1,1.8-0.9c0-0.2,0-0.4,0-0.8v-1.7c0-0.4,0-0.6,0-0.8
	c0-0.8-0.7-0.9-1.8-0.9c-0.5,0-1.1,0-1.9,0h-2.7c-0.4,0-0.6-0.2-0.6-0.6v-0.3c0-0.4,0.2-0.6,0.6-0.6h6.2c1.1,0,2.2,0.1,3.4,0.1
	c0.6,0,0.6-0.3,0.6-0.9c0-0.7,0-1-0.6-1c-1.1,0-2.2,0.1-3.4,0.1h-6c-0.5,0-0.8-0.2-0.8-0.7c0-0.7,0-0.9,0.3-1.2
	c0.2-0.1,0.3-0.2,0.3-0.4c0-0.3-0.4-0.3-0.6-0.3c-0.3-0.1-1.6-0.2-2-0.2c-0.2,0-0.5,0.1-0.5,0.4c0,0.1,0,0.2,0,0.3
	c0.1,0.5,0.1,1,0.1,1.5c-0.1,0.5-0.3,0.7-0.8,0.7h-5.9c-1.1,0-2.2-0.1-3.4-0.1c-0.5,0-0.6,0.3-0.6,1c0,0.6,0,0.9,0.6,0.9
	c1.1,0,2.2-0.1,3.4-0.1h6.1c0.4,0,0.6,0.2,0.6,0.6v0.3c0,0.4-0.2,0.6-0.6,0.6h-2.7c-0.7,0-1.3,0-1.9,0c-1.1,0-1.8,0.1-1.8,0.9
	c0,0.3,0,0.4,0,0.8v1.7c0,0.4,0,0.5,0,0.8c0,0.8,0.8,0.9,1.4,0.9c0.8,0,1.5,0,2.3,0h2.7c0.4,0,0.6,0.2,0.6,0.6v0.3
	c0,0.4-0.2,0.6-0.6,0.6h-6.1c-0.7,0-1.3,0-2,0c-0.5,0-0.6,0.1-0.6,0.9s0.1,0.9,0.6,0.9c0.7,0,1.3-0.1,2-0.1h6.1
	c0.4,0,0.6,0.2,0.6,0.6v0.2c0,0.4-0.2,0.6-0.6,0.6h-6.7c-1.1,0-2.3-0.1-3.4-0.1c-0.5,0-0.5,0.3-0.5,0.8s0,0.9,0.5,0.9
	c1.1,0,2.3-0.1,3.4-0.1h6.7c0.4,0,0.6,0.2,0.6,0.6v0.2c0,0.4-0.2,0.6-0.6,0.6h-4.8c-1.1,0-2.2-0.1-3.3-0.1c-0.6,0-0.6,0.2-0.6,0.9
	c0,0.6,0,0.9,0.6,0.9c1.1,0,2.2-0.1,3.3-0.1h4.6c0.6,0,0.7,0.2,0.8,0.8c-0.1,1.3,0,1.9-1.9,1.9c-0.6,0-1.2-0.1-1.5-0.1
	c-0.4,0-0.5,0.2-0.5,0.6c0,1.7,0.7,1.6,1.4,1.6c2,0,4.7-0.1,4.7-2.7c0-0.5,0-0.9,0-1.3c0-0.5,0.3-0.8,0.8-0.8h4.1
	c0.2,0,0.4,0.1,0.5,0.3c0.1,0.3,0.2,0.4,1.1,0.4c0.9,0,1.2,0,1.2-0.6c0-0.6-0.1-1.3-0.1-2v-0.4c0-0.5,0.2-0.8,0.8-0.8
	c0.9,0,1.5,0.1,1.9,0.1c0.6,0,0.7-0.1,0.7-0.8c0-0.5,0-0.8-0.5-0.8c-0.7,0-1.4,0.1-2.1,0C163,28.3,162.9,28,162.8,27.5z"/>
<path class="st2" d="M65.7,57.5c-0.5,0.2-0.9,0.3-1.2,0.3c-0.1,0-0.2-0.1-0.6-0.2c-2.4,1.1-3.9,3.4-4.4,7c-0.3,1.9-0.6,2.8-0.9,2.8
	c-0.3,0-0.6-0.2-0.8-0.5c-0.2-0.3-0.3-0.6-0.3-1c0.1-0.3,0.2-0.8,0.3-1.4c0.1-0.8,0.2-1.6,0.2-2.3c0-0.8-0.1-1.6-0.3-2.4
	c-0.3-0.3-0.5-0.7-0.6-1.1c-0.1-0.8-0.2-1.4-0.2-1.8c0-0.2,0.1-0.4,0.2-0.6c0.1-0.2,0.2-0.3,0.4-0.3c0.6,0,1,0.5,1.3,1.5
	c0.2,1.1,0.4,1.8,0.5,2.4c0.7-1.3,1.6-2.3,2.7-3.2c1.1-0.8,2.2-1.3,3.3-1.3c0.3,0,0.6,0.1,0.8,0.4c0.2,0.3,0.3,0.6,0.4,0.9
	C66.6,57,66.3,57.2,65.7,57.5z"/>
<path class="st2" d="M77.3,60.4c-0.4,1.2-0.6,2.4-0.6,3.7c0,0.5,0,0.9,0.1,1.4c0.2,0.8,0.3,1.3,0.3,1.3c0,0.5-0.3,0.8-0.9,0.8
	c-0.6,0-0.9-0.5-1-1.4c-0.1-0.5-0.1-1.2-0.3-2.3c-1.6,1.8-3.1,2.8-4.5,2.8c-0.8,0-1.4-0.3-1.9-1.1c-0.5-0.6-0.8-1.3-0.8-2.2
	c0-1.3,0.6-2.6,1.8-4.1c0.2-0.3,0.7-0.7,1.3-1.3c1.9-1.7,3.4-2.5,4.7-2.5c0.3,0,0.6,0.1,0.9,0.4c0.3,0.3,0.4,0.5,0.4,0.8
	c0,0.1,0,0.2-0.1,0.4c0.2,0.6,0.3,1.2,0.3,1.9c0.2,0.3,0.3,0.5,0.3,0.7C77.4,60,77.3,60.2,77.3,60.4z M74.7,57.7
	c-0.4,0-1,0.3-1.8,0.9c-0.7,0.5-1.3,1.1-1.8,1.6c-1.2,1.3-1.8,2.4-1.8,3.4c0,1,0.4,1.4,1.2,1.4c1.1,0,2.1-0.6,3.2-2
	c1.1-1.3,1.6-2.6,1.6-3.8C75.4,58.2,75.1,57.7,74.7,57.7z"/>
<path class="st2" d="M90,62.9c-0.1,1-0.2,2.2-0.4,3.7c-0.1,0.3-0.2,0.4-0.4,0.4c-0.3,0-0.6-0.1-0.8-0.4c-0.2-0.3-0.3-0.6-0.3-0.9
	c0-0.4,0.1-1,0.2-1.8l0.5-4.7c-2.7,1.9-4.6,3.8-5.6,5.9c-0.2,0.4-0.3,0.8-0.5,1.1c-0.2,0.4-0.3,0.6-0.4,0.6c-0.6,0-0.9-0.3-1.2-1
	c-0.3-1-0.5-2.3-0.5-3.9c0-1.7,0.3-4,0.9-6.9c0.1-0.3,0.2-0.5,0.4-0.5c0.3,0,0.6,0.2,0.9,0.5c0.2,0.3,0.3,0.6,0.3,1
	c-0.1,0.3-0.1,0.6-0.2,1c-0.4,1.9-0.7,4-0.7,6.3c2.2-2.9,4.5-5,6.8-6.4c0.3,0,0.6,0.2,0.9,0.4c0.3,0.3,0.4,0.6,0.4,0.8
	C90.3,59.5,90.2,61.1,90,62.9z"/>
<path class="st2" d="M101.6,56.6c-1.3,0.6-3.1,1.3-5.6,1.9c1.1,1.2,2.8,3,5.1,5.2c0.4,0.4,1,1,1.7,1.7c0.1,0.2,0.2,0.3,0.2,0.5
	c0,0.6-0.3,0.9-0.9,0.9c-0.3,0-0.8-0.4-1.5-1.1c-1.7-1.7-3.5-3.5-5.6-5.7c0,0.3,0,1.2,0,2.8c0,1.4,0,2.2,0,2.4
	c0,0.8-0.3,1.1-0.8,1.1c-0.4,0-0.7-0.3-0.9-0.8c-0.2-0.4-0.3-0.9-0.3-1.4c0-0.3,0.1-0.5,0.2-0.7c0-0.1,0-0.1,0-0.3
	c0-0.1,0-0.3,0-0.3c0,0,0-0.1,0-0.4c0-0.2,0-0.4,0-0.5c0-2,0.2-4.5,0.5-7.5c0.3-3,0.7-5.7,1.1-8c0.1-0.6,0.4-0.9,0.9-0.9
	c0.6,0,0.9,0.3,0.9,0.8c0,0-0.1,0.5-0.3,1.4c-0.5,2.8-0.9,5.8-1.2,9c3.3-0.8,5.7-1.8,7.3-2.9c0.3-0.3,0.5-0.4,0.6-0.4
	c0.7,0,1,0.3,1,0.9C104.2,55,103.3,55.8,101.6,56.6z"/>
<path class="st2" d="M109.5,59.2c-0.7,2.6-1,4.7-1,6.1c0.4,0.4,0.6,0.8,0.6,1.3c0,0.4-0.2,0.6-0.5,0.6c-0.4,0-0.8-0.4-1.2-1.1
	c-0.3-0.6-0.4-1.3-0.4-2.2c0-0.7,0.4-3,1.2-6.8c-0.1-0.3-0.1-0.6-0.1-0.6c0-0.3,0.1-0.5,0.4-0.6c1.1,0.1,1.6,0.6,1.6,1.5
	C109.9,57.9,109.7,58.5,109.5,59.2z M110.6,48.5c-1.1-0.2-1.6-0.8-1.6-1.8c0-0.2,0-0.3,0-0.5c0.1-0.6,0.4-1,1.2-1.3
	c0.9,0.1,1.4,0.7,1.4,1.9C111.6,47.8,111.3,48.4,110.6,48.5z"/>
<path class="st2" d="M123.6,62.9c-0.1,1-0.2,2.2-0.4,3.7c-0.1,0.3-0.2,0.4-0.4,0.4c-0.3,0-0.6-0.1-0.8-0.4c-0.2-0.3-0.3-0.6-0.3-0.9
	c0-0.4,0.1-1,0.2-1.8l0.5-4.7c-2.7,1.9-4.6,3.8-5.6,5.9c-0.2,0.4-0.3,0.8-0.5,1.1c-0.2,0.4-0.3,0.6-0.4,0.6c-0.6,0-0.9-0.3-1.2-1
	c-0.3-1-0.5-2.3-0.5-3.9c0-1.7,0.3-4,0.9-6.9c0.1-0.3,0.2-0.5,0.4-0.5c0.3,0,0.6,0.2,0.9,0.5c0.2,0.3,0.3,0.6,0.3,1
	c-0.1,0.3-0.1,0.6-0.2,1c-0.4,1.9-0.7,4-0.7,6.3c2.2-2.9,4.5-5,6.8-6.4c0.3,0,0.6,0.2,0.9,0.4c0.3,0.3,0.4,0.6,0.4,0.8
	C123.9,59.5,123.8,61.1,123.6,62.9z"/>
<path class="st2" d="M135.4,59.5c-0.1,0.2-0.3,1.2-0.3,2.9c-0.1,2.7-0.7,4.8-1.7,6.4c-1,1.6-2.6,2.8-4.5,3.7
	c-0.8,0.3-1.6,0.5-2.3,0.5c-0.6,0-0.9-0.3-0.9-0.9c0-0.3,0.1-0.6,0.4-0.8c0.3-0.3,0.6-0.4,0.8-0.4c0.1,0,0.3,0.1,0.7,0.2
	c3.6-0.9,5.6-3.5,5.8-7.7c-1.1,1.1-2.3,1.6-3.5,1.6c-0.9,0-1.6-0.3-2.1-1c-0.5-0.6-0.7-1.4-0.7-2.4c0-1.7,0.6-3.3,1.8-4.8
	c1.3-1.6,2.8-2.5,4.6-2.5c1.6,0,2.4,1,2.4,3.1c0.2,0.1,0.3,0.3,0.3,0.6C136,58.3,135.8,58.8,135.4,59.5z M133.6,56.6
	c-0.3-0.3-0.5-0.5-0.9-0.5c-1.1,0-2,0.6-2.8,1.7c-0.9,1.2-1.3,2.3-1.3,3.6c0,0.5,0.1,0.9,0.3,1.3c0.2,0.4,0.6,0.5,1,0.5
	c2,0,3.2-1.5,3.7-4.5c0-0.3,0.1-0.6,0.3-0.7C134,57.4,133.8,57,133.6,56.6z"/>
<rect class="st0" width="192" height="1"/>
</svg>
