<?xml version="1.0" encoding="utf-8"?>
<!-- Generator: Adobe Illustrator 24.1.0, SVG Export Plug-In . SVG Version: 6.00 Build 0)  -->
<svg version="1.1" id="h_x5F_new_x5F_column" xmlns="http://www.w3.org/2000/svg" xmlns:xlink="http://www.w3.org/1999/xlink"
	 x="0px" y="0px" width="192px" height="78px" viewBox="0 0 192 78" style="enable-background:new 0 0 192 78;"
	 xml:space="preserve">
<style type="text/css">
	.st0{fill-rule:evenodd;clip-rule:evenodd;fill:#595757;}
	.st1{fill:#595757;}
	.st2{fill:#E9B9BE;}
</style>
<rect y="77" class="st0" width="192" height="1"/>
<path class="st1" d="M42.3,22.6c0-0.2-0.3-1.1-0.5-1.4c-0.4-1-0.5-1.3-0.9-1.3c-0.4,0-1.4,0.3-1.4,0.7c0,0.1,0,0.2,0.1,0.3
	c0.2,0.6,0.4,1,0.5,1.3c0.3,0.9,0.4,1,0.8,1C41,23.3,42.3,23.1,42.3,22.6z M55.6,26c0.6,0,0.8,0.2,0.8,0.8v8.9
	c0,1.1-0.1,2.1-0.1,3.2c0,0.8,0.4,0.9,1.2,0.9c0.9,0,1.2-0.1,1.2-1c0-1-0.1-2.1-0.1-3.1v-8.9c0-0.5,0.2-0.8,0.7-0.8
	c0.6,0,1.4,0.1,1.9,0.1c0.6,0,0.6-0.3,0.6-1.1s0-1.1-0.6-1.1c-0.7,0-1.7,0.1-2.5,0.1h-4.4c-0.5,0-0.8-0.2-0.8-0.8v-2.9
	c0-1.3,0.1-1.3,1-1.4c1.7-0.2,4.1-0.8,5.7-1.3c0.1,0,0.2-0.1,0.3-0.1c0.1,0,0.3,0,0.5,0.1c0.1,0,0.3,0.1,0.4,0.1
	c0.2,0,0.3-0.1,0.3-0.3s-0.2-0.4-0.6-1c-0.7-0.9-0.9-1.1-1.1-1.1c-0.1,0-0.2,0-0.3,0.1c-1.2,0.7-5.2,1.5-6.7,1.7
	c-1,0.1-1.8,0.1-1.8,1.4v7.6c0,4.1-0.8,8-3.3,11.3c-0.1,0.2-0.4,0.4-0.4,0.6c0,0.5,1.3,1,1.7,1c0.9,0,2.5-3.7,2.8-4.5
	c1-2.5,1.4-5.1,1.4-7.8c0-0.5,0.3-0.7,0.8-0.7L55.6,26L55.6,26z M44.6,16.5c0-0.5,0-0.7,0.3-0.9c0.2-0.2,0.4-0.2,0.4-0.4
	c0-0.3-0.3-0.3-0.5-0.3c-0.4,0-1.8-0.2-2.1-0.2c-0.3,0-0.5,0.1-0.5,0.4c0,0.1,0,0.2,0,0.3c0.1,0.5,0.1,1,0.1,1.5
	c-0.1,0.6-0.3,0.8-0.8,0.8h-0.9c-0.8,0-1.5-0.1-2.2-0.1c-0.6,0-0.6,0.4-0.6,1s0,1,0.6,1c0.7,0,1.5-0.1,2.2-0.1h5.9
	c0.8,0,1.6,0.1,2.3,0.1c0.6,0,0.6-0.4,0.6-1c0-0.6,0-1-0.6-1c-0.7,0-1.5,0.1-2.2,0.1h-1.2c-0.5,0-0.8-0.2-0.8-0.7
	C44.6,16.8,44.6,16.5,44.6,16.5z M45.7,20.1c-0.4,1.3-0.5,1.6-1.1,2.9c-0.3,0.6-0.5,0.7-1.1,0.7h-2.8c-1,0-2-0.1-3-0.1
	c-0.6,0-0.6,0.3-0.6,1s0,1,0.6,1c1,0,2-0.1,3-0.1h5.7c1,0,2,0.1,3,0.1c0.6,0,0.6-0.3,0.6-1c0-0.7,0-1-0.6-1c-0.6,0-1.6,0.1-2.3,0.1
	c-0.3,0-0.5-0.2-0.5-0.5c0-0.2,0.5-1.3,0.7-1.9c0.1-0.2,0.2-0.3,0.4-0.3c0.1-0.1,0.3-0.1,0.3-0.3c0-0.3-1.8-0.9-2.1-0.9
	C45.8,19.8,45.7,20,45.7,20.1z M41.4,30.9c-1,1.7-2.1,3.4-3.5,4.9c-0.2,0.2-0.3,0.3-0.3,0.5c0,0.5,1,1.3,1.4,1.3
	c0.6,0,2.7-3.5,3.1-4.2c0-0.1,0.1-0.1,0.2-0.1c0.1,0,0.2,0.1,0.2,0.2v2.2c0,1-0.1,2.1-0.1,3.1c0,0.8,0.3,0.8,1.1,0.8
	s1.1-0.1,1.1-0.8c0-1-0.1-2.1-0.1-3.1v-2.7c0-0.1,0.1-0.3,0.2-0.3c0.1,0,0.1,0.1,0.2,0.1c0.3,0.4,1.6,2.4,2,2.4c0.5,0,1.2-1,1.2-1.4
	c0-0.2-0.1-0.3-0.3-0.4c-0.8-0.7-1.8-1.8-2.4-2.7c-0.1-0.1-0.1-0.2-0.1-0.3c0-0.3,0.3-0.3,0.5-0.4c0.9,0,1.9,0.1,2.8,0.1
	c0.6,0,0.6-0.3,0.6-1c0-0.7,0-1-0.6-1c-0.9,0-1.8,0.1-2.7,0.1h-0.7c-0.5,0-0.6-0.1-0.7-0.6c0-0.5,0-0.7,0.3-1
	c0.2-0.1,0.3-0.2,0.3-0.4c0-0.3-0.3-0.3-0.5-0.3c-0.4,0-1.5-0.1-1.8-0.1c-0.2,0-0.5,0.1-0.5,0.3c0,0.1,0,0.2,0,0.3
	c0.1,0.4,0.1,0.7,0.1,1.1c0,0.5-0.2,0.6-0.7,0.6H41c-1.2,0-2-0.1-2.5-0.1c-0.8,0-0.8,0.2-0.8,1c0,0.8,0,1,0.6,1
	c0.9,0,1.8-0.1,2.7-0.1c0.3,0,0.5,0.1,0.5,0.4C41.5,30.7,41.4,30.8,41.4,30.9z"/>
<path class="st1" d="M76.8,16.7c0-0.2-0.3-0.5-0.4-0.7c-0.1-0.1-0.2-0.2-0.3-0.4c-0.5-0.5-1-1.3-1.4-1.3c-0.4,0-1.5,0.5-1.5,0.9
	c0,0.1,0.1,0.3,0.3,0.4c0.4,0.5,0.8,0.9,1.2,1.4c0.2,0.3,0.3,0.6,0.7,0.6C75.7,17.6,76.8,17.1,76.8,16.7z M85.2,35.3
	c0.3,0,0.6,0.2,0.6,0.6v0.3c0,0.3-0.2,0.6-0.6,0.6h-9.1c-0.3,0-0.6-0.3-0.6-0.6v-0.3c0-0.3,0.2-0.6,0.6-0.6H85.2z M85.2,32.3
	c0.3,0,0.6,0.3,0.6,0.6v0.3c0,0.3-0.2,0.6-0.6,0.6h-9.1c-0.3,0-0.6-0.3-0.6-0.6v-0.3c0-0.3,0.2-0.6,0.6-0.6H85.2z M76.1,30.8
	c-0.3,0-0.6-0.3-0.6-0.6v-0.3c0-0.3,0.2-0.6,0.6-0.6h9.1c0.3,0,0.6,0.3,0.6,0.6v0.3c0,0.3-0.2,0.6-0.6,0.6H76.1z M71.1,24.5
	c-1.1,0-2.2-0.1-3.3-0.1c-0.5,0-0.6,0.3-0.6,0.9c0,0.6,0,0.9,0.6,0.9c1.1,0,2.2-0.1,3.3-0.1h2.3c0.2,0,0.5,0.1,0.5,0.4
	c0,0.1,0,0.2-0.1,0.3c-1.5,2.5-3.7,4.9-6.1,6.5c-0.2,0.1-0.7,0.4-0.7,0.7c0,0.5,0.9,1.3,1.4,1.3c0.7,0,3.8-3,4.4-3.7
	c0.1-0.1,0.1-0.1,0.2-0.1c0.2,0,0.3,0.2,0.3,0.3v4.9c0,0.7,0,1.4,0,2c0,0.6,0.3,0.6,1.2,0.6c1,0,1.1-0.1,1.2-0.6
	c0-0.4,0.2-0.6,0.6-0.6h9c0.4,0,0.5,0.2,0.6,0.6c0.1,0.5,0.1,0.6,1.2,0.6c0.9,0,1.2-0.1,1.2-0.6c0-0.7-0.1-1.3-0.1-2v-6.2
	c0-0.6,0-1.2,0-1.9c0-0.9-0.3-1.3-1.2-1.3c-0.7,0-1.4,0-2.1,0h-8.1c-0.3,0-0.5-0.1-0.5-0.4c0-0.1,0.1-0.2,0.1-0.3
	c0.1-0.1,0.1-0.2,0.1-0.3c0.2-0.4,0.4-0.5,0.8-0.5h10.9c1.1,0,2.2,0.1,3.3,0.1c0.5,0,0.6-0.3,0.6-0.9c0-0.7,0-0.9-0.6-0.9
	c-1.1,0-2.2,0.1-3.3,0.1h-6.8c-0.4,0-0.6-0.2-0.6-0.6v-0.5c0-0.4,0.2-0.6,0.6-0.6h3.9c1.1,0,2.1,0.1,3.1,0.1c0.6,0,0.5-0.3,0.5-0.9
	c0-0.5,0-0.9-0.5-0.9c-1,0-2.1,0.1-3.1,0.1h-3.9c-0.4,0-0.6-0.2-0.6-0.6v-0.5c0-0.4,0.2-0.6,0.6-0.6h6c1.1,0,2.2,0.1,3.2,0.1
	c0.5,0,0.6-0.3,0.6-0.9s0-0.9-0.6-0.9c-1.1,0-2.2,0.1-3.2,0.1H85c-0.2,0-0.4-0.1-0.4-0.4c0-0.1,0-0.2,0.1-0.3
	c0.3-0.4,0.6-1.1,0.8-1.3c0.1-0.2,0.2-0.2,0.4-0.3c0.2,0,0.5,0,0.5-0.3c0-0.4-2.2-1.1-2.3-1.1c-0.2,0-0.3,0.2-0.4,0.3
	c-0.3,0.8-0.9,2-1.4,2.6c-0.3,0.5-0.6,0.6-1.2,0.6h-9.2c-1.1,0-2.2-0.1-3.2-0.1c-0.5,0-0.6,0.3-0.6,0.9s0,0.9,0.6,0.9
	c1.1,0,2.2-0.1,3.2-0.1h5.9c0.4,0,0.6,0.2,0.6,0.6v0.5c0,0.4-0.2,0.6-0.6,0.6h-3.9c-1.1,0-2.1-0.1-3.1-0.1c-0.5,0-0.5,0.3-0.5,0.9
	c0,0.6,0,0.9,0.5,0.9c1,0,2.1-0.1,3.1-0.1h3.9c0.4,0,0.6,0.2,0.6,0.6v0.5c0,0.4-0.2,0.6-0.6,0.6C77.8,24.5,71.1,24.5,71.1,24.5z"/>
<path class="st1" d="M104.5,28.7c0.8,0,1.5,0,2.1,0s0.6-0.3,0.6-1c0-0.6,0-1-0.6-1c-0.4,0-1.3,0-2.1,0h-2.8c-0.8,0-1.6,0-2.1,0
	c-0.6,0-0.6,0.3-0.6,1c0,0.7,0,1,0.6,1c0.6,0,1.3,0,2.1,0H104.5z M104.5,24.9c0.7,0,1.4,0.1,2.1,0.1c0.6,0,0.6-0.3,0.6-1
	c0-0.6,0-1-0.6-1c-0.6,0-1.3,0.1-2.1,0.1h-2.7c-0.7,0-1.5-0.1-2.1-0.1c-0.6,0-0.6,0.3-0.6,1s0,1,0.6,1s1.3-0.1,2.1-0.1H104.5z
	 M105.8,21.1c0.7,0,1.5,0.1,2.2,0.1c0.6,0,0.6-0.3,0.6-1s0-1-0.6-1c-0.7,0-1.5,0.1-2.2,0.1h-5.6c-0.7,0-1.5-0.1-2.2-0.1
	c-0.6,0-0.6,0.3-0.6,1c0,0.6,0,1,0.6,1c0.7,0,1.5-0.1,2.2-0.1H105.8z M104.9,17.5c0.7,0,1.3,0,1.8,0c0.6,0,0.6-0.4,0.6-1
	c0-0.6,0-1-0.6-1c-0.3,0-1.2,0.1-1.7,0.1h-3.4c-0.6,0-1.4-0.1-1.8-0.1c-0.6,0-0.6,0.4-0.6,1s0,1,0.6,1c0.3,0,1.1,0,1.8,0H104.9z
	 M117.8,26.5c0.3,0,0.5,0,0.6,0.3c0.1,0.4,0.8,0.3,1.3,0.3c0.9,0,1.1-0.1,1.1-0.6c0-0.8-0.1-1.8-0.1-2.8v-4.5c0-0.7,0-1.4,0-2.1
	c0-1.1-0.3-1.3-1.4-1.3c-0.6,0-1.3,0-1.9,0h-4.4c-1,0-2-0.1-3-0.1c-0.6,0-0.6,0.3-0.6,1.1s0,1.1,0.6,1.1c1,0,2-0.1,3-0.1h4.7
	c0.6,0,0.8,0.2,0.8,0.8v4.8c0,0.6-0.2,0.8-0.8,0.8h-4c-0.7,0-1.3,0-2,0c-1,0-1.4,0.2-1.4,1.1c0,0.6,0,1.3,0,1.9v5.8
	c0,0.9-0.1,1.8-0.1,2.7c0,2.4,1.1,2.7,3.3,2.7h4.6c1.3,0,2.3,0.1,3.1-1.2c0.5-0.9,1.3-3.3,1.3-4.3c0-0.7-1-1-1.5-1
	c-0.5,0-0.6,0.3-0.7,0.7c-0.5,3.3-0.9,3.6-2.6,3.6h-3.5c-1.7,0-1.7-0.1-1.7-2.7v-6.4c0-0.5,0.2-0.8,0.8-0.8L117.8,26.5L117.8,26.5z
	 M101.9,36.1c-0.5-0.1-0.7-0.3-0.8-0.8V33c0.1-0.5,0.3-0.8,0.8-0.8h2.5c0.5,0,0.7,0.3,0.8,0.8v2.2c-0.1,0.5-0.3,0.8-0.8,0.8H101.9z
	 M105.1,38.4c0,0.1,0,0.3,0,0.4c0,0.6,0.3,0.6,1.1,0.6c0.8,0,1.1-0.1,1.1-0.6c0-0.6,0-1.2,0-1.8v-3.8c0-0.5,0-1,0-1.5
	c0-0.9-0.4-1.2-1.3-1.2c-0.4,0-0.8,0-1.2,0h-3.4c-0.4,0-0.8,0-1.3,0c-0.9,0-1.2,0.4-1.2,1.2c0,0.5,0,1,0,1.5v3.8c0,0.6,0,1.2,0,1.8
	c0,0.6,0.2,0.6,1.1,0.6c0.8,0,1.2,0,1.2-0.6c0-0.1,0-0.3,0-0.4c0-0.4,0.2-0.5,0.6-0.5h2.9C104.9,37.9,105.1,38,105.1,38.4z"/>
<path class="st1" d="M140.9,23c0-0.3,0.3-0.6,0.6-0.6h3.6c0.3,0,0.6,0.2,0.6,0.6v0.6c0,0.3-0.3,0.6-0.6,0.6h-3.6
	c-0.3,0-0.6-0.2-0.6-0.6V23z M138,22.4c0.3,0,0.6,0.2,0.6,0.6v0.6c0,0.3-0.3,0.6-0.6,0.6h-3.6c-0.3,0-0.6-0.2-0.6-0.6V23
	c0-0.3,0.2-0.6,0.6-0.6H138z M145.8,31.8c0.3,0,0.6,0.2,0.6,0.6v0.2c0,0.3-0.2,0.6-0.6,0.6h-4.3c-0.3,0-0.6-0.3-0.6-0.6v-0.2
	c0-0.3,0.3-0.6,0.6-0.6H145.8z M140.9,29.5c0-0.3,0.3-0.6,0.6-0.6h4.3c0.3,0,0.6,0.3,0.6,0.6v0.2c0,0.3-0.2,0.6-0.6,0.6h-4.3
	c-0.3,0-0.6-0.3-0.6-0.6V29.5z M148.6,29.5c0-0.4,0-0.8,0-1.2c0-1-0.5-1.1-1.4-1.1c-0.6,0-1.2,0-1.8,0h-4c-0.4,0-0.6-0.2-0.6-0.6
	v-0.3c0-0.4,0.2-0.6,0.6-0.6h2.7c0.7,0,1.3,0,1.9,0c1.1,0,1.8-0.1,1.8-0.9c0-0.2,0-0.4,0-0.8v-1.7c0-0.4,0-0.6,0-0.8
	c0-0.8-0.7-0.9-1.8-0.9c-0.5,0-1.1,0-1.9,0h-2.7c-0.4,0-0.6-0.2-0.6-0.6v-0.3c0-0.4,0.2-0.6,0.6-0.6h6.2c1.1,0,2.2,0.1,3.4,0.1
	c0.6,0,0.6-0.3,0.6-0.9c0-0.7,0-1-0.6-1c-1.1,0-2.2,0.1-3.4,0.1h-6c-0.5,0-0.8-0.2-0.8-0.7c0-0.7,0-1,0.3-1.2
	c0.2-0.1,0.3-0.2,0.3-0.4c0-0.3-0.4-0.3-0.6-0.3c-0.3-0.1-1.6-0.2-2-0.2c-0.2,0-0.5,0.1-0.5,0.4c0,0.1,0,0.2,0,0.3
	c0.1,0.5,0.1,1,0.1,1.5c-0.1,0.5-0.3,0.7-0.8,0.7h-5.9c-1.1,0-2.2-0.1-3.4-0.1c-0.5,0-0.6,0.3-0.6,1c0,0.6,0,0.9,0.6,0.9
	c1.1,0,2.2-0.1,3.4-0.1h6.1c0.4,0,0.6,0.2,0.6,0.6v0.3c0,0.4-0.2,0.6-0.6,0.6h-2.7c-0.7,0-1.3,0-1.9,0c-1.1,0-1.8,0.1-1.8,0.9
	c0,0.3,0,0.4,0,0.8v1.7c0,0.4,0,0.5,0,0.8c0,0.8,0.8,0.9,1.4,0.9c0.8,0,1.5,0,2.3,0h2.7c0.4,0,0.6,0.2,0.6,0.6v0.3
	c0,0.4-0.2,0.6-0.6,0.6h-6.1c-0.7,0-1.3,0-2,0c-0.5,0-0.6,0.1-0.6,0.9s0.1,0.9,0.6,0.9c0.7,0,1.3-0.1,2-0.1h6.1
	c0.4,0,0.6,0.2,0.6,0.6v0.2c0,0.4-0.2,0.6-0.6,0.6h-6.7c-1.1,0-2.3-0.1-3.4-0.1c-0.5,0-0.5,0.3-0.5,0.8c0,0.5,0,0.9,0.5,0.9
	c1.1,0,2.3-0.1,3.4-0.1h6.7c0.4,0,0.6,0.2,0.6,0.6v0.2c0,0.4-0.2,0.6-0.6,0.6h-4.8c-1.1,0-2.2-0.1-3.3-0.1c-0.6,0-0.6,0.2-0.6,0.9
	c0,0.6,0,0.9,0.6,0.9c1.1,0,2.2-0.1,3.3-0.1h4.6c0.6,0,0.7,0.2,0.8,0.8c-0.1,1.3,0,1.9-1.9,1.9c-0.6,0-1.2-0.1-1.5-0.1
	c-0.4,0-0.5,0.2-0.5,0.6c0,1.7,0.7,1.6,1.4,1.6c2,0,4.7-0.1,4.7-2.7c0-0.5,0-0.9,0-1.3c0-0.5,0.3-0.8,0.8-0.8h4.1
	c0.2,0,0.4,0.1,0.5,0.3c0.1,0.3,0.2,0.4,1.1,0.4c0.9,0,1.2,0,1.2-0.6c0-0.6-0.1-1.3-0.1-2v-0.4c0-0.5,0.2-0.8,0.8-0.8
	c0.9,0,1.5,0.1,1.9,0.1c0.6,0,0.7-0.1,0.7-0.8c0-0.5,0-0.8-0.5-0.8c-0.7,0-1.4,0.1-2.1,0C148.8,30.3,148.7,30,148.6,29.5z"/>
<path class="st2" d="M84.4,60.9c-0.1,1-0.2,2.3-0.4,3.9c-0.1,0.3-0.2,0.5-0.4,0.5c-0.3,0-0.6-0.1-0.8-0.4c-0.2-0.3-0.3-0.6-0.3-0.9
	c0-0.4,0.1-1,0.2-1.8l0.5-4.8c-2.7,2-4.5,4-5.5,6c-0.2,0.4-0.3,0.8-0.5,1.2c-0.2,0.4-0.3,0.6-0.4,0.6c-0.6,0-0.9-0.3-1.2-1
	c-0.3-1-0.5-2.3-0.5-4c0-1.8,0.3-4.1,0.9-7.1c0.1-0.3,0.2-0.5,0.4-0.5c0.3,0,0.6,0.2,0.9,0.5c0.2,0.3,0.3,0.7,0.3,1
	c-0.1,0.3-0.1,0.6-0.2,1c-0.4,2-0.7,4.1-0.7,6.5c2.2-3,4.5-5.1,6.8-6.5c0.3,0,0.6,0.2,0.9,0.4c0.3,0.3,0.4,0.6,0.4,0.9
	C84.7,57.4,84.5,59,84.4,60.9z"/>
<path class="st2" d="M95.6,65.4c-2.2,0-3.8-1.1-4.7-3.2c-0.2,0.1-0.5,0.1-0.8,0.1c-1,0-1.8-0.2-2.3-0.5c-0.7-0.4-1-0.8-1-1.3
	c0-0.6,0.3-1,0.8-1c0.1,0,0.4,0.2,0.8,0.5c0.5,0.3,1,0.5,1.4,0.5c0.2,0,0.4,0,0.5,0c-0.1-0.5-0.1-0.9-0.1-1.3c0-1.4,0.3-2.7,1-4
	c0.8-1.5,1.7-2.2,2.9-2.2c0.7,0,1.4,0.4,2.1,1.2c0.5,0.6,0.8,1.2,0.8,2c0,1.2-0.5,2.2-1.4,3.3c-0.8,1-1.9,1.8-3.1,2.3
	c0.6,1.2,1.4,1.8,2.7,1.8c0.3,0,0.7,0,1.2-0.1c0.5-0.1,0.8-0.1,1-0.1c0.2,0,0.4,0.1,0.6,0.3c0.2,0.2,0.3,0.4,0.3,0.7
	C98.2,65,97.3,65.4,95.6,65.4z M95,55.3c-0.3-0.3-0.6-0.4-0.9-0.4c-0.6,0-1,0.5-1.4,1.3S92,58,92,58.9c0,0.3,0,0.8,0.1,1.2
	c0.9-0.4,1.7-1,2.3-1.7c0.7-0.7,1-1.4,1-2.2C95.4,55.9,95.3,55.6,95,55.3z"/>
<path class="st2" d="M117.7,57.4c-0.3,1.9-0.8,3.7-1.6,5.2c-1,2-2.3,3-3.8,3c-1.6,0-2.9-1.8-3.8-5.4c-0.5,1.2-1.4,2.4-2.8,3.9
	c-1.3,1.4-2.3,2.2-2.9,2.2c-0.3,0-0.7-0.3-1-0.9c-0.3-0.5-0.5-0.9-0.7-1.4c-0.7-2.8-1.1-5.1-1.1-6.9c0-1.3,0.1-2.6,0.4-3.8
	c0.1-0.6,0.4-0.9,0.9-0.9c0.7,0,1.1,0.6,1.1,1.8c0,0.2-0.1,0.7-0.3,1.3c-0.2,0.7-0.3,1.2-0.3,1.5c0,3.2,0.4,5.6,1.3,7.3
	c0.9-0.5,1.8-1.3,2.8-2.6c0.9-1.3,1.6-2.7,2-4c0.3-1.1,0.7-1.7,1.1-1.7c0.4,0,0.6,0.4,0.8,1.2c0.7,4.5,1.6,6.7,2.6,6.7
	c0.5,0,1.2-0.4,1.9-1.3c0.6-0.8,1.1-2,1.5-3.5c0.3-1.3,0.4-2.7,0.4-4.2c0-0.1,0-0.3-0.1-0.6c-0.1-0.3-0.1-0.5-0.1-0.6
	c0-0.7,0.3-1,0.9-1c0.4,0,0.7,0.3,0.9,0.9c0.2,0.7,0.3,1.2,0.3,1.7C118,56.4,117.9,57.2,117.7,57.4z"/>
<rect class="st0" width="192" height="1"/>
</svg>
