<?xml version="1.0" encoding="utf-8"?>
<!-- Generator: Adobe Illustrator 24.1.0, SVG Export Plug-In . SVG Version: 6.00 Build 0)  -->
<svg version="1.1" id="レイヤー_1" xmlns="http://www.w3.org/2000/svg" xmlns:xlink="http://www.w3.org/1999/xlink" x="0px"
	 y="0px" width="520px" height="173.2px" viewBox="0 0 520 173.2" style="enable-background:new 0 0 520 173.2;"
	 xml:space="preserve">
<style type="text/css">
	.st0{fill:#E9A2B4;}
	.st1{fill:#FBECF0;}
	.st2{fill:#5A5A5A;}
	.st3{fill-rule:evenodd;clip-rule:evenodd;fill:#5A5A5A;}
</style>
<g>
	<path class="st0" d="M85.7,66.4c0.2,0.8-0.6,1.2-1.5,1.5c-3,1-6,2-9,3.1c-0.3,0.1-0.5,0.5-0.9,0.6c-0.5,0.2-1.1,0.3-1.6,0.4
		c0-0.8-0.3-1.7,0-2.3c0.5-1.2,1.3-2.3,2.2-3.3c0.4-0.5,1-0.7,0.3-1.3c2.1-1.1,2.5-3.4,3.7-5.3c0.1,0,0.3,0,0.4,0
		c0.1,0.5,0.3,1,0.2,1.4c-0.2,0.8-0.5,1.7-0.9,2.5c-0.8,1.5-0.7,2.3,0.8,3.2c0.4,0.2,0.7,0.4,1.1,0.7c1.5-0.6,3.2-1.3,5-2
		c0,0,0-0.4,0-0.8c-0.5,0-1.1-0.1-1.6-0.1c-0.9,0-2.4-1.4-2.6-2.6c-0.1-0.4-0.2-0.9-0.2-1.3c0-0.3,0.3-0.5,0.4-0.7
		c0.2,0.2,0.5,0.4,0.7,0.7c0.3,0.5,0.4,1.1,0.7,1.6c0.4,0.8,0.9,0.9,1.7,0.7c0.5-0.1,1.2,0.4,1.9,0.7c2.3-1.8,4.7-3.7,7-5.7
		c1.3-1.2,2.4-2.6,3.7-3.8c2.4-2.5,4.8-4.9,7.3-7.3c0.8-0.7,1.7-1.3,2.5-1.9c0.4-0.4,0.8-0.8,1.3-1.3c-2.2-1.4-3.8-3.1-4.5-5.7
		c-0.4,0.2-0.7,0.4-1,0.7c-0.9,0.9-1.6,1.9-2.5,2.8c-2.5,2.6-5.1,5.1-7.6,7.7c-1,1-2,2.1-3,3c-2.5,2.4-5,4.8-7.5,7.2
		c-0.2,0.2-0.8,0-1.3,0c0.1-0.6,0.1-1.4,0.5-1.8c1-1.1,2.3-2,3.4-3.1c1.9-1.8,3.7-3.7,5.5-5.5c2.1-2,4.2-4.1,6.4-6.1
		c1-0.9,1.9-1.9,2.9-2.8c1-0.9,2-1.7,3-2.5c0.5-0.4,0.8-1,1.2-1.4c0.5-0.6,1-1.3,1.7-1.8c0.8-0.6,1.8,0.1,1.9,0.6
		c0.3,1.5,1.8,1.7,2.4,2.6c0.9,1.4,1.7,2.8,2.2,4.2c0.1,0.4-0.5,1.1-0.9,1.6c-0.4,0.5-1,0.9-1.5,1.4c-1.2,1.1-2.5,2.2-3.7,3.3
		c-1.6,1.6-3,3.3-4.6,4.8c-1.5,1.5-3,2.9-4.5,4.4c-0.7,0.7-1.2,1.5-1.9,2.1c-2.1,1.7-4.2,3.3-6.3,5c-0.4,0.3-0.8,0.8-1.2,1.2
		C86.9,65.8,86.4,66,85.7,66.4z M109.1,42c0.6-0.6,1.3-1.2,0.8-2.1c-0.9-1.6-1.4-3.7-4-3.5C105.4,38,106.2,40.4,109.1,42z"/>
	<path class="st0" d="M86.2,78c1.7-0.1,1.9-1.5,2.4-2.7c1-2.6,1.9-5.3,2.9-8c0.6-1.7,1.3-3.5,2-5.2c0.2-0.5,0.8-1.2,1.4-1.3
		c0.9-0.2,1.3,0.9,0.8,1.9c-1.2,3-2.4,6-3.6,9.1c-0.9,2.3-1.6,4.6-2.5,6.8c-0.7,1.5-3.6,2.7-5.3,2.4c-1.1-0.2-2.2-0.6-3.3-0.8
		c-1.1-0.2-2.3-0.4-3.4-0.4c-2.1,0-3.9-0.8-5.7-1.5c-1.6-0.6-3.3-1.1-5-1.7c-1.2-0.4-2.5-0.5-3.2-1.7c-0.6-0.9-0.3-3,0.7-3.5
		c0.4-0.2,1.1-0.3,1.3-0.1c0.4,0.4,0.8,1.1,0.7,1.6c-0.1,0.8,0.2,0.8,0.7,1c0.5,0.2,1,0.5,1.5,0.7c0.5,0.2,0.9,0.5,1.4,0.6
		c1.1,0.3,2.3,0.6,3.4,0.9c3.1,0.7,6.2,1.5,9.4,2.1c1.1,0.2,2.3,0,3.5,0C86.2,78.2,86.2,78.1,86.2,78z"/>
	<path class="st0" d="M88.1,57.9c-0.4,0.4-0.8,0.9-1.3,1.2c-0.3,0.2-0.7,0.3-1.1,0.5c-0.2-0.5-0.6-1.2-0.5-1.4c0.9-1.2,2-2.3,3-3.4
		c0.3-0.3,0.8-0.6,1-0.9c0.8-1.5,2.1-2.3,3.4-3.2c0.8-0.6,1.4-1.3,2.2-2c0.4-0.4,0.9-0.7,1.4-1c0.2-0.1,0.6-0.2,0.6-0.3
		c0.3-1.5,1.8-1.5,2.7-2.3c0.3-0.2,0.7-0.4,0.8-0.7c0.4-0.8,0.8-0.7,1.3-0.1c-1.4,0.8-2.1,2.1-2.5,3.7c1.2-0.9,2.4-1.7,3.5-2.6
		c0.4-0.4,0.6-1,0.9-1.5c0.2-0.3,0.4-0.6,0.6-0.6c0.4,0,0.8,0.2,1,0.4c0.2,0.1,0.2,0.6,0,0.8c-0.4,0.5-0.9,1-1.3,1.5
		c-1.8,1.8-3.5,3.8-5.5,5.3c-2.7,2.1-5,4.6-7.3,7.1c-0.7,0.8-1.6,1.5-2.5,2.2c-0.2,0.1-0.8,0-0.8-0.1c-0.1-0.5-0.2-1-0.2-1.5
		C87.6,58.6,87.9,58.2,88.1,57.9c1.2-1.1,2.4-2.1,3.5-3.1c0.6-0.6,1.1-1.2,1.6-1.9c-0.1-0.1-0.2-0.2-0.3-0.3
		C91.3,54.4,89.7,56.1,88.1,57.9z"/>
	<path class="st0" d="M65,69.3c-0.5-2,0.1-3.7,0.6-5.5c0.9-3,1.8-6.1,2.8-9.1c0.8-2.4,1.6-4.7,2.4-7.1c0.4-1.1,0.7-2.3,1-3.5
		c0.1-0.4,0.4-0.8,0.6-1.2c0.2-0.4,0.5-0.7,0.6-1.1c0.6-1.6,1.5-2.3,3-2.2c1,0.1,2.1,0.4,3,0.8c2.1,0.8,4.2,1.5,6.4,1.8
		c1.5,0.3,3.2,0.8,4.2,2.8c-0.9,0-1.7,0-2.5-0.1c-1.2-0.1-2.4-0.3-3.6-0.5c-1-0.2-2-0.6-3-0.9c-1.2-0.4-2.5-1-3.7-1.3
		c-0.6-0.1-1.6,0.3-2,0.8c-2.2,2.9-2.9,6.4-3.9,9.8c-0.4,1.4-1.1,2.7-1.6,4.1c-0.8,2.2-1.7,4.5-2.5,6.7C66.3,65.5,65.7,67.4,65,69.3
		z"/>
	<path class="st0" d="M76.5,46.1c2.3,0.5,4.4,0.9,6.5,1.3c0.7,0.1,1.3,0.2,2,0.2c1.4,0.1,2,0.9,1.7,2.2c-0.1,0.4,0,0.9,0,1.4
		c0.1,0.9-0.3,1.3-1.2,1.1c-2.5-0.5-5.1-1-7.6-1.4c-0.4-0.1-0.8,0.3-1.3,0.4c-0.3,0.1-0.7,0.2-1,0.2c0-0.4-0.2-0.8,0-1.1
		c0.2-0.7,0.7-1.4,0.9-2.2C76.6,47.6,76.5,46.9,76.5,46.1z"/>
	<path class="st0" d="M74.4,54c0.1-0.4,0.1-0.9,0.3-1.2c0.2-0.2,0.7-0.2,1-0.2c1,0.1,2.1,0.2,3.1,0.4c0.5,0.1,1,0.5,1.4,0.9
		c0.2,0.2,0.2,0.8,0,1.1c-0.2,0.2-0.7,0.4-1,0.4c-1.4-0.2-2.8-0.5-4.2-0.8C74.8,54.5,74.6,54.2,74.4,54z"/>
	<path class="st0" d="M71.5,63.4c-0.4-0.8-0.3-1.4,0.6-1.7c1-0.4,2.3,0.4,2.8,1.6c0.2,0.6,0.4,1-0.4,1.3C73.3,65,72,64.5,71.5,63.4z
		"/>
	<path class="st0" d="M75.8,57c0.4,0.2,1,0.3,1.3,0.6c0.2,0.2,0.4,0.9,0.2,1.1C77,59,76.4,59.4,76,59.4c-0.8,0-1.6-0.3-2.4-0.6
		c-0.3-0.1-0.7-0.5-0.8-0.8c-0.1-0.4,0.1-0.9,0.4-1.1c0.1-0.1,0.7,0.1,1,0.2c0.5,0.1,1,0.2,1.5,0.4C75.7,57.3,75.8,57.2,75.8,57z"/>
	<path class="st0" d="M103.4,41.8c-0.4,0.6-0.9,1.2-1.3,1.8C101.9,42.6,101.5,41.5,103.4,41.8z"/>
</g>
<g>
	<path class="st0" d="M415.9,74.7c0.9,0.9,1.5,1.6,2.1,2.1c5.2-2.4,10.6-2.7,16.1-2.6c0,0.1,0.1,0.2,0.1,0.3c0.3-0.3,0.6-0.5,1-0.9
		c0.4,0.5,0.9,1,1.3,1.5c0.7-0.6,2-0.6,2.1-1.9c0-0.2,0.8-0.5,1.2-0.4c0.7,0.1,1.2-0.3,1.3-0.8c0.7-2.2,2.4-3.4,4.1-4.5
		c1.5-1,3.1-1.8,4.7-2.6c0.9-0.5,1.6-1,1.5-2.1c0-0.3,0.1-0.6,0.1-0.9c-1-0.7-2.7-0.7-3.9,0.2c-2.1,1.6-4.2,3.4-6.2,5
		c-0.6,0.5-1.1,0.9-1.6,1.4c-0.5,0.4-0.9,0.9-0.2,1.6c-0.4,0.2-0.7,0.4-1,0.6c-0.6-1-0.6-2.3,0.1-3c2-1.8,4-3.6,6.1-5.4
		c1.4-1.1,2.8-2.2,4.6-2.4c0.8-0.1,1.6,0,2.8,0c-1-4.3-2-8.5-3-12.7c-0.7-3-1.5-6.1-2.2-9.1c-0.1-0.6-0.2-1.3-0.1-1.9
		c0-0.2,0.5-0.7,0.6-0.6c0.3,0.1,0.7,0.4,0.8,0.7c0.7,3.2,1.2,6.4,1.9,9.5c0.5,2.2,1.1,4.4,1.7,6.6c0.6,2.4,1.3,4.8,1.7,7.2
		c0.2,0.9,0.7,2-0.4,2.9c-0.3,0.3-0.2,1.2-0.3,1.8c0,0.8-0.1,1.4-1.2,1.7c-2,0.5-3.9,1.6-5.5,2.9c-0.9,0.7-1.8,1.6-2.6,2.4
		c-0.4,0.4-0.8,0.9-0.7,1.3c0.1,2.2-1.5,2.7-3.1,3.2c-1.3,0.4-2.6,0.8-4.1,1.3c0-0.1-0.1-0.4-0.3-0.5c-0.4-0.3-0.9-0.8-1.1-0.7
		c-1.7,0.5-3.3,0.1-5,0.1c-1.5,0-2.9,0.2-4.4,0.7c-1.7,0.5-3.5,0.7-5.2,1c-0.4,0.1-0.9,0.4-1.2,0.7c-0.6,0.7-1.3,0.6-1.6-0.2
		c-0.3-0.8-0.7-1.6-1.1-2.3c-0.3,0-0.6,0.1-1,0.1c0-0.3,0-0.7,0-1c0-0.3-0.1-0.5-0.3-0.8c-0.6-0.8-1.2-1.6-1.8-2.3
		c-0.1-0.2-0.3-0.5-0.2-0.6c0.9-2.2-0.3-4.2-0.8-6.2c-1-3.8-2.2-7.6-3.3-11.3c-0.2-0.8-0.4-1.7-0.5-2.5c0-0.4,0.2-0.8,0.4-1.5
		c0.9,2.4,1.7,4.5,2.3,6.6c0.8,2.4,1.4,4.7,2.1,7.1c0.7,2.6,1.4,5.2,2.1,7.8c0,0.1,0.1,0.3,0.1,0.4c0.5,1.5,1,1.8,2.5,1.6
		c1.8-0.2,3.5-0.4,5.3-0.7c1.7-0.3,3.5-0.7,5.2-1.1c1.7-0.4,3.5-0.8,5.2,0c0.4,0.2,0.5,0.8,0.8,1.3c-0.4,0.2-1,0.6-1.1,0.4
		c-2-1.4-4-0.4-6-0.1c-2.7,0.4-5.3,1-8,1.4C418,74.6,417,74.6,415.9,74.7z"/>
	<path class="st0" d="M436.8,71.6c-0.2,0.2-0.5,0.7-0.7,0.6c-0.4-0.1-0.9-0.4-1-0.7c-1.4-4.6-2.8-9.3-4.2-13.9c-1-3.1-2-6.2-3.1-9.4
		c-0.1-0.4-0.5-0.8-0.6-1.2c-0.1-0.3,0.2-0.6,0.3-1c0.3,0.2,0.8,0.4,0.9,0.6c0.9,2.4,1.9,4.9,2.7,7.3c1.1,3.4,2,6.9,3.1,10.3
		c0.7,2.1,1.5,4.2,2.3,6.3C436.6,71,436.6,71.2,436.8,71.6z"/>
	<path class="st0" d="M428.8,44.9c-0.7,0.6-1,0.4-1.2-0.4c-0.3-2,0.6-3.4,2-4.6c3.3-2.7,6.9-4.9,11.1-6c1.3-0.3,2.6-0.4,3.9-0.7
		c0.5-0.1,1-0.2,1.6-0.2c0.4,0,0.8,0.2,1,0.4c0.1,0.1,0.1,0.7-0.1,0.9c-0.3,0.3-0.8,0.6-1.1,0.5c-1.9-0.5-3.8-0.1-5.5,0.5
		c-1.8,0.6-3.6,1.3-5.3,2.3c-2.4,1.5-4.9,2.8-6.5,5.4C428.3,43.9,428.2,43.9,428.8,44.9z"/>
	<path class="st0" d="M426.4,49.3c-1.1,0.2-2.1,0.2-3.2-0.5c-1.9-1.2-4-0.9-6.1-0.6c-1.6,0.2-3.2,0.3-4.8,0.5
		c-1.1,0.2-2.2,0.5-3.3,0.7c-0.4,0.1-0.8,0-1.1-0.1c-0.2-0.1-0.3-0.6-0.3-0.6c0.3-0.3,0.6-0.8,1-0.8c1.7-0.3,3.4-0.6,5.1-0.8
		c1.9-0.2,3.7-0.3,5.6-0.5c2-0.3,3.8,0.7,5.6,1.3C425.7,48,427,47.8,426.4,49.3z"/>
	<path class="st0" d="M435.6,58.2c-0.1-0.1-0.7-0.6-0.7-0.9c0.1-0.6,0.5-1.3,1-1.6c1.6-1.1,3.3-2.1,4.9-3.1c0.3-0.2,0.6-0.2,0.9-0.3
		c0.7-0.2,1.7-0.2,2-0.7c0.7-1.1,1.7-0.7,2.6-1c0.3-0.1,0.8,0.3,1.3,0.5c-0.3,0.3-0.5,0.7-0.9,0.9c-1.6,0.7-3.2,1.2-4.8,2
		c-1.2,0.6-2.3,1.4-3.4,2.2c-0.2,0.1-0.4,0.3-0.6,0.5C437.1,57.1,436.5,57.5,435.6,58.2z"/>
	<path class="st0" d="M414.9,60c0.3-0.9,0.6-1.3,1.5-1.2c0.7,0.1,1.3-0.5,2-0.6c1.9-0.4,3.7-0.8,5.6-1.1c0.6-0.1,1.3,0.2,1.9,0.4
		c0.2,0.1,0.3,0.8,0.2,1.1c-0.1,0.2-0.8,0.5-1,0.4c-1.8-1-3.4,0-5,0.3c-1.4,0.3-2.7,0.7-4.1,1C415.7,60.5,415.3,60.2,414.9,60z"/>
	<path class="st0" d="M417,57c-0.7,0.1-1.4,0-2.1,0c-0.7,0-1-0.3-0.8-0.9c0.1-0.3,0.6-0.7,0.9-0.7c3.1,0.3,6-0.7,9-1.4
		c0.5-0.1,1.2-0.3,1.3,0.3c0,0.5-0.4,1.3-0.8,1.4C422,56.3,419.5,56.7,417,57z"/>
	<path class="st0" d="M440.2,41.8c-0.8,0.4-1.7,0.7-2.4,1.3c-1.3,1-2.4,2.2-3.6,3.3c-0.2,0.2-0.2,0.6-0.4,0.8
		c-0.3,0.3-0.6,0.5-0.9,0.8c-0.1-0.4-0.5-0.8-0.4-1.1c0.2-0.7,0.4-1.5,0.9-2c1.4-1.3,2.9-2.5,4.5-3.6c0.7-0.5,1.6-0.7,2.4-0.9
		c0.6-0.2,1.4-0.1,1.4,0.8C441.8,42.3,441,42.1,440.2,41.8z"/>
	<path class="st0" d="M442.1,44.4c0.1,0.4,0.4,0.8,0.3,1.1c-0.2,0.4-0.6,0.8-1,1c-2,1-4.1,1.9-6.1,2.9c-0.4,0.2-0.7,0.7-1,1.1
		c-0.2,0.2-0.5,0.5-0.7,0.7c-0.2-0.4-0.7-0.9-0.6-1.2c0.4-0.7,0.9-1.5,1.5-1.9c2-1.2,4.1-2.3,6.2-3.4
		C441.1,44.7,441.5,44.6,442.1,44.4z"/>
	<path class="st0" d="M426.9,63c-0.3,1.1-0.9,1.2-1.6,1.2c-2.5,0.1-4.9,0.1-7.4,0.2c-0.3,0-0.6,0.4-0.9,0.6
		c-0.3,0.2-0.6,0.3-0.9,0.4c-0.1-0.4-0.3-1-0.2-1.2c0.6-0.6,1.3-1.3,2.3-1.3c2.4-0.1,4.8-0.4,7.2-0.6C426,62.4,426.4,62.8,426.9,63z
		"/>
	<path class="st0" d="M416.6,53.9c-0.3-0.1-0.7-0.3-1.1-0.3c-0.5,0-1,0.1-1.4,0.2c-0.3,0.1-0.5,0.3-0.7,0.5
		c-0.1-0.2-0.4-0.5-0.3-0.7c0.2-0.3,0.4-0.8,0.7-0.9c0.6-0.1,1.3,0,2-0.1c0.7-0.1,1.4-0.4,2.1-0.6c0.6-0.1,1.2-0.3,1.8-0.3
		c1-0.1,2-0.3,3-0.2c0.4,0,1.2,0.5,1.2,0.9c0,0.5-0.5,0.8-1.2,0.8c-1.6,0-3.2,0.4-4.8,0.6C417.4,53.8,417.1,53.8,416.6,53.9z"/>
	<path class="st0" d="M441,49.8c-0.6,0.6-0.9,1-1.3,1.3c-0.8,0.5-1.7,0.9-2.6,1.4c-0.3,0.2-0.6,0.6-0.9,0.8
		c-0.3,0.2-0.6,0.4-0.9,0.5c-0.2-0.3-0.5-0.6-0.5-1c0-0.3,0.2-0.7,0.4-0.9c1.4-0.9,2.8-1.8,4.2-2.6C439.7,49.2,440.3,49.6,441,49.8z
		"/>
</g>
<g>
	<path class="st1" d="M266.1,70.4c0.3,1.5,0.6,2.9,0.9,4.4c1.4-0.9,2.3-0.8,3.4,0.5c0.9,1.1,0.7,1.8-0.7,3.1
		c-0.2,0.2-0.3,0.6-0.5,0.8c-0.9,0.9-1.6,1.9-3.2,2.1c-1.7,0.2-3.3,1.4-5,1.7c-1.6,0.2-2.6,0.2-2.9,2.2c-0.6,3.1-1.7,6-2.5,9
		c-0.1,0.2,0.1,0.5,0.1,0.7c-0.3,0.8,0.2,2.1-1.1,2.4c-1.1,0.3-2.5,0.9-3.4,0.5c-1.2-0.5-1.3-2-1.1-3.4c0.1-0.7-0.2-1.5-0.1-2.2
		c0.2-1.8,0.7-3.6,0.9-5.4c0.1-1.2,0-2.4-0.2-3.6c-0.1-0.5-0.9-0.9-1.5-1.1c-1.2-0.6-2.6-0.9-2.3-2.7c0.1-0.6,0.1-1.3,0.4-1.7
		c0.2-0.3,1.1-0.5,1.2-0.3c0.3,0.4,0.4,1.1,0.6,1.6c0,0.1,0,0.2,0.1,0.4c0.5,0.1,1,0.2,1.4,0.3c0.3-2.8,0.6-5.5,0.9-8.2
		c-3.2,0.5-6.3,1.5-8.2,4.6c-0.2,0.4-0.2,0.9-0.2,1.4c-0.1,0.6-0.1,1.2-0.4,1.9c-0.8-0.8-2.6-0.4-2.2-2.1c0.2-1,0.4-2.1,0.9-3.1
		c1.1-2.6,2.9-4.3,6-4.6c1.5-0.1,3-1,4.4-1.8c0.4-0.2,0.7-1,0.7-1.5c0.4-4.1,1.3-8.1,3.3-11.7c1.8-3.3,4.1-6.4,7.1-8.7
		c1-0.8,2-1.7,3-2.6c1.9-1.7,4.3-2.2,6.7-2.7c2.5-0.5,4.6,0.4,6.8,1.2c2.1,0.8,2.7,2.7,3.6,4.3c1.1,2,1.3,4.4,0,6.2
		c-0.8,1.1-1.2,3.3-3.5,2.9c-0.1,0-0.4,0.2-0.5,0.4c-0.6,2.4-3,2.2-4.6,3c-0.6,0.3-1.4,0.4-2.1,0.6c0.1,1.2,0.2,2.6,0.2,3.9
		c0,0.8-0.3,1.5-0.5,2.3c-0.1,0.8-0.1,1.2,0.7,1.9c2.4,2,4.8,4.1,5,7.7c0.1,2.1-0.6,3.6-1.4,4.8c0,1.6,0.4,3.1-0.1,4
		c-0.8,1.3-0.7,2.5-0.6,3.7c0.2,2.5,1.3,4.6,3,6.4c1.7,1.7,3.3,3.7,5.3,4.9c2.6,1.5,4.7,3.5,6.1,6c1.7,3,3,6.1,3.2,9.6
		c0.1,1.4,0.4,2.9,0.6,4.3c0.3,1.8-1.2,3.8-2.7,3.7c-0.8-0.1-1.2-0.3-0.9-1.2c1.3-3.9,0.1-7.5-1.1-11.1c-1.3-3.8-3.8-6.4-7.2-8.5
		c-2-1.2-3.5-3.2-5.3-4.8c-3.2-2.8-4.3-6.6-4.5-10.6c-0.1-1.5,0.4-3.1,0.8-4.6c0.2-0.7,0.9-1.3,1.4-2c0.2-1.1,0.4-2.3,0.6-3.5
		c0.2-2.4-1.7-6.1-3.9-6.7c-1.1-0.3-2.5,0.2-3.8,0.5C266.7,70,266.4,70.2,266.1,70.4z"/>
	<path class="st1" d="M247.6,99.6c1.6,1,3.5,2.1,5.2,3.4c1.2,0.9,2,2.2,3.1,3.3c0.1,0.1,0.5,0.1,0.8-0.1c1.1-0.6,2-1.5,3.2-1.7
		c1.7-0.3,3.5-0.2,5.1-1.3c0.1-0.1,0.2,0,0.3,0c3,0.2,6,0.1,8.9,0.7c2.3,0.5,4.5,1.7,6.6,2.8c1.6,0.8,3,2,4.4,3
		c1.9,1.4,2.5,3.7,2.2,5.6c-0.4,2.8-1.1,5.7-3.2,7.9c-2.5,2.7-5.7,4.1-9.1,4.9c-0.5,0.1-1,0.2-1.5,0.3c-1.8,0.3-3.6,0.6-5.4,0.8
		c-1.3,0.2-2.5,0.3-3.8,0.5c-2,0.3-3.9,0.8-5.9,0.9c-2.9,0.1-5.7,0.1-8.6-0.1c-2-0.2-4.1-0.6-6.1-1.1c-1.1-0.3-2-1.2-3-1.7
		c-1.5-0.9-2.9-1.7-4.4-2.5c-2-1.1-3.3-2.7-3.8-5c-1.2-4.8,1.2-8.4,3.6-12.1c2-3.2,5.2-5.3,8.2-7.4
		C245,100.2,246.2,100.1,247.6,99.6z M246.6,126.6c0.3,0.2,0.5,0.7,0.8,0.7c1.9,0.3,3.7,0.7,5.6,0.6c3-0.1,6-0.6,9-0.9
		c3.5-0.4,7-0.7,10.5-1.3c2.3-0.4,4.6-1.3,7.3-2.1c-1.7-0.8-2.8-1.3-4-1.9c-0.1,0.1-0.3,0.3-0.5,0.5c-1.2,1-1.6,3.3-4,2.4
		c-0.1,0-0.2,0.3-0.4,0.3c-1.3,0-2.6-0.5-3.8,0.5c-0.5-0.6-0.9-1.3-1.4-1.9c-1.6,0.1-1.6,3.8-4.4,2.2c-0.5,0-1.4,0.3-1.6,0
		c-0.4-0.6-0.5-1.4-0.7-2.2c-0.3,0.3-0.6,0.8-1.1,1.1c-0.6,0.4-1.4,0.7-2,1c0-0.7,0-1.4-0.1-2.1c0-0.1-0.1-0.1-0.1-0.2
		c-1.1,1-2.1,2-3.3,2.8c-0.5,0.4-1.4,0.3-2.1,0.4c0.1-0.6,0.3-1.3,0.4-1.9c0-0.2,0.1-0.3,0.3-1c-0.9,0.7-1.5,1.3-2.1,1.6
		C248.3,126,247.4,126.3,246.6,126.6c-1.1-1.2-0.1-1.9,0.7-2.7c0.8-0.7,1.6-1.5,2.5-2.2c-0.1-0.1-0.2-0.2-0.3-0.4
		c-1.3,1.1-2.6,2.1-3.8,3.2c-1.4,1.3-2,1.2-2.9-0.6c-1.8,0.3-1.8,0.3-2.1-1.8c-0.7,0.3-1.4,0.5-2.3,0.9c2,1.1,3.7,2.2,5.5,3
		C244.6,126.5,245.7,126.5,246.6,126.6z M244.7,103.9c-0.7,0.1-1.3-0.1-1.7,0.2c-0.8,0.5-1.4,1.3-2.1,1.9c-2.6,2.5-4.6,5.4-5.8,8.9
		c-1,2.8-0.4,5.5,1.8,7.3c0.6-0.7,1.2-1.3,1.9-2c-0.3,0-0.6,0-0.9,0c-0.6,0-1.1-0.1-1.7-0.1c0.2-0.6,0.2-1.2,0.6-1.6
		c0.6-0.6,1.4-1.1,2.2-1.8c-1.2-0.2-2.1,0-2.4-0.4c-1-1.5,0.8-2.3,1.2-3.4c-1.1-0.9-1.2-1.4-0.1-2.5
		C240.1,108.3,242.2,106.2,244.7,103.9z M240.6,113c0.1,0.1,0.3,0.3,0.4,0.4c1.3-0.4,2.1-1.6,3.6-1.9c1.3-0.2,2.6-1.5,3.6-2.6
		c0.6-0.6,0.9-1.7,1.3-2.5c-0.2-0.1-0.3-0.2-0.5-0.4C246.2,108.4,243.4,110.7,240.6,113z M242,116.1c0.7-0.2,1-0.2,1.3-0.3
		c2.2-0.6,3.6-2.4,5.3-3.7c0.4-0.3,0.7-0.6,1.1-0.8c0.3-0.1,0.7-0.1,1-0.1c-0.2-0.4-0.4-0.8-0.7-1.4
		C247.4,111.8,244.9,113.8,242,116.1z M278.4,115.8c1.8-1,3.3-1.9,5-2.8c-0.9-1.1-2-1.4-2.9-0.3C279.7,113.6,277.8,114,278.4,115.8z
		 M284.5,115.9c-0.2-0.1-0.3-0.1-0.5-0.2c-2.1,2.4-3,4.6-1.9,5.9C282.9,119.6,283.7,117.7,284.5,115.9z M253.1,120.7
		c0.1,0.1,0.2,0.3,0.4,0.4c2.5-0.3,2.9-2.9,4.5-4.2c-0.1-0.1-0.2-0.2-0.3-0.3C256.1,118,254.6,119.4,253.1,120.7z M255.5,109.9
		c-1.1-1-2.1-1.9-3.3-3C252.6,109.6,254,110.7,255.5,109.9z M247.4,115.7c0.1,0.1,0.2,0.3,0.3,0.4c1.5-1.1,3-2.1,4.5-3.2
		c-0.1-0.2-0.2-0.3-0.3-0.5C250.4,113.5,248.9,114.6,247.4,115.7z M262.5,114.2c0-0.2,0.1-0.4,0.1-0.6c-0.7-0.2-1.3-0.4-2-0.6
		c-0.2,0-0.5,0.2-0.7,0.3c0.1,0.2,0.2,0.6,0.4,0.7C260.9,114.2,261.7,114.2,262.5,114.2z"/>
	<path class="st1" d="M243.2,132.3c-1-0.4-2-0.7-3-1.1c-1.9-0.8-3.9-1.5-5.7-2.5c-1.5-0.9-2.8-2.3-4.2-3.4c-1.7-1.3-2.5-3.1-2.7-5.2
		c-0.4-4.1,0.7-7.9,1.9-11.8c1-3.2,3.1-5.3,5.7-7.2c0.9-0.7,2.2-1.1,1.9-2.2c1-1,2.2-1.7,2.6-2.6c0.9-2.6,1.6-5.2,1.9-7.9
		c0.2-1.3,0-2.9-1-4.2c-0.4-0.4-0.2-1.4-0.1-2.1c0.1-0.3,0.8-0.7,1.1-0.6c0.6,0.3,1.4,0.7,1.7,1.2c1.1,2.1,1.5,4.4,1.4,6.8
		c-0.1,2.7-1.3,4.9-2.2,7.3c-1.2,3.1-3.7,5-6,7c-1.9,1.7-3.5,3.3-4.3,5.8c-0.9,2.8-1.9,5.6-1.8,8.7c0.1,2.2,0.9,4,2.3,5.7
		c2.7,3.3,5.8,5.9,9.9,7.3c0.3,0.1,0.6,0.5,0.8,0.7C243.3,132.1,243.3,132.2,243.2,132.3z"/>
	<path class="st1" d="M279,132.6c3.7-3.1,7.5-6.1,11.2-9.2c-1.1,1.8-1.8,3.7-4.1,4.6c-1.7,0.7-3.1,2.3-4.6,3.5
		c-0.7,0.6-1.6,1-2.3,1.5C279.1,132.9,279.1,132.8,279,132.6z"/>
	<path class="st1" d="M266.8,134.2c1.7-0.2,3.2-0.4,4.8-0.6c0,0.1,0,0.2,0,0.2c-0.8,0.4-1.5,1-2.3,1.1
		C268.5,135,267.4,136,266.8,134.2z"/>
	<path class="st1" d="M273,133.8c1.1-0.9,2-1.7,3,0C275.1,135.1,274.2,134.4,273,133.8z"/>
</g>
<path class="st2" d="M177.5,127.6c0,2.2-0.1,2.9-0.7,3c-0.4,0.1-0.8,0.1-1,0.1c-0.1,0-0.2,0-0.2,0.1c0,0.2,0.1,0.2,0.4,0.2
	c1.1,0,2.1-0.1,2.3-0.1s1.2,0.1,2.5,0.1c0.3,0,0.4,0,0.4-0.2c0-0.1-0.1-0.1-0.2-0.1c-0.2,0-0.7,0-1.2-0.1c-0.6-0.2-0.9-0.8-0.9-2.8
	l-0.3-11.5c0.8,0.9,3.5,3.9,6.3,6.9c2.5,2.7,6,6.3,6.3,6.5c1.3,1.3,1.6,1.5,1.8,1.5c0.2,0,0.2-0.1,0.2-1.7l0-14c0-1.7,0.2-2,0.8-2.2
	c0.3,0,0.4-0.1,0.6-0.1c0.2,0,0.3-0.1,0.3-0.2c0-0.1-0.2-0.2-0.4-0.2c-1,0-1.8,0.1-2,0.1c-0.3,0-1.4-0.1-2.5-0.1
	c-0.3,0-0.5,0-0.5,0.2c0,0.1,0.1,0.2,0.3,0.2c0.2,0,0.6,0,1,0.1c0.7,0.2,0.9,0.7,0.9,2.3l0.3,12.2c-0.8-0.8-3.4-3.7-5.8-6.3
	c-3.7-4-7.3-7.8-7.6-8.2c-0.2-0.2-0.6-0.8-0.8-0.8c-0.2,0-0.3,0.3-0.3,1.2c0,4.7,0,1.5,0,10.2V127.6z"/>
<path class="st2" d="M200.5,125.2c0,1.8,0,2.8,0,3.6c0,1.5-0.3,1.8-0.8,1.9c-0.2,0-0.3,0.1-0.5,0.1c-0.1,0-0.2,0.1-0.2,0.2
	c0,0.1,0.1,0.2,0.3,0.2c0.6,0,1-0.1,1.6-0.1c0.9,0,2,0,2.8,0.1c0.8,0,1.5,0,3.1,0c0.8,0,1,0,1.1-0.5c0.1-0.4,0.3-1.9,0.3-2.1
	c0-0.1,0-0.4-0.1-0.4c-0.1,0-0.2,0.1-0.2,0.3c-0.2,0.9-0.4,1.4-1.1,1.6c-0.6,0.2-1.4,0.1-1.8,0.1c-0.8,0-1.4,0-1.8-0.2
	c-0.5-0.2-0.6-0.7-0.7-1.6c0-0.4,0-2.5,0-3.3v-1.8c0-0.1,0-0.2,0.2-0.2c0.4,0,2.3,0,2.9,0.1c0.9,0.1,1.1,0.4,1.2,0.7
	c0,0.2,0.1,0.4,0.1,0.6c0,0.2,0,0.3,0.1,0.3c0.1,0,0.1-0.1,0.2-0.3c0-0.3,0-0.8,0.1-1.5c0.1-0.7,0.2-1.2,0.2-1.3s0-0.1-0.1-0.1
	c-0.1,0-0.2,0-0.3,0.2c-0.2,0.3-0.6,0.3-1.1,0.4c-0.5,0-3,0.1-3.2,0.1c-0.1,0-0.1-0.1-0.1-0.2v-5.4c0-0.1,0-0.2,0.1-0.2
	c0,0,2.4,0,2.7,0c1.2,0.1,1.4,0.2,1.6,0.7c0.1,0.2,0.1,0.4,0.2,0.8c0,0.2,0,0.3,0.2,0.3c0.1,0,0.2-0.1,0.2-0.4c0-0.5,0-0.8,0.1-1.2
	c0-0.6,0.2-0.9,0.2-1.1c0-0.1,0-0.2-0.1-0.2c-0.1,0-0.1,0-0.3,0.1c-0.2,0.1-0.5,0.1-0.9,0.1c-0.5,0-4.8,0-4.9,0
	c-1.3,0-2-0.1-2.5-0.1c-0.2,0-0.4,0-0.4,0.2c0,0.1,0.1,0.1,0.3,0.1c0.2,0,0.4,0,0.6,0c0.7,0.1,0.9,0.5,0.9,1.2c0,0.6,0,1.2,0,4.4
	V125.2z"/>
<path class="st2" d="M215.5,129.5c0.5,1.5,0.6,1.8,0.8,1.8c0.2,0,0.4-0.3,0.7-1.2c0.7-1.8,3.6-9.1,4.4-10.9l4.1,10.9
	c0.3,0.9,0.5,1.2,0.7,1.2c0.2,0,0.4-0.3,1-2c0.7-2,2.9-8.4,3.8-11c0.4-1.1,0.6-2.1,1.3-2.3c0.2,0,0.6-0.1,0.6-0.1
	c0.2,0,0.3-0.1,0.3-0.2c0-0.1-0.1-0.1-0.3-0.1c-0.6,0-1.8,0.1-2,0.1c-0.2,0-1.1-0.1-2-0.1c-0.3,0-0.4,0-0.4,0.1
	c0,0.1,0.1,0.2,0.3,0.2c1,0,1.2,0.3,1.2,0.6c0,0.3,0,0.4-0.2,1c-0.6,2.4-2.7,8.5-3.2,10.4l-4.2-11.3c-0.3-0.8-0.4-1.1-0.6-1.1
	c-0.1,0-0.2,0.1-0.6,1l-4.4,11.3c-0.4-1.2-2.4-8.3-2.7-9.6c-0.2-0.9-0.4-1.6-0.4-1.8c0-0.2,0-0.4,0.2-0.5c0.3-0.1,0.6-0.1,0.8-0.1
	c0.2,0,0.3,0,0.3-0.2c0-0.1,0-0.2-0.3-0.2c-1.1,0-2.2,0.1-2.4,0.1c-0.2,0-1.3-0.1-2.6-0.1c-0.2,0-0.4,0-0.4,0.1
	c0,0.1,0.2,0.2,0.3,0.2c0.2,0,0.6,0,0.9,0.1c0.7,0.2,0.8,0.6,1.2,1.6L215.5,129.5z"/>
<path class="st2" d="M251.7,131.4c1.3,0,3-0.1,3.8-0.5c0.3-0.1,0.4-0.2,0.6-0.6c0.2-0.5,0.5-2.5,0.5-2.7c0-0.2,0-0.3-0.1-0.3
	c-0.1,0-0.2,0.1-0.3,0.4c-0.1,0.7-0.4,1.3-0.8,1.7c-0.8,0.8-2,1-3.7,1c-4.2,0-7.5-3.5-7.5-7.5c0-2.1,0.4-3.8,1.9-5.3
	c0.7-0.6,1.9-1.4,4.6-1.4c1.8,0,3.5,0.6,4.2,1.2c0.6,0.5,0.9,1.4,0.9,2.1c0,0.3,0,0.5,0.2,0.5c0.1,0,0.2-0.1,0.2-0.5
	c0-0.3,0-1.5,0-2.2c0-0.8,0.1-1,0.1-1.2c0-0.1,0-0.2-0.2-0.2c-0.6,0-1.3-0.1-2.1-0.3c-1.2-0.2-2.1-0.3-3.2-0.3
	c-3.2,0-5.2,0.9-6.5,2.1c-1.9,1.8-2.4,4.2-2.4,5.5c0,2,0.5,4.3,2.6,6.1C246.3,130.6,248.5,131.4,251.7,131.4z"/>
<path class="st2" d="M267.4,131.4c5.1,0,8.5-3.7,8.5-8.3c0-4.8-3.6-7.7-8.4-7.7c-5.9,0-8.4,4.8-8.4,8
	C259.1,127,261.5,131.4,267.4,131.4z M268,130.5c-4,0-6.6-3.1-6.6-7.8c0-4.5,2.7-6.6,6-6.6c3.3,0,6.3,2.7,6.3,7.5
	C273.6,129.7,269.6,130.5,268,130.5z"/>
<path class="st2" d="M282.7,121.6c0-3.2,0-3.7,0-4.3c0-0.7,0.2-1.1,0.9-1.2c0.2,0,0.5,0,0.6,0c0.1,0,0.3-0.1,0.3-0.2
	s-0.1-0.2-0.3-0.2c-0.7,0-2.1,0.1-2.5,0.1c0,0-1.5-0.1-2.5-0.1c-0.2,0-0.4,0-0.4,0.2c0,0.1,0.1,0.2,0.3,0.2c0.2,0,0.5,0,0.6,0
	c0.8,0.1,0.9,0.5,1,1.2c0,0.6,0,1.2,0,4.3v3.6c0,1.8,0,3.5-0.1,4.4c-0.1,0.6-0.2,1.1-0.6,1.1c-0.2,0-0.4,0-0.6,0
	c-0.2,0-0.3,0.1-0.3,0.1c0,0.1,0.1,0.2,0.4,0.2c0.8,0,1.3-0.1,2.1-0.1c2.4,0,4.2,0.1,5.8,0.1c1.2,0,1.1-0.1,1.3-0.6
	c0.1-0.6,0.3-1.9,0.3-2.2s0-0.3-0.1-0.3c-0.1,0-0.2,0.1-0.2,0.3c0,0.4-0.2,0.8-0.5,1.2c-0.5,0.7-1.5,0.7-2.5,0.7
	c-1.7,0-2.1-0.1-2.5-0.5c-0.4-0.4-0.5-1.8-0.5-4.5V121.6z"/>
<path class="st2" d="M293.9,121.6c0-3.2,0-3.7,0-4.4c0-0.7,0.1-1.1,0.7-1.2c0.2,0,0.4,0,0.5,0c0.1,0,0.3,0,0.3-0.2
	c0-0.1-0.1-0.2-0.3-0.2c-0.6,0-2.1,0.1-2.3,0.1c-0.2,0-1.5-0.1-2.5-0.1c-0.3,0-0.4,0-0.4,0.2c0,0.1,0.1,0.1,0.3,0.1
	c0.2,0,0.5,0,0.6,0c0.7,0.1,0.9,0.5,0.9,1.2c0.1,0.6,0.1,1.2,0.1,4.4v3c0,3,0.7,4.4,1.8,5.4c1.6,1.4,3.8,1.4,4.5,1.4
	c1.3,0,2.8-0.1,4.4-1.4c1.7-1.5,1.9-4.1,1.9-6.2v-2.1c0-3.1,0-3.7,0-4.3c0-0.7,0.1-1.1,0.8-1.2c0.2,0,0.3,0,0.4,0s0.2-0.1,0.2-0.2
	c0-0.1-0.1-0.2-0.3-0.2c-0.7,0-1.7,0.1-1.8,0.1c-0.1,0-1.3-0.1-2.3-0.1c-0.2,0-0.3,0-0.3,0.2c0,0.1,0.1,0.1,0.2,0.1
	c0.2,0,0.5,0,0.7,0c0.8,0.1,0.8,0.5,0.9,1.2c0,0.6,0,1.2,0,4.3v2.5c0,2.1-0.2,3.9-1.2,5c-0.9,1.1-2,1.4-3.3,1.4
	c-1,0-2.1-0.2-3.2-1.1c-0.9-0.8-1.5-2.1-1.5-5V121.6z"/>
<path class="st2" d="M324.7,116c0-0.4-0.1-0.6-0.2-0.6c-0.1,0-0.2,0.1-0.4,0.4l-6.1,12.4l-6.4-12.5c-0.2-0.3-0.2-0.4-0.4-0.4
	c-0.1,0-0.2,0.2-0.3,0.6l-1.6,13.2c-0.1,1-0.3,1.5-0.9,1.6c-0.3,0-0.3,0-0.5,0c-0.2,0-0.3,0.1-0.3,0.1c0,0.2,0.1,0.2,0.4,0.2
	c0.6,0,1.6-0.1,1.8-0.1c0.2,0,1.2,0.1,2,0.1c0.3,0,0.4,0,0.4-0.2c0,0,0-0.1-0.2-0.1c-0.2,0-0.4,0-0.7-0.1c-0.5-0.1-0.6-0.5-0.6-0.7
	c0-0.4,0-0.6,0-0.9l0.9-9.2c0.2,0.5,2.5,5.2,2.7,5.4c0.1,0.2,2.1,4.1,2.4,4.8c0.5,0.8,0.6,1,0.7,1c0.2,0,0.3-0.2,0.7-1.2l5.1-10.3
	l1.1,10.3c0,0.3,0,0.6-0.1,0.7s-0.2,0.1-0.2,0.2c0,0.1,0.2,0.2,0.7,0.2c0.8,0,3.4,0.1,3.8,0.1c0.3,0,0.4-0.1,0.4-0.2
	s-0.2-0.1-0.3-0.1c-0.3,0-0.8-0.1-1.2-0.2c-0.9-0.2-1.1-1.6-1.2-2.1L324.7,116z"/>
<path class="st2" d="M331.9,128.1c0,1.8-0.1,2.4-0.6,2.6c-0.3,0.1-0.6,0.1-0.7,0.1c-0.2,0-0.3,0.1-0.3,0.2c0,0.1,0.1,0.2,0.4,0.2
	c1,0,1.9-0.1,2.1-0.1s1,0.1,2.3,0.1c0.3,0,0.4,0,0.4-0.2c0-0.1-0.1-0.2-0.3-0.2c-0.2,0-0.6,0-1-0.1c-0.6-0.1-0.7-0.8-0.8-2.4
	l-0.3-9.4c0.6,0.6,3,3.1,5.5,5.7c2.1,2,5.4,5.4,5.5,5.4c1.2,1.1,1.4,1.3,1.6,1.3s0.2-0.1,0.2-1.3l0-12c0-1.4,0.2-1.7,0.7-1.8
	c0.3,0,0.5,0,0.6-0.1c0.1,0,0.2-0.1,0.2-0.2c0-0.1-0.1-0.1-0.3-0.1c-0.9,0-1.7,0.1-1.9,0.1c-0.2,0-1.2-0.1-2.3-0.1
	c-0.2,0-0.4,0-0.4,0.1c0,0.1,0,0.2,0.3,0.2c0.2,0,0.5,0,0.9,0.1c0.6,0.2,0.8,0.6,0.8,1.9l0.3,10c-0.6-0.6-3-3-4.9-4.9
	c-3.4-3.4-6.7-6.8-6.9-7.1c-0.2-0.2-0.6-0.6-0.7-0.6c-0.2,0-0.3,0.2-0.3,1C331.9,120.3,331.9,116.6,331.9,128.1z"/>
<path class="st3" d="M34.5,96h451v3h-451V96z"/>
<path class="st2" d="M176.9,62v-4.9h-3c0.7-1.8,1.2-3.3,1.5-4.6h1.7v-5h-6.8v-3.8h-6v3.8h-5.8v5h1.8c0.4,1.5,0.8,3,1.2,4.6h-3.2V62
	h6v1.8h-6v5h4.3c-1.4,2.3-3.2,4.4-5.4,6.2l3,4.8c1.4-1.5,2.8-3.2,4-5.3v6.7h6V75c1.1,1.2,2,2.2,2.8,3.1l0.9-1l3.7,3.9
	c3.6-4.8,5.4-9.9,6.2-19h2.5v18.9h5.9V61.9h2.8v-5.5h-10.9c0-1,0.1-2.5,0.2-4.5c3.9-0.5,7.4-1.3,10.5-2.3l-1.6-5.5
	c-3.9,1.4-8.8,2.3-14.6,2.8c0,15.1-0.8,21.1-3.4,26.3c-1.7-1.6-3.4-3.1-4.9-4.4h6v-5h-6.2V62H176.9z M166.5,57.1
	c-0.2-1-0.6-2.5-1.1-4.6h4.6c-0.4,1.5-0.9,3-1.5,4.6H166.5z"/>
<path class="st2" d="M215.4,79.9h13.8v1.3h6.6v-19h-20.5l0.3-1.1h23.3V57H224v-1.1h11.7v-3.7H224v-1.1h13.7v-4.3h-7.3
	c0.4-0.8,0.8-1.7,1.2-2.5l-6.2-0.8c-0.3,0.7-0.8,1.8-1.6,3.3h-7c-0.6-1.2-1.2-2.3-1.8-3.3l-6,0.9l1.3,2.4h-7.6v4.3h14.5v1.1h-12.5
	v3.7h12.5V57h-15.7v4.1h7.6c-1.6,4.3-4.4,8-8.4,11l3.3,5.3c2-1.6,3.7-3.2,4.9-4.9v8.7h6.4V79.9z M229.2,66.2v1.2h-13.8v-1.2H229.2z
	 M229.2,71.8h-13.8v-1.2h13.8V71.8z M229.2,76.2h-13.8v-1.2h13.8V76.2z"/>
<path class="st2" d="M276.9,48.1h-29v6.2h22l-1.6,17.1h-13.6l-4.6-2.4v8.5h24.1L276.9,48.1z"/>
<path class="st2" d="M317.7,52.2l-0.4-6.1l-21.9,1.6l-4.5-2.1l0.5,8.5L317.7,52.2z M303.4,77.1l5.6,2.8l12.4-23.4h-33.7v6.1H311
	L303.4,77.1z"/>
<path class="st2" d="M359.1,79.7l4.3-4.4c-6-5.5-6.2-10.4-6.3-15.2l-6.2,0.2c0.1,3.2,0.2,6.3,1.1,9.2l-14.9,1.8l9-23.4l-8.9-3
	l1.4,4.8l-10.9,28.6l27.2-3.2C356,76.9,357.5,78.3,359.1,79.7z"/>
</svg>
