<?xml version="1.0" encoding="utf-8"?>
<!-- Generator: Adobe Illustrator 24.1.2, SVG Export Plug-In . SVG Version: 6.00 Build 0)  -->
<svg version="1.1" id="i_x5F_point_1_" xmlns="http://www.w3.org/2000/svg" xmlns:xlink="http://www.w3.org/1999/xlink" x="0px"
	 y="0px" viewBox="0 0 104 114" style="enable-background:new 0 0 104 114;" xml:space="preserve">
<style type="text/css">
	.st0{fill:#595757;}
</style>
<polygon class="st0" points="52.41,112.96 52.41,112.96 52.41,112.96 "/>
<path class="st0" d="M102.54,61.36c-0.69-1.66-1.67-3.28-2.89-4.81c-1.16-1.45-2.57-2.84-4.17-4.14l-0.01,0
	c-4.63-3.74-10.82-6.73-18.37-8.88c-7.5-2.12-16.04-3.24-24.68-3.24c-6.67,0-13.15,0.64-19.26,1.91
	c-5.96,1.24-11.35,3.03-16.02,5.32c-4.84,2.38-8.68,5.21-11.43,8.39l0,0c-1.49,1.73-2.64,3.56-3.42,5.44C1.43,63.38,1,65.48,1,67.59
	v18.07c0,2.11,0.43,4.21,1.27,6.23c0.69,1.66,1.66,3.28,2.89,4.81c1.15,1.43,2.53,2.8,4.12,4.1l0.07,0.05
	c4.65,3.75,10.83,6.74,18.31,8.86l0.1,0.02c7.49,2.11,16.01,3.23,24.65,3.23c6.68,0,13.16-0.65,19.26-1.92
	c5.88-1.22,11.21-2.98,15.84-5.23l0.18-0.09c4.78-2.36,8.6-5.15,11.35-8.3l0.08-0.1c1.46-1.7,2.6-3.51,3.42-5.44
	c0.84-2.02,1.27-4.12,1.27-6.23V67.59C103.81,65.48,103.38,63.38,102.54,61.36z M12.73,97.38l-1.69-1.58
	c-0.6-0.56-1.14-1.12-1.6-1.65c-1.14-1.33-2.02-2.72-2.61-4.13c-0.59-1.42-0.89-2.89-0.89-4.35V74.65l1.78,2.19
	c1,1.22,2.21,2.42,3.58,3.53c0.33,0.26,0.67,0.53,1.02,0.79l0.4,0.3L12.73,97.38z M22.78,102.89l-1.4-0.61
	c-0.71-0.31-1.4-0.62-2.07-0.95c-1.52-0.75-2.97-1.57-4.3-2.44l-0.45-0.3V82.72l1.5,0.86c1.86,1.06,3.91,2.04,6.1,2.92l0.63,0.25
	V102.89z M35.22,106.47l-1.21-0.25c-3.15-0.66-6.6-1.62-9.41-2.62v-0.82V87.44l1.32,0.43c0.86,0.28,1.75,0.55,2.65,0.81
	c1.82,0.51,3.79,0.98,5.84,1.39l0.81,0.16V106.47z M51.49,108.06l-1.02-0.02c-4.23-0.09-8.46-0.46-12.58-1.13l-0.84-0.14V90.55
	l1.16,0.18c3.95,0.61,8.09,0.95,12.31,1.04l0.98,0.02V108.06z M68.24,106.69l-0.84,0.14c-4.3,0.71-8.7,1.12-13.07,1.2l-1.02,0.02
	V91.79l0.98-0.02c4.35-0.08,8.65-0.46,12.78-1.11l1.16-0.18L68.24,106.69z M80.69,103.4l-0.66,0.24c-1.38,0.5-2.82,0.96-4.29,1.37
	c-1.35,0.38-2.8,0.74-4.45,1.1l-1.22,0.26V90.14l0.8-0.16c2.95-0.61,5.81-1.37,8.5-2.27l1.32-0.44V103.4z M90.74,98.26l-0.44,0.3
	c-1.86,1.26-4,2.45-6.38,3.51l-1.42,0.63V86.56l0.62-0.26c1.13-0.47,2.2-0.95,3.18-1.42c0.98-0.49,1.96-1.02,2.92-1.57l1.51-0.89
	v0.05V98.26z M98.87,85.66c0,1.47-0.3,2.93-0.89,4.35c-0.75,1.82-2,3.6-3.71,5.31l-1.71,1.71V81.1l0.17-0.13
	c1.58-1.2,2.93-2.45,4.02-3.72l2.12-2.58L98.87,85.66z M97.98,71.94c-1.02,2.47-2.92,4.84-5.63,7.03
	c-4.05,3.28-9.79,6.04-16.61,7.96c-7.06,2-15.13,3.05-23.38,3.05c-12.51,0-24.25-2.39-33.06-6.73c-4.19-2.06-7.6-4.54-9.87-7.19
	c-1.14-1.33-2.02-2.72-2.61-4.13c-0.6-1.44-0.89-2.87-0.89-4.35c0-1.48,0.29-2.91,0.89-4.35c1.03-2.48,2.92-4.84,5.63-7.03
	c4.06-3.29,9.8-6.04,16.61-7.97c7.05-2,15.12-3.05,23.33-3.05h0.05c12.5,0,24.24,2.39,33.05,6.73c4.19,2.05,7.6,4.54,9.87,7.18
	c1.15,1.33,2.03,2.72,2.61,4.13c0.6,1.44,0.9,2.87,0.9,4.35C98.87,69.08,98.58,70.5,97.98,71.94z"/>
<path class="st0" d="M68.01,19.94l12.81,3.38c0.33,0.07,0.61,0.34,0.68,0.67l3.38,12.73c0.09,0.37,0.42,0.64,0.81,0.64
	c0.39,0,0.72-0.26,0.8-0.64l3.38-12.73c0.07-0.33,0.34-0.6,0.68-0.67l12.81-3.38c0.37-0.07,0.64-0.4,0.64-0.78
	c0-0.39-0.27-0.71-0.64-0.79L90.55,15c-0.33-0.07-0.61-0.34-0.68-0.67L86.49,1.59c-0.09-0.37-0.41-0.64-0.8-0.64
	c-0.38,0-0.72,0.27-0.81,0.64L81.5,14.32c-0.08,0.33-0.35,0.6-0.68,0.67l-12.81,3.38c-0.38,0.07-0.64,0.4-0.64,0.79
	C67.37,19.54,67.63,19.87,68.01,19.94z"/>
<path class="st0" d="M83.65,70.21l-5.81-1.53c-0.15-0.03-0.28-0.15-0.31-0.31l-1.53-5.78c-0.04-0.17-0.19-0.29-0.37-0.29
	c-0.17,0-0.32,0.12-0.37,0.29l-1.53,5.78c-0.03,0.15-0.16,0.27-0.31,0.31l-5.81,1.53c-0.17,0.03-0.29,0.18-0.29,0.36
	c0,0.17,0.12,0.32,0.29,0.36l5.81,1.53c0.15,0.03,0.27,0.16,0.31,0.31l1.53,5.77c0.04,0.17,0.19,0.29,0.37,0.29
	c0.18,0,0.33-0.12,0.37-0.29l1.53-5.77c0.03-0.15,0.16-0.28,0.31-0.31l5.81-1.53c0.17-0.03,0.29-0.18,0.29-0.36
	C83.94,70.39,83.81,70.24,83.65,70.21z"/>
<path class="st0" d="M3.95,31.87l9.15,2.41c0.24,0.05,0.43,0.24,0.49,0.48L16,43.86c0.07,0.27,0.3,0.46,0.58,0.46
	c0.28,0,0.51-0.19,0.58-0.46l2.41-9.09c0.05-0.24,0.25-0.43,0.49-0.48l9.15-2.41c0.27-0.06,0.46-0.3,0.46-0.57
	c0-0.27-0.19-0.5-0.46-0.56l-9.15-2.41c-0.24-0.05-0.44-0.24-0.49-0.48l-2.41-9.1c-0.06-0.26-0.3-0.45-0.58-0.45
	c-0.27,0-0.51,0.19-0.58,0.45l-2.41,9.1c-0.06,0.24-0.25,0.43-0.49,0.48l-9.15,2.41c-0.27,0.06-0.46,0.29-0.46,0.56
	C3.49,31.58,3.68,31.82,3.95,31.87z"/>
<path class="st0" d="M54.18,52.5c-4.88,0.16-7.33,0.14-12.22-0.05c-0.27-0.01-0.46,0.14-0.48,0.38
	c-0.63,10.71-0.94,16.06-1.56,26.77c-0.01,0.24,0.19,0.42,0.52,0.43c3.36,0.14,5.05,0.17,8.41,0.17c0.33,0,0.53-0.17,0.53-0.41
	c0.01-3.43,0.01-5.14,0.01-8.57c0-0.16,0.1-0.25,0.31-0.25c2.04-0.01,3.05-0.03,5.09-0.09c8.4-0.27,12.36-4.75,11.76-10
	C65.92,55.55,61.63,52.26,54.18,52.5z M54.1,64.85c-1.76,0.05-2.64,0.06-4.41,0.08c-0.19,0-0.29-0.08-0.29-0.24
	c0-2.32,0.01-3.48,0.01-5.8c0-0.16,0.09-0.24,0.28-0.25c1.69-0.01,2.54-0.02,4.22-0.07c2.58-0.08,4.1,1.05,4.21,2.96
	C58.23,63.43,56.79,64.77,54.1,64.85z"/>
</svg>
