<?xml version="1.0" encoding="utf-8"?>
<!-- Generator: Adobe Illustrator 24.1.2, SVG Export Plug-In . SVG Version: 6.00 Build 0)  -->
<svg version="1.1" id="i_x5F_top1_1_" xmlns="http://www.w3.org/2000/svg" xmlns:xlink="http://www.w3.org/1999/xlink" x="0px"
	 y="0px" viewBox="0 0 50 58" style="enable-background:new 0 0 50 58;" xml:space="preserve">
<style type="text/css">
	.st0{fill:#E9B9BE;}
</style>
<path class="st0" d="M32,35.89c0-2.1,0.12-6.65,0.12-6.92c0-0.83-0.24-0.99-1.15-0.99h-2.61c-0.91,0-1.5,0.12-2.33,0.47
	c-2.37,1.03-5.1,1.98-7.48,2.69c-0.67,0.2-0.91,0.36-0.91,0.71c0,0.2,0.04,0.44,0.16,0.75l1.38,3.92c0.2,0.59,0.36,0.87,0.71,0.87
	c0.2,0,0.44-0.08,0.75-0.24c1.07-0.47,2.26-0.95,3.6-1.42c0.32-0.12,0.47-0.16,0.63-0.16c0.36,0,0.47,0.28,0.47,0.99v12.66
	c0,2.1-0.12,6.65-0.12,6.92c0,0.83,0.24,0.99,1.15,0.99h4.59c0.91,0,1.15-0.16,1.15-0.99c0-0.28-0.12-4.83-0.12-6.92V35.89z"/>
<path class="st0" d="M8.74,3.47c0-0.59,0.12-0.71,0.71-0.71h0.9c1.06,0,2.78,0.05,3.25,0.05c0.42,0,0.52-0.14,0.52-0.68V1.49
	c0-0.57-0.09-0.71-0.59-0.71c-0.31,0-2.22,0.05-3.32,0.05H5.25c-1.11,0-2.99-0.05-3.3-0.05c-0.5,0-0.59,0.14-0.59,0.71v0.64
	c0,0.54,0.09,0.68,0.52,0.68c0.47,0,2.17-0.05,3.25-0.05h0.85c0.59,0,0.71,0.12,0.71,0.71v8.98c0,0.83,0,2.03-0.05,2.92
	c-0.02,0.61-0.02,1.08-0.02,1.2c0,0.5,0.14,0.59,0.71,0.59H8.1c0.57,0,0.71-0.09,0.71-0.59c0-0.12,0-0.54-0.02-1.11
	c-0.02-0.92-0.05-2.17-0.05-3.02V3.47z"/>
<path class="st0" d="M24.95,0.69c-4.86,0-8.18,3.44-8.18,8.46c0,4.55,3.04,8.16,7.8,8.16c4.38,0,8.25-3.14,8.25-8.56
	C32.83,4.18,29.74,0.69,24.95,0.69z M24.91,2.74c3.44,0,5.75,2.52,5.75,6.11c0,4.05-2.73,6.48-6.01,6.48
	c-3.44,0-5.73-2.57-5.73-6.18S21.23,2.74,24.91,2.74z"/>
<path class="st0" d="M39.24,17.17c0.57,0,0.71-0.09,0.71-0.59c0-0.19-0.02-1.13-0.05-2.1c-0.02-0.71-0.02-1.46-0.02-2.03v-0.73
	c0-0.59,0.12-0.71,0.71-0.71h2.12c4.22,0,5.96-2.4,5.96-5.54c0-3.21-1.93-4.64-5.16-4.64h-2c-1.11,0-2.88-0.05-3.04-0.05
	c-0.52,0-0.68,0.17-0.68,0.68c0,0.17,0.05,2.64,0.05,4.03v6.95c0,0.57,0,1.32-0.02,2.03c-0.02,0.97-0.05,1.91-0.05,2.1
	c0,0.5,0.14,0.59,0.71,0.59H39.24z M39.88,3.4c0-0.59,0.12-0.71,0.71-0.71h2.59c1.74,0,3.39,0.59,3.39,2.97
	c0,2.62-1.74,3.54-3.8,3.54h-2.19c-0.59,0-0.71-0.12-0.71-0.71V3.4z"/>
</svg>
