<?xml version="1.0" encoding="utf-8"?>
<!-- Generator: Adobe Illustrator 24.1.2, SVG Export Plug-In . SVG Version: 6.00 Build 0)  -->
<svg version="1.1" id="i_x5F_points" xmlns="http://www.w3.org/2000/svg" xmlns:xlink="http://www.w3.org/1999/xlink" x="0px"
	 y="0px" viewBox="0 0 513 130" style="enable-background:new 0 0 513 130;" xml:space="preserve">
<style type="text/css">
	.st0{fill:#D3D1D1;}
	.st1{fill:#595757;}
	.st2{fill-rule:evenodd;clip-rule:evenodd;fill:#595757;}
</style>
<path class="st0" d="M476.19,42.73c1.1-0.53,2.84-1.5,3.78-2.75c1.44-1.93,1.29-3.17,0.44-3.8c-0.85-0.63-2.09-0.42-3.53,1.51
	c-0.94,1.26-1.37,3.19-1.56,4.4C475.69,42.13,476.03,42.36,476.19,42.73z"/>
<path class="st0" d="M476.06,43.82c-0.11,0.15-0.26,0.27-0.44,0.35c-0.18,0.08-0.37,0.1-0.56,0.08c-0.09,1.22-0.12,3.2,0.5,4.64
	c0.96,2.21,2.11,2.7,3.09,2.28c0.98-0.42,1.41-1.59,0.45-3.8C478.48,45.93,477.01,44.59,476.06,43.82z"/>
<path class="st0" d="M474.18,43.6c-1.1,0.53-2.84,1.5-3.78,2.75c-1.44,1.93-1.29,3.17-0.44,3.81c0.85,0.63,2.09,0.42,3.53-1.51
	c0.94-1.26,1.37-3.19,1.56-4.4C474.68,44.2,474.34,43.97,474.18,43.6z"/>
<path class="st0" d="M474.17,43.59c-0.16-0.37-0.1-0.77,0.13-1.08c-1.01-0.69-2.72-1.7-4.28-1.88c-2.4-0.28-3.4,0.47-3.53,1.52
	c-0.12,1.05,0.68,2.01,3.08,2.29C471.13,44.63,473.03,44.03,474.17,43.59z"/>
<path class="st0" d="M474.31,42.51c0.11-0.15,0.26-0.27,0.44-0.35c0.18-0.08,0.37-0.1,0.56-0.08c0.09-1.22,0.12-3.2-0.5-4.64
	c-0.96-2.21-2.11-2.7-3.09-2.28c-0.98,0.42-1.41,1.59-0.45,3.8C471.89,40.4,473.35,41.74,474.31,42.51z"/>
<path class="st0" d="M480.8,41.89c-1.56-0.18-3.46,0.41-4.6,0.85c0.16,0.37,0.1,0.77-0.13,1.07c1.01,0.69,2.72,1.7,4.28,1.89
	c2.4,0.28,3.4-0.47,3.53-1.52C484,43.12,483.2,42.16,480.8,41.89z"/>
<path class="st0" d="M416.05,48.29c0.64,0.7,1.75,0.72,3.35-0.72c0.03-0.03,0.06-0.06,0.09-0.09c-0.01,0.04-0.01,0.09-0.02,0.13
	c-0.29,2.13,0.36,3.03,1.3,3.16c0.94,0.13,1.81-0.57,2.1-2.69c0.01-0.04,0.01-0.08,0.01-0.13c0.02,0.04,0.04,0.07,0.07,0.11
	c1.15,1.82,2.23,2.09,3.03,1.59c0.8-0.5,1.02-1.59-0.13-3.41c-0.02-0.04-0.05-0.07-0.07-0.11c0.04,0.01,0.08,0.03,0.12,0.04
	c2.05,0.66,3.06,0.18,3.35-0.72c0.29-0.9-0.25-1.87-2.3-2.53c-0.04-0.01-0.08-0.03-0.12-0.04c0.04-0.01,0.08-0.03,0.12-0.05
	c1.99-0.81,2.45-1.82,2.1-2.7c-0.36-0.87-1.4-1.28-3.39-0.47c-0.04,0.02-0.08,0.03-0.12,0.05c0.02-0.04,0.04-0.07,0.06-0.11
	c1-1.9,0.7-2.97-0.13-3.41c-0.84-0.44-1.9-0.08-2.9,1.81c-0.02,0.04-0.04,0.08-0.06,0.11c-0.01-0.04-0.02-0.08-0.02-0.13
	c-0.45-2.1-1.38-2.72-2.3-2.53c-0.93,0.2-1.51,1.15-1.05,3.25c0.01,0.04,0.02,0.08,0.03,0.12c-0.03-0.03-0.07-0.05-0.1-0.08
	c-1.7-1.31-2.81-1.2-3.39-0.46c-0.58,0.75-0.41,1.85,1.29,3.16c0.03,0.03,0.07,0.05,0.1,0.08c-0.04,0-0.09,0-0.13,0
	c-2.15,0.08-2.93,0.88-2.89,1.82c0.04,0.94,0.87,1.68,3.03,1.6c0.04,0,0.09-0.01,0.13-0.01c-0.03,0.03-0.07,0.06-0.1,0.09
	C415.5,46.48,415.41,47.59,416.05,48.29z"/>
<path class="st0" d="M433.34,111.99l12.82-3.1v-5.61l-12.82-3.1V111.99z M446.25,108.88h5.13v-5.58h-5.13V108.88z M451.46,108.89
	l11.82,3.1v-11.8l-11.82,3.1V108.89z"/>
<path class="st0" d="M446.74,37.99c-0.57-1.31-2.09-1.91-3.41-1.35c-1.31,0.57-1.92,2.09-1.35,3.4c0.57,1.31,2.09,1.91,3.41,1.35
	C446.7,40.82,447.31,39.3,446.74,37.99z"/>
<path class="st0" d="M453.02,16.08c-0.66-3.14-4.04-3.16-5.9-1.24c-0.93-2.5-4.02-3.85-5.9-1.24c-2.22,3.09,2.44,8.59,4.06,9.94
	C447.3,22.96,453.8,19.8,453.02,16.08z"/>
<path class="st1" d="M463.8,47.43c-0.8-0.47-1.98-0.59-2.66-0.62c0.68-0.01,1.87-0.1,2.67-0.55c1.18-0.66,1.39-1.33,1.1-1.85
	c-0.29-0.52-0.98-0.69-2.16-0.03c-0.81,0.45-1.51,1.42-1.87,1.99c0.33-0.59,0.84-1.66,0.86-2.59c0.02-1.36-0.46-1.87-1.06-1.88
	c-0.6-0.01-1.09,0.5-1.1,1.85c-0.01,0.92,0.48,2.01,0.79,2.61c-0.35-0.58-1.02-1.56-1.82-2.03c-1.17-0.69-1.86-0.54-2.16-0.02
	c-0.31,0.51-0.11,1.19,1.06,1.88c0.8,0.47,1.98,0.59,2.66,0.62c-0.68,0.01-1.87,0.1-2.67,0.55c-1.19,0.66-1.39,1.33-1.1,1.85
	c0.29,0.52,0.98,0.69,2.16,0.03c0.81-0.45,1.51-1.42,1.87-1.99c-0.33,0.59-0.85,1.66-0.86,2.59c-0.02,1.35,0.46,1.87,1.06,1.88
	c0.6,0.01,1.09-0.5,1.1-1.85c0.01-0.93-0.48-2.01-0.79-2.61c0.35,0.58,1.02,1.56,1.82,2.03c1.17,0.69,1.86,0.54,2.16,0.02
	C465.17,48.8,464.97,48.12,463.8,47.43z"/>
<path class="st1" d="M464.1,21.28c-1.78,0.77-2.6,2.84-1.83,4.62c0.77,1.78,2.83,2.6,4.6,1.83c1.78-0.77,2.59-2.83,1.83-4.62
	C467.94,21.33,465.88,20.51,464.1,21.28z"/>
<path class="st1" d="M433.93,24.96c1.86-0.36,2.44-1.16,2.28-1.98c-0.16-0.82-0.99-1.35-2.85-0.99c-1.27,0.24-2.62,1.22-3.35,1.82
	c0.69-0.64,1.86-1.83,2.28-3.06c0.62-1.79,0.22-2.69-0.57-2.96c-0.79-0.27-1.66,0.18-2.28,1.97c-0.42,1.22-0.25,2.88-0.1,3.81
	c-0.2-0.92-0.66-2.52-1.51-3.5c-1.24-1.44-2.22-1.53-2.85-0.99c-0.63,0.55-0.68,1.53,0.57,2.97c0.85,0.98,2.37,1.66,3.25,2
	c-0.9-0.28-2.52-0.69-3.79-0.44c-1.86,0.36-2.44,1.16-2.28,1.98c0.16,0.82,0.99,1.35,2.85,0.99c1.27-0.24,2.63-1.22,3.36-1.82
	c-0.69,0.64-1.85,1.84-2.28,3.06c-0.62,1.79-0.22,2.69,0.57,2.96c0.79,0.27,1.66-0.18,2.28-1.97c0.42-1.22,0.25-2.88,0.1-3.82
	c0.2,0.92,0.66,2.52,1.51,3.5c1.24,1.44,2.22,1.53,2.85,0.99c0.63-0.55,0.68-1.53-0.57-2.97c-0.85-0.98-2.37-1.66-3.25-2
	C431.04,24.8,432.65,25.2,433.93,24.96z"/>
<path class="st1" d="M481.14,53.78c-0.27-0.47-0.76-0.76-1.3-0.76h-63.67c-0.54,0-1.04,0.29-1.3,0.76
	c-0.27,0.47-0.26,1.04,0.01,1.51l26.86,45.41l-7.26-1.91c-0.21-0.06-0.42-0.08-0.64-0.08c-0.55,0-1.08,0.18-1.53,0.52
	c-0.61,0.47-0.97,1.2-0.97,1.98v9.82c0,0.77,0.36,1.51,0.97,1.98c0.44,0.34,0.98,0.52,1.53,0.52c0.21,0,0.43-0.03,0.64-0.08
	l6.82-1.79l-4.79,7.15c-0.31,0.46-0.34,1.05-0.08,1.54c0.26,0.49,0.77,0.79,1.32,0.79h20.51c0.55,0,1.06-0.3,1.32-0.79
	c0.26-0.49,0.23-1.08-0.08-1.54l-4.91-7.34l-4.23-1.11c-0.04,0.01-0.08,0.01-0.11,0.01l5.2,7.77h-14.89l5.11-7.64l0.55-0.15
	c0.16,0.03,0.33,0.05,0.5,0.05h3.13c0.17,0,0.34-0.02,0.5-0.05l11.75,3.09c0.21,0.06,0.42,0.08,0.64,0.08
	c0.55,0,1.08-0.18,1.53-0.52c0.61-0.47,0.97-1.21,0.97-1.98v-9.82c0-0.78-0.36-1.51-0.97-1.98c-0.44-0.34-0.98-0.52-1.53-0.52
	c-0.21,0-0.43,0.03-0.64,0.08l-7.95,2.09l26.97-45.59C481.4,54.82,481.41,54.25,481.14,53.78z M433.83,111.03v-9.82l11.81,3.1v3.62
	L433.83,111.03z M449.85,107.91h-3.13v-3.59h3.13V107.91z M462.74,101.21v9.82l-11.81-3.1v-3.62L462.74,101.21z M450.36,101.87
	c-0.16-0.03-0.33-0.05-0.5-0.05h-3.13c-0.17,0-0.34,0.02-0.5,0.05l-0.36-0.09l-27.07-45.76h58.41l-27.11,45.83
	C450.18,101.86,450.27,101.86,450.36,101.87z"/>
<path class="st1" d="M438.28,31.56c1.01,2.34,4.14,4.46,4.14,4.46s0.61-3.73-0.4-6.07c-1.01-2.34-2.23-2.86-3.26-2.42
	C437.73,27.97,437.27,29.21,438.28,31.56z"/>
<path class="st1" d="M431.72,42.08c0.26,1.09,1.4,1.76,3.89,1.17c2.48-0.59,5.11-3.3,5.11-3.3s-3.56-1.25-6.05-0.66
	C432.19,39.88,431.46,40.99,431.72,42.08z"/>
<path class="st1" d="M432.59,33.52c-0.5,1-0.05,2.25,2.23,3.39c2.28,1.15,6.04,0.75,6.04,0.75s-1.93-3.24-4.21-4.39
	C434.36,32.13,433.1,32.52,432.59,33.52z"/>
<path class="st1" d="M437.02,45.16c-1.52,2.05-1.37,3.36-0.47,4.03c0.9,0.67,2.2,0.44,3.73-1.6c1.52-2.05,1.79-5.81,1.79-5.81
	S438.54,43.11,437.02,45.16z"/>
<path class="st1" d="M444.83,51.54c1.12-0.07,1.98-1.08,1.83-3.63c-0.15-2.55-2.37-5.6-2.37-5.6s-1.85,3.29-1.7,5.84
	C442.74,50.7,443.71,51.6,444.83,51.54z"/>
<path class="st1" d="M446.33,41.29c0,0,0.7,3.71,2.46,5.56c1.75,1.86,3.07,1.93,3.89,1.16c0.82-0.77,0.82-2.1-0.93-3.95
	C449.99,42.2,446.33,41.29,446.33,41.29z"/>
<path class="st1" d="M448.28,30.84c0.73-2.45,0.14-3.63-0.94-3.95c-1.08-0.32-2.22,0.34-2.96,2.78c-0.73,2.45,0.31,6.07,0.31,6.07
	S447.55,33.29,448.28,30.84z"/>
<path class="st1" d="M456.42,40.27c0.13-1.12-0.72-2.13-3.25-2.43c-2.54-0.3-5.93,1.36-5.93,1.36s2.92,2.39,5.46,2.68
	C455.23,42.18,456.29,41.39,456.42,40.27z"/>
<path class="st1" d="M450.26,32.16c-2.13,1.4-3.67,4.85-3.67,4.85s3.77-0.05,5.91-1.45c2.13-1.4,2.43-2.69,1.82-3.63
	C453.7,30.99,452.4,30.76,450.26,32.16z"/>
<path class="st1" d="M419.15,32.65c-0.66,0.66-1.73,0.66-2.39,0c-0.66-0.66-0.66-1.73,0-2.39c0.66-0.66,1.73-0.66,2.39,0
	C419.81,30.91,419.81,31.98,419.15,32.65z"/>
<path class="st1" d="M451.24,26.65c-0.66,0.66-1.73,0.66-2.39,0c-0.66-0.66-0.66-1.73,0-2.39c0.66-0.66,1.73-0.66,2.39,0
	C451.9,24.91,451.9,25.99,451.24,26.65z"/>
<path class="st1" d="M464.18,40.11c-0.66,0.66-1.73,0.66-2.39,0c-0.66-0.66-0.66-1.73,0-2.39c0.66-0.66,1.73-0.66,2.39,0
	C464.84,38.37,464.84,39.44,464.18,40.11z"/>
<path class="st1" d="M473.23,23.19c-0.06-0.01-0.13-0.01-0.19-0.02c0.05-0.03,0.11-0.07,0.16-0.1c2.67-1.76,3.04-3.37,2.27-4.54
	c-0.77-1.17-2.4-1.47-5.07,0.29c-0.05,0.04-0.1,0.07-0.16,0.11c0.02-0.06,0.04-0.12,0.06-0.18c0.92-3.06,0.17-4.54-1.18-4.94
	c-1.35-0.4-2.78,0.42-3.7,3.48c-0.02,0.06-0.04,0.12-0.05,0.18c-0.02-0.06-0.05-0.12-0.07-0.18c-1.27-2.93-2.79-3.58-4.08-3.03
	c-1.29,0.56-1.86,2.11-0.59,5.04c0.03,0.06,0.05,0.12,0.08,0.17c-0.06-0.03-0.11-0.06-0.17-0.09c-2.85-1.43-4.44-0.95-5.07,0.3
	c-0.63,1.26-0.07,2.81,2.79,4.24c0.06,0.03,0.11,0.06,0.17,0.08c-0.06,0.01-0.13,0.02-0.19,0.04c-3.11,0.74-4.01,2.12-3.69,3.49
	c0.32,1.37,1.76,2.2,4.86,1.46c0.06-0.02,0.12-0.03,0.18-0.05c-0.04,0.05-0.08,0.1-0.12,0.15c-1.91,2.56-1.71,4.21-0.58,5.04
	c1.13,0.84,2.76,0.56,4.66-2.01c0.04-0.05,0.08-0.1,0.11-0.16c0,0.06,0,0.13,0.01,0.19c0.19,3.19,1.39,4.32,2.8,4.24
	c1.4-0.08,2.47-1.35,2.28-4.53c0-0.06-0.01-0.13-0.01-0.19c0.04,0.05,0.09,0.09,0.13,0.14c2.19,2.32,3.84,2.41,4.87,1.45
	c1.02-0.96,1.03-2.62-1.17-4.94c-0.04-0.05-0.09-0.09-0.14-0.14c0.06,0.01,0.13,0.02,0.19,0.03c3.17,0.37,4.5-0.62,4.66-2.02
	C477.46,24.83,476.4,23.56,473.23,23.19z M466.77,27.12c-1.38,0.59-2.98-0.04-3.57-1.42c-0.59-1.38,0.04-2.98,1.42-3.57
	c1.38-0.59,2.98,0.04,3.57,1.42C468.79,24.93,468.15,26.53,466.77,27.12z"/>
<path class="st1" d="M448,5c33.08,0,60,26.92,60,60s-26.92,60-60,60s-60-26.92-60-60S414.92,5,448,5 M448,1c-35.35,0-64,28.65-64,64
	c0,35.35,28.65,64,64,64c35.35,0,64-28.65,64-64C512,29.65,483.35,1,448,1L448,1z"/>
<path class="st0" d="M293.69,22.76H219.3L210,50.81v3.59c0,3.5,2.82,6.34,6.3,6.34c3.48,0,6.3-2.84,6.3-6.34v-3.59h0.79v3.59
	c0,3.5,2.82,6.34,6.3,6.34c3.48,0,6.3-2.84,6.3-6.34v-3.59h0.79v3.59c0,3.5,2.82,6.34,6.3,6.34c3.48,0,6.3-2.84,6.3-6.34v-3.59h0.79
	v3.59c0,3.5,2.82,6.34,6.3,6.34c3.48,0,6.3-2.84,6.3-6.34v-3.59h0.79v3.59c0,3.5,2.82,6.34,6.3,6.34c3.48,0,6.3-2.84,6.3-6.34v-3.59
	h0.79v3.59c0,3.5,2.82,6.34,6.3,6.34c3.48,0,6.3-2.84,6.3-6.34v-3.59h0.79v3.59c0,3.5,2.82,6.34,6.3,6.34c3.48,0,6.3-2.84,6.3-6.34
	v-3.59L293.69,22.76z"/>
<path class="st1" d="M257,1c-35.35,0-64,28.65-64,64c0,35.35,28.65,64,64,64s64-28.65,64-64C321,29.65,292.35,1,257,1z
	 M212.18,52.31h9.56v2.06c0,2.64-2.14,4.78-4.78,4.78c-2.64,0-4.78-2.14-4.78-4.78V52.31z M297.04,59.16
	c-2.64,0-4.78-2.14-4.78-4.78v-2.06h9.56v2.06C301.82,57.01,299.67,59.16,297.04,59.16z M225.53,52.31h9.56v2.06
	c0,2.64-2.14,4.78-4.78,4.78c-2.64,0-4.78-2.14-4.78-4.78V52.31z M238.87,52.31h9.56v2.06c0,2.64-2.14,4.78-4.78,4.78
	c-2.64,0-4.78-2.14-4.78-4.78V52.31z M252.22,52.31h9.56v2.06c0,2.64-2.14,4.78-4.78,4.78c-2.64,0-4.78-2.14-4.78-4.78V52.31z
	 M265.57,52.31h9.56v2.06c0,2.64-2.14,4.78-4.78,4.78c-2.64,0-4.78-2.14-4.78-4.78V52.31z M278.91,52.31h9.56v2.06
	c0,2.64-2.14,4.78-4.78,4.78s-4.78-2.14-4.78-4.78V52.31z M212.77,49.31l8.26-24.79h71.94l8.26,24.79H212.77z M216.96,62.16
	c2.83,0,5.31-1.53,6.67-3.8c1.36,2.27,3.84,3.8,6.67,3.8c2.83,0,5.31-1.53,6.67-3.8c1.36,2.27,3.84,3.8,6.67,3.8
	c2.83,0,5.31-1.53,6.67-3.8c1.36,2.27,3.84,3.8,6.67,3.8c2.83,0,5.31-1.53,6.67-3.8c1.36,2.27,3.84,3.8,6.67,3.8
	c2.83,0,5.31-1.53,6.67-3.8c1.36,2.27,3.84,3.8,6.67,3.8c2.83,0,5.31-1.53,6.67-3.8c1.36,2.27,3.84,3.8,6.67,3.8
	c0.25,0,0.49-0.01,0.73-0.04v43.35h-6.25V70.97c0-0.83-0.67-1.5-1.5-1.5h-39.34c-0.83,0-1.5,0.67-1.5,1.5v34.51h-32.94V62.12
	C216.48,62.14,216.72,62.16,216.96,62.16z M252.17,105.47V72.47h16.67v33.01H252.17z M271.84,105.47V72.47h16.67v33.01H271.84z
	 M215.71,108.47h34.78c0.06,0.01,0.12,0.02,0.18,0.02h39.34c0.06,0,0.12-0.01,0.18-0.02h8.09C287.52,118.7,272.99,125,257,125
	C241.01,125,226.48,118.7,215.71,108.47z M300.76,105.98V61.2c2.41-1.32,4.05-3.89,4.05-6.83v-3.56c0-0.02-0.01-0.05-0.01-0.07
	c0-0.04-0.01-0.08-0.01-0.12c-0.01-0.07-0.02-0.15-0.04-0.21c-0.01-0.02-0.01-0.04-0.01-0.07l-9.26-27.79
	c-0.2-0.61-0.78-1.03-1.42-1.03h-74.11c-0.65,0-1.22,0.41-1.42,1.03l-9.26,27.79c-0.01,0.02-0.01,0.04-0.01,0.07
	c-0.02,0.07-0.03,0.14-0.04,0.21c-0.01,0.04-0.01,0.08-0.01,0.12c0,0.02-0.01,0.05-0.01,0.07v3.56c0,2.94,1.64,5.5,4.05,6.83v44.78
	C203.18,95.25,197,80.84,197,65c0-33.08,26.92-60,60-60c33.08,0,60,26.92,60,60C317,80.84,310.82,95.25,300.76,105.98z"/>
<path class="st1" d="M223.81,89.95h16.21c0.83,0,1.5-0.67,1.5-1.5V76.92c0-4.69-3.81-8.5-8.5-8.5h-2.21c-4.69,0-8.5,3.81-8.5,8.5
	v11.53C222.31,89.27,222.98,89.95,223.81,89.95z M225.31,76.92c0-3.03,2.47-5.5,5.5-5.5h2.21c3.03,0,5.5,2.47,5.5,5.5v10.03h-13.21
	V76.92z"/>
<path class="st1" d="M236.2,35.58c-1.21-0.42-2.21-0.77-2.21-1.99c0-0.86,0.68-1.85,2.19-1.85c0.57,0,1.04,0.11,1.57,0.31
	c0.27,0.09,0.68,0.24,0.84,0.24c0.53,0,1.02-0.55,1.02-1.24c0-0.38-0.09-0.71-0.55-1c-0.26-0.15-1.48-0.68-2.94-0.68
	c-2.94,0-4.73,2.01-4.73,4.35c0,2.78,2.3,3.58,3.86,4.13c1.28,0.46,2.6,0.91,2.6,2.34c0,1.26-1.17,1.97-2.71,1.97
	c-1.11,0-1.94-0.37-2.36-0.55c-0.37-0.15-0.53-0.22-0.73-0.22c-0.73,0-1.13,0.69-1.13,1.26c0,0.68,0.49,0.95,0.75,1.08
	c1.5,0.75,2.98,0.8,3.56,0.8c3.11,0,5.23-1.86,5.23-4.55C240.46,37.04,238.17,36.26,236.2,35.58z"/>
<path class="st1" d="M252.41,29.36c-1.15,0-1.3,0.71-1.3,1.22v4.75h-5.81v-4.75c0-0.75-0.31-1.22-1.32-1.22
	c-1.15,0-1.3,0.71-1.3,1.22v12.72c0,0.9,0.48,1.22,1.34,1.22c1.28,0,1.28-0.91,1.28-1.22v-5.59h5.81v5.61
	c0,0.88,0.47,1.21,1.32,1.21c1.3,0,1.3-0.91,1.3-1.22V30.59C253.73,29.86,253.42,29.36,252.41,29.36z"/>
<path class="st1" d="M263.64,29.36c-4.15,0-7.55,3.07-7.55,7.59c0,4.5,3.38,7.59,7.55,7.59c4.21,0,7.55-3.13,7.55-7.59
	C271.19,32.47,267.82,29.36,263.64,29.36z M263.64,42.16c-2.91,0-4.94-2.39-4.94-5.21c0-2.81,2.03-5.21,4.94-5.21
	c2.92,0,4.94,2.41,4.94,5.21C268.57,39.75,266.56,42.16,263.64,42.16z"/>
<path class="st1" d="M277.64,29.66h-1.81c-2.29,0-2.29,1.5-2.29,2.34v11.33c0,0.88,0.49,1.21,1.33,1.21c1.13,0,1.28-0.69,1.28-1.21
	v-4.66h1.44c1.43,0,2.58-0.11,3.69-0.93c1.41-1.04,1.59-2.72,1.59-3.51c0-1.43-0.55-2.76-1.61-3.58
	C280.05,29.68,278.62,29.66,277.64,29.66z M277.44,36.27h-1.28v-3.62c0-0.47,0.15-0.62,0.62-0.62h0.66c1.19,0,2.83,0.02,2.83,2.08
	C280.27,36.27,278.73,36.27,277.44,36.27z"/>
<path class="st0" d="M86.42,19.98H42.57c-0.99,0-1.87,0.39-2.53,1.04C39.4,21.67,39,22.55,39,24.58v83.9c0-0.06,0.4,0.82,1.05,1.47
	c0.65,0.65,1.53,1.04,2.53,1.04h43.85c0.99,0,1.87-0.39,2.53-1.04c0.65-0.65,1.05-1.52,1.05-2.51v-83.9c0-0.99-0.4-1.86-1.05-2.51
	C88.3,20.38,87.42,19.98,86.42,19.98z M64.92,109.44c-2.47,0-4.48-2-4.48-4.44c0-2.46,2.01-4.45,4.48-4.45c2.46,0,4.46,2,4.46,4.45
	C69.38,107.45,67.38,109.44,64.92,109.44z M87.02,97.02c0,1.15-0.94,2.09-2.1,2.09H44.08c-1.16,0-2.1-0.94-2.1-2.09V27.67
	c0-1.15,0.94-2.09,2.1-2.09h40.84c1.16,0,2.1,0.94,2.1,2.09V97.02z"/>
<path class="st1" d="M62.21,71.42c0,0.79-0.22,1.85-1.96,1.85c-1.29,0-2.05-0.5-2.05-1.85V55.21c0-1.29,0-3.59,3.51-3.59h2.78
	c1.51,0,3.7,0.03,5.58,1.51c1.63,1.26,2.47,3.31,2.47,5.5c0,1.21-0.28,3.79-2.44,5.38c-1.71,1.26-3.48,1.43-5.67,1.43h-2.22V71.42z
	 M62.21,61.77h1.96c1.99,0,4.35,0,4.35-3.31c0-3.17-2.52-3.2-4.35-3.2h-1.01c-0.73,0-0.95,0.22-0.95,0.95V61.77z"/>
<path class="st1" d="M64.56,48.32c7.79,0,14.13,6.34,14.13,14.13c0,7.79-6.34,14.13-14.13,14.13c-7.79,0-14.13-6.34-14.13-14.13
	C50.43,54.65,56.77,48.32,64.56,48.32 M64.56,45.32c-9.46,0-17.13,7.67-17.13,17.13s7.67,17.13,17.13,17.13
	c9.46,0,17.13-7.67,17.13-17.13S74.02,45.32,64.56,45.32L64.56,45.32z"/>
<path class="st1" d="M65,1C29.65,1,1,29.65,1,65s28.65,64,64,64s64-28.65,64-64S100.35,1,65,1z M20.73,105.46
	c-0.19-1.69-0.34-3.5-0.34-5.47c0-1.94,0.26-4.51,0.72-7.36c1.36-8.56,4.42-19.68,6.5-25.93c0.54-1.63,0.7-3.42,0.71-5.33
	c0-3.39-0.55-7.21-1.08-10.98c-0.53-3.77-1.04-7.49-1.04-10.47c0-1.69,0.17-3.13,0.51-4.15c0.17-0.51,0.37-0.91,0.58-1.21
	c0.22-0.3,0.44-0.51,0.72-0.68c1.14-0.68,1.99-0.87,2.64-0.87c0.65,0,1.17,0.18,1.7,0.51c0.78,0.49,1.5,1.37,1.97,2.15
	c0.24,0.39,0.41,0.74,0.52,0.99c0.01,0.02,0.01,0.03,0.02,0.04v70.94c0,2.13,0.87,4.09,2.27,5.48c1.4,1.4,3.35,2.27,5.48,2.27
	c0,0,0,0,0,0h33.57c-0.54,0.44-1.1,0.9-1.68,1.39c-1.79,1.49-3.76,3.18-5.65,4.92c-1.19,1.09-2.34,2.2-3.41,3.3
	c-0.15,0-0.3,0.01-0.45,0.01C47.49,125,31.71,117.46,20.73,105.46z M39.06,108.68V24.6c0-2.04,0.4-2.92,1.04-3.57
	c0.65-0.65,1.53-1.04,2.52-1.04h43.74c0.99,0,1.87,0.4,2.52,1.04c0.65,0.65,1.04,1.53,1.04,2.52v84.09c0,0.99-0.4,1.87-1.04,2.52
	c-0.65,0.65-1.53,1.04-2.52,1.04H42.62c-0.99,0-1.87-0.4-2.52-1.04C39.47,109.52,39.08,108.68,39.06,108.68
	C39.06,108.68,39.06,108.68,39.06,108.68z M71.9,124.59c2.68-2.45,5.54-4.83,7.75-6.61c1.13-0.91,2.09-1.67,2.77-2.2
	c0.2-0.15,0.36-0.28,0.51-0.39h3.43c0,0,0,0,0,0c2.13,0,4.08-0.87,5.48-2.27c1.4-1.4,2.27-3.35,2.27-5.48v-3.92
	c0.84,0.25,1.73,0.37,2.64,0.37c1.37,0,2.79-0.28,4.12-0.93c1.32-0.65,2.54-1.73,3.29-3.24c0.77-1.53,1.1-3.21,1.1-4.85
	c-0.01-2.28-0.64-4.52-1.93-6.33c-0.65-0.9-1.47-1.7-2.48-2.28c-1-0.57-2.18-0.91-3.43-0.91c-0.01,0-0.01,0-0.02,0
	c-0.01,0-0.02,0-0.02,0c-1.24,0-2.34,0.25-3.28,0.67v-1.24c0.92,0.29,1.89,0.43,2.89,0.44c1.43,0,2.91-0.29,4.29-0.97
	c1.37-0.68,2.64-1.8,3.42-3.36c0.8-1.6,1.15-3.34,1.15-5.05c-0.01-2.38-0.67-4.72-2.01-6.61c-0.67-0.94-1.53-1.77-2.58-2.36
	c-1.04-0.59-2.26-0.94-3.56-0.94c-0.01,0-0.01,0-0.01,0c-0.01,0-0.02,0-0.02,0c-1.36,0-2.56,0.3-3.56,0.77v-1.34
	c0.74,0.25,1.59,0.4,2.52,0.4c0,0,0.01,0,0.01,0c0.82,0,1.7-0.11,2.65-0.34c2.16-0.53,3.93-1.89,5.11-3.62
	c1.18-1.74,1.82-3.85,1.83-6.07c0.01-2.92-1.14-6.04-3.65-8.54c-1.03-1.03-2.07-1.78-3.12-2.27c-0.54-0.26-1.09-0.44-1.63-0.55
	c0.32-0.43,0.65-0.87,0.98-1.33c1.32-1.85,2.65-3.95,3.68-6.14c1.02-2.19,1.78-4.45,1.79-6.76c0-1.01-0.15-2.03-0.53-3
	c-0.38-0.99-0.85-1.84-1.41-2.57c-0.83-1.09-1.85-1.87-2.92-2.33c-1.06-0.47-2.14-0.63-3.12-0.63c0,0,0,0,0,0
	c-0.86,0-1.63,0.13-2.33,0.29c-0.3-1.55-1.06-2.94-2.13-4.01c-1.4-1.4-3.35-2.27-5.48-2.27c0,0,0,0,0,0H42.62c0,0,0,0,0,0
	c-2.13,0-4.08,0.87-5.48,2.27c-1.4,1.4-2.27,3.35-2.27,5.48v6.62c-0.09-0.06-0.17-0.13-0.27-0.19c-1.06-0.67-2.41-1.16-3.92-1.16
	c-0.01,0-0.01,0-0.02,0c0,0-0.01,0-0.01,0c-1.52,0-3.15,0.48-4.79,1.47c-0.79,0.47-1.46,1.11-1.97,1.83
	c-0.77,1.08-1.22,2.32-1.5,3.63c-0.27,1.31-0.37,2.7-0.37,4.17c0,3.43,0.55,7.28,1.08,11.05c0.53,3.77,1.04,7.47,1.04,10.4
	c0,1.65-0.17,3.05-0.49,4.01c-1.44,4.32-3.28,10.72-4.78,17.16c-0.75,3.22-1.41,6.44-1.88,9.43c-0.47,2.93-0.76,5.61-0.77,7.88
	C9.16,90.02,5,77.99,5,65C5,31.92,31.92,5,65,5c33.08,0,60,26.92,60,60C125,95.75,101.75,121.16,71.9,124.59z M94.11,98.97v-6.62
	c0.02-0.09,0.05-0.23,0.11-0.41c0.14-0.44,0.43-1.02,0.88-1.43c0.23-0.21,0.49-0.39,0.85-0.53c0.36-0.14,0.82-0.24,1.47-0.24
	c0.54,0,0.97,0.13,1.38,0.36c0.61,0.34,1.19,0.99,1.62,1.88c0.43,0.88,0.67,1.99,0.67,3.09c0,1.06-0.23,2.11-0.66,2.97
	c-0.31,0.61-0.77,1.04-1.42,1.36c-0.63,0.32-1.45,0.49-2.24,0.49c0,0-0.01,0-0.01,0c-0.01,0-0.03,0-0.04,0
	c-0.89,0-1.73-0.24-2.18-0.52c-0.23-0.14-0.35-0.27-0.39-0.33C94.1,98.98,94.11,99,94.11,98.97z M94.11,80.14v-6.99
	c0.02-0.09,0.05-0.25,0.12-0.46c0.15-0.48,0.46-1.11,0.95-1.55c0.25-0.23,0.54-0.42,0.93-0.58c0.39-0.15,0.9-0.26,1.58-0.26
	c0.59,0,1.06,0.14,1.51,0.39c0.67,0.38,1.29,1.07,1.75,2.02c0.46,0.95,0.72,2.13,0.72,3.3c0,1.13-0.24,2.25-0.71,3.18
	c-0.34,0.67-0.84,1.13-1.54,1.49c-0.69,0.35-1.56,0.53-2.4,0.53c0,0-0.01,0-0.01,0c-0.01,0-0.03,0-0.04,0
	c-0.95,0-1.86-0.26-2.35-0.56c-0.25-0.15-0.39-0.3-0.45-0.38C94.11,80.19,94.11,80.19,94.11,80.14z M94.58,49.23
	c0.25-0.19,0.54-0.36,0.84-0.48c0.3-0.12,0.61-0.18,0.95-0.19c0.36,0,0.77,0.07,1.31,0.32c0.53,0.25,1.18,0.69,1.94,1.44
	c1.74,1.74,2.42,3.73,2.43,5.58c0,1.4-0.42,2.72-1.09,3.71c-0.68,0.99-1.59,1.65-2.65,1.92c-0.66,0.16-1.2,0.22-1.65,0.22
	c-0.64,0-1.08-0.11-1.43-0.26c-0.51-0.22-0.83-0.52-1.03-0.78c-0.03-0.04-0.05-0.07-0.07-0.1V49.63
	C94.24,49.5,94.39,49.36,94.58,49.23z M94.11,42.49V26.39c0.03-0.01,0.05-0.02,0.09-0.03c0.6-0.21,1.37-0.38,2.08-0.38
	c0,0,0.01,0,0.01,0c0.35,0,0.68,0.04,0.99,0.12c0.46,0.13,0.88,0.33,1.3,0.72c0.42,0.39,0.86,1,1.25,2
	c0.16,0.42,0.25,0.91,0.25,1.49c0.01,1.33-0.51,3.12-1.39,4.97C97.51,37.79,95.72,40.41,94.11,42.49z"/>
<path class="st1" d="M84.85,25.59H44.12c-1.16,0-2.1,0.94-2.1,2.1V97.2c0,1.16,0.94,2.1,2.1,2.1h40.73c1.16,0,2.1-0.94,2.1-2.1
	V27.69C86.95,26.53,86.01,25.59,84.85,25.59L84.85,25.59z M45.17,96.15V28.74h38.64v67.41H45.17L45.17,96.15z"/>
<path class="st1" d="M64.91,102.74c1.35,0,2.45,1.1,2.45,2.46c0,1.35-1.1,2.45-2.45,2.45c-1.36,0-2.46-1.1-2.46-2.45
	C62.45,103.84,63.55,102.74,64.91,102.74 M64.91,100.74c-2.46,0-4.46,2-4.46,4.46c0,2.45,2,4.45,4.46,4.45c2.45,0,4.45-2,4.45-4.45
	C69.36,102.74,67.36,100.74,64.91,100.74L64.91,100.74z"/>
<path class="st1" d="M69.55,41.36l3.74,0.99c0.1,0.02,0.18,0.1,0.2,0.2l0.99,3.74c0.03,0.11,0.12,0.19,0.24,0.19
	c0.11,0,0.21-0.08,0.23-0.19l0.99-3.74c0.02-0.1,0.1-0.18,0.2-0.2l3.74-0.99c0.11-0.02,0.19-0.12,0.19-0.23
	c0-0.11-0.08-0.21-0.19-0.23l-3.74-0.99c-0.1-0.02-0.18-0.1-0.2-0.2l-0.99-3.74c-0.03-0.11-0.12-0.19-0.23-0.19
	c-0.11,0-0.21,0.08-0.24,0.19l-0.99,3.74c-0.02,0.1-0.1,0.18-0.2,0.2l-3.74,0.99c-0.11,0.02-0.19,0.12-0.19,0.23
	C69.36,41.24,69.44,41.34,69.55,41.36z"/>
<path class="st1" d="M47.57,81.83l2.71,0.72c0.07,0.01,0.13,0.07,0.14,0.14l0.72,2.71c0.02,0.08,0.09,0.14,0.17,0.14
	c0.08,0,0.15-0.06,0.17-0.14l0.72-2.71c0.02-0.07,0.07-0.13,0.14-0.14l2.71-0.72c0.08-0.01,0.14-0.09,0.14-0.17
	c0-0.08-0.06-0.15-0.14-0.17l-2.71-0.72c-0.07-0.02-0.13-0.07-0.14-0.14l-0.72-2.71c-0.02-0.08-0.09-0.14-0.17-0.14
	c-0.08,0-0.15,0.06-0.17,0.14l-0.72,2.71c-0.02,0.07-0.07,0.13-0.14,0.14l-2.71,0.72c-0.08,0.02-0.14,0.09-0.14,0.17
	C47.43,81.74,47.49,81.81,47.57,81.83z"/>
<path class="st1" d="M58.17,85.68l2.21,0.59c0.06,0.01,0.1,0.06,0.12,0.12l0.58,2.21c0.02,0.06,0.07,0.11,0.14,0.11
	c0.07,0,0.12-0.05,0.14-0.11l0.58-2.21c0.01-0.06,0.06-0.1,0.12-0.12l2.21-0.59c0.06-0.01,0.11-0.07,0.11-0.14
	c0-0.07-0.05-0.12-0.11-0.14l-2.21-0.58c-0.06-0.01-0.1-0.06-0.12-0.12l-0.58-2.21c-0.02-0.06-0.07-0.11-0.14-0.11
	c-0.07,0-0.12,0.05-0.14,0.11l-0.58,2.21c-0.01,0.06-0.06,0.1-0.12,0.12l-2.21,0.58c-0.06,0.01-0.11,0.07-0.11,0.14
	C58.06,85.61,58.1,85.66,58.17,85.68z"/>
<ellipse transform="matrix(0.4383 -0.8988 0.8988 0.4383 20.7799 163.2503)" class="st2" cx="141" cy="65" rx="4" ry="4"/>
<ellipse transform="matrix(0.3369 -0.9415 0.9415 0.3369 45.5557 194.6866)" class="st2" cx="161" cy="65" rx="4" ry="4"/>
<ellipse transform="matrix(0.4383 -0.8988 0.8988 0.4383 43.2494 199.2042)" class="st2" cx="181" cy="65" rx="4" ry="4"/>
<ellipse transform="matrix(0.4383 -0.8988 0.8988 0.4383 128.6335 335.8289)" class="st2" cx="333" cy="65" rx="4" ry="4"/>
<ellipse transform="matrix(0.3369 -0.9415 0.9415 0.3369 172.8664 375.4608)" class="st2" cx="353" cy="65" rx="4" ry="4"/>
<ellipse transform="matrix(0.4383 -0.8988 0.8988 0.4383 151.103 371.7828)" class="st2" cx="373" cy="65" rx="4" ry="4"/>
</svg>
